<?xml version="1.0" encoding="utf-8"?>
<!-- Generator: Adobe Illustrator 16.0.0, SVG Export Plug-In . SVG Version: 6.00 Build 0)  -->
<!DOCTYPE svg PUBLIC "-//W3C//DTD SVG 1.1//EN" "http://www.w3.org/Graphics/SVG/1.1/DTD/svg11.dtd">
<svg version="1.1" id="Layer_1" xmlns="http://www.w3.org/2000/svg" xmlns:xlink="http://www.w3.org/1999/xlink" x="0px" y="0px"
	 width="34px" height="34px" viewBox="0 0 34 34" enable-background="new 0 0 34 34" xml:space="preserve">
<path opacity="0.3" fill-rule="evenodd" clip-rule="evenodd" fill="#3F4956" d="M23.363,10.636c-1.562-1.562-1.562-4.095,0-5.656
	c1.562-1.562,4.096-1.562,5.658,0c1.562,1.562,1.562,4.095,0,5.656C27.459,12.198,24.926,12.198,23.363,10.636z"/>
<path opacity="0.4" fill-rule="evenodd" clip-rule="evenodd" fill="#3F4956" d="M26,17c0-2.209,1.791-4,4-4s4,1.791,4,4
	s-1.791,4-4,4S26,19.209,26,17z"/>
<path opacity="0.5" fill-rule="evenodd" clip-rule="evenodd" fill="#3F4956" d="M28.82,28.852c-1.538,1.537-4.031,1.537-5.57,0
	c-1.537-1.539-1.537-4.032,0-5.57c1.539-1.538,4.032-1.538,5.57,0S30.358,27.312,28.82,28.852z"/>
<path opacity="0.6" fill-rule="evenodd" clip-rule="evenodd" fill="#3F4956" d="M17,26c2.209,0,4,1.791,4,4s-1.791,4-4,4
	s-4-1.791-4-4S14.791,26,17,26z"/>
<path opacity="0.7" fill-rule="evenodd" clip-rule="evenodd" fill="#3F4956" d="M4.979,29.021c-1.562-1.562-1.562-4.096,0-5.658
	c1.562-1.562,4.095-1.562,5.656,0c1.562,1.562,1.562,4.096,0,5.658C9.074,30.583,6.541,30.583,4.979,29.021z"/>
<path opacity="0.8" fill-rule="evenodd" clip-rule="evenodd" fill="#3F4956" d="M0,17c0-2.209,1.791-4,4-4s4,1.791,4,4s-1.791,4-4,4
	S0,19.209,0,17z"/>
<path opacity="0.9" fill-rule="evenodd" clip-rule="evenodd" fill="#3F4956" d="M10.719,10.749c-1.538,1.538-4.032,1.538-5.57,0
	s-1.538-4.031,0-5.569s4.032-1.538,5.57,0S12.257,9.211,10.719,10.749z"/>
<path fill-rule="evenodd" clip-rule="evenodd" fill="#3F4956" d="M17,0c2.209,0,4,1.791,4,4s-1.791,4-4,4s-4-1.791-4-4
	S14.791,0,17,0z"/>
</svg>
