<?xml version="1.0" encoding="utf-8"?>
<!-- Generator: Adobe Illustrator 16.0.0, SVG Export Plug-In . SVG Version: 6.00 Build 0)  -->
<!DOCTYPE svg PUBLIC "-//W3C//DTD SVG 1.1//EN" "http://www.w3.org/Graphics/SVG/1.1/DTD/svg11.dtd">
<svg version="1.1" id="Layer_1" xmlns="http://www.w3.org/2000/svg" xmlns:xlink="http://www.w3.org/1999/xlink" x="0px" y="0px"
	 width="100px" height="100px" viewBox="0 0 100 100" enable-background="new 0 0 100 100" xml:space="preserve">
<g id="Mark_7_">
	<path id="Hex_11_" fill="#2BC56D" d="M49.998,99.312c-5.577,0-39.843-19.801-42.634-24.653c-2.791-4.856-2.775-44.458,0-49.313
		C10.14,20.489,44.419,0.688,49.998,0.688c5.576,0,39.842,19.85,42.635,24.656c2.789,4.807,2.787,44.481-0.004,49.312
		C89.84,79.486,55.572,99.312,49.998,99.312z"/>
	<path id="Mark_9_" fill="#FFFFFF" d="M42.531,28.031c-0.125,4.966-0.229,14.379-0.343,19.559c5.242,0,10.3,0,15.48,0
		c0-1.948,0.021-3.821-0.006-5.689c-0.053-3.302-0.121-7.038-0.229-10.34c-0.02-0.653,0.182-0.979,0.812-0.984
		c2.135-0.015,4.273-0.017,6.408-0.003c0.666,0.004,0.881,0.337,0.869,1.042c-0.145,7.401-0.309,15.238-0.33,22.641
		c-0.016,4.604,0.197,13.558,0.309,18.163L65.5,72.796c1.828,0.068,3.186,0.187,3.354,0.356c0.561,0.562-6.527,7.462-7.289,7.462
		c-0.764,0-7.976-6.9-7.416-7.462c0.166-0.168,1.492-0.287,3.285-0.354v-0.494c0.141-4.206,0.197-12.684,0.279-16.893
		c0.01-0.39,0-0.777,0-1.254c-5.177,0-10.235,0-15.413,0c0,2.02-0.034,4,0.007,5.978c0.05,2.61,0.125,5.659,0.256,8.268
		c0.044,0.877-0.304,1.182-1.108,1.179c-1.952-0.007-3.909-0.007-5.864,0c-0.791,0.001-1.132-0.287-1.107-1.171
		c0.147-5.369,0.328-11.174,0.322-16.543C34.8,45.446,34.63,34.539,34.5,28.117l-0.001-0.712c-1.826-0.067-3.182-0.187-3.351-0.356
		c-0.563-0.562,6.649-7.461,7.41-7.461c0.762,0,7.853,6.899,7.293,7.461c-0.168,0.169-1.51,0.287-3.321,0.354V28.031z"/>
</g>
</svg>
