<?xml version="1.0" encoding="utf-8"?>
<!-- Generator: Adobe Illustrator 16.0.0, SVG Export Plug-In . SVG Version: 6.00 Build 0)  -->
<!DOCTYPE svg PUBLIC "-//W3C//DTD SVG 1.1//EN" "http://www.w3.org/Graphics/SVG/1.1/DTD/svg11.dtd">
<svg version="1.1" id="Layer_1" xmlns="http://www.w3.org/2000/svg" xmlns:xlink="http://www.w3.org/1999/xlink" x="0px" y="0px"
	 width="2705.441px" height="692px" viewBox="0 0 2705.441 692" enable-background="new 0 0 2705.441 692" xml:space="preserve">
<g id="HackerRank_X">
	<g>
		<g id="Hexagon_2_">
			
				<image overflow="visible" opacity="0.15" enable-background="new    " width="572" height="628" xlink:href="../../../../../Documents/Dropbox/branding/assets 2.0/Wordmark HackerRankX/32F1CEF7102736EE.png"  transform="matrix(1 0 0 1 27 38)">
			</image>
			<g>
				<g>
					
						<linearGradient id="SVGID_1_" gradientUnits="userSpaceOnUse" x1="687.2358" y1="233.6475" x2="687.2358" y2="-40" gradientTransform="matrix(1 0 0 1 -292 81)">
						<stop  offset="0" style="stop-color:#25A559"/>
						<stop  offset="1" style="stop-color:#30CE68"/>
					</linearGradient>
					<path fill="url(#SVGID_1_)" d="M312.971,41c-14.651,0-61.362,22.151-111.534,49.901l387.597,223.747
						c-1.113-57.23-5.307-108.562-12.612-121.145c-6.163-10.626-37.215-33.152-76.09-57.697L396.677,75.972
						C357.854,55.612,324.861,41,312.971,41z"/>
					
						<linearGradient id="SVGID_2_" gradientUnits="userSpaceOnUse" x1="633.6157" y1="359.6641" x2="633.6157" y2="9.9014" gradientTransform="matrix(1 0 0 1 -292 81)">
						<stop  offset="0" style="stop-color:#25A559"/>
						<stop  offset="1" style="stop-color:#30CE68"/>
					</linearGradient>
					<path fill="url(#SVGID_2_)" d="M93.892,156.453l492.351,284.211c2.708-35.907,3.643-82.633,2.791-126.018L201.437,90.901
						C163.426,111.923,123.458,136.136,93.892,156.453z"/>
					
						<linearGradient id="SVGID_3_" gradientUnits="userSpaceOnUse" x1="604.9409" y1="455.2988" x2="604.9409" y2="75.4536" gradientTransform="matrix(1 0 0 1 -292 81)">
						<stop  offset="0" style="stop-color:#25A559"/>
						<stop  offset="1" style="stop-color:#30CE68"/>
					</linearGradient>
					<path fill="url(#SVGID_3_)" d="M93.892,156.453c-23.217,15.938-40.028,29.451-44.371,37.051
						c-4.447,7.779-7.735,30.065-9.882,59.246l491.18,283.549c23.83-16.282,41.171-30.109,45.603-37.803
						c4.396-7.614,7.659-29.314,9.821-57.832L93.892,156.453z"/>
					
						<linearGradient id="SVGID_4_" gradientUnits="userSpaceOnUse" x1="575.814" y1="521.9492" x2="575.8137" y2="171.5381" gradientTransform="matrix(1 0 0 1 -292 81)">
						<stop  offset="0" style="stop-color:#25A559"/>
						<stop  offset="1" style="stop-color:#30CE68"/>
					</linearGradient>
					<path fill="url(#SVGID_4_)" d="M530.999,536.179L39.654,252.539c-2.725,36.841-3.611,84.725-2.648,128.712l384.037,221.698
						C459.633,581.716,500.626,556.944,530.999,536.179z"/>
					
						<linearGradient id="SVGID_5_" gradientUnits="userSpaceOnUse" x1="521.0244" y1="570" x2="521.0244" y2="300.251" gradientTransform="matrix(1 0 0 1 -292 81)">
						<stop  offset="0" style="stop-color:#25A559"/>
						<stop  offset="1" style="stop-color:#30CE68"/>
					</linearGradient>
					<path fill="url(#SVGID_5_)" d="M37.006,381.251c1.22,55.576,5.381,104.831,12.515,117.245
						C66.77,528.532,278.512,651,312.971,651c14.313,0,59.225-21.174,108.072-48.051L37.006,381.251z"/>
				</g>
			</g>
		</g>
		<g id="H_2_">
			
				<image overflow="visible" opacity="0.1" enable-background="new    " width="316" height="426" xlink:href="../../../../../Documents/Dropbox/branding/assets 2.0/Wordmark HackerRankX/32F1CEF7102736F2.png"  transform="matrix(1 0 0 1 154.9995 136)">
			</image>
			<g>
				<path fill="#FFFFFF" d="M364.757,369.868v105.574h-17.819c-3.62,0-6.551,2.935-6.551,6.545c0,2.37,1.256,4.438,3.138,5.591
					l40.05,38.391c1.197,1.564,3.574,2.753,5.697,2.753c2.168,0,4.087-1.128,5.275-2.753l42.669-38.396
					c1.873-1.151,3.123-3.222,3.123-5.584c0-3.61-2.936-6.545-6.551-6.545h-17.881l-0.153-255.099c0-3.613-2.868-6.547-6.483-6.547
					h-37.929c-3.62,0-6.585,2.934-6.585,6.547v98.478l-103.554-0.016v-102.25h17.821c3.619,0,6.55-2.935,6.55-6.547
					c0-2.37-1.257-4.438-3.137-5.59l-40.051-38.389c-1.197-1.565-3.575-2.755-5.697-2.755c-2.167,0-4.086,1.13-5.274,2.755
					l-42.671,38.396c-1.873,1.15-3.122,3.219-3.122,5.582c0,3.612,2.935,6.547,6.551,6.547h17.881l0.153,255.099
					c0,3.611,2.868,6.547,6.483,6.547h37.928c3.62,0,6.585-2.936,6.585-6.547V369.868H364.757z"/>
			</g>
		</g>
		<path fill="#FFFFFF" d="M2078.633,454.707c-21.197-34.658-42.503-69.25-63.735-103.884c-1.818-2.965-3.367-6.097-5.366-9.74
			c4.734-1.432,8.245-2.392,11.688-3.551c31.931-10.738,51.603-37.057,52.614-70.331c1.202-39.408-19.442-66.994-57.794-76.526
			c-8.672-2.154-17.672-3.869-26.562-4.091c-28.631-0.715-57.278-0.693-85.923-0.846c-16.653-0.089-16.949,0.262-16.952,16.477
			c-0.014,84.614-0.012,169.229,0.004,253.845c0.001,2.993,0.031,6,0.302,8.979c0.374,4.158,2.521,6.954,6.938,7.023
			c8.991,0.141,17.987,0.114,26.979,0.06c4.371-0.027,6.741-2.636,7.335-6.719c0.381-2.616,0.234-5.317,0.234-7.98
			c0.013-33.312,0.009-66.626,0.009-99.938c0-3.622,0-7.244,0-12.85c10.021,0,18.614,0.285,27.177-0.101
			c5.708-0.258,9.183,1.737,11.998,6.786c7.135,12.792,14.796,25.289,22.261,37.896c14.759,24.93,29.615,49.8,44.224,74.818
			c3.102,5.312,6.451,8.802,13.271,8.293c7.288-0.545,14.656,0.082,21.976-0.191c4.725-0.177,10.554,2.021,13.429-3.827
			C2085.428,462.835,2081.154,458.83,2078.633,454.707z M1983.255,306.126c-16.846,1.336-33.863,0.522-50.809,0.555
			c-0.917,0.002-1.835-0.532-3.367-1.01c0-26.777,0-53.546,0-80.347c0.457-0.409,0.938-1.217,1.437-1.229
			c21.894-0.508,43.82-2.031,65.589,1.782c3.257,0.571,6.508,1.387,9.632,2.465c22.689,7.829,32.979,31.217,23.508,53.317
			c-3.289,7.676-8.75,13.798-16.402,16.607C2003.271,301.779,1993.28,305.332,1983.255,306.126z M1373.675,390.282
			c-0.146,3.212-0.409,6.423-0.415,9.635c-0.04,20.332,0.042,40.664-0.054,60.996c-0.047,9.812-1.35,11.099-10.813,11.268
			c-6.663,0.119-13.34,0.201-19.995-0.052c-6.91-0.262-8.557-2.105-8.972-9.146c-0.115-1.993-0.035-3.998-0.035-5.998
			c0-91.328,0.002-182.655,0.005-273.983c0-2.333-0.104-4.674,0.05-6.997c0.41-6.281,2.293-8.589,8.35-8.863
			c7.65-0.346,15.339-0.334,22.991-0.008c6.247,0.267,7.984,2.343,8.396,8.728c0.171,2.656,0.06,5.331,0.06,7.997
			c0.003,50.997-0.006,101.994,0.024,152.99c0.002,3.53,0.291,7.062,0.531,12.521c3.579-2.975,5.855-4.624,7.853-6.562
			c20.071-19.515,40.188-38.985,60.062-58.701c4.088-4.054,8.282-6.062,14.088-5.847c9.652,0.357,19.329,0.062,28.994,0.118
			c3.938,0.023,8.354-0.64,10.022,4.406c1.536,4.641-1.399,7.438-4.469,10.214c-24.224,21.912-48.416,43.857-72.604,65.808
			c-2.938,2.665-5.797,5.416-9.143,8.549c2.049,2.341,3.622,4.4,5.457,6.197c27.617,27.056,55.27,54.072,82.911,81.103
			c1.668,1.631,3.833,3.003,4.865,4.969c1.276,2.43,2.831,5.83,2.011,7.931c-0.819,2.104-4.281,4.012-6.836,4.41
			c-4.558,0.715-9.305,0.336-13.968,0.229c-8.958-0.209-18.854,1.722-26.598-1.49c-7.396-3.067-12.635-11.461-18.667-17.663
			c-17.896-18.395-35.705-36.869-53.563-55.298c-2.733-2.821-5.545-5.569-8.319-8.354
			C1375.152,389.685,1374.413,389.983,1373.675,390.282z M2558.74,390.562c0,6.298,0,12.597,0,18.895
			c0,17.325,0.1,34.651-0.04,51.977c-0.072,8.831-1.858,10.542-10.502,10.738c-6.327,0.146-12.663,0.146-18.99,0.003
			c-8.752-0.197-10.197-1.729-10.579-10.688c-0.085-1.996-0.033-3.998-0.033-5.997c-0.001-90.626-0.006-181.252,0.002-271.878
			c0.001-16.409,0.205-16.592,16.856-16.595c4.998-0.001,10.013-0.222,14.987,0.122c5.516,0.38,7.664,2.647,8.2,8.091
			c0.263,2.642,0.097,5.326,0.097,7.991c0.004,50.978,0.004,101.955,0.004,152.932c0,3.604,0,7.206,0,13.454
			c4.344-3.721,7.058-5.798,9.487-8.164c19.095-18.596,38.268-37.111,57.104-55.963c5.055-5.058,10.17-7.796,17.532-7.27
			c8.616,0.617,17.313,0.092,25.978,0.167c4.229,0.037,9.079-0.983,11.188,4.287c2.098,5.242-1.955,7.966-5.1,10.823
			c-24.157,21.966-48.37,43.874-72.551,65.812c-2.688,2.438-5.285,4.976-8.703,8.199c2.556,2.754,4.634,5.189,6.91,7.42
			c27.375,26.803,54.779,53.575,82.176,80.357c1.429,1.396,3.354,2.569,4.143,4.271c1.168,2.522,2.705,5.865,1.889,8.033
			c-0.78,2.074-4.322,4.292-6.723,4.376c-12.312,0.428-24.673,0.624-36.957-0.105c-3.362-0.198-7.054-3.354-9.688-6.043
			c-22.153-22.6-44.091-45.413-66.112-68.143c-2.7-2.787-5.521-5.457-8.286-8.182
			C2560.268,389.843,2559.503,390.203,2558.74,390.562z M1703.403,359.734c-3.387-49.81-37.969-83.175-83.651-85.875
			c-39.718-2.346-70.796,12.417-92.104,46.27c-12.332,19.591-16.312,41.454-14.171,64.212c3.817,40.556,23.698,70.115,61.984,85.668
			c22.012,8.942,44.857,8.767,67.659,2.753c20.354-5.364,36.628-17.087,49.99-33.073c5.911-7.074,5.629-10.024-1.258-15.729
			c-3.076-2.547-6.274-4.947-9.424-7.407c-12.072-9.433-11.906-9.282-21.942,2.096c-16.958,19.223-38.216,26.559-62.995,19.743
			c-23.641-6.5-37.407-22.927-42.733-48.761c5.135-0.247,9.021-0.594,12.905-0.598c39.631-0.04,79.262-0.023,118.894-0.028
			c2.662,0,5.341,0.112,7.987-0.1c6.993-0.56,8.705-2.018,9.08-9.221C1703.972,373.057,1703.854,366.364,1703.403,359.734z
			 M1556.251,353.971c0.918-3.562,1.294-6.46,2.388-9.054c13.689-32.431,47.974-43.22,77.104-30.466
			c16.098,7.048,23.911,21.027,26.583,39.52C1626.361,353.971,1591.929,353.971,1556.251,353.971z M1090.77,460.113
			c-0.964-13.272-1.922-26.57-2.102-39.867c-0.337-24.993,0.207-49.998-0.199-74.989c-0.604-37.09-20.149-61.914-55.501-69.337
			c-30.63-6.432-59.62-1.188-86.089,16.002c-3.335,2.166-6.479,4.723-9.354,7.474c-5.081,4.859-5.246,7.422-1.135,12.934
			c2.188,2.933,4.688,5.636,7.054,8.437c10.08,11.935,9.977,11.79,22.764,2.432c18.379-13.455,38.896-17.144,60.678-11.125
			c15.904,4.394,24.232,18.742,21.226,35.23c-11.089,0.479-22.387,0.849-33.668,1.478c-17.695,0.983-35.178,3.392-51.805,9.856
			c-15.713,6.111-29.332,15.274-35.397,31.721c-12.463,33.778-0.067,68.988,36.678,81.872c15.831,5.551,32.08,5.479,48.37,2.827
			c14.489-2.354,26.971-9.168,39.345-20.231c0.943,4.084,1.479,6.232,1.937,8.399c1.596,7.573,2.87,8.742,10.608,8.947
			c5.329,0.144,10.666,0.115,15.997,0.018C1090.146,472.003,1091.497,470.137,1090.77,460.113z M981.646,438.709
			c-8.646-3.017-15.099-8.199-17.318-17.653c-2.562-10.905,0.093-18.938,9.445-25.14c4.381-2.903,9.276-5.373,14.285-6.921
			c19.576-6.047,39.741-6.993,60.642-6.635C1053.97,422.724,1018.665,451.626,981.646,438.709z M2269.824,461.05
			c-1.129-12.261-2.296-24.561-2.479-36.856c-0.416-28.325,0.271-56.675-0.46-84.985c-0.752-29.1-17.894-51.255-45.352-60.742
			c-17.816-6.156-36.038-6.211-54.291-3.092c-17.679,3.02-33.852,9.903-47.816,21.39c-8.509,6.997-8.735,9.778-1.938,18.083
			c2.742,3.354,5.51,6.69,8.376,9.938c6.278,7.116,8.424,7.403,15.631,1.342c14.782-12.435,31.784-17.342,50.96-16.535
			c18.396,0.774,36.071,10.047,35.785,37.058c-3.688,0.386-6.9,0.861-10.131,1.027c-8.985,0.462-17.991,0.604-26.968,1.219
			c-16.663,1.144-33.125,3.529-48.854,9.486c-14.768,5.592-27.312,14.132-34.645,28.575c-15.743,31.01-2.961,69.334,29.116,82.562
			c30.504,12.579,60.573,10.616,88.009-9.785c1.75-1.304,3.705-2.328,6.086-3.807c0.716,3.044,1.202,5.293,1.771,7.521
			c2.021,7.903,2.723,8.54,10.812,8.729c5.663,0.136,11.336,0.153,16.997-0.011C2268.982,471.921,2270.605,469.544,2269.824,461.05z
			 M2187.829,440.384c-8.695,1.076-18.007,0.133-26.611-1.786c-10.525-2.348-17.209-9.521-18.462-20.953
			c-1.265-11.529,4.044-19.172,13.821-24.203c3.826-1.973,7.817-3.813,11.94-4.98c19.069-5.394,38.618-6.353,58.764-6.294
			C2232.482,405.231,2217.809,436.676,2187.829,440.384z M2348.055,294.642c4.06-2.836,6.711-4.761,9.437-6.581
			c24.499-16.371,50.866-18.994,78.17-9.103c23.422,8.484,35.354,27.307,40.845,50.562c1.741,7.375,2.407,15.151,2.46,22.754
			c0.247,35.634,0.111,71.27,0.101,106.902c0,2.33,0.614,5.037-0.353,6.896c-1.221,2.345-3.662,5.528-5.771,5.682
			c-8.942,0.646-17.961,0.43-26.944,0.255c-3.818-0.073-6.127-2.429-6.439-6.308c-0.213-2.649-0.155-5.323-0.157-7.986
			c-0.012-28.642,0.133-57.283-0.094-85.923c-0.068-8.962-0.636-17.981-1.824-26.86c-2.007-14.954-7.739-28.007-23.483-32.937
			c-16.555-5.186-32.358-3.377-45.801,8.688c-9.832,8.826-14.772,20.459-17.027,33.147c-1.274,7.17-1.793,14.554-1.847,21.847
			c-0.206,27.976-0.051,55.95-0.104,83.925c-0.021,11.553-1.032,12.509-12.523,12.603c-5.662,0.047-11.326,0.12-16.984-0.027
			c-8.347-0.218-9.957-1.812-10.292-9.856c-0.108-2.66-0.137-5.262-0.14-7.926c0-5.821,0.07-95.313-0.101-142.938
			c-0.026-7.645-1.019-15.28-1.254-22.93c-0.254-8.166,1.489-9.902,9.793-10.125c5.989-0.161,11.988-0.115,17.981-0.018
			c9.222,0.149,10.047,0.943,11.323,10.041C2347.246,290.009,2347.545,291.586,2348.055,294.642z M1226.087,477.448
			c-29.403-0.572-55.155-9.393-75.847-30.776c-14.099-14.569-22.503-32.162-25.581-52.063c-3.752-24.264-1.465-47.839,10.432-69.834
			c15.738-29.102,40.656-44.944,72.881-50.026c20.598-3.247,40.447-0.608,59.521,7.884c11.46,5.103,21.302,12.355,29.208,22.084
			c5.051,6.214,4.697,9.335-1.545,14.131c-5.542,4.261-11.299,8.245-17.054,12.221c-4.166,2.877-8.142,2.712-11.37-1.551
			c-14.232-18.771-33.577-23.12-55.288-18.385c-22.434,4.895-36.773,19.472-43.426,41.188c-5.545,18.104-4.64,36.145,2.992,53.678
			c17.816,40.934,74.042,44.966,96.596,16.573c5.718-7.195,7.536-6.942,14.949-1.691c4.346,3.079,8.611,6.279,12.82,9.544
			c7.659,5.941,8.136,9.272,1.829,16.275c-12.11,13.445-26.769,23.067-44.506,27.097
			C1244.001,475.768,1234.969,476.275,1226.087,477.448z M1781.479,294.048c3.235-2.457,5.072-3.814,6.871-5.221
			c17.613-13.773,37.588-17.752,59.319-14.166c8.309,1.37,9.963,3.597,9.15,12.218c-0.53,5.627-1.397,11.226-2.223,16.821
			c-1.419,9.647-3.64,10.867-13.271,9.78c-7.193-0.812-14.652-1.355-21.762-0.363c-13.065,1.822-22.389,9.627-28.474,21.255
			c-5.831,11.145-8.343,23.082-8.34,35.604c0.006,28.975-0.005,57.945-0.012,86.92c0,2.329,0.143,4.678-0.071,6.988
			c-0.53,5.75-2.404,7.974-7.928,8.188c-7.98,0.312-15.99,0.316-23.971,0.003c-5.867-0.233-7.416-2.01-8.021-8.032
			c-0.298-2.971-0.152-5.988-0.154-8.984c-0.008-35.634-0.054-105.187-0.054-106.897c-0.091-18.976-0.622-37.946-1.071-56.917
			c-0.28-11.901,0.404-12.771,11.872-12.88c5.328-0.051,10.658-0.091,15.984,0.016c8.713,0.175,9.33,0.743,11.093,9.413
			C1780.745,289.373,1780.964,290.974,1781.479,294.048z M706.574,344.25c0,0-0.029,118.254-0.029,120.921
			c0,4.688-3.087,6.949-7.909,6.972c-8.664,0.039-17.328,0.049-25.991-0.022c-4.852-0.041-7.672-2.722-7.672-7.471
			c0-2.556,0.005-262.897,0.005-263.938c0.003-14.499,0.503-14.946,15.322-14.992c4.666-0.015,9.333-0.062,13.997,0.022
			c10.76,0.194,12.13,1.548,12.263,12.094c0.067,5.331,0.017,101.158,0.017,106.223h134.919c0-5.064-0.054-100.393,0.014-105.724
			c0.133-10.546,1.504-11.899,12.265-12.094c4.663-0.084,9.33-0.037,13.995-0.022c14.82,0.046,15.319,0.493,15.322,14.992
			c0,1.039,0.005,261.383,0.005,263.938c0,4.748-2.817,7.43-7.671,7.471c-8.664,0.071-17.328,0.062-25.992,0.022
			c-4.82-0.021-7.907-2.284-7.907-6.972c0-2.667-0.028-121.42-0.028-121.42H706.574z"/>
	</g>
</g>
</svg>
