<?xml version="1.0" encoding="utf-8"?>
<!-- Generator: Adobe Illustrator 16.0.0, SVG Export Plug-In . SVG Version: 6.00 Build 0)  -->
<!DOCTYPE svg PUBLIC "-//W3C//DTD SVG 1.1//EN" "http://www.w3.org/Graphics/SVG/1.1/DTD/svg11.dtd">
<svg version="1.1" id="Layer_1" xmlns="http://www.w3.org/2000/svg" xmlns:xlink="http://www.w3.org/1999/xlink" x="0px" y="0px"
	 width="3000px" height="692px" viewBox="0 0 3000 692" enable-background="new 0 0 3000 692" xml:space="preserve">
<g id="HackerRank_X">
	<g>
		<g id="Hexagon_2_">
			
				<image overflow="visible" opacity="0.15" enable-background="new    " width="572" height="628" xlink:href="32F1CEF7102736EE.png"  transform="matrix(1 0 0 1 27 38)">
			</image>
			<g>
				<g>
					
						<linearGradient id="SVGID_1_" gradientUnits="userSpaceOnUse" x1="541.2349" y1="92.3535" x2="541.2349" y2="366.0005" gradientTransform="matrix(1 0 0 -1 -146 407)">
						<stop  offset="0" style="stop-color:#25A559"/>
						<stop  offset="1" style="stop-color:#30CE68"/>
					</linearGradient>
					<path fill="url(#SVGID_1_)" d="M312.971,41c-14.651,0-61.362,22.151-111.534,49.901l387.597,223.746
						c-1.113-57.23-5.306-108.562-12.612-121.144c-6.163-10.626-37.215-33.152-76.09-57.697L396.677,75.972
						C357.854,55.612,324.861,41,312.971,41z"/>
					
						<linearGradient id="SVGID_2_" gradientUnits="userSpaceOnUse" x1="487.6147" y1="-33.6636" x2="487.6147" y2="316.0991" gradientTransform="matrix(1 0 0 -1 -146 407)">
						<stop  offset="0" style="stop-color:#25A559"/>
						<stop  offset="1" style="stop-color:#30CE68"/>
					</linearGradient>
					<path fill="url(#SVGID_2_)" d="M93.892,156.453l492.351,284.211c2.708-35.907,3.643-82.633,2.791-126.018L201.437,90.901
						C163.426,111.923,123.458,136.136,93.892,156.453z"/>
					
						<linearGradient id="SVGID_3_" gradientUnits="userSpaceOnUse" x1="458.9409" y1="-129.2983" x2="458.9409" y2="250.5469" gradientTransform="matrix(1 0 0 -1 -146 407)">
						<stop  offset="0" style="stop-color:#25A559"/>
						<stop  offset="1" style="stop-color:#30CE68"/>
					</linearGradient>
					<path fill="url(#SVGID_3_)" d="M93.892,156.453c-23.217,15.938-40.028,29.451-44.371,37.051
						c-4.447,7.779-7.735,30.065-9.882,59.246l491.18,283.549c23.83-16.282,41.171-30.11,45.603-37.803
						c4.396-7.614,7.659-29.314,9.821-57.832L93.892,156.453z"/>
					
						<linearGradient id="SVGID_4_" gradientUnits="userSpaceOnUse" x1="429.8145" y1="-195.9492" x2="429.8143" y2="154.4609" gradientTransform="matrix(1 0 0 -1 -146 407)">
						<stop  offset="0" style="stop-color:#25A559"/>
						<stop  offset="1" style="stop-color:#30CE68"/>
					</linearGradient>
					<path fill="url(#SVGID_4_)" d="M530.999,536.179L39.654,252.539c-2.725,36.841-3.611,84.725-2.648,128.712l384.037,221.698
						C459.633,581.716,500.626,556.944,530.999,536.179z"/>
					
						<linearGradient id="SVGID_5_" gradientUnits="userSpaceOnUse" x1="375.0239" y1="-243.9995" x2="375.0239" y2="25.7495" gradientTransform="matrix(1 0 0 -1 -146 407)">
						<stop  offset="0" style="stop-color:#25A559"/>
						<stop  offset="1" style="stop-color:#30CE68"/>
					</linearGradient>
					<path fill="url(#SVGID_5_)" d="M37.006,381.251c1.22,55.576,5.381,104.831,12.515,117.245
						C66.77,528.532,278.512,651,312.971,651c14.313,0,59.225-21.174,108.072-48.051L37.006,381.251z"/>
				</g>
			</g>
		</g>
		<g id="H_2_">
			
				<image overflow="visible" opacity="0.1" enable-background="new    " width="316" height="426" xlink:href="32F1CEF7102736F2.png"  transform="matrix(1 0 0 1 155 136)">
			</image>
			<g>
				<path fill="#FFFFFF" d="M364.757,369.868v105.574h-17.819c-3.62,0-6.551,2.935-6.551,6.545c0,2.37,1.256,4.439,3.138,5.591
					l40.05,38.391c1.197,1.564,3.574,2.753,5.697,2.753c2.168,0,4.087-1.128,5.275-2.753l42.669-38.396
					c1.873-1.151,3.123-3.222,3.123-5.584c0-3.61-2.936-6.545-6.551-6.545h-17.881l-0.153-255.099c0-3.613-2.868-6.547-6.483-6.547
					h-37.929c-3.62,0-6.585,2.934-6.585,6.547v98.478l-103.554-0.015v-102.25h17.821c3.619,0,6.55-2.935,6.55-6.547
					c0-2.37-1.257-4.438-3.137-5.59l-40.051-38.389c-1.197-1.565-3.575-2.755-5.697-2.755c-2.167,0-4.086,1.13-5.274,2.755
					l-42.671,38.396c-1.873,1.15-3.122,3.219-3.122,5.582c0,3.612,2.935,6.547,6.551,6.547h17.881l0.153,255.099
					c0,3.612,2.868,6.547,6.483,6.547h37.928c3.62,0,6.585-2.935,6.585-6.547V369.868H364.757z"/>
			</g>
		</g>
		<path fill="#FFFFFF" d="M2078.633,454.707c-21.197-34.658-42.503-69.25-63.736-103.884c-1.818-2.965-3.367-6.096-5.366-9.74
			c4.734-1.432,8.245-2.392,11.688-3.551c31.93-10.738,51.602-37.057,52.614-70.331c1.202-39.408-19.442-66.994-57.794-76.526
			c-8.672-2.154-17.672-3.869-26.562-4.091c-28.631-0.715-57.279-0.693-85.923-0.846c-16.654-0.089-16.95,0.262-16.952,16.477
			c-0.014,84.614-0.012,169.229,0.003,253.845c0.001,2.993,0.032,6,0.302,8.979c0.374,4.158,2.521,6.954,6.939,7.023
			c8.991,0.141,17.987,0.115,26.979,0.06c4.371-0.027,6.741-2.636,7.335-6.719c0.381-2.616,0.234-5.317,0.234-7.98
			c0.013-33.312,0.009-66.626,0.009-99.938c0-3.622,0-7.244,0-12.849c10.022,0,18.614,0.285,27.177-0.101
			c5.708-0.258,9.183,1.737,11.998,6.786c7.135,12.792,14.796,25.289,22.261,37.896c14.759,24.929,29.615,49.8,44.223,74.818
			c3.102,5.312,6.452,8.802,13.271,8.293c7.288-0.545,14.656,0.082,21.976-0.191c4.724-0.177,10.553,2.021,13.428-3.827
			C2085.428,462.835,2081.154,458.83,2078.633,454.707z M1983.255,306.126c-16.846,1.336-33.863,0.522-50.809,0.555
			c-0.917,0.002-1.835-0.533-3.367-1.01c0-26.777,0-53.546,0-80.347c0.457-0.409,0.938-1.217,1.437-1.229
			c21.893-0.508,43.82-2.031,65.588,1.782c3.257,0.571,6.508,1.387,9.632,2.465c22.69,7.829,32.979,31.217,23.508,53.317
			c-3.289,7.676-8.75,13.798-16.402,16.607C2003.271,301.779,1993.28,305.332,1983.255,306.126z M2838.855,355.741
			c-3.041,4.288-5.354,7.412-7.525,10.63c-21.997,32.586-44.116,65.092-65.821,97.872c-3.975,6.002-8.377,8.675-15.512,8.241
			c-7.97-0.484-15.992-0.042-23.989-0.143c-3.882-0.048-8.242,0.895-10.553-3.695c-2.225-4.419,0.513-7.646,2.792-10.909
			c17.551-25.134,35.13-50.246,52.693-75.371c12.218-17.479,24.438-34.953,36.631-52.448c5.31-7.618,5.315-7.665-0.216-15.513
			c-26.108-37.039-52.266-74.044-78.323-111.118c-2.772-3.945-7.498-7.726-4.862-13.282c2.753-5.803,8.692-3.664,13.432-3.838
			c7.322-0.269,14.687,0.301,21.986-0.175c6.836-0.445,10.938,2.352,14.671,7.952c19.218,28.834,38.792,57.429,58.27,86.089
			c2.009,2.954,4.19,5.79,7.146,9.854c2.76-3.884,4.859-6.72,6.834-9.642c19.211-28.437,38.578-56.771,57.46-85.426
			c4.13-6.269,8.525-9.437,16.21-8.859c8.287,0.623,16.663-0.074,24.983,0.248c8.054,0.311,10.517,4.957,6.655,11.98
			c-1.117,2.033-2.603,3.866-3.937,5.779c-25.353,36.349-50.707,72.694-76.053,109.047c-2.076,2.979-4.082,6.003-6.477,9.53
			c2.179,3.262,4.114,6.286,6.173,9.226c28.863,41.213,57.757,82.403,86.598,123.632c2.794,3.993,7.179,7.877,4.316,13.394
			c-2.718,5.238-8.186,3.382-12.644,3.522c-6.991,0.22-14.048-0.475-20.981,0.196c-8.086,0.782-12.656-2.688-16.992-9.219
			c-21.741-32.756-43.944-65.206-66.004-97.751C2843.814,362.591,2841.688,359.721,2838.855,355.741z M1373.675,390.282
			c-0.146,3.212-0.409,6.423-0.415,9.635c-0.04,20.332,0.042,40.664-0.054,60.996c-0.047,9.812-1.35,11.099-10.813,11.268
			c-6.664,0.119-13.34,0.201-19.996-0.052c-6.91-0.262-8.556-2.106-8.971-9.146c-0.116-1.993-0.035-3.998-0.035-5.998
			c0-91.328,0.002-182.655,0.004-273.983c0-2.333-0.104-4.674,0.05-6.997c0.41-6.281,2.293-8.589,8.35-8.863
			c7.65-0.346,15.339-0.334,22.991-0.008c6.247,0.267,7.984,2.343,8.395,8.728c0.171,2.656,0.06,5.331,0.06,7.997
			c0.003,50.997-0.006,101.994,0.024,152.99c0.002,3.53,0.291,7.062,0.532,12.521c3.579-2.975,5.855-4.624,7.852-6.562
			c20.071-19.515,40.188-38.986,60.062-58.701c4.088-4.054,8.282-6.062,14.088-5.847c9.652,0.357,19.329,0.062,28.994,0.118
			c3.938,0.023,8.353-0.64,10.022,4.406c1.536,4.641-1.399,7.438-4.469,10.214c-24.223,21.912-48.416,43.857-72.604,65.808
			c-2.938,2.665-5.797,5.416-9.143,8.548c2.049,2.341,3.622,4.401,5.457,6.198c27.617,27.055,55.27,54.072,82.911,81.102
			c1.668,1.631,3.833,3.003,4.866,4.969c1.276,2.43,2.831,5.83,2.01,7.931c-0.819,2.103-4.281,4.011-6.836,4.41
			c-4.557,0.715-9.304,0.336-13.967,0.229c-8.958-0.209-18.855,1.722-26.598-1.49c-7.396-3.067-12.635-11.461-18.667-17.663
			c-17.895-18.395-35.705-36.869-53.563-55.298c-2.734-2.821-5.545-5.569-8.32-8.353
			C1375.152,389.685,1374.413,389.983,1373.675,390.282z M2558.74,390.562c0,6.298,0,12.597,0,18.895
			c0,17.325,0.1,34.651-0.04,51.977c-0.072,8.831-1.858,10.542-10.502,10.738c-6.327,0.146-12.663,0.146-18.99,0.003
			c-8.752-0.197-10.197-1.729-10.579-10.688c-0.085-1.996-0.033-3.998-0.033-5.997c-0.001-90.626-0.006-181.252,0.002-271.878
			c0.001-16.409,0.205-16.592,16.856-16.595c4.998-0.001,10.013-0.222,14.987,0.122c5.516,0.38,7.664,2.647,8.201,8.091
			c0.262,2.642,0.096,5.326,0.096,7.991c0.004,50.978,0.004,101.955,0.004,152.932c0,3.604,0,7.206,0,13.454
			c4.344-3.72,7.058-5.797,9.488-8.164c19.094-18.595,38.267-37.111,57.103-55.963c5.055-5.058,10.17-7.796,17.532-7.27
			c8.617,0.617,17.314,0.092,25.978,0.167c4.229,0.037,9.079-0.983,11.188,4.287c2.098,5.242-1.955,7.966-5.099,10.823
			c-24.157,21.966-48.37,43.873-72.551,65.812c-2.688,2.438-5.285,4.975-8.703,8.199c2.556,2.754,4.634,5.189,6.91,7.42
			c27.375,26.803,54.78,53.575,82.176,80.357c1.429,1.396,3.354,2.57,4.142,4.271c1.169,2.522,2.705,5.865,1.889,8.033
			c-0.78,2.074-4.322,4.292-6.722,4.376c-12.312,0.428-24.673,0.624-36.958-0.105c-3.362-0.199-7.053-3.354-9.687-6.043
			c-22.153-22.6-44.091-45.413-66.112-68.143c-2.7-2.787-5.521-5.457-8.286-8.182
			C2560.268,389.843,2559.503,390.203,2558.74,390.562z M1703.403,359.734c-3.386-49.809-37.968-83.175-83.651-85.874
			c-39.718-2.346-70.796,12.417-92.104,46.27c-12.332,19.591-16.312,41.454-14.17,64.212c3.817,40.555,23.698,70.115,61.984,85.668
			c22.012,8.942,44.857,8.766,67.659,2.753c20.354-5.365,36.628-17.087,49.99-33.074c5.912-7.074,5.629-10.024-1.257-15.728
			c-3.076-2.547-6.275-4.947-9.424-7.407c-12.073-9.433-11.907-9.282-21.943,2.095c-16.958,19.223-38.215,26.559-62.995,19.744
			c-23.64-6.5-37.407-22.927-42.733-48.761c5.135-0.247,9.021-0.594,12.905-0.598c39.631-0.04,79.262-0.023,118.894-0.028
			c2.662,0,5.34,0.112,7.987-0.1c6.993-0.559,8.705-2.017,9.08-9.22C1703.972,373.057,1703.854,366.364,1703.403,359.734z
			 M1556.251,353.971c0.918-3.562,1.294-6.46,2.388-9.054c13.689-32.431,47.973-43.22,77.103-30.466
			c16.098,7.048,23.911,21.027,26.583,39.52C1626.361,353.971,1591.929,353.971,1556.251,353.971z M1090.77,460.113
			c-0.964-13.272-1.922-26.57-2.102-39.867c-0.337-24.993,0.207-49.998-0.199-74.989c-0.604-37.09-20.15-61.914-55.501-69.337
			c-30.63-6.432-59.62-1.188-86.089,16.002c-3.335,2.166-6.48,4.723-9.355,7.474c-5.081,4.859-5.246,7.422-1.134,12.934
			c2.188,2.933,4.687,5.636,7.053,8.437c10.08,11.934,9.977,11.79,22.764,2.431c18.379-13.455,38.896-17.143,60.678-11.125
			c15.904,4.394,24.232,18.742,21.225,35.231c-11.089,0.478-22.386,0.848-33.668,1.477c-17.695,0.984-35.177,3.392-51.804,9.857
			c-15.713,6.111-29.332,15.274-35.398,31.72c-12.463,33.779-0.067,68.989,36.678,81.872c15.831,5.551,32.08,5.479,48.37,2.828
			c14.489-2.354,26.971-9.168,39.345-20.232c0.943,4.084,1.479,6.233,1.936,8.4c1.596,7.573,2.87,8.742,10.609,8.947
			c5.329,0.143,10.666,0.115,15.997,0.017C1090.146,472.003,1091.497,470.137,1090.77,460.113z M981.646,438.709
			c-8.646-3.017-15.098-8.199-17.318-17.653c-2.562-10.906,0.093-18.939,9.445-25.14c4.381-2.903,9.277-5.373,14.286-6.921
			c19.576-6.047,39.741-6.993,60.641-6.635C1053.97,422.724,1018.665,451.626,981.646,438.709z M2269.824,461.05
			c-1.129-12.261-2.296-24.561-2.478-36.857c-0.416-28.325,0.271-56.674-0.46-84.985c-0.752-29.1-17.894-51.255-45.352-60.742
			c-17.816-6.156-36.038-6.211-54.291-3.092c-17.678,3.02-33.851,9.903-47.816,21.39c-8.509,6.997-8.736,9.778-1.939,18.084
			c2.742,3.354,5.51,6.69,8.376,9.938c6.278,7.116,8.424,7.403,15.631,1.342c14.782-12.435,31.784-17.342,50.96-16.535
			c18.396,0.774,36.071,10.047,35.785,37.057c-3.688,0.386-6.9,0.862-10.131,1.028c-8.985,0.462-17.991,0.604-26.967,1.219
			c-16.663,1.143-33.125,3.529-48.854,9.486c-14.767,5.592-27.311,14.132-34.644,28.575c-15.744,31.01-2.961,69.334,29.116,82.562
			c30.504,12.579,60.573,10.616,88.009-9.786c1.75-1.303,3.705-2.328,6.086-3.806c0.715,3.044,1.202,5.293,1.771,7.521
			c2.021,7.904,2.723,8.54,10.813,8.73c5.663,0.135,11.336,0.153,16.997-0.011C2268.982,471.921,2270.605,469.544,2269.824,461.05z
			 M2187.829,440.384c-8.695,1.076-18.007,0.133-26.611-1.786c-10.526-2.348-17.209-9.521-18.462-20.953
			c-1.265-11.53,4.044-19.172,13.821-24.204c3.826-1.972,7.817-3.813,11.94-4.98c19.07-5.394,38.619-6.353,58.764-6.294
			C2232.482,405.231,2217.809,436.676,2187.829,440.384z M2348.055,294.642c4.059-2.836,6.711-4.761,9.436-6.581
			c24.499-16.371,50.867-18.994,78.17-9.103c23.422,8.484,35.355,27.307,40.845,50.562c1.741,7.375,2.407,15.151,2.46,22.753
			c0.247,35.634,0.111,71.27,0.1,106.903c0,2.33,0.615,5.037-0.352,6.895c-1.221,2.345-3.662,5.529-5.77,5.682
			c-8.943,0.646-17.961,0.43-26.945,0.255c-3.818-0.073-6.127-2.429-6.439-6.308c-0.213-2.649-0.156-5.323-0.158-7.986
			c-0.011-28.642,0.133-57.283-0.093-85.923c-0.069-8.962-0.636-17.981-1.825-26.86c-2.006-14.954-7.739-28.007-23.483-32.937
			c-16.555-5.185-32.358-3.377-45.801,8.688c-9.832,8.826-14.772,20.459-17.027,33.147c-1.274,7.17-1.793,14.554-1.847,21.847
			c-0.206,27.975-0.051,55.95-0.104,83.925c-0.021,11.552-1.033,12.508-12.524,12.602c-5.662,0.047-11.326,0.12-16.984-0.027
			c-8.347-0.218-9.957-1.812-10.292-9.857c-0.109-2.66-0.137-5.261-0.14-7.925c0-5.822,0.07-95.314-0.101-142.938
			c-0.026-7.645-1.018-15.28-1.254-22.93c-0.254-8.166,1.49-9.902,9.793-10.125c5.99-0.161,11.989-0.115,17.982-0.018
			c9.222,0.149,10.047,0.943,11.323,10.041C2347.246,290.009,2347.545,291.586,2348.055,294.642z M1226.087,477.448
			c-29.403-0.572-55.155-9.392-75.847-30.776c-14.098-14.569-22.503-32.162-25.581-52.064c-3.752-24.263-1.465-47.838,10.432-69.834
			c15.738-29.101,40.656-44.944,72.881-50.026c20.597-3.247,40.447-0.608,59.521,7.884c11.46,5.103,21.302,12.355,29.208,22.084
			c5.051,6.214,4.697,9.335-1.545,14.131c-5.542,4.26-11.299,8.245-17.053,12.22c-4.166,2.877-8.142,2.712-11.371-1.55
			c-14.232-18.771-33.577-23.121-55.288-18.385c-22.433,4.894-36.773,19.471-43.425,41.188c-5.545,18.104-4.64,36.145,2.992,53.678
			c17.816,40.934,74.042,44.966,96.596,16.573c5.717-7.195,7.536-6.942,14.949-1.691c4.346,3.079,8.611,6.279,12.82,9.544
			c7.659,5.941,8.136,9.272,1.829,16.275c-12.11,13.446-26.768,23.068-44.506,27.097
			C1244.001,475.768,1234.969,476.275,1226.087,477.448z M1781.479,294.048c3.235-2.457,5.072-3.814,6.871-5.221
			c17.613-13.773,37.588-17.752,59.319-14.166c8.309,1.37,9.963,3.597,9.15,12.218c-0.53,5.627-1.397,11.226-2.222,16.821
			c-1.419,9.648-3.64,10.867-13.271,9.78c-7.193-0.812-14.652-1.355-21.762-0.363c-13.065,1.822-22.388,9.627-28.473,21.255
			c-5.831,11.145-8.343,23.082-8.34,35.605c0.006,28.974-0.005,57.945-0.012,86.919c0,2.33,0.143,4.678-0.071,6.989
			c-0.53,5.75-2.404,7.973-7.928,8.188c-7.98,0.313-15.99,0.317-23.971,0.003c-5.867-0.233-7.416-2.01-8.02-8.032
			c-0.298-2.971-0.152-5.988-0.154-8.984c-0.008-35.634-0.054-105.187-0.054-106.898c-0.091-18.975-0.622-37.946-1.071-56.917
			c-0.28-11.901,0.404-12.771,11.872-12.88c5.328-0.051,10.658-0.091,15.984,0.016c8.713,0.175,9.33,0.743,11.093,9.413
			C1780.745,289.373,1780.964,290.974,1781.479,294.048z M706.574,344.25c0,0-0.029,118.254-0.029,120.921
			c0,4.687-3.087,6.949-7.909,6.972c-8.664,0.039-17.328,0.048-25.991-0.023c-4.852-0.041-7.672-2.722-7.672-7.471
			c0-2.555,0.005-262.897,0.005-263.938c0.003-14.499,0.503-14.946,15.322-14.992c4.666-0.015,9.333-0.062,13.997,0.022
			c10.76,0.194,12.13,1.548,12.263,12.094c0.067,5.331,0.016,101.158,0.016,106.223h134.919c0-5.064-0.054-100.393,0.014-105.724
			c0.133-10.546,1.504-11.899,12.264-12.094c4.664-0.084,9.331-0.037,13.996-0.022c14.82,0.046,15.319,0.493,15.322,14.992
			c0,1.039,0.005,261.383,0.005,263.938c0,4.749-2.818,7.43-7.671,7.471c-8.664,0.071-17.328,0.062-25.992,0.023
			c-4.821-0.021-7.908-2.285-7.908-6.972c0-2.667-0.028-121.42-0.028-121.42H706.574z"/>
	</g>
</g>
</svg>
