<?xml version="1.0" encoding="utf-8"?>
<!-- Generator: Adobe Illustrator 16.0.0, SVG Export Plug-In . SVG Version: 6.00 Build 0)  -->
<!DOCTYPE svg PUBLIC "-//W3C//DTD SVG 1.1//EN" "http://www.w3.org/Graphics/SVG/1.1/DTD/svg11.dtd">
<svg version="1.1" id="Layer_1" xmlns="http://www.w3.org/2000/svg" xmlns:xlink="http://www.w3.org/1999/xlink" x="0px" y="0px"
	 width="3000px" height="692px" viewBox="0 0 3000 692" enable-background="new 0 0 3000 692" xml:space="preserve">
<g>
	<path fill="#55BA66" d="M776.119,173.001C756.689,139.277,518.109,0,479.281,0C440.409,0,201.74,138.932,182.429,173.001
		c-19.318,34.081-19.413,311.943,0,345.999c19.415,34.055,258.017,173,296.853,173c38.828,0,277.444-139.106,296.838-173
		C795.525,485.109,795.54,206.724,776.119,173.001z"/>
	<g id="Hexagon_2_">
		<g>
			
				<linearGradient id="SVGID_1_" gradientUnits="userSpaceOnUse" x1="1560.3799" y1="1620.4768" x2="1560.3799" y2="1310.0305" gradientTransform="matrix(1 0 0 1 -988.3965 -1310.0293)">
				<stop  offset="0" style="stop-color:#27A558"/>
				<stop  offset="1" style="stop-color:#54BA67"/>
			</linearGradient>
			<path fill="url(#SVGID_1_)" d="M479.281,0c-16.52,0-69.15,25.121-125.666,56.604l436.738,253.842
				c-1.256-64.924-5.986-123.152-14.213-137.445c-6.949-12.055-41.942-37.595-85.743-65.449L573.626,39.665
				C529.848,16.572,492.686,0,479.281,0z"/>
			
				<linearGradient id="SVGID_2_" gradientUnits="userSpaceOnUse" x1="1499.9604" y1="1763.4495" x2="1499.9604" y2="1366.635" gradientTransform="matrix(1 0 0 1 -988.3965 -1310.0293)">
				<stop  offset="0" style="stop-color:#27A558"/>
				<stop  offset="1" style="stop-color:#54BA67"/>
			</linearGradient>
			<path fill="url(#SVGID_2_)" d="M232.431,130.976L787.202,453.42c3.071-40.751,4.106-93.758,3.151-142.974L353.615,56.604
				C310.762,80.44,265.757,107.911,232.431,130.976z"/>
			
				<linearGradient id="SVGID_3_" gradientUnits="userSpaceOnUse" x1="1467.6626" y1="1871.9124" x2="1467.6626" y2="1441.0061" gradientTransform="matrix(1 0 0 1 -988.3965 -1310.0293)">
				<stop  offset="0" style="stop-color:#27A558"/>
				<stop  offset="1" style="stop-color:#54BA67"/>
			</linearGradient>
			<path fill="url(#SVGID_3_)" d="M232.431,130.976c-26.165,18.085-45.102,33.408-49.987,42.025
				c-5.016,8.843-8.696,34.118-11.113,67.217l553.422,321.664c26.87-18.479,46.401-34.184,51.389-42.882
				c4.957-8.669,8.646-33.26,11.062-65.638L232.431,130.976z"/>
			
				<linearGradient id="SVGID_4_" gradientUnits="userSpaceOnUse" x1="1434.8257" y1="1947.4983" x2="1434.8246" y2="1549.9973" gradientTransform="matrix(1 0 0 1 -988.3965 -1310.0293)">
				<stop  offset="0" style="stop-color:#27A558"/>
				<stop  offset="1" style="stop-color:#54BA67"/>
			</linearGradient>
			<path fill="url(#SVGID_4_)" d="M724.964,561.75L171.33,239.969c-3.101,41.797-4.092,96.131-3.019,146.004l432.75,251.495
				C644.547,613.39,690.713,585.316,724.964,561.75z"/>
			
				<linearGradient id="SVGID_5_" gradientUnits="userSpaceOnUse" x1="1373.0825" y1="2002.0295" x2="1373.0825" y2="1696.0022" gradientTransform="matrix(1 0 0 1 -988.3965 -1310.0293)">
				<stop  offset="0" style="stop-color:#27A558"/>
				<stop  offset="1" style="stop-color:#54BA67"/>
			</linearGradient>
			<path fill="url(#SVGID_5_)" d="M168.312,385.973c1.389,63.113,6.073,118.94,14.117,133.042
				C201.857,553.055,440.445,692,479.281,692c16.145,0,66.726-23.99,121.78-54.503L168.312,385.973z"/>
		</g>
	</g>
	<g id="H_2_">
		<path fill="#FFFFFF" d="M537.324,373.106v119.715h-19.958c-4.053,0-7.33,3.379-7.33,7.449c0,2.688,1.426,5.026,3.52,6.345
			l44.881,43.544c1.344,1.779,4.01,3.13,6.375,3.13c2.438,0,4.591-1.264,5.921-3.13l47.797-43.588
			c2.107-1.274,3.496-3.612,3.496-6.301c0-4.114-3.269-7.449-7.33-7.449h-20.024l-0.169-289.396c0-4.092-3.217-7.413-7.265-7.413
			h-42.501c-4.077,0-7.397,3.321-7.397,7.413v111.724H421.296V199.166h19.943c4.055,0,7.338-3.335,7.338-7.428
			c0-2.681-1.418-5.04-3.51-6.353l-44.904-43.537c-1.321-1.785-4.012-3.137-6.377-3.137c-2.438,0-4.604,1.278-5.92,3.137
			l-47.812,43.551c-2.093,1.323-3.495,3.658-3.495,6.339c0,4.113,3.268,7.428,7.33,7.428h20.054l0.168,289.412
			c0,4.067,3.203,7.343,7.272,7.343h42.5c4.055,0,7.375-3.275,7.375-7.343V373.061L537.324,373.106L537.324,373.106z"/>
	</g>
</g>
<path fill="#FFFFFF" d="M2099.623,361.573c-17.541-28.985-35.156-57.852-52.741-86.802c-1.557-2.503-2.79-5.119-4.494-8.124
	c3.921-1.221,6.844-2.013,9.694-2.96c26.458-8.99,42.708-30.969,43.515-58.75c1.015-32.928-16.071-55.985-47.818-63.941
	c-7.184-1.8-14.616-3.254-21.978-3.407c-23.697-0.611-47.452-0.611-71.163-0.706c-13.795-0.052-14.044,0.235-14.044,13.78
	c0,70.67,0,141.364,0,212.056c0,2.541,0.059,5.039,0.249,7.508c0.338,3.479,2.132,5.816,5.743,5.846
	c7.493,0.146,14.914,0.146,22.376,0.089c3.614-0.044,5.641-2.247,6.066-5.642c0.354-2.175,0.25-4.467,0.25-6.612
	c0-27.839,0-55.729,0-83.523c0-2.991,0-6.039,0-10.746c8.301,0,15.382,0.263,22.478-0.068c4.76-0.212,7.609,1.456,9.961,5.677
	c5.846,10.667,12.237,21.134,18.422,31.675c12.224,20.802,24.461,41.573,36.625,62.466c2.57,4.45,5.317,7.389,11.047,6.949
	c5.979-0.472,12.062,0.044,18.128-0.19c3.938-0.207,8.772,1.688,11.166-3.247C2105.233,368.375,2101.738,365.027,2099.623,361.573z
	 M2020.688,237.442c-14.001,1.145-28.046,0.418-42.134,0.47c-0.72,0-1.47-0.447-2.719-0.866c0-22.382,0-44.72,0-67.129
	c0.354-0.362,0.765-1.03,1.16-1.043c18.101-0.413,36.331-1.719,54.372,1.469c2.674,0.499,5.334,1.153,7.948,2.071
	c18.818,6.544,27.28,26.076,19.465,44.528c-2.717,6.442-7.242,11.562-13.588,13.891
	C2037.244,233.828,2028.975,236.765,2020.688,237.442z M2729.129,278.893c-2.587,3.585-4.452,6.177-6.229,8.916
	c-18.246,27.181-36.567,54.343-54.52,81.712c-3.29,4.993-6.964,7.257-12.826,6.875c-6.609-0.353-13.279,0-19.861-0.103
	c-3.261-0.074-6.859,0.722-8.785-3.13c-1.822-3.643,0.411-6.36,2.322-9.123c14.573-20.949,29.117-41.957,43.633-62.935
	c10.106-14.634,20.244-29.22,30.336-43.817c4.377-6.368,4.377-6.418-0.205-12.956c-21.612-30.97-43.295-61.857-64.863-92.84
	c-2.274-3.284-6.227-6.45-3.993-11.107c2.262-4.854,7.198-3.056,11.135-3.196c6.053-0.242,12.106,0.236,18.188-0.175
	c5.685-0.36,9.064,1.961,12.147,6.634c15.896,24.108,32.114,47.988,48.275,71.925c1.646,2.476,3.437,4.849,5.877,8.271
	c2.306-3.268,4.012-5.642,5.683-8.093c15.898-23.757,31.982-47.438,47.586-71.376c3.422-5.231,7.037-7.912,13.397-7.411
	c6.876,0.512,13.81-0.051,20.655,0.242c6.713,0.27,8.713,4.134,5.554,9.982c-0.91,1.726-2.145,3.246-3.232,4.826
	c-21.022,30.38-41.999,60.739-63.008,91.143c-1.764,2.445-3.396,5.003-5.394,7.939c1.837,2.697,3.379,5.239,5.04,7.729
	c23.961,34.413,47.877,68.828,71.735,103.293c2.275,3.274,5.918,6.552,3.569,11.18c-2.218,4.349-6.771,2.746-10.429,2.907
	c-5.805,0.205-11.694-0.367-17.438,0.205c-6.656,0.633-10.415-2.277-14.044-7.74c-17.983-27.37-36.361-54.444-54.668-81.631
	C2733.213,284.592,2731.479,282.212,2729.129,278.893z M1515.894,307.716c-0.103,2.718-0.352,5.405-0.352,8.108
	c0,16.968,0.044,33.995-0.03,50.921c0,8.196-1.116,9.298-8.961,9.402c-5.496,0.146-11.033,0.218-16.527-0.046
	c-5.715-0.189-7.111-1.748-7.419-7.624c-0.088-1.63-0.016-3.349-0.016-5.024c0-76.254,0-152.566,0-228.877
	c0-1.919-0.072-3.908,0.03-5.848c0.337-5.252,1.881-7.183,6.905-7.404c6.303-0.294,12.693-0.294,19.023,0
	c5.156,0.221,6.626,1.954,6.936,7.301c0.131,2.211,0.059,4.443,0.059,6.677c0,42.597,0,85.223,0,127.825
	c0,2.925,0.235,5.885,0.44,10.453c2.982-2.476,4.862-3.892,6.493-5.479c16.66-16.276,33.245-32.57,49.743-49.045
	c3.38-3.394,6.846-5.068,11.65-4.898c8.035,0.328,16.012,0.028,24.05,0.08c3.261,0.03,6.903-0.499,8.284,3.709
	c1.293,3.871-1.115,6.207-3.701,8.53c-20.024,18.317-40.092,36.637-60.131,54.992c-2.395,2.184-4.76,4.543-7.565,7.111
	c1.689,1.94,2.968,3.69,4.524,5.21c22.858,22.577,45.777,45.13,68.667,67.679c1.408,1.396,3.202,2.571,3.995,4.157
	c1.042,2.073,2.394,4.908,1.646,6.658c-0.676,1.762-3.512,3.304-5.641,3.686c-3.82,0.617-7.715,0.308-11.592,0.205
	c-7.404-0.178-15.632,1.456-22.021-1.218c-6.128-2.602-10.445-9.609-15.455-14.767c-14.809-15.408-29.529-30.792-44.353-46.217
	c-2.277-2.351-4.598-4.672-6.875-6.935C1517.143,307.231,1516.524,307.487,1515.894,307.716z M2497.188,307.994
	c0,5.26,0,10.505,0,15.793c0,14.471,0.104,28.972-0.027,43.425c-0.075,7.347-1.514,8.785-8.699,8.949
	c-5.229,0.146-10.445,0.146-15.705,0c-7.271-0.164-8.445-1.426-8.785-8.903c-0.102-1.689-0.028-3.336-0.028-5.038
	c0-75.681,0-151.421,0-227.122c0-13.699,0.191-13.899,13.987-13.899c4.156,0,8.271-0.147,12.427,0.126
	c4.554,0.293,6.289,2.182,6.831,6.742c0.164,2.213,0.059,4.475,0.059,6.685c0,42.605,0,85.201,0,127.79c0,3.035,0,6.039,0,11.196
	c3.585-3.109,5.789-4.812,7.846-6.848c15.808-15.521,31.69-30.969,47.262-46.732c4.201-4.223,8.416-6.5,14.543-6.053
	c7.126,0.515,14.337,0.053,21.523,0.119c3.495,0.073,7.491-0.794,9.254,3.598c1.702,4.402-1.617,6.664-4.246,9.027
	c-19.994,18.357-40.018,36.686-60.026,54.989c-2.219,2.043-4.423,4.144-7.229,6.847c2.073,2.283,3.819,4.326,5.686,6.177
	c22.685,22.433,45.382,44.822,68.064,67.15c1.158,1.146,2.775,2.162,3.392,3.57c1,2.117,2.262,4.894,1.572,6.702
	c-0.646,1.762-3.539,3.582-5.552,3.656c-10.224,0.367-20.479,0.544-30.618-0.074c-2.777-0.162-5.846-2.761-8.033-5.066
	c-18.381-18.924-36.492-37.903-54.785-56.942c-2.187-2.278-4.523-4.556-6.846-6.832
	C2498.408,307.384,2497.835,307.687,2497.188,307.994z M1788.938,282.233c-2.775-41.617-31.408-69.517-69.251-71.741
	c-32.88-1.953-58.618,10.365-76.232,38.63c-10.24,16.366-13.501,34.612-11.738,53.646c3.174,33.905,19.642,58.57,51.315,71.587
	c18.202,7.434,37.139,7.332,56.031,2.293c16.879-4.497,30.309-14.294,41.4-27.649c4.936-5.877,4.655-8.375-1.059-13.149
	c-2.543-2.101-5.172-4.127-7.771-6.17c-10.005-7.902-9.873-7.741-18.218,1.763c-14.014,16.087-31.628,22.199-52.196,16.482
	c-19.538-5.434-30.938-19.081-35.375-40.73c4.23-0.204,7.461-0.446,10.724-0.446c32.761-0.037,65.58-0.037,98.37-0.037
	c2.233,0,4.467,0.119,6.626-0.082c5.818-0.453,7.228-1.731,7.507-7.718C1789.439,293.34,1789.336,287.751,1788.938,282.233z
	 M1667.123,277.424c0.764-2.983,1.042-5.415,1.954-7.574c11.326-27.075,39.709-36.088,63.832-25.438
	c13.353,5.907,19.831,17.563,22.034,33.033C1725.137,277.424,1696.637,277.424,1667.123,277.424z M1281.655,366.083
	c-0.794-11.093-1.572-22.155-1.734-33.332c-0.264-20.848,0.162-41.768-0.169-62.629c-0.478-30.962-16.673-51.728-45.968-57.919
	c-25.356-5.377-49.354-1.022-71.25,13.339c-2.77,1.814-5.4,3.959-7.758,6.258c-4.202,4.047-4.342,6.193-0.969,10.828
	c1.814,2.431,3.893,4.693,5.854,7.028c8.353,9.945,8.249,9.843,18.856,2.006c15.233-11.21,32.188-14.3,50.235-9.284
	c13.147,3.664,20.054,15.668,17.578,29.439c-9.183,0.375-18.541,0.691-27.884,1.234c-14.676,0.822-29.118,2.776-42.891,8.191
	c-13.008,5.127-24.306,12.759-29.33,26.524c-10.32,28.213-0.029,57.581,30.39,68.395c13.109,4.614,26.546,4.553,40.031,2.321
	c12.002-1.939,22.352-7.61,32.568-16.91c0.795,3.454,1.235,5.23,1.616,7.037c1.294,6.272,2.367,7.331,8.785,7.463
	c4.393,0.146,8.801,0.116,13.253,0.045C1281.154,375.997,1282.301,374.457,1281.655,366.083z M1191.32,348.204
	c-7.177-2.543-12.508-6.859-14.347-14.778c-2.121-9.079,0.075-15.838,7.846-20.979c3.629-2.468,7.661-4.497,11.805-5.803
	c16.21-5.017,32.929-5.848,50.229-5.538C1251.215,334.822,1221.959,359.017,1191.32,348.204z M2257.934,366.875
	c-0.897-10.296-1.853-20.538-2-30.775c-0.352-23.712,0.235-47.364-0.368-71.032c-0.645-24.285-14.837-42.81-37.564-50.699
	c-14.778-5.177-29.852-5.214-44.983-2.623c-14.631,2.534-27.985,8.278-39.561,17.908c-7.053,5.812-7.243,8.117-1.633,15.087
	c2.265,2.756,4.525,5.577,6.95,8.25c5.187,5.979,6.947,6.214,12.929,1.16c12.206-10.401,26.311-14.492,42.118-13.839
	c15.278,0.647,29.926,8.375,29.646,31.006c-3.012,0.331-5.715,0.706-8.373,0.829c-7.42,0.375-14.912,0.508-22.316,1.036
	c-13.824,0.955-27.474,2.975-40.46,7.925c-12.236,4.672-22.594,11.834-28.72,23.887c-13.016,25.901-2.451,57.897,24.137,68.975
	c25.283,10.474,50.186,8.858,72.883-8.168c1.514-1.089,3.1-1.91,5.111-3.145c0.529,2.497,0.955,4.392,1.47,6.215
	c1.646,6.611,2.204,7.169,8.918,7.314c4.673,0.132,9.386,0.177,14.071,0C2257.254,375.941,2258.639,374.003,2257.934,366.875z
	 M2190.075,349.615c-7.201,0.866-14.927,0.116-22.067-1.484c-8.71-2.012-14.204-8.007-15.262-17.542
	c-1.016-9.622,3.332-16.043,11.486-20.214c3.159-1.646,6.48-3.217,9.843-4.181c15.838-4.48,31.982-5.28,48.673-5.229
	C2227.038,320.247,2214.873,346.469,2190.075,349.615z M2322.733,227.841c3.379-2.35,5.553-3.966,7.817-5.488
	c20.332-13.662,42.162-15.858,64.742-7.588c19.421,7.111,29.277,22.815,33.816,42.208c1.456,6.179,2.013,12.666,2.072,19.018
	c0.148,29.787,0.044,59.564,0.044,89.298c0,1.923,0.47,4.231-0.295,5.744c-1.043,1.97-3.069,4.671-4.815,4.772
	c-7.422,0.515-14.854,0.312-22.289,0.237c-3.217-0.103-5.067-2.027-5.375-5.305c-0.164-2.202-0.134-4.394-0.134-6.668
	c0-23.916,0.134-47.851-0.072-71.773c-0.061-7.493-0.53-15.013-1.514-22.433c-1.69-12.493-6.419-23.424-19.406-27.529
	c-13.735-4.283-26.841-2.776-37.932,7.271c-8.11,7.383-12.237,17.106-14.075,27.692c-1.07,6.023-1.467,12.165-1.557,18.239
	c-0.148,23.402,0,46.762-0.088,70.136c0,9.649-0.838,10.445-10.326,10.562c-4.717,0.044-9.375,0.074-14.076-0.029
	c-6.904-0.234-8.227-1.499-8.535-8.211c-0.074-2.22-0.074-4.423-0.074-6.656c0-4.833,0.074-79.639-0.13-119.385
	c0-6.421-0.839-12.761-1.06-19.149c-0.219-6.832,1.234-8.264,8.126-8.434c4.966-0.184,9.931-0.102,14.88,0
	c7.581,0.096,8.301,0.771,9.375,8.353C2322.058,223.977,2322.338,225.262,2322.733,227.841z M1393.724,380.598
	c-24.357-0.501-45.673-7.86-62.781-25.738c-11.671-12.164-18.649-26.855-21.177-43.529c-3.084-20.224-1.189-39.959,8.639-58.317
	c13.022-24.282,33.672-37.542,60.351-41.794c17.025-2.718,33.48-0.485,49.273,6.567c9.49,4.261,17.614,10.365,24.18,18.444
	c4.202,5.193,3.88,7.8-1.292,11.817c-4.598,3.563-9.357,6.898-14.088,10.262c-3.482,2.381-6.773,2.248-9.417-1.336
	c-11.813-15.675-27.825-19.29-45.777-15.368c-18.6,4.129-30.454,16.278-35.979,34.401c-4.584,15.137-3.848,30.188,2.469,44.859
	c14.764,34.229,61.291,37.563,79.977,13.881c4.761-6.023,6.259-5.816,12.386-1.41c3.612,2.527,7.153,5.229,10.591,7.934
	c6.347,4.966,6.803,7.8,1.499,13.617c-10.019,11.21-22.14,19.232-36.829,22.611C1408.548,379.158,1401.084,379.556,1393.724,380.598
	z M1853.565,227.343c2.673-2.042,4.157-3.203,5.685-4.342c14.589-11.526,31.115-14.845,49.127-11.856
	c6.875,1.146,8.256,2.991,7.536,10.227c-0.368,4.7-1.116,9.358-1.821,14.065c-1.132,8.065-2.984,9.064-10.989,8.147
	c-5.965-0.676-12.119-1.153-18.04-0.31c-10.813,1.521-18.511,8.021-23.579,17.747c-4.789,9.33-6.875,19.296-6.875,29.78
	c0,24.158,0,48.368,0,72.593c0,1.941,0.087,3.97-0.074,5.805c-0.44,4.849-1.982,6.669-6.566,6.846
	c-6.567,0.322-13.252,0.322-19.834,0c-4.833-0.177-6.125-1.66-6.625-6.699c-0.278-2.496-0.162-5.022-0.162-7.507
	c0-29.792-0.028-87.858-0.028-89.328c-0.088-15.844-0.485-31.695-0.927-47.54c-0.22-9.945,0.368-10.651,9.829-10.76
	c4.466-0.052,8.888-0.088,13.251,0.028c7.229,0.146,7.727,0.624,9.227,7.874C1852.962,223.434,1853.197,224.785,1853.565,227.343z
	 M963.553,269.291c0,0-0.022,98.775-0.022,100.963c0,3.953-2.549,5.818-6.546,5.818c-7.153,0-14.352,0.045-21.513-0.029
	c-4.041,0-6.37-2.231-6.37-6.215c0-2.114,0-219.628,0-220.495c0-12.107,0.427-12.502,12.664-12.54
	c3.894-0.044,7.734-0.072,11.583,0.014c8.919,0.14,10.058,1.265,10.138,10.086c0.066,4.465,0.022,84.547,0.022,88.77h111.724
	c0-4.247-0.037-83.878,0-88.352c0.11-8.827,1.248-9.938,10.13-10.085c3.887-0.065,7.742-0.021,11.606,0
	c12.258,0.015,12.655,0.383,12.655,12.502c0,0.883,0,218.366,0,220.498c0,3.965-2.32,6.197-6.347,6.258
	c-7.169,0.059-14.346,0.059-21.501,0.027c-3.979-0.027-6.564-1.923-6.564-5.816c0-2.218,0-101.44,0-101.44L963.553,269.291
	L963.553,269.291z"/>
<g>
	<path fill="#FFFFFF" d="M981.695,493.012h-19.428v72.617h-12.004v-72.617h-17.306v-10.049h17.306V460.34
		c0-9.417,2.292-16.821,6.884-22.229c4.576-5.405,11.643-8.138,21.191-8.138c1.521,0,3.18,0.089,4.943,0.265
		c1.763,0.191,3.417,0.499,4.951,0.955l-2.131,10.621c-1.293-0.352-2.578-0.647-3.878-0.897c-1.309-0.235-2.763-0.352-4.406-0.352
		c-3.188,0-5.798,0.516-7.875,1.601c-2.072,1.06-3.652,2.543-4.774,4.497c-1.125,1.951-1.866,4.216-2.277,6.801
		c-0.419,2.586-0.624,5.362-0.624,8.301v21.198h19.428V493.012L981.695,493.012z"/>
	<path fill="#FFFFFF" d="M1080.955,524.305c0,6.229-1.088,12.002-3.247,17.304c-2.183,5.304-5.207,9.873-9.102,13.781
		c-3.892,3.891-8.551,6.906-13.963,9.079c-5.414,2.188-11.363,3.26-17.835,3.26c-6.347,0-12.244-1.085-17.658-3.26
		c-5.414-2.173-10.071-5.215-13.964-9.079c-3.878-3.908-6.92-8.478-9.078-13.781c-2.183-5.302-3.271-11.075-3.271-17.304
		c0-6.244,1.088-11.988,3.271-17.335c2.158-5.289,5.2-9.859,9.078-13.751c3.893-3.908,8.55-6.92,13.964-9.097
		c5.414-2.188,11.312-3.26,17.658-3.26c6.493,0,12.421,1.102,17.835,3.26c5.412,2.177,10.071,5.218,13.963,9.097
		c3.895,3.892,6.919,8.462,9.102,13.751C1079.867,512.273,1080.955,518.061,1080.955,524.305z M1068.247,524.305
		c0-4.599-0.75-8.917-2.195-12.975c-1.47-4.054-3.57-7.607-6.267-10.605c-2.717-3.012-6.016-5.404-9.895-7.168
		c-3.892-1.764-8.256-2.63-13.082-2.63s-9.152,0.91-12.973,2.63c-3.826,1.776-7.095,4.156-9.791,7.168
		c-2.719,2.998-4.797,6.552-6.28,10.605c-1.454,4.058-2.196,8.376-2.196,12.975c0,4.596,0.742,8.916,2.196,12.973
		c1.47,4.053,3.562,7.594,6.28,10.589c2.696,3.012,5.965,5.393,9.791,7.066c3.843,1.735,8.153,2.558,12.973,2.558
		c4.826,0,9.19-0.854,13.082-2.558c3.879-1.701,7.178-4.055,9.895-7.066c2.696-2.995,4.797-6.536,6.267-10.589
		C1067.497,533.192,1068.247,528.873,1068.247,524.305z"/>
	<path fill="#FFFFFF" d="M1106.561,492.513c-0.116-3.513-0.287-6.715-0.529-9.55h11.49c0.234,2.233,0.411,4.718,0.528,7.418
		c0.109,2.718,0.177,4.939,0.177,6.729h0.345c2.35-4.819,5.897-8.754,10.606-11.766c4.701-2.984,9.997-4.496,15.896-4.496
		c1.521,0,2.901,0.06,4.157,0.176c1.22,0.132,2.505,0.367,3.782,0.705l-1.586,11.489c-0.712-0.249-1.888-0.471-3.532-0.706
		c-1.646-0.236-3.284-0.368-4.952-0.368c-3.179,0-6.243,0.604-9.182,1.78c-2.938,1.187-5.5,3.038-7.676,5.552
		c-2.188,2.527-3.966,5.757-5.317,9.695c-1.367,3.952-2.027,8.683-2.027,14.179v42.278h-12.003v-64.492
		C1106.752,498.932,1106.687,496.025,1106.561,492.513z"/>
	<path fill="#FFFFFF" d="M1193.01,485.345c4.884-2.984,10.335-4.496,16.335-4.496c2.234,0,4.563,0.236,6.972,0.72
		c2.411,0.439,4.753,1.363,7.053,2.718c2.306,1.364,4.421,3.158,6.367,5.393c1.946,2.261,3.621,5.125,5.04,8.681
		c2.835-5.686,6.698-10.003,11.568-13.015c4.885-2.984,10.695-4.496,17.402-4.496c10.475,0,18.342,3.114,23.586,9.358
		c5.237,6.229,7.875,14.484,7.875,24.738v50.684h-12.011v-45.747c0-8.729-1.624-15.72-4.863-21.022
		c-3.247-5.303-8.734-7.949-16.52-7.949c-4.362,0-8.042,0.883-11.04,2.646c-2.99,1.746-5.405,4.081-7.234,6.99
		c-1.83,2.883-3.137,6.112-3.975,9.771c-0.815,3.659-1.228,7.435-1.228,11.282V565.6h-12.016v-48.215
		c0-4.01-0.302-7.639-0.891-10.962c-0.607-3.273-1.623-6.109-3.092-8.371c-1.468-2.292-3.51-4.056-6.111-5.304
		c-2.57-1.234-5.884-1.865-9.895-1.865c-2.843,0-5.678,0.661-8.563,1.938c-2.895,1.309-5.487,3.277-7.766,5.92
		c-2.299,2.66-4.156,6.039-5.575,10.093c-1.416,4.056-2.122,8.845-2.122,14.369V565.6h-12.011v-64.493
		c0-2.203-0.051-5.112-0.168-8.639c-0.126-3.509-0.316-6.697-0.544-9.536h11.488c0.249,2.235,0.42,4.719,0.544,7.422
		c0.117,2.718,0.169,4.922,0.169,6.713h0.359C1184.504,492.277,1188.14,488.357,1193.01,485.345z"/>
	<path fill="#FFFFFF" d="M1401.525,521.808c0,0.821,0,1.719,0,2.674c0,0.924-0.043,1.923-0.191,2.966h-68.519
		c0.096,4.129,0.934,8.022,2.469,11.68c1.527,3.657,3.658,6.829,6.377,9.535c2.688,2.703,5.875,4.877,9.519,6.462
		c3.659,1.588,7.595,2.396,11.84,2.396c6.245,0,11.622-1.454,16.176-4.363c4.525-2.864,7.978-6.184,10.326-9.96l9.007,7.066
		c-4.936,6.229-10.401,10.711-16.335,13.411c-5.937,2.705-12.342,4.055-19.174,4.055c-6.125,0-11.796-1.085-17.041-3.26
		c-5.245-2.173-9.74-5.215-13.516-9.079c-3.762-3.877-6.742-8.478-8.909-13.781c-2.174-5.302-3.27-11.075-3.27-17.304
		c0-6.244,1.058-11.988,3.188-17.335c2.129-5.289,5.046-9.859,8.844-13.751c3.747-3.908,8.168-6.92,13.251-9.097
		c5.053-2.188,10.533-3.26,16.409-3.26c6.494,0,12.179,1.102,17.13,3.26c4.952,2.177,9.065,5.113,12.355,8.831
		c3.292,3.717,5.818,8.037,7.521,12.986C1400.659,510.862,1401.525,516.18,1401.525,521.808z M1389.332,517.914
		c-0.367-7.773-2.865-14.209-7.507-19.319c-4.643-5.141-11.269-7.685-19.862-7.685c-3.997,0-7.714,0.735-11.121,2.206
		c-3.408,1.466-6.42,3.481-9.021,6.022c-2.57,2.527-4.642,5.419-6.169,8.639c-1.543,3.247-2.426,6.624-2.646,10.18h56.325V517.914z"
		/>
	<path fill="#FFFFFF" d="M1427.132,492.513c-0.118-3.513-0.31-6.715-0.544-9.55h11.488c0.25,2.233,0.426,4.718,0.543,7.418
		c0.104,2.718,0.177,4.939,0.177,6.729h0.354c2.364-4.819,5.891-8.754,10.621-11.766c4.701-2.984,9.988-4.496,15.882-4.496
		c1.527,0,2.922,0.06,4.157,0.176c1.234,0.132,2.512,0.367,3.789,0.705l-1.587,11.489c-0.72-0.249-1.896-0.471-3.555-0.706
		c-1.632-0.236-3.291-0.368-4.937-0.368c-3.188,0-6.258,0.604-9.196,1.78c-2.938,1.187-5.494,3.038-7.668,5.552
		c-2.189,2.527-3.953,5.757-5.303,9.695c-1.368,3.952-2.013,8.683-2.013,14.179v42.278h-12.033v-64.492
		C1427.292,498.932,1427.233,496.025,1427.132,492.513z"/>
	<path fill="#FFFFFF" d="M1503.26,565.629h-12.031V432.087h12.031V565.629z"/>
	<path fill="#FFFFFF" d="M1563.801,552.717h0.367l25.606-69.754h13.046l-41.149,104.028c-2.469,6.36-5.611,11.443-9.431,15.306
		c-3.835,3.836-9.358,5.731-16.528,5.731c-3.643,0-7.258-0.367-10.768-1.072l1.204-10.962c2.85,0.955,5.818,1.412,8.858,1.412
		c4.129,0,7.361-1.248,9.711-3.807c2.381-2.527,4.437-6.14,6.2-10.87l6.712-17.306l-35.331-82.474h13.413L1563.801,552.717z"/>
	<path fill="#FFFFFF" d="M1679.155,565.629h-12.709V440.566h12.709V565.629z"/>
	<path fill="#FFFFFF" d="M1722.434,482.963c0.234,2.233,0.396,4.718,0.514,7.418c0.134,2.718,0.191,4.939,0.191,6.729h0.368
		c2.336-4.819,6.156-8.754,11.459-11.766c5.317-2.984,10.9-4.496,16.775-4.496c10.504,0,18.364,3.114,23.594,9.358
		c5.23,6.229,7.86,14.484,7.86,24.738v50.684h-12.018v-45.747c0-4.362-0.353-8.285-1.043-11.825
		c-0.721-3.556-1.938-6.598-3.644-9.108c-1.718-2.513-3.995-4.512-6.875-5.937c-2.909-1.396-6.522-2.102-10.855-2.102
		c-3.175,0-6.289,0.647-9.3,1.94c-2.983,1.278-5.641,3.277-8.021,5.906c-2.35,2.673-4.217,6.022-5.627,10.092
		c-1.41,4.04-2.13,8.844-2.13,14.382v42.398h-11.988v-64.508c0-2.204-0.073-5.113-0.205-8.608c-0.133-3.554-0.309-6.729-0.516-9.563
		h11.46V482.963z"/>
	<path fill="#FFFFFF" d="M1851.508,493.012h-23.285v48.245c0,3.056,0.28,5.582,0.881,7.581c0.574,1.998,1.427,3.584,2.543,4.673
		c1.115,1.103,2.468,1.879,3.98,2.305c1.527,0.382,3.174,0.601,4.937,0.601c1.659,0,3.377-0.248,5.2-0.688
		c1.822-0.472,3.585-1.115,5.244-1.955l0.5,10.433c-2.131,0.836-4.319,1.452-6.626,1.864c-2.291,0.382-4.774,0.587-7.506,0.587
		c-2.233,0-4.584-0.322-7.067-0.882c-2.468-0.587-4.745-1.704-6.874-3.319c-2.116-1.674-3.85-3.923-5.201-6.728
		c-1.396-2.835-2.027-6.539-2.027-11.152v-51.58h-17.13V482.95h17.13v-23.317h11.987v23.317h23.314V493.012L1851.508,493.012z"/>
	<path fill="#FFFFFF" d="M1945.5,521.808c0,0.821,0,1.719,0,2.674c0,0.924-0.074,1.923-0.176,2.966h-68.533
		c0.118,4.129,0.94,8.022,2.483,11.68c1.512,3.657,3.628,6.829,6.345,9.535c2.69,2.703,5.893,4.877,9.535,6.462
		c3.659,1.588,7.61,2.396,11.871,2.396c6.199,0,11.619-1.454,16.13-4.363c4.555-2.864,7.992-6.184,10.356-9.96l9.021,7.066
		c-4.95,6.229-10.401,10.711-16.337,13.411c-5.95,2.705-12.34,4.055-19.144,4.055c-6.139,0-11.824-1.085-17.055-3.26
		c-5.23-2.173-9.74-5.215-13.486-9.079c-3.805-3.908-6.771-8.478-8.932-13.781c-2.204-5.302-3.262-11.075-3.262-17.304
		c0-6.244,1.058-11.988,3.188-17.335c2.114-5.289,5.054-9.859,8.813-13.751c3.777-3.908,8.197-6.92,13.267-9.097
		c5.067-2.188,10.533-3.26,16.409-3.26c6.465,0,12.193,1.102,17.13,3.26c4.951,2.177,9.079,5.113,12.369,8.831
		c3.292,3.717,5.788,8.037,7.522,12.986C1944.721,510.891,1945.5,516.18,1945.5,521.808z M1933.307,517.914
		c-0.367-7.773-2.85-14.209-7.521-19.319c-4.657-5.141-11.253-7.685-19.862-7.685c-3.967,0-7.683,0.735-11.137,2.206
		c-3.407,1.466-6.39,3.481-9.003,6.022c-2.572,2.527-4.673,5.419-6.2,8.639c-1.484,3.247-2.395,6.624-2.615,10.18h56.339V517.914z"
		/>
	<path fill="#FFFFFF" d="M1971.091,492.513c-0.131-3.513-0.308-6.715-0.513-9.55h11.473c0.235,2.233,0.396,4.718,0.528,7.418
		c0.134,2.718,0.163,4.939,0.163,6.729h0.383c2.363-4.819,5.876-8.754,10.59-11.766c4.717-2.984,9.991-4.496,15.896-4.496
		c1.514,0,2.924,0.06,4.113,0.176c1.264,0.132,2.526,0.367,3.82,0.705l-1.589,11.489c-0.703-0.249-1.864-0.471-3.509-0.706
		c-1.661-0.236-3.307-0.368-4.951-0.368c-3.188,0-6.229,0.604-9.212,1.78c-2.924,1.187-5.464,3.038-7.669,5.552
		c-2.188,2.527-3.95,5.757-5.273,9.695c-1.382,3.952-2.057,8.683-2.057,14.179v42.278h-11.974v-64.492
		C1971.297,498.932,1971.225,496.025,1971.091,492.513z"/>
	<path fill="#FFFFFF" d="M2068.786,565.629h-13.251l-33.73-82.666h13.413l26.868,69.943h0.34l27.045-69.943h12.884L2068.786,565.629
		z"/>
	<path fill="#FFFFFF" d="M2135.733,451.173c0,2.481-0.897,4.509-2.657,6.097c-1.736,1.586-3.718,2.394-5.836,2.394
		c-2.129,0-4.068-0.808-5.814-2.394c-1.766-1.588-2.646-3.615-2.646-6.097c0-2.483,0.881-4.51,2.646-6.099
		c1.746-1.616,3.686-2.408,5.814-2.408c2.118,0,4.069,0.792,5.836,2.408C2134.836,446.663,2135.733,448.719,2135.733,451.173z
		 M2133.25,565.629h-11.987v-82.666h11.987V565.629z"/>
	<path fill="#FFFFFF" d="M2240.449,521.808c0,0.821,0,1.719,0,2.674c0,0.924-0.06,1.923-0.162,2.966h-68.548
		c0.119,4.129,0.955,8.022,2.482,11.68c1.528,3.657,3.659,6.829,6.36,9.535c2.704,2.703,5.907,4.877,9.521,6.462
		c3.687,1.588,7.611,2.396,11.872,2.396c6.213,0,11.632-1.454,16.145-4.363c4.567-2.864,8.004-6.184,10.372-9.96l9.006,7.066
		c-4.951,6.229-10.418,10.711-16.338,13.411c-5.949,2.705-12.326,4.055-19.157,4.055c-6.111,0-11.824-1.085-17.042-3.26
		c-5.244-2.173-9.754-5.215-13.498-9.079c-3.793-3.877-6.76-8.478-8.918-13.781c-2.205-5.302-3.277-11.075-3.277-17.304
		c0-6.244,1.072-11.988,3.188-17.335c2.131-5.289,5.067-9.859,8.829-13.751c3.79-3.908,8.182-6.92,13.252-9.097
		c5.069-2.188,10.547-3.26,16.425-3.26c6.477,0,12.193,1.102,17.128,3.26c4.95,2.177,9.064,5.113,12.369,8.831
		c3.291,3.717,5.805,8.037,7.507,12.986C2239.684,510.891,2240.449,516.18,2240.449,521.808z M2228.256,517.914
		c-0.338-7.773-2.835-14.209-7.492-19.319c-4.673-5.141-11.254-7.685-19.877-7.685c-3.981,0-7.699,0.735-11.121,2.206
		c-3.424,1.466-6.42,3.481-9.02,6.022c-2.586,2.527-4.659,5.419-6.186,8.639c-1.512,3.247-2.424,6.624-2.63,10.18h56.325V517.914z"
		/>
	<path fill="#FFFFFF" d="M2267.818,482.963l19.979,67.124h0.337l22.26-67.124h11.663l22.624,67.124h0.353l19.803-67.124h12.709
		l-26.166,82.666h-13.061l-22.079-66.946h-0.352l-21.745,66.946h-13.074l-26.12-82.666H2267.818z"/>
	<path fill="#FFFFFF" d="M2441.979,502.56c-1.762-3.394-4.465-6.197-8.049-8.358c-3.586-2.202-7.671-3.274-12.269-3.274
		c-2.129,0-4.244,0.234-6.36,0.705c-2.117,0.468-4.011,1.219-5.657,2.334c-1.658,1.043-2.968,2.396-3.963,4.011
		c-1.031,1.661-1.516,3.601-1.516,5.849c0,3.892,1.587,6.861,4.761,8.917c3.172,2.071,8.213,3.79,15.028,5.215
		c9.739,1.981,16.969,4.922,21.624,8.742c4.658,3.834,6.978,8.989,6.978,15.469c0,4.716-0.938,8.695-2.745,11.898
		c-1.821,3.232-4.202,5.921-7.142,7.95c-2.953,2.083-6.272,3.54-9.989,4.436c-3.699,0.882-7.462,1.308-11.179,1.308
		c-6.259,0-12.342-1.264-18.218-3.895c-5.891-2.555-10.708-6.654-14.499-12.162l9.564-7.097c2.101,3.659,5.245,6.742,9.345,9.196
		c4.126,2.468,8.665,3.717,13.6,3.717c2.572,0,5.071-0.25,7.436-0.705c2.336-0.455,4.393-1.292,6.172-2.468
		c1.777-1.19,3.186-2.674,4.229-4.524c1.059-1.836,1.603-4.101,1.603-6.802c0-4.349-2.102-7.625-6.261-9.8
		c-4.184-2.159-10.238-4.2-18.112-6.082c-2.481-0.601-5.112-1.351-7.875-2.233c-2.761-0.882-5.316-2.174-7.667-3.893
		c-2.365-1.705-4.289-3.834-5.804-6.421c-1.559-2.585-2.337-5.831-2.337-9.754c0-4.216,0.838-7.831,2.497-10.842
		c1.647-3.011,3.852-5.48,6.627-7.418c2.747-1.938,5.906-3.395,9.446-4.334c3.526-0.956,7.183-1.411,10.962-1.411
		c5.77,0,11.339,1.293,16.761,3.879c5.42,2.601,9.505,6.242,12.192,10.973L2441.979,502.56z"/>
	<path fill="#FFFFFF" d="M2513.672,493.012h-23.315v48.245c0,3.056,0.31,5.582,0.883,7.581c0.587,1.998,1.438,3.584,2.568,4.673
		c1.103,1.103,2.456,1.879,3.952,2.305c1.515,0.382,3.174,0.601,4.938,0.601c1.645,0,3.378-0.248,5.214-0.688
		c1.821-0.472,3.571-1.115,5.216-1.955l0.528,10.433c-2.114,0.836-4.334,1.452-6.627,1.864c-2.29,0.382-4.773,0.587-7.505,0.587
		c-2.233,0-4.598-0.322-7.067-0.882c-2.469-0.587-4.76-1.704-6.86-3.319c-2.129-1.674-3.894-3.923-5.243-6.728
		c-1.354-2.835-2.028-6.539-2.028-11.152v-51.58h-17.131V482.95h17.131v-23.317h12.017v23.317h23.314v10.062H2513.672z"/>
	<path fill="#FFFFFF" d="M2532.211,492.513c-0.117-3.513-0.293-6.715-0.514-9.55h11.459c0.249,2.233,0.426,4.718,0.543,7.418
		c0.118,2.718,0.162,4.939,0.162,6.729h0.352c2.367-4.819,5.906-8.754,10.624-11.766c4.671-2.984,9.972-4.496,15.878-4.496
		c1.514,0,2.896,0.06,4.13,0.176c1.231,0.132,2.526,0.367,3.803,0.705l-1.585,11.489c-0.705-0.249-1.895-0.471-3.51-0.706
		c-1.678-0.236-3.322-0.368-4.966-0.368c-3.204,0-6.215,0.604-9.198,1.78c-2.907,1.187-5.494,3.038-7.652,5.552
		c-2.189,2.527-3.968,5.757-5.319,9.695c-1.337,3.952-2.013,8.683-2.013,14.179v42.278h-12.016v-64.492
		C2532.389,498.932,2532.327,496.025,2532.211,492.513z"/>
	<path fill="#FFFFFF" d="M2668.058,521.808c0,0.821,0,1.719,0,2.674c0,0.924-0.071,1.923-0.191,2.966h-68.531
		c0.116,4.129,0.938,8.022,2.495,11.68c1.484,3.657,3.615,6.829,6.318,9.535c2.718,2.703,5.921,4.877,9.563,6.462
		c3.646,1.588,7.583,2.396,11.841,2.396c6.229,0,11.621-1.454,16.178-4.363c4.521-2.864,7.961-6.184,10.326-9.96l9.035,7.066
		c-4.981,6.229-10.415,10.711-16.365,13.411c-5.907,2.705-12.326,4.055-19.143,4.055c-6.127,0-11.797-1.085-17.042-3.26
		c-5.229-2.173-9.727-5.215-13.516-9.079c-3.745-3.877-6.729-8.478-8.919-13.781c-2.189-5.302-3.26-11.075-3.26-17.304
		c0-6.244,1.102-11.988,3.188-17.335c2.131-5.289,5.054-9.859,8.856-13.751c3.747-3.908,8.172-6.92,13.239-9.097
		c5.055-2.188,10.545-3.26,16.423-3.26c6.465,0,12.21,1.102,17.128,3.26c4.938,2.177,9.066,5.113,12.373,8.831
		c3.274,3.717,5.771,8.037,7.506,12.986C2667.279,510.891,2668.058,516.18,2668.058,521.808z M2655.865,517.914
		c-0.367-7.773-2.852-14.209-7.522-19.319c-4.687-5.141-11.269-7.685-19.849-7.685c-4.01,0-7.712,0.735-11.15,2.206
		c-3.423,1.466-6.404,3.481-9.019,6.022c-2.616,2.542-4.659,5.419-6.17,8.639c-1.528,3.247-2.424,6.624-2.615,10.18h56.325V517.914z
		"/>
	<path fill="#FFFFFF" d="M2769.06,521.808c0,0.821,0,1.719,0,2.674c0,0.924-0.075,1.923-0.179,2.966h-68.562
		c0.146,4.129,0.956,8.022,2.514,11.68c1.511,3.657,3.642,6.829,6.345,9.535c2.689,2.703,5.877,4.877,9.533,6.462
		c3.66,1.588,7.596,2.396,11.856,2.396c6.213,0,11.622-1.454,16.146-4.363c4.554-2.864,7.978-6.184,10.358-9.96l9.003,7.066
		c-4.936,6.229-10.401,10.711-16.322,13.411c-5.935,2.705-12.353,4.055-19.156,4.055c-6.142,0-11.826-1.085-17.056-3.26
		c-5.199-2.173-9.738-5.215-13.486-9.079c-3.79-3.908-6.757-8.478-8.919-13.781c-2.203-5.302-3.273-11.075-3.273-17.304
		c0-6.244,1.07-11.988,3.201-17.335c2.102-5.289,5.038-9.859,8.83-13.751c3.761-3.908,8.167-6.92,13.253-9.097
		c5.051-2.188,10.531-3.26,16.407-3.26c6.449,0,12.193,1.102,17.13,3.26c4.938,2.177,9.052,5.113,12.371,8.831
		c3.275,3.717,5.772,8.037,7.491,12.986C2768.279,510.891,2769.06,516.18,2769.06,521.808z M2756.851,517.914
		c-0.353-7.773-2.834-14.209-7.493-19.319c-4.672-5.141-11.282-7.685-19.876-7.685c-3.982,0-7.699,0.735-11.138,2.206
		c-3.421,1.466-6.391,3.481-8.989,6.022c-2.616,2.527-4.687,5.419-6.187,8.639c-1.527,3.247-2.422,6.624-2.644,10.18h56.326V517.914
		z"/>
	<path fill="#FFFFFF" d="M2832.097,493.012h-23.313v48.245c0,3.056,0.307,5.582,0.896,7.581c0.557,1.998,1.422,3.584,2.555,4.673
		c1.102,1.103,2.453,1.879,3.966,2.305c1.528,0.382,3.203,0.601,4.938,0.601c1.657,0,3.392-0.248,5.197-0.688
		c1.81-0.472,3.571-1.115,5.23-1.955l0.518,10.433c-2.133,0.836-4.321,1.452-6.627,1.864c-2.307,0.382-4.79,0.587-7.508,0.587
		c-2.246,0-4.599-0.322-7.066-0.882c-2.481-0.587-4.76-1.704-6.875-3.319c-2.131-1.674-3.863-3.923-5.2-6.728
		c-1.368-2.835-2.044-6.539-2.044-11.152v-51.58h-17.129V482.95h17.129v-23.317h12.02v23.317h23.313V493.012z"/>
</g>
</svg>
