<?xml version="1.0" encoding="utf-8"?>
<!-- Generator: Adobe Illustrator 16.0.0, SVG Export Plug-In . SVG Version: 6.00 Build 0)  -->
<!DOCTYPE svg PUBLIC "-//W3C//DTD SVG 1.1//EN" "http://www.w3.org/Graphics/SVG/1.1/DTD/svg11.dtd">
<svg version="1.1" id="Layer_1" xmlns="http://www.w3.org/2000/svg" xmlns:xlink="http://www.w3.org/1999/xlink" x="0px" y="0px"
	 width="216px" height="46px" viewBox="0 0 216 46" enable-background="new 0 0 216 46" xml:space="preserve">
<g>
	<path fill="#57BA66" d="M40.504,11.5C39.21,9.258,23.322,0,20.736,0C18.148,0,2.254,9.235,0.968,11.5
		c-1.286,2.266-1.293,20.734,0,23C2.261,36.764,18.15,46,20.736,46s18.477-9.246,19.768-11.5
		C41.797,32.246,41.798,13.742,40.504,11.5z"/>
	<g id="Hexagon_2_">
		<g>
			
				<linearGradient id="SVGID_1_" gradientUnits="userSpaceOnUse" x1="1780.7168" y1="-2021.3306" x2="1780.7168" y2="-2000.6934" gradientTransform="matrix(1 0 0 -1 -1753.8066 -2000.6934)">
				<stop  offset="0" style="stop-color:#27A558"/>
				<stop  offset="1" style="stop-color:#57BA67"/>
			</linearGradient>
			<path fill="url(#SVGID_1_)" d="M20.736,0c-1.1,0-4.605,1.67-8.369,3.763l29.085,16.874c-0.083-4.316-0.398-8.187-0.947-9.137
				c-0.462-0.801-2.793-2.499-5.71-4.351l-7.777-4.512C24.104,1.102,21.63,0,20.736,0z"/>
			
				<linearGradient id="SVGID_2_" gradientUnits="userSpaceOnUse" x1="1776.6934" y1="-2030.8354" x2="1776.6934" y2="-2004.4565" gradientTransform="matrix(1 0 0 -1 -1753.8066 -2000.6934)">
				<stop  offset="0" style="stop-color:#27A558"/>
				<stop  offset="1" style="stop-color:#57BA67"/>
			</linearGradient>
			<path fill="url(#SVGID_2_)" d="M4.298,8.707l36.945,21.436c0.204-2.711,0.273-6.232,0.209-9.504L12.368,3.763
				C9.514,5.348,6.518,7.172,4.298,8.707z"/>
			
				<linearGradient id="SVGID_3_" gradientUnits="userSpaceOnUse" x1="1774.543" y1="-2038.0425" x2="1774.543" y2="-2009.4004" gradientTransform="matrix(1 0 0 -1 -1753.8066 -2000.6934)">
				<stop  offset="0" style="stop-color:#27A558"/>
				<stop  offset="1" style="stop-color:#57BA67"/>
			</linearGradient>
			<path fill="url(#SVGID_3_)" d="M4.298,8.707c-1.744,1.202-3.003,2.22-3.329,2.793c-0.333,0.587-0.579,2.268-0.74,4.468
				L37.083,37.35c1.79-1.229,3.09-2.271,3.422-2.852c0.331-0.576,0.576-2.21,0.737-4.363L4.298,8.707z"/>
			
				<linearGradient id="SVGID_4_" gradientUnits="userSpaceOnUse" x1="1772.3555" y1="-2043.0703" x2="1772.3553" y2="-2016.6465" gradientTransform="matrix(1 0 0 -1 -1753.8066 -2000.6934)">
				<stop  offset="0" style="stop-color:#27A558"/>
				<stop  offset="1" style="stop-color:#57BA67"/>
			</linearGradient>
			<path fill="url(#SVGID_4_)" d="M37.098,37.342L0.229,15.953c-0.206,2.777-0.272,6.389-0.201,9.706l28.819,16.718
				C31.743,40.773,34.817,38.908,37.098,37.342z"/>
			
				<linearGradient id="SVGID_5_" gradientUnits="userSpaceOnUse" x1="1768.2441" y1="-2046.6929" x2="1768.2441" y2="-2026.3501" gradientTransform="matrix(1 0 0 -1 -1753.8066 -2000.6934)">
				<stop  offset="0" style="stop-color:#27A558"/>
				<stop  offset="1" style="stop-color:#57BA67"/>
			</linearGradient>
			<path fill="url(#SVGID_5_)" d="M0.029,25.657c0.091,4.194,0.404,7.905,0.939,8.844C2.262,36.764,18.15,46,20.736,46
				c1.076,0,4.444-1.596,8.11-3.623L0.029,25.657z"/>
		</g>
	</g>
	<g id="H_2_">
		<path fill="#FFFFFF" d="M24.602,24.801v7.958h-1.329c-0.271,0-0.489,0.226-0.489,0.496c0,0.179,0.096,0.334,0.234,0.423
			l2.989,2.895c0.089,0.117,0.267,0.207,0.424,0.207c0.163,0,0.306-0.084,0.395-0.207l3.182-2.896
			c0.141-0.086,0.233-0.238,0.233-0.419c0-0.272-0.218-0.495-0.488-0.495H28.42l-0.01-19.238c0-0.272-0.215-0.493-0.484-0.493h-2.83
			c-0.271,0-0.493,0.221-0.493,0.493v7.426h-7.728v-7.709h1.329c0.271,0,0.489-0.222,0.489-0.495c0-0.178-0.094-0.335-0.233-0.422
			l-2.99-2.896c-0.088-0.119-0.267-0.208-0.425-0.208c-0.162,0-0.307,0.085-0.395,0.208l-3.184,2.896
			c-0.139,0.087-0.232,0.243-0.232,0.42c0,0.273,0.217,0.494,0.487,0.494h1.335l0.011,19.239c0,0.271,0.213,0.487,0.484,0.487h2.83
			c0.271,0,0.491-0.218,0.491-0.487v-7.679L24.602,24.801L24.602,24.801z"/>
	</g>
</g>
<path fill="#3B444F" d="M152.088,26.068c-1.58-2.597-3.167-5.183-4.747-7.776c-0.142-0.225-0.253-0.458-0.403-0.728
	c0.352-0.109,0.614-0.181,0.871-0.266c2.381-0.805,3.844-2.775,3.916-5.263c0.092-2.95-1.445-5.017-4.304-5.728
	c-0.646-0.162-1.313-0.291-1.978-0.306c-2.133-0.055-4.271-0.055-6.401-0.063c-1.243-0.004-1.267,0.021-1.267,1.234
	c0,6.332,0,12.664,0,18.998c0,0.227,0.007,0.449,0.022,0.671c0.03,0.312,0.193,0.522,0.519,0.524
	c0.675,0.014,1.342,0.014,2.014,0.009c0.324-0.005,0.508-0.202,0.545-0.506c0.031-0.196,0.021-0.4,0.021-0.591
	c0-2.496,0-4.994,0-7.483c0-0.269,0-0.542,0-0.962c0.75,0,1.385,0.023,2.023-0.005c0.428-0.019,0.686,0.131,0.896,0.508
	c0.525,0.955,1.1,1.894,1.658,2.837c1.102,1.864,2.201,3.725,3.297,5.596c0.23,0.399,0.479,0.662,0.994,0.623
	c0.536-0.041,1.084,0.004,1.631-0.018c0.354-0.02,0.787,0.15,1.004-0.291C152.592,26.676,152.277,26.379,152.088,26.068z
	 M144.982,14.949c-1.26,0.102-2.522,0.037-3.793,0.041c-0.063,0-0.131-0.04-0.242-0.078c0-2.005,0-4.006,0-6.013
	c0.029-0.032,0.068-0.092,0.104-0.093c1.629-0.036,3.27-0.154,4.893,0.132c0.24,0.044,0.479,0.103,0.716,0.186
	c1.692,0.586,2.454,2.335,1.751,3.989c-0.245,0.577-0.65,1.036-1.221,1.244C146.475,14.624,145.729,14.887,144.982,14.949z
	 M99.558,21.244c-0.01,0.243-0.031,0.483-0.031,0.726c0,1.52,0.004,3.045-0.002,4.562c0,0.733-0.101,0.834-0.808,0.843
	c-0.495,0.014-0.992,0.021-1.487-0.005c-0.515-0.017-0.642-0.156-0.668-0.683c-0.008-0.146-0.001-0.301-0.001-0.451
	c0-6.832,0-13.667,0-20.503c0-0.171-0.007-0.351,0.003-0.524c0.029-0.47,0.169-0.644,0.621-0.663c0.566-0.027,1.143-0.027,1.711,0
	c0.465,0.021,0.596,0.175,0.623,0.653c0.013,0.198,0.007,0.398,0.007,0.599c0,3.817,0,7.635,0,11.452
	c0,0.262,0.021,0.526,0.039,0.936c0.269-0.223,0.437-0.349,0.585-0.491c1.498-1.458,2.992-2.917,4.476-4.393
	c0.307-0.305,0.616-0.455,1.049-0.439c0.722,0.029,1.441,0.002,2.164,0.007c0.294,0.003,0.621-0.044,0.747,0.333
	c0.116,0.346-0.101,0.556-0.333,0.765c-1.803,1.641-3.609,3.283-5.413,4.927c-0.213,0.195-0.426,0.407-0.679,0.637
	c0.15,0.174,0.265,0.33,0.407,0.466c2.057,2.022,4.12,4.042,6.18,6.063c0.126,0.125,0.288,0.229,0.359,0.373
	c0.092,0.186,0.213,0.438,0.147,0.594c-0.063,0.16-0.317,0.298-0.507,0.332c-0.346,0.055-0.697,0.029-1.045,0.019
	c-0.666-0.017-1.407,0.132-1.983-0.11c-0.55-0.231-0.938-0.858-1.39-1.322c-1.331-1.379-2.658-2.756-3.991-4.138
	c-0.204-0.21-0.415-0.419-0.619-0.621C99.672,21.2,99.616,21.223,99.558,21.244z M187.863,21.269c0,0.472,0,0.94,0,1.415
	c0,1.296,0.009,2.595-0.004,3.89c-0.008,0.656-0.137,0.787-0.781,0.803c-0.471,0.014-0.938,0.014-1.413,0
	c-0.653-0.016-0.761-0.128-0.791-0.798c-0.01-0.151-0.003-0.302-0.003-0.451c0-6.78,0-13.565,0-20.348
	c0-1.228,0.018-1.245,1.259-1.245c0.374,0,0.744-0.014,1.119,0.011c0.41,0.027,0.565,0.195,0.614,0.604
	c0.015,0.199,0.006,0.4,0.006,0.598c0,3.817,0,7.634,0,11.449c0,0.272,0,0.541,0,1.002c0.322-0.278,0.521-0.431,0.705-0.613
	c1.423-1.391,2.852-2.775,4.253-4.187c0.377-0.379,0.759-0.582,1.31-0.542c0.641,0.045,1.29,0.003,1.938,0.011
	c0.314,0.007,0.675-0.071,0.833,0.322c0.153,0.393-0.146,0.597-0.382,0.809c-1.801,1.644-3.601,3.285-5.4,4.925
	c-0.199,0.184-0.398,0.371-0.65,0.613c0.188,0.205,0.344,0.388,0.512,0.554c2.043,2.009,4.084,4.015,6.123,6.017
	c0.104,0.103,0.25,0.193,0.308,0.318c0.09,0.191,0.203,0.438,0.142,0.602c-0.059,0.158-0.317,0.318-0.5,0.328
	c-0.92,0.031-1.843,0.047-2.756-0.01c-0.25-0.013-0.525-0.246-0.723-0.451c-1.652-1.695-3.283-3.396-4.93-5.103
	c-0.198-0.203-0.407-0.408-0.616-0.611C187.975,21.214,187.922,21.241,187.863,21.269z M124.13,18.96
	c-0.251-3.729-2.827-6.227-6.231-6.426c-2.961-0.176-5.274,0.928-6.86,3.46c-0.921,1.466-1.215,3.101-1.056,4.806
	c0.285,3.039,1.769,5.247,4.617,6.413c1.637,0.667,3.344,0.656,5.043,0.206c1.519-0.401,2.728-1.28,3.726-2.478
	c0.444-0.526,0.42-0.75-0.095-1.178c-0.229-0.188-0.465-0.37-0.701-0.553c-0.898-0.708-0.889-0.694-1.639,0.158
	c-1.263,1.441-2.847,1.988-4.697,1.477c-1.76-0.486-2.785-1.709-3.185-3.649c0.38-0.019,0.671-0.041,0.964-0.041
	c2.95-0.002,5.902-0.002,8.854-0.002c0.201,0,0.404,0.01,0.597-0.007c0.524-0.04,0.647-0.154,0.677-0.691
	C124.174,19.956,124.163,19.455,124.13,18.96z M113.168,18.529c0.066-0.267,0.092-0.485,0.174-0.679
	c1.021-2.425,3.574-3.232,5.745-2.278c1.201,0.53,1.783,1.572,1.983,2.959C118.387,18.529,115.82,18.529,113.168,18.529z
	 M78.479,26.473c-0.071-0.992-0.141-1.984-0.155-2.986c-0.024-1.869,0.015-3.742-0.016-5.611c-0.043-2.773-1.5-4.633-4.137-5.188
	c-2.282-0.481-4.441-0.092-6.411,1.195c-0.25,0.164-0.486,0.354-0.699,0.561c-0.377,0.362-0.391,0.555-0.086,0.97
	c0.164,0.218,0.351,0.42,0.526,0.629c0.752,0.891,0.742,0.881,1.696,0.18c1.372-1.005,2.897-1.282,4.521-0.832
	c1.183,0.329,1.804,1.404,1.582,2.638c-0.826,0.033-1.668,0.063-2.51,0.11c-1.321,0.074-2.621,0.249-3.86,0.733
	c-1.17,0.46-2.188,1.143-2.64,2.376c-0.928,2.527-0.002,5.159,2.734,6.127c1.181,0.412,2.39,0.407,3.603,0.207
	c1.08-0.174,2.011-0.682,2.93-1.516c0.072,0.311,0.111,0.47,0.145,0.631c0.117,0.563,0.212,0.656,0.791,0.669
	c0.395,0.013,0.792,0.011,1.192,0.004C78.435,27.359,78.537,27.225,78.479,26.473z M70.35,24.871
	c-0.646-0.229-1.126-0.615-1.292-1.324c-0.19-0.814,0.007-1.419,0.705-1.88c0.327-0.221,0.689-0.403,1.063-0.521
	c1.46-0.449,2.963-0.524,4.521-0.495C75.74,23.671,73.108,25.839,70.35,24.871z M166.333,26.544
	c-0.08-0.923-0.166-1.839-0.181-2.757c-0.031-2.124,0.021-4.243-0.031-6.364c-0.059-2.175-1.335-3.835-3.383-4.542
	c-1.327-0.463-2.684-0.468-4.047-0.234c-1.315,0.226-2.519,0.741-3.559,1.604c-0.636,0.52-0.652,0.728-0.146,1.352
	c0.201,0.247,0.406,0.5,0.625,0.738c0.468,0.535,0.625,0.557,1.162,0.104c1.101-0.932,2.367-1.297,3.791-1.24
	c1.377,0.058,2.693,0.751,2.668,2.777c-0.271,0.03-0.515,0.063-0.754,0.074c-0.668,0.035-1.343,0.046-2.009,0.094
	c-1.243,0.084-2.472,0.267-3.64,0.71c-1.1,0.419-2.033,1.061-2.584,2.14c-1.171,2.321-0.221,5.188,2.171,6.18
	c2.276,0.938,4.517,0.795,6.56-0.73c0.137-0.098,0.278-0.172,0.461-0.281c0.047,0.225,0.086,0.393,0.133,0.557
	c0.147,0.592,0.197,0.644,0.804,0.654c0.42,0.014,0.844,0.016,1.267,0C166.271,27.355,166.396,27.182,166.333,26.544z
	 M160.227,24.997c-0.648,0.077-1.343,0.011-1.986-0.134c-0.782-0.182-1.277-0.717-1.372-1.571c-0.093-0.863,0.299-1.437,1.032-1.812
	c0.285-0.146,0.584-0.289,0.888-0.375c1.425-0.401,2.876-0.473,4.379-0.469C163.553,22.366,162.459,24.716,160.227,24.997z
	 M172.163,14.088c0.306-0.21,0.5-0.356,0.704-0.492c1.83-1.224,3.796-1.421,5.826-0.68c1.748,0.638,2.635,2.044,3.043,3.782
	c0.133,0.554,0.184,1.135,0.188,1.704c0.014,2.668,0.003,5.336,0.003,8c0,0.172,0.042,0.379-0.026,0.515
	c-0.094,0.177-0.274,0.42-0.434,0.429c-0.667,0.045-1.336,0.026-2.005,0.021c-0.289-0.01-0.456-0.182-0.483-0.477
	c-0.015-0.197-0.011-0.394-0.011-0.598c0-2.143,0.011-4.287-0.008-6.429c-0.005-0.672-0.047-1.346-0.138-2.01
	c-0.15-1.121-0.576-2.099-1.745-2.467c-1.235-0.384-2.414-0.25-3.413,0.651c-0.729,0.662-1.1,1.532-1.268,2.481
	c-0.097,0.539-0.131,1.09-0.142,1.634c-0.012,2.097,0,4.188-0.008,6.283c0,0.865-0.075,0.936-0.931,0.945
	c-0.424,0.006-0.842,0.008-1.267-0.003c-0.62-0.021-0.739-0.134-0.769-0.735c-0.006-0.197-0.006-0.396-0.006-0.597
	c0-0.431,0.006-7.133-0.014-10.694c0-0.575-0.074-1.143-0.096-1.716c-0.02-0.612,0.111-0.74,0.732-0.756
	c0.447-0.016,0.894-0.009,1.338,0c0.683,0.008,0.748,0.068,0.844,0.748C172.105,13.742,172.129,13.856,172.163,14.088z
	 M88.564,27.773c-2.191-0.045-4.11-0.705-5.648-2.308c-1.051-1.091-1.679-2.405-1.907-3.9c-0.278-1.811-0.107-3.58,0.777-5.224
	c1.172-2.175,3.03-3.363,5.431-3.744c1.533-0.244,3.014-0.043,4.434,0.589c0.855,0.381,1.584,0.929,2.175,1.652
	c0.377,0.464,0.349,0.699-0.117,1.06c-0.413,0.319-0.841,0.617-1.268,0.919c-0.313,0.213-0.609,0.201-0.847-0.12
	c-1.063-1.404-2.504-1.728-4.12-1.376c-1.673,0.37-2.74,1.458-3.237,3.083c-0.414,1.355-0.347,2.704,0.221,4.019
	c1.328,3.064,5.515,3.365,7.197,1.243c0.428-0.539,0.563-0.521,1.115-0.126c0.325,0.227,0.644,0.471,0.953,0.711
	c0.572,0.445,0.612,0.699,0.135,1.219c-0.902,1.006-1.992,1.723-3.313,2.027C89.898,27.645,89.227,27.68,88.564,27.773z
	 M129.943,14.042c0.242-0.183,0.375-0.287,0.513-0.389c1.313-1.033,2.8-1.331,4.421-1.062c0.618,0.102,0.743,0.268,0.68,0.916
	c-0.033,0.422-0.101,0.839-0.164,1.26c-0.102,0.723-0.268,0.813-0.988,0.731c-0.536-0.061-1.09-0.104-1.623-0.029
	c-0.973,0.136-1.665,0.719-2.12,1.591c-0.433,0.835-0.619,1.729-0.619,2.667c0,2.165,0,4.332,0,6.503
	c0,0.174,0.007,0.354-0.008,0.521c-0.038,0.437-0.179,0.597-0.591,0.614c-0.592,0.025-1.192,0.025-1.783,0
	c-0.436-0.02-0.553-0.149-0.598-0.602c-0.024-0.225-0.015-0.449-0.015-0.673c0-2.668-0.003-7.87-0.003-8.001
	c-0.008-1.42-0.044-2.841-0.085-4.26c-0.021-0.891,0.033-0.954,0.886-0.963c0.4-0.005,0.799-0.008,1.191,0.003
	c0.648,0.013,0.695,0.057,0.829,0.705C129.891,13.693,129.911,13.813,129.943,14.042z M49.853,17.801c0,0-0.001,8.85-0.001,9.043
	c0,0.354-0.229,0.522-0.589,0.522c-0.644,0-1.291,0.004-1.936-0.003c-0.364,0-0.573-0.198-0.573-0.557c0-0.189,0-19.677,0-19.753
	c0-1.084,0.039-1.12,1.14-1.123c0.351-0.004,0.696-0.007,1.043,0.002c0.802,0.012,0.904,0.113,0.912,0.903
	c0.005,0.401,0.001,7.575,0.001,7.953h10.055c0-0.38-0.002-7.515,0-7.915c0.009-0.791,0.112-0.891,0.911-0.903
	c0.349-0.005,0.697-0.001,1.043,0c1.103,0.001,1.138,0.033,1.138,1.12c0,0.079,0,19.563,0,19.754c0,0.354-0.208,0.555-0.571,0.561
	c-0.646,0.006-1.292,0.006-1.934,0.004c-0.359-0.004-0.591-0.176-0.591-0.521c0-0.199,0-9.088,0-9.088L49.853,17.801L49.853,17.801z
	"/>
<g>
	<path fill="#4BB96D" d="M46.754,32.683h6.042v1.455H48.42v2.564h4.125v1.401H48.42v3.94h-1.666V32.683z"/>
	<path fill="#4BB96D" d="M53.246,38.844c0-0.502,0.09-0.958,0.271-1.368c0.18-0.41,0.425-0.761,0.734-1.051
		c0.308-0.291,0.674-0.517,1.097-0.675s0.873-0.237,1.349-0.237c0.476,0,0.925,0.079,1.348,0.237s0.789,0.384,1.097,0.675
		c0.309,0.29,0.553,0.641,0.734,1.051s0.271,0.866,0.271,1.368c0,0.503-0.091,0.962-0.271,1.376
		c-0.181,0.413-0.425,0.769-0.734,1.064c-0.308,0.295-0.674,0.526-1.097,0.693s-0.873,0.251-1.348,0.251
		c-0.477,0-0.926-0.084-1.349-0.251s-0.789-0.398-1.097-0.693c-0.309-0.296-0.554-0.651-0.734-1.064
		C53.336,39.806,53.246,39.347,53.246,38.844z M54.858,38.844c0,0.247,0.039,0.494,0.113,0.74c0.075,0.247,0.187,0.469,0.337,0.662
		s0.339,0.352,0.568,0.476c0.229,0.123,0.502,0.185,0.82,0.185c0.317,0,0.59-0.062,0.819-0.185c0.229-0.124,0.419-0.282,0.569-0.476
		s0.262-0.415,0.337-0.662c0.075-0.246,0.113-0.493,0.113-0.74c0-0.246-0.038-0.491-0.113-0.733s-0.187-0.46-0.337-0.655
		c-0.15-0.193-0.34-0.35-0.569-0.469c-0.229-0.118-0.502-0.179-0.819-0.179c-0.318,0-0.591,0.061-0.82,0.179
		c-0.229,0.119-0.418,0.275-0.568,0.469c-0.15,0.195-0.262,0.413-0.337,0.655S54.858,38.598,54.858,38.844z"/>
	<path fill="#4BB96D" d="M61.681,35.698h1.521v1.057h0.026c0.176-0.369,0.423-0.67,0.741-0.898c0.317-0.229,0.688-0.344,1.11-0.344
		c0.062,0,0.128,0.002,0.198,0.006c0.071,0.005,0.133,0.016,0.186,0.033v1.454c-0.105-0.026-0.196-0.044-0.271-0.053
		c-0.075-0.008-0.148-0.014-0.218-0.014c-0.362,0-0.653,0.066-0.873,0.199c-0.22,0.132-0.392,0.29-0.515,0.476
		c-0.124,0.186-0.207,0.374-0.251,0.569c-0.044,0.193-0.066,0.349-0.066,0.462v3.398h-1.587V35.698z"/>
	<path fill="#4BB96D" d="M68.768,32.683h1.825l1.812,6.876h0.026l2.062-6.876h1.72l2.022,6.876h0.027l1.851-6.876h1.771
		l-2.737,9.361h-1.613l-2.195-7.021h-0.027l-2.195,7.021h-1.612L68.768,32.683z"/>
	<path fill="#4BB96D" d="M82.069,38.844c0-0.502,0.09-0.958,0.271-1.368c0.18-0.41,0.425-0.761,0.733-1.051
		c0.309-0.291,0.674-0.517,1.097-0.675c0.423-0.158,0.873-0.237,1.349-0.237c0.476,0,0.925,0.079,1.349,0.237
		c0.423,0.158,0.789,0.384,1.097,0.675c0.308,0.29,0.553,0.641,0.733,1.051c0.181,0.41,0.271,0.866,0.271,1.368
		c0,0.503-0.09,0.962-0.271,1.376c-0.181,0.413-0.425,0.769-0.733,1.064c-0.309,0.295-0.674,0.526-1.097,0.693
		c-0.423,0.167-0.873,0.251-1.349,0.251c-0.477,0-0.926-0.084-1.349-0.251c-0.423-0.167-0.789-0.398-1.097-0.693
		c-0.309-0.296-0.553-0.651-0.733-1.064C82.159,39.806,82.069,39.347,82.069,38.844z M83.682,38.844c0,0.247,0.038,0.494,0.113,0.74
		c0.074,0.247,0.187,0.469,0.337,0.662c0.149,0.193,0.339,0.352,0.568,0.476c0.23,0.123,0.503,0.185,0.82,0.185
		c0.317,0,0.59-0.062,0.82-0.185c0.229-0.124,0.418-0.282,0.568-0.476s0.262-0.415,0.338-0.662c0.075-0.246,0.112-0.493,0.112-0.74
		c0-0.246-0.038-0.491-0.112-0.733c-0.076-0.242-0.188-0.46-0.338-0.655c-0.15-0.193-0.339-0.35-0.568-0.469
		c-0.229-0.118-0.503-0.179-0.82-0.179c-0.317,0-0.59,0.061-0.82,0.179c-0.229,0.119-0.418,0.275-0.568,0.469
		c-0.15,0.195-0.263,0.413-0.337,0.655C83.72,38.353,83.682,38.598,83.682,38.844z"/>
	<path fill="#4BB96D" d="M90.504,35.698h1.521v1.057h0.026c0.176-0.369,0.423-0.67,0.741-0.898c0.317-0.229,0.688-0.344,1.11-0.344
		c0.062,0,0.128,0.002,0.198,0.006c0.071,0.005,0.133,0.016,0.186,0.033v1.454c-0.105-0.026-0.196-0.044-0.271-0.053
		c-0.075-0.008-0.148-0.014-0.219-0.014c-0.362,0-0.652,0.066-0.873,0.199c-0.22,0.132-0.392,0.29-0.515,0.476
		c-0.124,0.186-0.207,0.374-0.251,0.569c-0.044,0.193-0.066,0.349-0.066,0.462v3.398h-1.587V35.698z"/>
	<path fill="#4BB96D" d="M95.343,32.049h1.587v6.319h0.04l2.406-2.67h2.037l-2.75,2.868l2.922,3.478h-2.103l-2.512-3.253h-0.04
		v3.253h-1.587V32.049z"/>
</g>
</svg>
