<?xml version="1.0" encoding="utf-8"?>
<!-- Generator: Adobe Illustrator 17.1.0, SVG Export Plug-In . SVG Version: 6.00 Build 0)  -->
<!DOCTYPE svg PUBLIC "-//W3C//DTD SVG 1.1//EN" "http://www.w3.org/Graphics/SVG/1.1/DTD/svg11.dtd">
<svg version="1.1" id="Layer_1" xmlns="http://www.w3.org/2000/svg" xmlns:xlink="http://www.w3.org/1999/xlink" x="0px" y="0px"
	 viewBox="1415.1 323 175 46" enable-background="new 1415.1 323 175 46" xml:space="preserve">
<g>
	<path fill="#55BA66" d="M1455.6,334.8c-1.3-2.2-16.8-11.3-19.3-11.3c-2.5,0-18,9-19.3,11.3c-1.3,2.2-1.3,20.3,0,22.5
		c1.3,2.2,16.8,11.2,19.3,11.2c2.5,0,18-9,19.3-11.2C1456.8,355,1456.8,336.9,1455.6,334.8z"/>
	<g id="Hexagon_2_">
		<g>
			
				<linearGradient id="SVGID_1_" gradientUnits="userSpaceOnUse" x1="2430.6741" y1="-959.7173" x2="2430.6741" y2="-939.5293" gradientTransform="matrix(1 0 0 -1 -988.3965 -616.0293)">
				<stop  offset="0" style="stop-color:#27A558"/>
				<stop  offset="1" style="stop-color:#54BA67"/>
			</linearGradient>
			<path fill="url(#SVGID_1_)" d="M1436.2,323.5c-1.1,0-4.5,1.6-8.2,3.7l28.4,16.5c-0.1-4.2-0.4-8-0.9-8.9c-0.5-0.8-2.7-2.4-5.6-4.3
				l-7.6-4.4C1439.5,324.6,1437.1,323.5,1436.2,323.5z"/>
			
				<linearGradient id="SVGID_2_" gradientUnits="userSpaceOnUse" x1="2426.7449" y1="-969.0147" x2="2426.7449" y2="-943.2102" gradientTransform="matrix(1 0 0 -1 -988.3965 -616.0293)">
				<stop  offset="0" style="stop-color:#27A558"/>
				<stop  offset="1" style="stop-color:#54BA67"/>
			</linearGradient>
			<path fill="url(#SVGID_2_)" d="M1420.2,332l36.1,21c0.2-2.6,0.3-6.1,0.2-9.3l-28.4-16.5C1425.3,328.7,1422.4,330.5,1420.2,332z"
				/>
			
				<linearGradient id="SVGID_3_" gradientUnits="userSpaceOnUse" x1="2424.6448" y1="-976.0679" x2="2424.6448" y2="-948.0465" gradientTransform="matrix(1 0 0 -1 -988.3965 -616.0293)">
				<stop  offset="0" style="stop-color:#27A558"/>
				<stop  offset="1" style="stop-color:#54BA67"/>
			</linearGradient>
			<path fill="url(#SVGID_3_)" d="M1420.2,332c-1.7,1.2-2.9,2.2-3.3,2.7c-0.3,0.6-0.6,2.2-0.7,4.4l36,20.9c1.7-1.2,3-2.2,3.3-2.8
				c0.3-0.6,0.6-2.2,0.7-4.3L1420.2,332z"/>
			
				<linearGradient id="SVGID_4_" gradientUnits="userSpaceOnUse" x1="2422.5093" y1="-980.9832" x2="2422.5093" y2="-955.1342" gradientTransform="matrix(1 0 0 -1 -988.3965 -616.0293)">
				<stop  offset="0" style="stop-color:#27A558"/>
				<stop  offset="1" style="stop-color:#54BA67"/>
			</linearGradient>
			<path fill="url(#SVGID_4_)" d="M1452.2,360l-36-20.9c-0.2,2.7-0.3,6.3-0.2,9.5l28.1,16.4C1447,363.4,1450,361.6,1452.2,360z"/>
			
				<linearGradient id="SVGID_5_" gradientUnits="userSpaceOnUse" x1="2418.4944" y1="-984.5293" x2="2418.4944" y2="-964.6287" gradientTransform="matrix(1 0 0 -1 -988.3965 -616.0293)">
				<stop  offset="0" style="stop-color:#27A558"/>
				<stop  offset="1" style="stop-color:#54BA67"/>
			</linearGradient>
			<path fill="url(#SVGID_5_)" d="M1416,348.6c0.1,4.1,0.4,7.7,0.9,8.7c1.3,2.2,16.8,11.2,19.3,11.2c1,0,4.3-1.6,7.9-3.5L1416,348.6
				z"/>
		</g>
	</g>
	<g id="H_2_">
		<path fill="#FFFFFF" d="M1440,347.8v7.8h-1.3c-0.3,0-0.5,0.2-0.5,0.5c0,0.2,0.1,0.3,0.2,0.4l2.9,2.8c0.1,0.1,0.3,0.2,0.4,0.2
			c0.2,0,0.3-0.1,0.4-0.2l3.1-2.8c0.1-0.1,0.2-0.2,0.2-0.4c0-0.3-0.2-0.5-0.5-0.5h-1.3l0-18.8c0-0.3-0.2-0.5-0.5-0.5h-2.8
			c-0.3,0-0.5,0.2-0.5,0.5v7.3h-7.5v-7.5h1.3c0.3,0,0.5-0.2,0.5-0.5c0-0.2-0.1-0.3-0.2-0.4l-2.9-2.8c-0.1-0.1-0.3-0.2-0.4-0.2
			c-0.2,0-0.3,0.1-0.4,0.2l-3.1,2.8c-0.1,0.1-0.2,0.2-0.2,0.4c0,0.3,0.2,0.5,0.5,0.5h1.3l0,18.8c0,0.3,0.2,0.5,0.5,0.5h2.8
			c0.3,0,0.5-0.2,0.5-0.5v-7.5L1440,347.8L1440,347.8z"/>
	</g>
</g>
<path fill="#39424E" d="M1541.6,347c-1.1-1.9-2.3-3.8-3.4-5.6c-0.1-0.2-0.2-0.3-0.3-0.5c0.3-0.1,0.4-0.1,0.6-0.2
	c1.7-0.6,2.8-2,2.8-3.8c0.1-2.1-1-3.6-3.1-4.2c-0.5-0.1-1-0.2-1.4-0.2c-1.5,0-3.1,0-4.6,0c-0.9,0-0.9,0-0.9,0.9c0,4.6,0,9.2,0,13.8
	c0,0.2,0,0.3,0,0.5c0,0.2,0.1,0.4,0.4,0.4c0.5,0,1,0,1.5,0c0.2,0,0.4-0.1,0.4-0.4c0-0.1,0-0.3,0-0.4c0-1.8,0-3.6,0-5.4
	c0-0.2,0-0.4,0-0.7c0.5,0,1,0,1.5,0c0.3,0,0.5,0.1,0.6,0.4c0.4,0.7,0.8,1.4,1.2,2.1c0.8,1.4,1.6,2.7,2.4,4.1
	c0.2,0.3,0.3,0.5,0.7,0.5c0.4,0,0.8,0,1.2,0c0.3,0,0.6,0.1,0.7-0.2C1542,347.5,1541.8,347.2,1541.6,347z M1536.5,338.9
	c-0.9,0.1-1.8,0-2.7,0c0,0-0.1,0-0.2-0.1c0-1.5,0-2.9,0-4.4c0,0,0-0.1,0.1-0.1c1.2,0,2.4-0.1,3.5,0.1c0.2,0,0.3,0.1,0.5,0.1
	c1.2,0.4,1.8,1.7,1.3,2.9c-0.2,0.4-0.5,0.8-0.9,0.9C1537.6,338.7,1537,338.9,1536.5,338.9z M1582.6,341.6c-0.2,0.2-0.3,0.4-0.4,0.6
	c-1.2,1.8-2.4,3.5-3.5,5.3c-0.2,0.3-0.5,0.5-0.8,0.4c-0.4,0-0.9,0-1.3,0c-0.2,0-0.4,0-0.6-0.2c-0.1-0.2,0-0.4,0.2-0.6
	c0.9-1.4,1.9-2.7,2.8-4.1c0.7-1,1.3-1.9,2-2.8c0.3-0.4,0.3-0.4,0-0.8c-1.4-2-2.8-4-4.2-6c-0.1-0.2-0.4-0.4-0.3-0.7
	c0.1-0.3,0.5-0.2,0.7-0.2c0.4,0,0.8,0,1.2,0c0.4,0,0.6,0.1,0.8,0.4c1,1.6,2.1,3.1,3.1,4.7c0.1,0.2,0.2,0.3,0.4,0.5
	c0.2-0.2,0.3-0.4,0.4-0.5c1-1.5,2.1-3.1,3.1-4.6c0.2-0.3,0.5-0.5,0.9-0.5c0.4,0,0.9,0,1.3,0c0.4,0,0.6,0.3,0.4,0.6
	c-0.1,0.1-0.1,0.2-0.2,0.3c-1.4,2-2.7,3.9-4.1,5.9c-0.1,0.2-0.2,0.3-0.4,0.5c0.1,0.2,0.2,0.3,0.3,0.5c1.6,2.2,3.1,4.5,4.7,6.7
	c0.1,0.2,0.4,0.4,0.2,0.7c-0.1,0.3-0.4,0.2-0.7,0.2c-0.4,0-0.8,0-1.1,0c-0.4,0-0.7-0.1-0.9-0.5c-1.2-1.8-2.4-3.5-3.6-5.3
	C1582.8,342,1582.7,341.9,1582.6,341.6z M1503.7,343.5c0,0.2,0,0.4,0,0.5c0,1.1,0,2.2,0,3.3c0,0.5-0.1,0.6-0.6,0.6
	c-0.4,0-0.7,0-1.1,0c-0.4,0-0.5-0.1-0.5-0.5c0-0.1,0-0.2,0-0.3c0-5,0-9.9,0-14.9c0-0.1,0-0.3,0-0.4c0-0.3,0.1-0.5,0.4-0.5
	c0.4,0,0.8,0,1.2,0c0.3,0,0.4,0.1,0.5,0.5c0,0.1,0,0.3,0,0.4c0,2.8,0,5.5,0,8.3c0,0.2,0,0.4,0,0.7c0.2-0.2,0.3-0.3,0.4-0.4
	c1.1-1.1,2.2-2.1,3.2-3.2c0.2-0.2,0.4-0.3,0.8-0.3c0.5,0,1,0,1.6,0c0.2,0,0.4,0,0.5,0.2c0.1,0.3-0.1,0.4-0.2,0.6
	c-1.3,1.2-2.6,2.4-3.9,3.6c-0.2,0.1-0.3,0.3-0.5,0.5c0.1,0.1,0.2,0.2,0.3,0.3c1.5,1.5,3,2.9,4.5,4.4c0.1,0.1,0.2,0.2,0.3,0.3
	c0.1,0.1,0.2,0.3,0.1,0.4c0,0.1-0.2,0.2-0.4,0.2c-0.2,0-0.5,0-0.8,0c-0.5,0-1,0.1-1.4-0.1c-0.4-0.2-0.7-0.6-1-1c-1-1-1.9-2-2.9-3
	c-0.1-0.2-0.3-0.3-0.4-0.5C1503.7,343.5,1503.7,343.5,1503.7,343.5z M1567.5,343.5c0,0.3,0,0.7,0,1c0,0.9,0,1.9,0,2.8
	c0,0.5-0.1,0.6-0.6,0.6c-0.3,0-0.7,0-1,0c-0.5,0-0.5-0.1-0.6-0.6c0-0.1,0-0.2,0-0.3c0-4.9,0-9.8,0-14.8c0-0.9,0-0.9,0.9-0.9
	c0.3,0,0.5,0,0.8,0c0.3,0,0.4,0.1,0.4,0.4c0,0.1,0,0.3,0,0.4c0,2.8,0,5.5,0,8.3c0,0.2,0,0.4,0,0.7c0.2-0.2,0.4-0.3,0.5-0.4
	c1-1,2.1-2,3.1-3c0.3-0.3,0.5-0.4,0.9-0.4c0.5,0,0.9,0,1.4,0c0.2,0,0.5-0.1,0.6,0.2c0.1,0.3-0.1,0.4-0.3,0.6
	c-1.3,1.2-2.6,2.4-3.9,3.6c-0.1,0.1-0.3,0.3-0.5,0.4c0.1,0.1,0.2,0.3,0.4,0.4c1.5,1.5,3,2.9,4.4,4.4c0.1,0.1,0.2,0.1,0.2,0.2
	c0.1,0.1,0.1,0.3,0.1,0.4c0,0.1-0.2,0.2-0.4,0.2c-0.7,0-1.3,0-2,0c-0.2,0-0.4-0.2-0.5-0.3c-1.2-1.2-2.4-2.5-3.6-3.7
	c-0.1-0.1-0.3-0.3-0.4-0.4C1567.6,343.5,1567.5,343.5,1567.5,343.5z M1521.4,341.9c-0.2-2.7-2-4.5-4.5-4.7c-2.1-0.1-3.8,0.7-5,2.5
	c-0.7,1.1-0.9,2.3-0.8,3.5c0.2,2.2,1.3,3.8,3.3,4.7c1.2,0.5,2.4,0.5,3.6,0.1c1.1-0.3,2-0.9,2.7-1.8c0.3-0.4,0.3-0.5-0.1-0.9
	c-0.2-0.1-0.3-0.3-0.5-0.4c-0.7-0.5-0.6-0.5-1.2,0.1c-0.9,1-2.1,1.4-3.4,1.1c-1.3-0.4-2-1.2-2.3-2.6c0.3,0,0.5,0,0.7,0
	c2.1,0,4.3,0,6.4,0c0.1,0,0.3,0,0.4,0c0.4,0,0.5-0.1,0.5-0.5C1521.4,342.6,1521.4,342.2,1521.4,341.9z M1513.5,341.5
	c0-0.2,0.1-0.4,0.1-0.5c0.7-1.8,2.6-2.3,4.2-1.7c0.9,0.4,1.3,1.1,1.4,2.1C1517.3,341.5,1515.4,341.5,1513.5,341.5z M1488.4,347.3
	c-0.1-0.7-0.1-1.4-0.1-2.2c0-1.4,0-2.7,0-4.1c0-2-1.1-3.4-3-3.8c-1.6-0.3-3.2-0.1-4.6,0.9c-0.2,0.1-0.4,0.3-0.5,0.4
	c-0.3,0.3-0.3,0.4-0.1,0.7c0.1,0.2,0.3,0.3,0.4,0.5c0.5,0.6,0.5,0.6,1.2,0.1c1-0.7,2.1-0.9,3.3-0.6c0.9,0.2,1.3,1,1.1,1.9
	c-0.6,0-1.2,0-1.8,0.1c-1,0.1-1.9,0.2-2.8,0.5c-0.8,0.3-1.6,0.8-1.9,1.7c-0.7,1.8,0,3.7,2,4.4c0.9,0.3,1.7,0.3,2.6,0.2
	c0.8-0.1,1.5-0.5,2.1-1.1c0.1,0.2,0.1,0.3,0.1,0.5c0.1,0.4,0.2,0.5,0.6,0.5c0.3,0,0.6,0,0.9,0C1488.4,348,1488.5,347.9,1488.4,347.3
	z M1482.6,346.1c-0.5-0.2-0.8-0.4-0.9-1c-0.1-0.6,0-1,0.5-1.4c0.2-0.2,0.5-0.3,0.8-0.4c1.1-0.3,2.1-0.4,3.3-0.4
	C1486.4,345.3,1484.5,346.8,1482.6,346.1z M1551.9,347.4c-0.1-0.7-0.1-1.3-0.1-2c0-1.5,0-3.1,0-4.6c0-1.6-1-2.8-2.4-3.3
	c-1-0.3-1.9-0.3-2.9-0.2c-1,0.2-1.8,0.5-2.6,1.2c-0.5,0.4-0.5,0.5-0.1,1c0.1,0.2,0.3,0.4,0.5,0.5c0.3,0.4,0.5,0.4,0.8,0.1
	c0.8-0.7,1.7-0.9,2.7-0.9c1,0,1.9,0.5,1.9,2c-0.2,0-0.4,0-0.5,0.1c-0.5,0-1,0-1.5,0.1c-0.9,0.1-1.8,0.2-2.6,0.5
	c-0.8,0.3-1.5,0.8-1.9,1.6c-0.8,1.7-0.2,3.8,1.6,4.5c1.6,0.7,3.3,0.6,4.7-0.5c0.1-0.1,0.2-0.1,0.3-0.2c0,0.2,0.1,0.3,0.1,0.4
	c0.1,0.4,0.1,0.5,0.6,0.5c0.3,0,0.6,0,0.9,0C1551.9,347.9,1552,347.8,1551.9,347.4z M1547.5,346.2c-0.5,0.1-1,0-1.4-0.1
	c-0.6-0.1-0.9-0.5-1-1.1c-0.1-0.6,0.2-1,0.7-1.3c0.2-0.1,0.4-0.2,0.6-0.3c1-0.3,2.1-0.3,3.2-0.3
	C1549.9,344.3,1549.1,346,1547.5,346.2z M1556.1,338.3c0.2-0.2,0.4-0.3,0.5-0.4c1.3-0.9,2.7-1,4.2-0.5c1.3,0.5,1.9,1.5,2.2,2.7
	c0.1,0.4,0.1,0.8,0.1,1.2c0,1.9,0,3.9,0,5.8c0,0.1,0,0.3,0,0.4c-0.1,0.1-0.2,0.3-0.3,0.3c-0.5,0-1,0-1.4,0c-0.2,0-0.3-0.1-0.3-0.3
	c0-0.1,0-0.3,0-0.4c0-1.6,0-3.1,0-4.7c0-0.5,0-1-0.1-1.5c-0.1-0.8-0.4-1.5-1.3-1.8c-0.9-0.3-1.7-0.2-2.5,0.5
	c-0.5,0.5-0.8,1.1-0.9,1.8c-0.1,0.4-0.1,0.8-0.1,1.2c0,1.5,0,3,0,4.6c0,0.6-0.1,0.7-0.7,0.7c-0.3,0-0.6,0-0.9,0
	c-0.4,0-0.5-0.1-0.6-0.5c0-0.1,0-0.3,0-0.4c0-0.3,0-5.2,0-7.8c0-0.4-0.1-0.8-0.1-1.2c0-0.4,0.1-0.5,0.5-0.5c0.3,0,0.6,0,1,0
	c0.5,0,0.5,0.1,0.6,0.5C1556.1,338.1,1556.1,338.1,1556.1,338.3z M1495.7,348.2c-1.6,0-3-0.5-4.1-1.7c-0.8-0.8-1.2-1.7-1.4-2.8
	c-0.2-1.3-0.1-2.6,0.6-3.8c0.8-1.6,2.2-2.4,3.9-2.7c1.1-0.2,2.2,0,3.2,0.4c0.6,0.3,1.1,0.7,1.6,1.2c0.3,0.3,0.3,0.5-0.1,0.8
	c-0.3,0.2-0.6,0.4-0.9,0.7c-0.2,0.2-0.4,0.1-0.6-0.1c-0.8-1-1.8-1.3-3-1c-1.2,0.3-2,1.1-2.3,2.2c-0.3,1-0.3,2,0.2,2.9
	c1,2.2,4,2.4,5.2,0.9c0.3-0.4,0.4-0.4,0.8-0.1c0.2,0.2,0.5,0.3,0.7,0.5c0.4,0.3,0.4,0.5,0.1,0.9c-0.7,0.7-1.4,1.3-2.4,1.5
	C1496.7,348.2,1496.2,348.2,1495.7,348.2z M1525.6,338.3c0.2-0.1,0.3-0.2,0.4-0.3c0.9-0.7,2-1,3.2-0.8c0.4,0.1,0.5,0.2,0.5,0.7
	c0,0.3-0.1,0.6-0.1,0.9c-0.1,0.5-0.2,0.6-0.7,0.5c-0.4,0-0.8-0.1-1.2,0c-0.7,0.1-1.2,0.5-1.5,1.2c-0.3,0.6-0.4,1.3-0.4,1.9
	c0,1.6,0,3.1,0,4.7c0,0.1,0,0.3,0,0.4c0,0.3-0.1,0.4-0.4,0.4c-0.4,0-0.9,0-1.3,0c-0.3,0-0.4-0.1-0.4-0.4c0-0.2,0-0.3,0-0.5
	c0-1.9,0-5.7,0-5.8c0-1,0-2.1-0.1-3.1c0-0.6,0-0.7,0.6-0.7c0.3,0,0.6,0,0.9,0c0.5,0,0.5,0,0.6,0.5
	C1525.6,338,1525.6,338.1,1525.6,338.3z M1467.7,341c0,0,0,6.4,0,6.6c0,0.3-0.2,0.4-0.4,0.4c-0.5,0-0.9,0-1.4,0
	c-0.3,0-0.4-0.1-0.4-0.4c0-0.1,0-14.3,0-14.3c0-0.8,0-0.8,0.8-0.8c0.3,0,0.5,0,0.8,0c0.6,0,0.7,0.1,0.7,0.7c0,0.3,0,5.5,0,5.8h7.3
	c0-0.3,0-5.5,0-5.7c0-0.6,0.1-0.6,0.7-0.7c0.3,0,0.5,0,0.8,0c0.8,0,0.8,0,0.8,0.8c0,0.1,0,14.2,0,14.3c0,0.3-0.2,0.4-0.4,0.4
	c-0.5,0-0.9,0-1.4,0c-0.3,0-0.4-0.1-0.4-0.4c0-0.1,0-6.6,0-6.6L1467.7,341L1467.7,341z"/>
<g>
	<path fill="#979FAF" d="M1468.9,355.6h-1.3v4.7h-0.8v-4.7h-1.1v-0.7h1.1v-1.5c0-0.6,0.1-1.1,0.4-1.4c0.3-0.4,0.8-0.5,1.4-0.5
		c0.1,0,0.2,0,0.3,0c0.1,0,0.2,0,0.3,0.1l-0.1,0.7c-0.1,0-0.2,0-0.3-0.1c-0.1,0-0.2,0-0.3,0c-0.2,0-0.4,0-0.5,0.1
		c-0.1,0.1-0.2,0.2-0.3,0.3c-0.1,0.1-0.1,0.3-0.1,0.4c0,0.2,0,0.3,0,0.5v1.4h1.3V355.6L1468.9,355.6z"/>
	<path fill="#979FAF" d="M1475.4,357.6c0,0.4-0.1,0.8-0.2,1.1c-0.1,0.3-0.3,0.6-0.6,0.9c-0.3,0.3-0.6,0.4-0.9,0.6
		c-0.4,0.1-0.7,0.2-1.2,0.2c-0.4,0-0.8-0.1-1.1-0.2c-0.4-0.1-0.7-0.3-0.9-0.6c-0.3-0.3-0.5-0.6-0.6-0.9c-0.1-0.3-0.2-0.7-0.2-1.1
		c0-0.4,0.1-0.8,0.2-1.1c0.1-0.3,0.3-0.6,0.6-0.9c0.3-0.3,0.6-0.5,0.9-0.6c0.4-0.1,0.7-0.2,1.1-0.2c0.4,0,0.8,0.1,1.2,0.2
		c0.4,0.1,0.7,0.3,0.9,0.6c0.3,0.3,0.4,0.6,0.6,0.9C1475.3,356.8,1475.4,357.2,1475.4,357.6z M1474.5,357.6c0-0.3,0-0.6-0.1-0.8
		c-0.1-0.3-0.2-0.5-0.4-0.7c-0.2-0.2-0.4-0.4-0.6-0.5c-0.3-0.1-0.5-0.2-0.9-0.2s-0.6,0.1-0.8,0.2c-0.2,0.1-0.5,0.3-0.6,0.5
		c-0.2,0.2-0.3,0.4-0.4,0.7c-0.1,0.3-0.1,0.5-0.1,0.8c0,0.3,0,0.6,0.1,0.8c0.1,0.3,0.2,0.5,0.4,0.7c0.2,0.2,0.4,0.4,0.6,0.5
		c0.2,0.1,0.5,0.2,0.8,0.2c0.3,0,0.6-0.1,0.9-0.2c0.3-0.1,0.5-0.3,0.6-0.5c0.2-0.2,0.3-0.4,0.4-0.7
		C1474.5,358.2,1474.5,357.9,1474.5,357.6z"/>
	<path fill="#979FAF" d="M1477,355.5c0-0.2,0-0.4,0-0.6h0.7c0,0.1,0,0.3,0,0.5c0,0.2,0,0.3,0,0.4h0c0.2-0.3,0.4-0.6,0.7-0.8
		c0.3-0.2,0.7-0.3,1-0.3c0.1,0,0.2,0,0.3,0c0.1,0,0.2,0,0.2,0l-0.1,0.7c0,0-0.1,0-0.2,0c-0.1,0-0.2,0-0.3,0c-0.2,0-0.4,0-0.6,0.1
		c-0.2,0.1-0.4,0.2-0.5,0.4c-0.1,0.2-0.3,0.4-0.3,0.6c-0.1,0.3-0.1,0.6-0.1,0.9v2.7h-0.8v-4.2C1477.1,355.9,1477,355.8,1477,355.5z"
		/>
	<path fill="#979FAF" d="M1482.7,355.1c0.3-0.2,0.7-0.3,1.1-0.3c0.1,0,0.3,0,0.5,0c0.2,0,0.3,0.1,0.5,0.2c0.2,0.1,0.3,0.2,0.4,0.4
		c0.1,0.1,0.2,0.3,0.3,0.6c0.2-0.4,0.4-0.7,0.8-0.8c0.3-0.2,0.7-0.3,1.1-0.3c0.7,0,1.2,0.2,1.5,0.6c0.3,0.4,0.5,0.9,0.5,1.6v3.3
		h-0.8v-3c0-0.6-0.1-1-0.3-1.4c-0.2-0.3-0.6-0.5-1.1-0.5c-0.3,0-0.5,0.1-0.7,0.2c-0.2,0.1-0.4,0.3-0.5,0.5c-0.1,0.2-0.2,0.4-0.3,0.6
		c-0.1,0.2-0.1,0.5-0.1,0.7v2.9h-0.8v-3.1c0-0.3,0-0.5-0.1-0.7c0-0.2-0.1-0.4-0.2-0.5c-0.1-0.1-0.2-0.3-0.4-0.3
		c-0.2-0.1-0.4-0.1-0.6-0.1c-0.2,0-0.4,0-0.6,0.1c-0.2,0.1-0.4,0.2-0.5,0.4c-0.1,0.2-0.3,0.4-0.4,0.7c-0.1,0.3-0.1,0.6-0.1,0.9v2.8
		h-0.8v-4.2c0-0.1,0-0.3,0-0.6c0-0.2,0-0.4,0-0.6h0.7c0,0.1,0,0.3,0,0.5c0,0.2,0,0.3,0,0.4h0
		C1482.1,355.5,1482.3,355.3,1482.7,355.1z"/>
	<path fill="#979FAF" d="M1496.2,357.4c0,0.1,0,0.1,0,0.2c0,0.1,0,0.1,0,0.2h-4.5c0,0.3,0.1,0.5,0.2,0.8c0.1,0.2,0.2,0.4,0.4,0.6
		c0.2,0.2,0.4,0.3,0.6,0.4c0.2,0.1,0.5,0.2,0.8,0.2c0.4,0,0.8-0.1,1.1-0.3c0.3-0.2,0.5-0.4,0.7-0.6l0.6,0.5
		c-0.3,0.4-0.7,0.7-1.1,0.9c-0.4,0.2-0.8,0.3-1.2,0.3c-0.4,0-0.8-0.1-1.1-0.2c-0.3-0.1-0.6-0.3-0.9-0.6c-0.2-0.3-0.4-0.6-0.6-0.9
		c-0.1-0.3-0.2-0.7-0.2-1.1c0-0.4,0.1-0.8,0.2-1.1c0.1-0.3,0.3-0.6,0.6-0.9c0.2-0.3,0.5-0.5,0.9-0.6c0.3-0.1,0.7-0.2,1.1-0.2
		c0.4,0,0.8,0.1,1.1,0.2c0.3,0.1,0.6,0.3,0.8,0.6c0.2,0.2,0.4,0.5,0.5,0.8C1496.2,356.7,1496.2,357.1,1496.2,357.4z M1495.4,357.2
		c0-0.5-0.2-0.9-0.5-1.3c-0.3-0.3-0.7-0.5-1.3-0.5c-0.3,0-0.5,0-0.7,0.1c-0.2,0.1-0.4,0.2-0.6,0.4c-0.2,0.2-0.3,0.4-0.4,0.6
		c-0.1,0.2-0.2,0.4-0.2,0.7L1495.4,357.2L1495.4,357.2L1495.4,357.2z"/>
	<path fill="#979FAF" d="M1497.9,355.5c0-0.2,0-0.4,0-0.6h0.7c0,0.1,0,0.3,0,0.5c0,0.2,0,0.3,0,0.4h0c0.2-0.3,0.4-0.6,0.7-0.8
		c0.3-0.2,0.6-0.3,1-0.3c0.1,0,0.2,0,0.3,0c0.1,0,0.2,0,0.2,0l-0.1,0.7c0,0-0.1,0-0.2,0c-0.1,0-0.2,0-0.3,0c-0.2,0-0.4,0-0.6,0.1
		c-0.2,0.1-0.4,0.2-0.5,0.4c-0.1,0.2-0.3,0.4-0.3,0.6c-0.1,0.3-0.1,0.6-0.1,0.9v2.7h-0.8v-4.2
		C1497.9,355.9,1497.9,355.8,1497.9,355.5z"/>
	<path fill="#979FAF" d="M1502.8,360.3h-0.8v-8.7h0.8V360.3z"/>
	<path fill="#979FAF" d="M1506.8,359.4L1506.8,359.4l1.7-4.5h0.8l-2.7,6.8c-0.2,0.4-0.4,0.7-0.6,1c-0.2,0.2-0.6,0.4-1.1,0.4
		c-0.2,0-0.5,0-0.7-0.1l0.1-0.7c0.2,0.1,0.4,0.1,0.6,0.1c0.3,0,0.5-0.1,0.6-0.2c0.2-0.2,0.3-0.4,0.4-0.7l0.4-1.1l-2.3-5.4h0.9
		L1506.8,359.4z"/>
	<path fill="#979FAF" d="M1514.3,360.3h-0.8v-8.1h0.8V360.3z"/>
	<path fill="#979FAF" d="M1517.1,354.9c0,0.1,0,0.3,0,0.5c0,0.2,0,0.3,0,0.4h0c0.2-0.3,0.4-0.6,0.7-0.8c0.3-0.2,0.7-0.3,1.1-0.3
		c0.7,0,1.2,0.2,1.5,0.6c0.3,0.4,0.5,0.9,0.5,1.6v3.3h-0.8v-3c0-0.3,0-0.5-0.1-0.8c0-0.2-0.1-0.4-0.2-0.6c-0.1-0.2-0.3-0.3-0.4-0.4
		c-0.2-0.1-0.4-0.1-0.7-0.1c-0.2,0-0.4,0-0.6,0.1c-0.2,0.1-0.4,0.2-0.5,0.4c-0.2,0.2-0.3,0.4-0.4,0.7c-0.1,0.3-0.1,0.6-0.1,0.9v2.8
		h-0.8v-4.2c0-0.1,0-0.3,0-0.6c0-0.2,0-0.4,0-0.6L1517.1,354.9L1517.1,354.9L1517.1,354.9z"/>
	<path fill="#979FAF" d="M1525.5,355.6h-1.5v3.1c0,0.2,0,0.4,0.1,0.5c0,0.1,0.1,0.2,0.2,0.3c0.1,0.1,0.2,0.1,0.3,0.1
		c0.1,0,0.2,0,0.3,0c0.1,0,0.2,0,0.3,0c0.1,0,0.2-0.1,0.3-0.1l0,0.7c-0.1,0.1-0.3,0.1-0.4,0.1c-0.1,0-0.3,0-0.5,0
		c-0.1,0-0.3,0-0.5-0.1c-0.2,0-0.3-0.1-0.4-0.2c-0.1-0.1-0.3-0.3-0.3-0.4c-0.1-0.2-0.1-0.4-0.1-0.7v-3.4h-1.1v-0.7h1.1v-1.5h0.8v1.5
		h1.5V355.6L1525.5,355.6z"/>
	<path fill="#979FAF" d="M1531.6,357.4c0,0.1,0,0.1,0,0.2c0,0.1,0,0.1,0,0.2h-4.5c0,0.3,0.1,0.5,0.2,0.8c0.1,0.2,0.2,0.4,0.4,0.6
		c0.2,0.2,0.4,0.3,0.6,0.4c0.2,0.1,0.5,0.2,0.8,0.2c0.4,0,0.8-0.1,1-0.3c0.3-0.2,0.5-0.4,0.7-0.6l0.6,0.5c-0.3,0.4-0.7,0.7-1.1,0.9
		c-0.4,0.2-0.8,0.3-1.2,0.3c-0.4,0-0.8-0.1-1.1-0.2c-0.3-0.1-0.6-0.3-0.9-0.6c-0.2-0.3-0.4-0.6-0.6-0.9c-0.1-0.3-0.2-0.7-0.2-1.1
		c0-0.4,0.1-0.8,0.2-1.1c0.1-0.3,0.3-0.6,0.6-0.9c0.2-0.3,0.5-0.5,0.9-0.6c0.3-0.1,0.7-0.2,1.1-0.2c0.4,0,0.8,0.1,1.1,0.2
		c0.3,0.1,0.6,0.3,0.8,0.6c0.2,0.2,0.4,0.5,0.5,0.8C1531.5,356.7,1531.6,357.1,1531.6,357.4z M1530.8,357.2c0-0.5-0.2-0.9-0.5-1.3
		c-0.3-0.3-0.7-0.5-1.3-0.5c-0.3,0-0.5,0-0.7,0.1c-0.2,0.1-0.4,0.2-0.6,0.4c-0.2,0.2-0.3,0.4-0.4,0.6c-0.1,0.2-0.2,0.4-0.2,0.7
		L1530.8,357.2L1530.8,357.2L1530.8,357.2z"/>
	<path fill="#979FAF" d="M1533.3,355.5c0-0.2,0-0.4,0-0.6h0.7c0,0.1,0,0.3,0,0.5c0,0.2,0,0.3,0,0.4h0c0.2-0.3,0.4-0.6,0.7-0.8
		c0.3-0.2,0.6-0.3,1-0.3c0.1,0,0.2,0,0.3,0c0.1,0,0.2,0,0.2,0l-0.1,0.7c0,0-0.1,0-0.2,0c-0.1,0-0.2,0-0.3,0c-0.2,0-0.4,0-0.6,0.1
		c-0.2,0.1-0.4,0.2-0.5,0.4c-0.1,0.2-0.3,0.4-0.3,0.6c-0.1,0.3-0.1,0.6-0.1,0.9v2.7h-0.8v-4.2
		C1533.3,355.9,1533.3,355.8,1533.3,355.5z"/>
	<path fill="#979FAF" d="M1539.6,360.3h-0.9l-2.2-5.4h0.9l1.7,4.5h0l1.8-4.5h0.8L1539.6,360.3z"/>
	<path fill="#979FAF" d="M1544,352.8c0,0.2-0.1,0.3-0.2,0.4c-0.1,0.1-0.2,0.2-0.4,0.2c-0.1,0-0.3-0.1-0.4-0.2
		c-0.1-0.1-0.2-0.2-0.2-0.4c0-0.2,0.1-0.3,0.2-0.4c0.1-0.1,0.2-0.2,0.4-0.2c0.1,0,0.3,0.1,0.4,0.2
		C1543.9,352.5,1544,352.7,1544,352.8z M1543.8,360.3h-0.8v-5.4h0.8V360.3z"/>
	<path fill="#979FAF" d="M1550.8,357.4c0,0.1,0,0.1,0,0.2c0,0.1,0,0.1,0,0.2h-4.5c0,0.3,0.1,0.5,0.2,0.8c0.1,0.2,0.2,0.4,0.4,0.6
		c0.2,0.2,0.4,0.3,0.6,0.4c0.2,0.1,0.5,0.2,0.8,0.2c0.4,0,0.8-0.1,1-0.3c0.3-0.2,0.5-0.4,0.7-0.6l0.6,0.5c-0.3,0.4-0.7,0.7-1.1,0.9
		c-0.4,0.2-0.8,0.3-1.2,0.3c-0.4,0-0.8-0.1-1.1-0.2c-0.3-0.1-0.6-0.3-0.9-0.6c-0.2-0.3-0.4-0.6-0.6-0.9c-0.1-0.3-0.2-0.7-0.2-1.1
		c0-0.4,0.1-0.8,0.2-1.1c0.1-0.3,0.3-0.6,0.6-0.9c0.2-0.3,0.5-0.5,0.9-0.6c0.3-0.1,0.7-0.2,1.1-0.2c0.4,0,0.8,0.1,1.1,0.2
		c0.3,0.1,0.6,0.3,0.8,0.6c0.2,0.2,0.4,0.5,0.5,0.8C1550.7,356.7,1550.8,357.1,1550.8,357.4z M1550,357.2c0-0.5-0.2-0.9-0.5-1.3
		c-0.3-0.3-0.7-0.5-1.3-0.5c-0.3,0-0.5,0-0.7,0.1c-0.2,0.1-0.4,0.2-0.6,0.4c-0.2,0.2-0.3,0.4-0.4,0.6c-0.1,0.2-0.2,0.4-0.2,0.7
		L1550,357.2L1550,357.2L1550,357.2z"/>
	<path fill="#979FAF" d="M1552.6,354.9l1.3,4.4h0l1.4-4.4h0.8l1.5,4.4h0l1.3-4.4h0.8l-1.7,5.4h-0.8l-1.4-4.4h0l-1.4,4.4h-0.9
		l-1.7-5.4H1552.6z"/>
	<path fill="#979FAF" d="M1563.9,356.2c-0.1-0.2-0.3-0.4-0.5-0.5c-0.2-0.1-0.5-0.2-0.8-0.2c-0.1,0-0.3,0-0.4,0
		c-0.1,0-0.3,0.1-0.4,0.2c-0.1,0.1-0.2,0.2-0.3,0.3c-0.1,0.1-0.1,0.2-0.1,0.4c0,0.3,0.1,0.4,0.3,0.6c0.2,0.1,0.5,0.2,1,0.3
		c0.6,0.1,1.1,0.3,1.4,0.6c0.3,0.2,0.5,0.6,0.5,1c0,0.3-0.1,0.6-0.2,0.8c-0.1,0.2-0.3,0.4-0.5,0.5c-0.2,0.1-0.4,0.2-0.6,0.3
		c-0.2,0.1-0.5,0.1-0.7,0.1c-0.4,0-0.8-0.1-1.2-0.3c-0.4-0.2-0.7-0.4-0.9-0.8l0.6-0.5c0.1,0.2,0.3,0.4,0.6,0.6
		c0.3,0.2,0.6,0.2,0.9,0.2c0.2,0,0.3,0,0.5,0c0.2,0,0.3-0.1,0.4-0.2c0.1-0.1,0.2-0.2,0.3-0.3c0.1-0.1,0.1-0.3,0.1-0.4
		c0-0.3-0.1-0.5-0.4-0.6c-0.3-0.1-0.7-0.3-1.2-0.4c-0.2,0-0.3-0.1-0.5-0.1s-0.3-0.1-0.5-0.3c-0.2-0.1-0.3-0.2-0.4-0.4
		c-0.1-0.2-0.2-0.4-0.2-0.6c0-0.3,0.1-0.5,0.2-0.7c0.1-0.2,0.3-0.4,0.4-0.5c0.2-0.1,0.4-0.2,0.6-0.3c0.2-0.1,0.5-0.1,0.7-0.1
		c0.4,0,0.7,0.1,1.1,0.3c0.4,0.2,0.6,0.4,0.8,0.7L1563.9,356.2z"/>
	<path fill="#979FAF" d="M1568.5,355.6h-1.5v3.1c0,0.2,0,0.4,0.1,0.5c0,0.1,0.1,0.2,0.2,0.3c0.1,0.1,0.2,0.1,0.3,0.1
		c0.1,0,0.2,0,0.3,0c0.1,0,0.2,0,0.3,0c0.1,0,0.2-0.1,0.3-0.1l0,0.7c-0.1,0.1-0.3,0.1-0.4,0.1c-0.1,0-0.3,0-0.5,0
		c-0.1,0-0.3,0-0.5-0.1c-0.2,0-0.3-0.1-0.4-0.2c-0.1-0.1-0.3-0.3-0.3-0.4c-0.1-0.2-0.1-0.4-0.1-0.7v-3.4h-1.1v-0.7h1.1v-1.5h0.8v1.5
		h1.5L1568.5,355.6L1568.5,355.6L1568.5,355.6z"/>
	<path fill="#979FAF" d="M1569.7,355.5c0-0.2,0-0.4,0-0.6h0.7c0,0.1,0,0.3,0,0.5c0,0.2,0,0.3,0,0.4h0c0.2-0.3,0.4-0.6,0.7-0.8
		c0.3-0.2,0.6-0.3,1-0.3c0.1,0,0.2,0,0.3,0c0.1,0,0.2,0,0.2,0l-0.1,0.7c0,0-0.1,0-0.2,0c-0.1,0-0.2,0-0.3,0c-0.2,0-0.4,0-0.6,0.1
		c-0.2,0.1-0.4,0.2-0.5,0.4c-0.1,0.2-0.3,0.4-0.3,0.6c-0.1,0.3-0.1,0.6-0.1,0.9v2.7h-0.8v-4.2
		C1569.8,355.9,1569.8,355.8,1569.7,355.5z"/>
	<path fill="#979FAF" d="M1578.6,357.4c0,0.1,0,0.1,0,0.2c0,0.1,0,0.1,0,0.2h-4.5c0,0.3,0.1,0.5,0.2,0.8c0.1,0.2,0.2,0.4,0.4,0.6
		c0.2,0.2,0.4,0.3,0.6,0.4c0.2,0.1,0.5,0.2,0.8,0.2c0.4,0,0.8-0.1,1.1-0.3c0.3-0.2,0.5-0.4,0.7-0.6l0.6,0.5
		c-0.3,0.4-0.7,0.7-1.1,0.9c-0.4,0.2-0.8,0.3-1.2,0.3c-0.4,0-0.8-0.1-1.1-0.2c-0.3-0.1-0.6-0.3-0.9-0.6c-0.2-0.3-0.4-0.6-0.6-0.9
		c-0.1-0.3-0.2-0.7-0.2-1.1c0-0.4,0.1-0.8,0.2-1.1c0.1-0.3,0.3-0.6,0.6-0.9c0.2-0.3,0.5-0.5,0.9-0.6c0.3-0.1,0.7-0.2,1.1-0.2
		c0.4,0,0.8,0.1,1.1,0.2c0.3,0.1,0.6,0.3,0.8,0.6c0.2,0.2,0.4,0.5,0.5,0.8C1578.5,356.7,1578.6,357.1,1578.6,357.4z M1577.8,357.2
		c0-0.5-0.2-0.9-0.5-1.3c-0.3-0.3-0.7-0.5-1.3-0.5c-0.3,0-0.5,0-0.7,0.1c-0.2,0.1-0.4,0.2-0.6,0.4c-0.2,0.2-0.3,0.4-0.4,0.6
		c-0.1,0.2-0.2,0.4-0.2,0.7L1577.8,357.2L1577.8,357.2z"/>
	<path fill="#979FAF" d="M1585.2,357.4c0,0.1,0,0.1,0,0.2c0,0.1,0,0.1,0,0.2h-4.5c0,0.3,0.1,0.5,0.2,0.8c0.1,0.2,0.2,0.4,0.4,0.6
		c0.2,0.2,0.4,0.3,0.6,0.4c0.2,0.1,0.5,0.2,0.8,0.2c0.4,0,0.8-0.1,1-0.3c0.3-0.2,0.5-0.4,0.7-0.6l0.6,0.5c-0.3,0.4-0.7,0.7-1.1,0.9
		c-0.4,0.2-0.8,0.3-1.2,0.3c-0.4,0-0.8-0.1-1.1-0.2c-0.3-0.1-0.6-0.3-0.9-0.6c-0.2-0.3-0.4-0.6-0.6-0.9c-0.1-0.3-0.2-0.7-0.2-1.1
		c0-0.4,0.1-0.8,0.2-1.1c0.1-0.3,0.3-0.6,0.6-0.9c0.2-0.3,0.5-0.5,0.9-0.6c0.3-0.1,0.7-0.2,1.1-0.2c0.4,0,0.8,0.1,1.1,0.2
		c0.3,0.1,0.6,0.3,0.8,0.6c0.2,0.2,0.4,0.5,0.5,0.8C1585.1,356.7,1585.2,357.1,1585.2,357.4z M1584.4,357.2c0-0.5-0.2-0.9-0.5-1.3
		c-0.3-0.3-0.7-0.5-1.3-0.5c-0.3,0-0.5,0-0.7,0.1c-0.2,0.1-0.4,0.2-0.6,0.4c-0.2,0.2-0.3,0.4-0.4,0.6c-0.1,0.2-0.2,0.4-0.2,0.7
		L1584.4,357.2L1584.4,357.2L1584.4,357.2z"/>
	<path fill="#979FAF" d="M1589.3,355.6h-1.5v3.1c0,0.2,0,0.4,0.1,0.5c0,0.1,0.1,0.2,0.2,0.3c0.1,0.1,0.2,0.1,0.3,0.1
		c0.1,0,0.2,0,0.3,0c0.1,0,0.2,0,0.3,0c0.1,0,0.2-0.1,0.3-0.1l0,0.7c-0.1,0.1-0.3,0.1-0.4,0.1c-0.2,0-0.3,0-0.5,0
		c-0.1,0-0.3,0-0.5-0.1c-0.2,0-0.3-0.1-0.4-0.2c-0.1-0.1-0.3-0.3-0.3-0.4c-0.1-0.2-0.1-0.4-0.1-0.7v-3.4h-1.1v-0.7h1.1v-1.5h0.8v1.5
		h1.5V355.6L1589.3,355.6z"/>
</g>
</svg>
