<?xml version="1.0" encoding="utf-8"?>
<!-- Generator: Adobe Illustrator 16.0.0, SVG Export Plug-In . SVG Version: 6.00 Build 0)  -->
<!DOCTYPE svg PUBLIC "-//W3C//DTD SVG 1.1//EN" "http://www.w3.org/Graphics/SVG/1.1/DTD/svg11.dtd">
<svg version="1.1" id="Layer_1" xmlns="http://www.w3.org/2000/svg" xmlns:xlink="http://www.w3.org/1999/xlink" x="0px" y="0px"
	 width="156px" height="40px" viewBox="0 2 156 40" enable-background="new 0 2 156 40" xml:space="preserve">
<g>
	<path fill="#55BA66" d="M35.157,12C34.034,10.051,20.243,2,17.999,2C15.752,2,1.956,10.031,0.84,12c-1.117,1.97-1.122,18.031,0,20
		s14.914,10,17.159,10c2.244,0,16.037-8.041,17.158-10C36.279,30.041,36.28,13.949,35.157,12z"/>
	<g id="Hexagon_2_">
		<g>
			
				<linearGradient id="SVGID_1_" gradientUnits="userSpaceOnUse" x1="698.7637" y1="-1009.3745" x2="698.7637" y2="-991.4297" gradientTransform="matrix(1 0 0 -1 -675.4063 -989.4297)">
				<stop  offset="0" style="stop-color:#27A558"/>
				<stop  offset="1" style="stop-color:#54BA67"/>
			</linearGradient>
			<path fill="url(#SVGID_1_)" d="M17.999,2c-0.955,0-3.997,1.452-7.264,3.272l25.245,14.673c-0.073-3.753-0.346-7.119-0.822-7.945
				c-0.401-0.697-2.424-2.173-4.956-3.783l-6.75-3.924C20.922,2.958,18.774,2,17.999,2z"/>
			
				<linearGradient id="SVGID_2_" gradientUnits="userSpaceOnUse" x1="695.2715" y1="-1017.6382" x2="695.2715" y2="-994.7017" gradientTransform="matrix(1 0 0 -1 -675.4063 -989.4297)">
				<stop  offset="0" style="stop-color:#27A558"/>
				<stop  offset="1" style="stop-color:#54BA67"/>
			</linearGradient>
			<path fill="url(#SVGID_2_)" d="M3.73,9.571l32.068,18.638c0.177-2.355,0.237-5.419,0.182-8.264L10.735,5.272
				C8.258,6.65,5.656,8.238,3.73,9.571z"/>
			
				<linearGradient id="SVGID_3_" gradientUnits="userSpaceOnUse" x1="693.4043" y1="-1023.9077" x2="693.4043" y2="-999.001" gradientTransform="matrix(1 0 0 -1 -675.4063 -989.4297)">
				<stop  offset="0" style="stop-color:#27A558"/>
				<stop  offset="1" style="stop-color:#54BA67"/>
			</linearGradient>
			<path fill="url(#SVGID_3_)" d="M3.73,9.571C2.218,10.616,1.123,11.502,0.841,12c-0.29,0.511-0.503,1.972-0.643,3.885
				l31.99,18.593c1.553-1.068,2.682-1.975,2.97-2.478c0.287-0.501,0.5-1.923,0.64-3.794L3.73,9.571z"/>
			
				<linearGradient id="SVGID_4_" gradientUnits="userSpaceOnUse" x1="691.5068" y1="-1028.2783" x2="691.5067" y2="-1005.3008" gradientTransform="matrix(1 0 0 -1 -675.4063 -989.4297)">
				<stop  offset="0" style="stop-color:#27A558"/>
				<stop  offset="1" style="stop-color:#54BA67"/>
			</linearGradient>
			<path fill="url(#SVGID_4_)" d="M32.2,34.471l-32.002-18.6c-0.179,2.416-0.236,5.556-0.174,8.439l25.014,14.538
				C27.552,37.456,30.22,35.833,32.2,34.471z"/>
			
				<linearGradient id="SVGID_5_" gradientUnits="userSpaceOnUse" x1="687.9375" y1="-1031.4292" x2="687.9375" y2="-1013.7397" gradientTransform="matrix(1 0 0 -1 -675.4063 -989.4297)">
				<stop  offset="0" style="stop-color:#27A558"/>
				<stop  offset="1" style="stop-color:#54BA67"/>
			</linearGradient>
			<path fill="url(#SVGID_5_)" d="M0.024,24.311c0.08,3.648,0.351,6.875,0.816,7.69C1.963,33.969,15.754,42,17.999,42
				c0.933,0,3.857-1.387,7.039-3.15L0.024,24.311z"/>
		</g>
	</g>
	<g id="H_2_">
		<path fill="#FFFFFF" d="M21.354,23.566v6.921H20.2c-0.234,0-0.423,0.195-0.423,0.43c0,0.155,0.082,0.291,0.203,0.367l2.594,2.517
			c0.078,0.104,0.232,0.181,0.369,0.181c0.141,0,0.265-0.073,0.342-0.181l2.763-2.519c0.122-0.074,0.202-0.21,0.202-0.365
			c0-0.237-0.189-0.43-0.424-0.43h-1.157l-0.01-16.728c0-0.237-0.186-0.429-0.42-0.429h-2.457c-0.235,0-0.427,0.192-0.427,0.429
			v6.458h-6.708v-6.705H15.8c0.234,0,0.424-0.192,0.424-0.429c0-0.155-0.082-0.291-0.203-0.367l-2.595-2.517
			c-0.077-0.103-0.232-0.181-0.369-0.181c-0.141,0-0.266,0.074-0.342,0.181l-2.764,2.518c-0.121,0.076-0.202,0.211-0.202,0.366
			c0,0.238,0.189,0.429,0.424,0.429h1.159l0.01,16.729c0,0.236,0.185,0.425,0.42,0.425h2.457c0.234,0,0.426-0.19,0.426-0.425v-6.677
			L21.354,23.566L21.354,23.566z"/>
	</g>
</g>
<path fill="#FFFFFF" d="M111.66,22.901c-1.014-1.676-2.032-3.345-3.049-5.018c-0.09-0.145-0.161-0.296-0.26-0.47
	c0.227-0.07,0.396-0.116,0.561-0.171c1.529-0.52,2.469-1.79,2.516-3.396c0.059-1.903-0.93-3.236-2.765-3.696
	c-0.415-0.104-0.844-0.188-1.271-0.197c-1.368-0.035-2.742-0.035-4.112-0.041c-0.797-0.003-0.812,0.014-0.812,0.797
	c0,4.085,0,8.171,0,12.258c0,0.146,0.002,0.291,0.015,0.433c0.019,0.201,0.122,0.337,0.332,0.339
	c0.432,0.008,0.861,0.008,1.292,0.004c0.209-0.002,0.326-0.129,0.351-0.326c0.02-0.125,0.015-0.258,0.015-0.382
	c0-1.609,0-3.221,0-4.828c0-0.173,0-0.349,0-0.621c0.479,0,0.888,0.015,1.299-0.004c0.275-0.012,0.44,0.084,0.575,0.328
	c0.339,0.617,0.707,1.222,1.065,1.831c0.707,1.203,1.414,2.404,2.118,3.611c0.148,0.258,0.307,0.427,0.638,0.402
	c0.345-0.028,0.697,0.002,1.048-0.012c0.227-0.012,0.506,0.098,0.645-0.188C111.985,23.293,111.782,23.1,111.66,22.901z
	 M107.098,15.725c-0.81,0.066-1.622,0.024-2.436,0.027c-0.042,0-0.085-0.026-0.157-0.05c0-1.294,0-2.585,0-3.88
	c0.02-0.021,0.044-0.06,0.067-0.061c1.046-0.023,2.1-0.099,3.143,0.085c0.154,0.029,0.309,0.067,0.459,0.12
	c1.088,0.378,1.577,1.507,1.126,2.574c-0.157,0.372-0.419,0.668-0.786,0.803C108.054,15.516,107.576,15.686,107.098,15.725z
	 M148.048,18.121c-0.149,0.207-0.258,0.357-0.36,0.515c-1.055,1.571-2.114,3.141-3.152,4.724c-0.19,0.289-0.402,0.42-0.741,0.397
	c-0.382-0.021-0.767,0-1.149-0.006c-0.188-0.004-0.396,0.042-0.507-0.181c-0.105-0.211,0.024-0.368,0.135-0.527
	c0.841-1.211,1.682-2.426,2.521-3.638c0.585-0.846,1.171-1.689,1.754-2.533c0.253-0.368,0.253-0.371-0.012-0.749
	c-1.249-1.79-2.503-3.575-3.749-5.366c-0.132-0.19-0.36-0.373-0.231-0.642c0.131-0.281,0.415-0.177,0.643-0.185
	c0.351-0.014,0.701,0.014,1.052-0.01c0.328-0.021,0.524,0.113,0.702,0.383c0.919,1.394,1.856,2.774,2.79,4.158
	c0.096,0.143,0.2,0.28,0.34,0.478c0.134-0.189,0.233-0.326,0.329-0.468c0.919-1.373,1.848-2.742,2.75-4.126
	c0.199-0.302,0.408-0.457,0.775-0.428c0.397,0.03,0.799-0.003,1.194,0.014c0.388,0.016,0.504,0.239,0.321,0.577
	c-0.052,0.1-0.124,0.188-0.188,0.279c-1.214,1.756-2.427,3.511-3.641,5.268c-0.102,0.142-0.196,0.289-0.312,0.459
	c0.106,0.156,0.196,0.303,0.291,0.447c1.386,1.989,2.768,3.978,4.147,5.97c0.132,0.19,0.342,0.38,0.206,0.647
	c-0.128,0.251-0.392,0.159-0.603,0.168c-0.336,0.012-0.675-0.022-1.007,0.012c-0.385,0.036-0.603-0.132-0.813-0.447
	c-1.039-1.583-2.102-3.148-3.159-4.719C148.284,18.45,148.183,18.313,148.048,18.121z M77.919,19.787
	c-0.006,0.157-0.02,0.312-0.02,0.469c-0.001,0.98,0.002,1.964-0.002,2.943c-0.001,0.474-0.065,0.538-0.518,0.543
	c-0.318,0.009-0.638,0.013-0.956-0.002c-0.33-0.011-0.411-0.101-0.429-0.441c-0.005-0.094-0.001-0.193-0.001-0.29
	c0-4.408,0-8.819,0-13.23c0-0.111-0.004-0.226,0.002-0.338c0.02-0.304,0.109-0.415,0.399-0.428c0.365-0.017,0.734-0.017,1.1,0
	c0.298,0.013,0.383,0.113,0.401,0.422c0.008,0.128,0.003,0.257,0.003,0.386c0,2.462,0,4.926,0,7.389c0,0.169,0.014,0.34,0.026,0.604
	c0.172-0.143,0.281-0.225,0.375-0.317c0.962-0.941,1.922-1.882,2.876-2.835c0.195-0.196,0.396-0.293,0.673-0.283
	c0.465,0.019,0.926,0.002,1.39,0.005c0.189,0.001,0.398-0.029,0.479,0.214c0.075,0.224-0.065,0.359-0.214,0.493
	c-1.158,1.059-2.318,2.118-3.475,3.179c-0.14,0.126-0.276,0.262-0.438,0.411c0.098,0.112,0.172,0.213,0.261,0.301
	c1.322,1.305,2.646,2.609,3.969,3.912c0.082,0.081,0.186,0.149,0.232,0.241c0.06,0.119,0.137,0.283,0.095,0.385
	c-0.039,0.101-0.203,0.19-0.326,0.212c-0.222,0.036-0.446,0.018-0.671,0.012c-0.428-0.01-0.903,0.084-1.272-0.07
	c-0.354-0.15-0.604-0.556-0.893-0.854c-0.857-0.89-1.707-1.78-2.564-2.671c-0.132-0.136-0.266-0.27-0.398-0.401
	C77.991,19.759,77.955,19.774,77.919,19.787z M134.641,19.803c0,0.304,0,0.607,0,0.913c0,0.836,0.005,1.674-0.002,2.51
	c-0.004,0.425-0.087,0.509-0.503,0.517c-0.302,0.009-0.604,0.009-0.908,0c-0.42-0.009-0.488-0.082-0.507-0.514
	c-0.006-0.098-0.002-0.193-0.002-0.291c0-4.375,0-8.753,0-13.129c0-0.792,0.012-0.803,0.809-0.803c0.24,0,0.478-0.009,0.718,0.007
	c0.263,0.017,0.364,0.126,0.394,0.39c0.011,0.128,0.005,0.258,0.005,0.386c0,2.463,0,4.925,0,7.387c0,0.175,0,0.349,0,0.647
	c0.206-0.18,0.334-0.278,0.453-0.396c0.913-0.897,1.832-1.79,2.731-2.701c0.243-0.244,0.488-0.376,0.841-0.35
	c0.412,0.03,0.829,0.003,1.244,0.007c0.202,0.004,0.434-0.046,0.535,0.208c0.099,0.254-0.093,0.385-0.245,0.522
	c-1.156,1.061-2.314,2.12-3.47,3.178c-0.129,0.118-0.255,0.24-0.418,0.396c0.12,0.132,0.221,0.25,0.329,0.357
	c1.311,1.297,2.623,2.591,3.934,3.882c0.068,0.066,0.16,0.125,0.197,0.206c0.057,0.122,0.13,0.283,0.09,0.388
	c-0.037,0.101-0.205,0.207-0.321,0.211c-0.591,0.021-1.183,0.03-1.77-0.004c-0.16-0.01-0.338-0.161-0.464-0.293
	c-1.062-1.094-2.11-2.192-3.166-3.292c-0.128-0.132-0.262-0.263-0.396-0.395C134.711,19.768,134.678,19.785,134.641,19.803z
	 M93.701,18.314c-0.16-2.406-1.815-4.018-4.003-4.147c-1.9-0.113-3.388,0.599-4.406,2.233c-0.592,0.946-0.781,2.001-0.678,3.101
	c0.183,1.96,1.135,3.385,2.966,4.137c1.052,0.431,2.147,0.425,3.238,0.133c0.976-0.259,1.752-0.825,2.394-1.598
	c0.285-0.339,0.269-0.483-0.061-0.76c-0.147-0.121-0.299-0.238-0.45-0.357c-0.578-0.456-0.57-0.447-1.052,0.102
	c-0.811,0.93-1.829,1.283-3.018,0.953c-1.129-0.314-1.788-1.103-2.045-2.354c0.245-0.012,0.431-0.026,0.62-0.026
	c1.894-0.002,3.791-0.002,5.686-0.002c0.129,0,0.258,0.007,0.383-0.005c0.336-0.026,0.418-0.1,0.434-0.446
	C93.73,18.956,93.724,18.633,93.701,18.314z M86.66,18.036c0.044-0.172,0.06-0.313,0.113-0.438c0.655-1.565,2.296-2.086,3.69-1.47
	c0.771,0.341,1.146,1.015,1.273,1.909C90.013,18.036,88.366,18.036,86.66,18.036z M64.379,23.161
	c-0.046-0.642-0.091-1.281-0.1-1.927c-0.016-1.205,0.009-2.414-0.01-3.62c-0.028-1.79-0.964-2.99-2.657-3.348
	c-1.466-0.311-2.853-0.059-4.119,0.771c-0.16,0.105-0.312,0.229-0.448,0.362c-0.243,0.234-0.251,0.358-0.056,0.626
	c0.105,0.14,0.225,0.271,0.338,0.406c0.483,0.575,0.477,0.569,1.09,0.116c0.881-0.648,1.861-0.827,2.904-0.537
	c0.76,0.212,1.159,0.906,1.016,1.702c-0.531,0.022-1.072,0.04-1.612,0.071c-0.848,0.048-1.683,0.161-2.479,0.474
	c-0.752,0.296-1.405,0.737-1.695,1.533c-0.597,1.631-0.002,3.328,1.756,3.953c0.758,0.267,1.535,0.264,2.314,0.135
	c0.694-0.112,1.292-0.44,1.883-0.977c0.046,0.198,0.071,0.301,0.093,0.405c0.075,0.364,0.137,0.424,0.508,0.432
	c0.254,0.009,0.509,0.007,0.766,0.003C64.35,23.735,64.416,23.645,64.379,23.161z M59.157,22.127
	c-0.415-0.146-0.723-0.397-0.829-0.853c-0.123-0.526,0.004-0.916,0.453-1.214c0.21-0.142,0.443-0.259,0.683-0.335
	c0.937-0.29,1.903-0.338,2.903-0.32C62.619,21.354,60.928,22.752,59.157,22.127z M120.811,23.207
	c-0.052-0.595-0.107-1.188-0.115-1.779c-0.021-1.371,0.013-2.738-0.022-4.106c-0.037-1.404-0.857-2.475-2.171-2.931
	c-0.854-0.299-1.725-0.301-2.6-0.151c-0.846,0.146-1.618,0.478-2.287,1.035c-0.408,0.336-0.419,0.469-0.094,0.872
	c0.131,0.159,0.261,0.322,0.401,0.477c0.3,0.345,0.402,0.359,0.748,0.067c0.705-0.601,1.521-0.838,2.435-0.8
	c0.882,0.037,1.729,0.484,1.713,1.792c-0.174,0.019-0.33,0.041-0.484,0.048c-0.429,0.022-0.862,0.029-1.29,0.06
	c-0.799,0.055-1.588,0.172-2.339,0.458c-0.707,0.27-1.305,0.684-1.66,1.381c-0.752,1.497-0.141,3.347,1.396,3.987
	c1.46,0.606,2.9,0.512,4.213-0.472c0.086-0.063,0.178-0.111,0.294-0.182c0.032,0.144,0.056,0.254,0.085,0.36
	c0.096,0.381,0.128,0.414,0.516,0.422c0.271,0.008,0.543,0.01,0.814,0C120.771,23.73,120.851,23.618,120.811,23.207z
	 M116.888,22.209c-0.415,0.05-0.862,0.007-1.274-0.086c-0.504-0.116-0.822-0.463-0.884-1.014c-0.058-0.557,0.194-0.927,0.664-1.168
	c0.183-0.096,0.375-0.186,0.57-0.242c0.915-0.259,1.848-0.305,2.813-0.302C119.025,20.511,118.322,22.027,116.888,22.209z
	 M124.557,15.17c0.195-0.136,0.321-0.229,0.452-0.317c1.174-0.79,2.436-0.917,3.742-0.439c1.122,0.411,1.692,1.319,1.955,2.44
	c0.084,0.357,0.116,0.732,0.119,1.099c0.009,1.722,0.003,3.444,0.003,5.162c0,0.111,0.028,0.245-0.017,0.333
	c-0.06,0.112-0.177,0.269-0.279,0.275c-0.429,0.03-0.858,0.018-1.288,0.013c-0.185-0.005-0.293-0.117-0.311-0.306
	c-0.009-0.127-0.007-0.254-0.007-0.385c0-1.383,0.007-2.766-0.004-4.149c-0.004-0.433-0.031-0.868-0.088-1.297
	c-0.097-0.722-0.371-1.354-1.122-1.591c-0.794-0.248-1.551-0.161-2.192,0.42c-0.469,0.427-0.707,0.989-0.814,1.601
	c-0.061,0.348-0.085,0.703-0.09,1.054c-0.008,1.353,0,2.703-0.004,4.053c0,0.559-0.049,0.605-0.599,0.612
	c-0.272,0.002-0.541,0.004-0.813-0.002c-0.398-0.013-0.475-0.087-0.493-0.474c-0.004-0.129-0.004-0.257-0.004-0.385
	c0-0.28,0.004-4.604-0.007-6.901c0-0.371-0.05-0.738-0.062-1.107c-0.013-0.395,0.071-0.478,0.47-0.488
	c0.286-0.01,0.573-0.006,0.86,0c0.439,0.006,0.479,0.045,0.542,0.483C124.518,14.947,124.534,15.021,124.557,15.17z M70.857,24
	c-1.408-0.03-2.64-0.454-3.629-1.488c-0.675-0.703-1.078-1.552-1.224-2.516c-0.179-1.169-0.069-2.31,0.499-3.371
	c0.753-1.404,1.946-2.17,3.488-2.416c0.985-0.157,1.936-0.028,2.849,0.38c0.548,0.246,1.018,0.599,1.398,1.066
	c0.242,0.3,0.224,0.451-0.075,0.683c-0.266,0.206-0.541,0.399-0.815,0.593c-0.201,0.138-0.391,0.13-0.544-0.077
	c-0.683-0.906-1.608-1.115-2.646-0.888c-1.075,0.238-1.76,0.941-2.08,1.988c-0.265,0.875-0.222,1.745,0.143,2.593
	c0.853,1.978,3.543,2.172,4.623,0.802c0.275-0.348,0.362-0.336,0.716-0.082c0.209,0.147,0.413,0.304,0.612,0.46
	c0.367,0.287,0.393,0.45,0.087,0.787c-0.58,0.648-1.28,1.111-2.129,1.307C71.714,23.917,71.282,23.94,70.857,24z M97.438,15.141
	c0.154-0.118,0.24-0.185,0.328-0.251c0.844-0.666,1.798-0.858,2.839-0.685c0.398,0.066,0.478,0.173,0.436,0.591
	c-0.022,0.272-0.064,0.541-0.105,0.813c-0.066,0.466-0.173,0.524-0.635,0.471c-0.345-0.039-0.701-0.067-1.043-0.018
	c-0.625,0.088-1.07,0.464-1.363,1.026c-0.277,0.539-0.398,1.115-0.398,1.721c0,1.397,0,2.797,0,4.197
	c0,0.111,0.006,0.229-0.004,0.335c-0.025,0.28-0.114,0.386-0.38,0.396c-0.379,0.018-0.765,0.018-1.146,0
	c-0.28-0.011-0.354-0.097-0.383-0.387c-0.016-0.145-0.009-0.291-0.009-0.435c0-1.722-0.002-5.078-0.002-5.163
	c-0.005-0.916-0.028-1.832-0.053-2.748c-0.013-0.575,0.021-0.616,0.568-0.622c0.258-0.003,0.513-0.005,0.766,0.002
	c0.418,0.008,0.447,0.036,0.533,0.455C97.403,14.915,97.416,14.993,97.438,15.141z M45.991,17.566c0,0-0.001,5.71-0.001,5.836
	c0,0.229-0.147,0.336-0.378,0.337c-0.414,0-0.83,0.002-1.244-0.002C44.135,23.736,44,23.608,44,23.377c0-0.122,0-12.695,0-12.745
	c0-0.7,0.025-0.723,0.732-0.725c0.225-0.002,0.447-0.004,0.67,0.001c0.515,0.008,0.581,0.073,0.586,0.583
	c0.003,0.258,0.001,4.887,0.001,5.131h6.458c0-0.245-0.002-4.848,0-5.107c0.006-0.51,0.072-0.574,0.585-0.583
	c0.225-0.004,0.448-0.001,0.671,0c0.709,0.001,0.732,0.022,0.732,0.723c0,0.051,0,12.622,0,12.746c0,0.229-0.134,0.358-0.367,0.361
	c-0.414,0.004-0.829,0.004-1.243,0.002c-0.23-0.002-0.379-0.111-0.379-0.337c0-0.128,0-5.863,0-5.863L45.991,17.566L45.991,17.566z"
	/>
<g>
	<path fill="#FFFFFF" d="M47.04,30.498h-1.123v4.197h-0.694v-4.197h-1v-0.581h1V28.61c0-0.545,0.133-0.974,0.398-1.286
		c0.265-0.313,0.673-0.47,1.225-0.47c0.088,0,0.184,0.005,0.286,0.015c0.102,0.011,0.197,0.029,0.286,0.056l-0.123,0.613
		c-0.075-0.021-0.149-0.037-0.224-0.051c-0.076-0.014-0.16-0.021-0.255-0.021c-0.184,0-0.335,0.03-0.455,0.092
		s-0.211,0.148-0.276,0.26c-0.065,0.113-0.108,0.244-0.132,0.394c-0.024,0.15-0.036,0.31-0.036,0.48v1.225h1.123V30.498z"/>
	<path fill="#FFFFFF" d="M52.778,32.306c0,0.361-0.063,0.694-0.188,1c-0.126,0.308-0.301,0.572-0.526,0.797s-0.494,0.4-0.807,0.525
		c-0.313,0.127-0.657,0.189-1.031,0.189c-0.367,0-0.708-0.063-1.021-0.189c-0.313-0.125-0.582-0.301-0.807-0.525
		c-0.224-0.225-0.4-0.489-0.525-0.797c-0.126-0.306-0.189-0.639-0.189-1c0-0.36,0.063-0.693,0.189-1.001
		c0.125-0.306,0.301-0.571,0.525-0.795c0.225-0.226,0.494-0.4,0.807-0.526s0.654-0.188,1.021-0.188c0.375,0,0.718,0.063,1.031,0.188
		s0.582,0.301,0.807,0.526c0.225,0.224,0.4,0.489,0.526,0.795C52.715,31.612,52.778,31.945,52.778,32.306z M52.043,32.306
		c0-0.265-0.043-0.515-0.127-0.75c-0.085-0.234-0.206-0.439-0.362-0.612c-0.157-0.174-0.348-0.313-0.572-0.414
		c-0.225-0.102-0.477-0.153-0.756-0.153s-0.529,0.052-0.75,0.153c-0.221,0.102-0.41,0.24-0.566,0.414
		c-0.157,0.173-0.277,0.378-0.363,0.612c-0.084,0.235-0.127,0.485-0.127,0.75c0,0.266,0.043,0.516,0.127,0.75
		c0.085,0.235,0.206,0.439,0.363,0.613c0.156,0.174,0.345,0.311,0.566,0.408c0.222,0.1,0.471,0.148,0.75,0.148
		s0.531-0.049,0.756-0.148c0.224-0.098,0.415-0.234,0.572-0.408c0.156-0.174,0.277-0.378,0.362-0.613
		C52,32.821,52.043,32.571,52.043,32.306z"/>
	<path fill="#FFFFFF" d="M54.258,30.469c-0.007-0.204-0.017-0.388-0.031-0.552h0.664c0.014,0.129,0.024,0.272,0.031,0.429
		c0.006,0.157,0.01,0.285,0.01,0.388h0.02c0.136-0.278,0.341-0.505,0.613-0.679c0.272-0.173,0.578-0.26,0.919-0.26
		c0.088,0,0.168,0.003,0.24,0.01c0.071,0.007,0.145,0.021,0.219,0.041l-0.092,0.664c-0.041-0.015-0.109-0.028-0.204-0.041
		c-0.095-0.014-0.19-0.021-0.286-0.021c-0.184,0-0.361,0.034-0.531,0.103c-0.17,0.068-0.318,0.175-0.444,0.32
		c-0.126,0.146-0.229,0.333-0.307,0.561c-0.079,0.228-0.117,0.501-0.117,0.819v2.445h-0.694v-3.728
		C54.269,30.84,54.265,30.672,54.258,30.469z"/>
	<path fill="#FFFFFF" d="M59.255,30.055c0.282-0.173,0.597-0.26,0.944-0.26c0.129,0,0.264,0.014,0.403,0.041
		c0.139,0.026,0.275,0.079,0.408,0.157c0.133,0.079,0.255,0.183,0.368,0.312c0.112,0.13,0.209,0.297,0.291,0.501
		c0.164-0.327,0.387-0.577,0.669-0.751c0.282-0.173,0.618-0.26,1.006-0.26c0.605,0,1.06,0.18,1.363,0.541
		c0.303,0.36,0.455,0.837,0.455,1.429v2.931h-0.694v-2.645c0-0.504-0.094-0.909-0.281-1.215c-0.188-0.307-0.505-0.46-0.955-0.46
		c-0.252,0-0.465,0.052-0.638,0.153s-0.313,0.236-0.418,0.404c-0.106,0.166-0.182,0.354-0.23,0.565
		c-0.047,0.212-0.071,0.429-0.071,0.653v2.543H61.18v-2.788c0-0.231-0.017-0.441-0.051-0.632c-0.035-0.19-0.094-0.354-0.179-0.485
		c-0.085-0.133-0.203-0.234-0.353-0.307c-0.149-0.071-0.34-0.107-0.572-0.107c-0.164,0-0.328,0.038-0.495,0.112
		c-0.167,0.075-0.317,0.189-0.449,0.342c-0.133,0.154-0.24,0.348-0.322,0.583c-0.082,0.234-0.123,0.512-0.123,0.831v2.451h-0.694
		v-3.728c0-0.128-0.003-0.296-0.01-0.499c-0.007-0.204-0.018-0.388-0.031-0.552h0.664c0.014,0.129,0.024,0.272,0.031,0.429
		c0.007,0.157,0.01,0.285,0.01,0.388h0.021C58.763,30.455,58.973,30.229,59.255,30.055z"/>
	<path fill="#FFFFFF" d="M71.308,32.162c0,0.048,0,0.1,0,0.154s-0.003,0.112-0.011,0.173h-3.961
		c0.006,0.238,0.054,0.463,0.143,0.674c0.088,0.212,0.211,0.396,0.368,0.552c0.156,0.156,0.34,0.281,0.551,0.373
		s0.439,0.138,0.684,0.138c0.361,0,0.672-0.084,0.935-0.251c0.262-0.166,0.461-0.358,0.597-0.576l0.521,0.408
		c-0.286,0.36-0.602,0.619-0.945,0.775s-0.713,0.235-1.108,0.235c-0.354,0-0.682-0.063-0.985-0.189
		c-0.303-0.125-0.563-0.301-0.781-0.525s-0.39-0.489-0.515-0.797c-0.126-0.306-0.189-0.639-0.189-1c0-0.36,0.061-0.693,0.184-1.001
		c0.123-0.306,0.292-0.571,0.511-0.795c0.217-0.226,0.473-0.4,0.766-0.526c0.292-0.126,0.609-0.188,0.949-0.188
		c0.375,0,0.704,0.063,0.99,0.188c0.286,0.126,0.524,0.296,0.714,0.51c0.19,0.215,0.336,0.465,0.435,0.751
		C71.258,31.53,71.308,31.837,71.308,32.162z M70.603,31.938c-0.021-0.449-0.166-0.822-0.434-1.118s-0.651-0.444-1.148-0.444
		c-0.231,0-0.446,0.043-0.643,0.128s-0.371,0.201-0.521,0.348c-0.149,0.146-0.269,0.313-0.357,0.499
		c-0.089,0.188-0.14,0.383-0.153,0.588H70.603z"/>
	<path fill="#FFFFFF" d="M72.788,30.469c-0.007-0.204-0.018-0.388-0.031-0.552h0.664c0.014,0.129,0.024,0.272,0.031,0.429
		c0.006,0.157,0.01,0.285,0.01,0.388h0.021c0.136-0.278,0.34-0.505,0.613-0.679c0.272-0.173,0.578-0.26,0.918-0.26
		c0.089,0,0.169,0.003,0.241,0.01c0.071,0.007,0.145,0.021,0.219,0.041l-0.092,0.664c-0.041-0.015-0.109-0.028-0.205-0.041
		c-0.095-0.014-0.19-0.021-0.286-0.021c-0.184,0-0.361,0.034-0.531,0.103c-0.17,0.068-0.318,0.175-0.444,0.32
		c-0.126,0.146-0.228,0.333-0.306,0.561c-0.079,0.228-0.117,0.501-0.117,0.819v2.445h-0.695v-3.728
		C72.797,30.84,72.794,30.672,72.788,30.469z"/>
	<path fill="#FFFFFF" d="M77.188,34.695h-0.695v-7.718h0.695V34.695z"/>
	<path fill="#FFFFFF" d="M80.688,33.949h0.021l1.48-4.032h0.755l-2.379,6.013c-0.143,0.368-0.325,0.662-0.546,0.884
		s-0.54,0.332-0.955,0.332c-0.211,0-0.419-0.021-0.623-0.062l0.071-0.634c0.164,0.056,0.335,0.082,0.511,0.082
		c0.238,0,0.426-0.072,0.562-0.219c0.137-0.147,0.256-0.356,0.358-0.629l0.388-1l-2.042-4.768h0.775L80.688,33.949z"/>
	<path fill="#FFFFFF" d="M87.355,34.695h-0.734v-7.229h0.734V34.695z"/>
	<path fill="#FFFFFF" d="M89.857,29.917c0.014,0.129,0.023,0.272,0.03,0.429c0.008,0.157,0.011,0.285,0.011,0.388h0.021
		c0.136-0.278,0.357-0.505,0.663-0.679c0.306-0.173,0.63-0.26,0.97-0.26c0.606,0,1.061,0.18,1.363,0.541
		c0.303,0.36,0.454,0.837,0.454,1.429v2.931h-0.694v-2.645c0-0.252-0.021-0.479-0.061-0.684c-0.041-0.205-0.111-0.38-0.21-0.526
		c-0.099-0.146-0.231-0.261-0.397-0.343c-0.168-0.081-0.377-0.122-0.628-0.122c-0.184,0-0.363,0.038-0.537,0.112
		c-0.173,0.075-0.327,0.189-0.464,0.342c-0.136,0.154-0.244,0.348-0.326,0.583c-0.082,0.234-0.123,0.512-0.123,0.831v2.451h-0.693
		v-3.728c0-0.128-0.004-0.296-0.012-0.499c-0.007-0.204-0.017-0.388-0.029-0.552H89.857z"/>
	<path fill="#FFFFFF" d="M97.319,30.498h-1.347v2.788c0,0.177,0.017,0.323,0.051,0.438c0.034,0.116,0.083,0.207,0.147,0.271
		c0.065,0.064,0.142,0.108,0.23,0.133c0.088,0.023,0.184,0.035,0.285,0.035c0.096,0,0.196-0.014,0.301-0.04
		c0.106-0.028,0.207-0.065,0.303-0.113l0.029,0.603c-0.122,0.048-0.25,0.084-0.383,0.107c-0.132,0.023-0.276,0.035-0.434,0.035
		c-0.129,0-0.265-0.018-0.408-0.051c-0.143-0.034-0.275-0.099-0.398-0.193c-0.122-0.096-0.223-0.226-0.301-0.388
		c-0.079-0.164-0.117-0.378-0.117-0.645v-2.981h-0.99v-0.581h0.99v-1.348h0.694v1.348h1.347V30.498z"/>
	<path fill="#FFFFFF" d="M102.751,32.162c0,0.048,0,0.1,0,0.154s-0.004,0.112-0.01,0.173h-3.962
		c0.007,0.238,0.055,0.463,0.144,0.674c0.088,0.212,0.21,0.396,0.367,0.552c0.156,0.156,0.341,0.281,0.551,0.373
		c0.212,0.092,0.44,0.138,0.686,0.138c0.359,0,0.672-0.084,0.933-0.251c0.263-0.166,0.462-0.358,0.599-0.576l0.521,0.408
		c-0.286,0.36-0.602,0.619-0.944,0.775c-0.344,0.156-0.714,0.235-1.107,0.235c-0.355,0-0.684-0.063-0.986-0.189
		c-0.302-0.125-0.563-0.301-0.78-0.525c-0.219-0.225-0.391-0.489-0.516-0.797c-0.127-0.306-0.189-0.639-0.189-1
		c0-0.36,0.062-0.693,0.185-1.001c0.122-0.306,0.292-0.571,0.51-0.795c0.218-0.226,0.473-0.4,0.766-0.526s0.609-0.188,0.949-0.188
		c0.374,0,0.705,0.063,0.99,0.188c0.286,0.126,0.524,0.296,0.715,0.51c0.19,0.215,0.335,0.465,0.434,0.751
		S102.751,31.837,102.751,32.162z M102.047,31.938c-0.021-0.449-0.165-0.822-0.435-1.118c-0.269-0.296-0.651-0.444-1.148-0.444
		c-0.23,0-0.445,0.043-0.643,0.128s-0.371,0.201-0.521,0.348c-0.15,0.146-0.27,0.313-0.358,0.499
		c-0.087,0.188-0.139,0.383-0.152,0.588H102.047z"/>
	<path fill="#FFFFFF" d="M104.23,30.469c-0.007-0.204-0.017-0.388-0.029-0.552h0.663c0.014,0.129,0.023,0.272,0.03,0.429
		c0.008,0.157,0.011,0.285,0.011,0.388h0.021c0.136-0.278,0.34-0.505,0.612-0.679c0.272-0.173,0.578-0.26,0.919-0.26
		c0.088,0,0.169,0.003,0.239,0.01c0.072,0.007,0.145,0.021,0.22,0.041l-0.092,0.664c-0.041-0.015-0.108-0.028-0.203-0.041
		c-0.096-0.014-0.191-0.021-0.286-0.021c-0.185,0-0.361,0.034-0.532,0.103c-0.169,0.068-0.317,0.175-0.443,0.32
		c-0.127,0.146-0.229,0.333-0.306,0.561c-0.079,0.228-0.118,0.501-0.118,0.819v2.445h-0.693v-3.728
		C104.242,30.84,104.238,30.672,104.23,30.469z"/>
	<path fill="#FFFFFF" d="M109.878,34.695h-0.766l-1.95-4.778h0.775l1.553,4.043h0.02l1.563-4.043h0.745L109.878,34.695z"/>
	<path fill="#FFFFFF" d="M113.747,28.079c0,0.144-0.052,0.261-0.153,0.353s-0.215,0.138-0.337,0.138
		c-0.123,0-0.235-0.046-0.337-0.138s-0.153-0.209-0.153-0.353c0-0.143,0.052-0.261,0.153-0.353s0.214-0.138,0.337-0.138
		c0.122,0,0.235,0.046,0.337,0.138S113.747,27.937,113.747,28.079z M113.604,34.695h-0.693v-4.778h0.693V34.695z"/>
	<path fill="#FFFFFF" d="M119.801,32.162c0,0.048,0,0.1,0,0.154s-0.004,0.112-0.01,0.173h-3.962
		c0.007,0.238,0.055,0.463,0.144,0.674c0.088,0.212,0.21,0.396,0.367,0.552c0.156,0.156,0.341,0.281,0.551,0.373
		c0.212,0.092,0.439,0.138,0.685,0.138c0.36,0,0.673-0.084,0.934-0.251c0.263-0.166,0.462-0.358,0.599-0.576l0.521,0.408
		c-0.286,0.36-0.602,0.619-0.944,0.775c-0.344,0.156-0.714,0.235-1.108,0.235c-0.354,0-0.683-0.063-0.985-0.189
		c-0.303-0.125-0.563-0.301-0.781-0.525s-0.39-0.489-0.515-0.797c-0.127-0.306-0.189-0.639-0.189-1c0-0.36,0.062-0.693,0.184-1.001
		c0.123-0.306,0.293-0.571,0.511-0.795c0.218-0.226,0.473-0.4,0.766-0.526c0.292-0.126,0.609-0.188,0.949-0.188
		c0.374,0,0.705,0.063,0.99,0.188c0.286,0.126,0.524,0.296,0.715,0.51c0.19,0.215,0.335,0.465,0.434,0.751
		S119.801,31.837,119.801,32.162z M119.096,31.938c-0.02-0.449-0.164-0.822-0.434-1.118c-0.269-0.296-0.651-0.444-1.148-0.444
		c-0.231,0-0.445,0.043-0.643,0.128s-0.371,0.201-0.521,0.348c-0.15,0.146-0.27,0.313-0.358,0.499
		c-0.088,0.188-0.14,0.383-0.152,0.588H119.096z"/>
	<path fill="#FFFFFF" d="M121.383,29.917l1.154,3.88h0.02l1.287-3.88h0.673l1.308,3.88h0.021l1.144-3.88h0.734l-1.511,4.778h-0.755
		l-1.276-3.87h-0.021l-1.256,3.87h-0.756l-1.511-4.778H121.383z"/>
	<path fill="#FFFFFF" d="M131.449,31.05c-0.102-0.197-0.257-0.358-0.465-0.484c-0.207-0.126-0.443-0.189-0.709-0.189
		c-0.123,0-0.245,0.014-0.368,0.041c-0.122,0.027-0.231,0.071-0.327,0.134c-0.095,0.061-0.171,0.14-0.229,0.233
		c-0.059,0.096-0.087,0.208-0.087,0.338c0,0.224,0.092,0.396,0.275,0.515c0.184,0.12,0.474,0.22,0.868,0.302
		c0.564,0.115,0.981,0.284,1.25,0.505c0.27,0.222,0.404,0.52,0.404,0.894c0,0.272-0.054,0.503-0.159,0.689s-0.243,0.341-0.413,0.459
		c-0.17,0.12-0.362,0.204-0.577,0.256c-0.214,0.051-0.431,0.076-0.647,0.076c-0.361,0-0.712-0.074-1.052-0.225
		c-0.341-0.149-0.619-0.385-0.838-0.704l0.552-0.409c0.122,0.211,0.303,0.389,0.541,0.531s0.501,0.215,0.786,0.215
		c0.149,0,0.293-0.015,0.429-0.041c0.136-0.027,0.255-0.075,0.357-0.143c0.102-0.069,0.184-0.155,0.245-0.261
		s0.092-0.237,0.092-0.394c0-0.251-0.121-0.44-0.362-0.566c-0.241-0.125-0.591-0.243-1.046-0.352
		c-0.144-0.034-0.296-0.077-0.455-0.128c-0.16-0.052-0.308-0.126-0.444-0.226c-0.136-0.098-0.248-0.222-0.336-0.371
		c-0.089-0.15-0.134-0.337-0.134-0.563c0-0.244,0.048-0.454,0.144-0.627c0.095-0.174,0.223-0.317,0.383-0.429
		c0.159-0.113,0.342-0.196,0.546-0.251s0.415-0.081,0.633-0.081c0.334,0,0.656,0.074,0.97,0.224c0.313,0.15,0.549,0.361,0.705,0.634
		L131.449,31.05z"/>
	<path fill="#FFFFFF" d="M135.594,30.498h-1.348v2.788c0,0.177,0.018,0.323,0.051,0.438c0.034,0.116,0.083,0.207,0.148,0.271
		c0.064,0.064,0.142,0.108,0.229,0.133c0.088,0.023,0.184,0.035,0.285,0.035c0.096,0,0.196-0.014,0.302-0.04
		c0.105-0.028,0.206-0.065,0.302-0.113l0.03,0.603c-0.123,0.048-0.251,0.084-0.383,0.107c-0.133,0.023-0.277,0.035-0.434,0.035
		c-0.13,0-0.266-0.018-0.409-0.051c-0.143-0.034-0.275-0.099-0.397-0.193c-0.123-0.096-0.224-0.226-0.302-0.388
		c-0.078-0.164-0.117-0.378-0.117-0.645v-2.981h-0.99v-0.581h0.99v-1.348h0.694v1.348h1.348V30.498z"/>
	<path fill="#FFFFFF" d="M136.665,30.469c-0.007-0.204-0.017-0.388-0.029-0.552h0.662c0.015,0.129,0.024,0.272,0.031,0.429
		c0.007,0.157,0.01,0.285,0.01,0.388h0.021c0.136-0.278,0.34-0.505,0.612-0.679c0.271-0.173,0.578-0.26,0.919-0.26
		c0.088,0,0.168,0.003,0.239,0.01s0.145,0.021,0.22,0.041l-0.092,0.664c-0.041-0.015-0.109-0.028-0.204-0.041
		c-0.096-0.014-0.191-0.021-0.286-0.021c-0.185,0-0.36,0.034-0.531,0.103c-0.169,0.068-0.318,0.175-0.443,0.32
		c-0.127,0.146-0.229,0.333-0.307,0.561s-0.117,0.501-0.117,0.819v2.445h-0.694v-3.728C136.676,30.84,136.672,30.672,136.665,30.469
		z"/>
	<path fill="#FFFFFF" d="M144.517,32.162c0,0.048,0,0.1,0,0.154s-0.004,0.112-0.01,0.173h-3.962
		c0.007,0.238,0.055,0.463,0.144,0.674c0.087,0.212,0.21,0.396,0.366,0.552c0.157,0.156,0.341,0.281,0.552,0.373
		s0.439,0.138,0.685,0.138c0.36,0,0.672-0.084,0.934-0.251c0.262-0.166,0.462-0.358,0.598-0.576l0.521,0.408
		c-0.286,0.36-0.601,0.619-0.944,0.775s-0.714,0.235-1.107,0.235c-0.354,0-0.683-0.063-0.985-0.189
		c-0.303-0.125-0.563-0.301-0.781-0.525s-0.39-0.489-0.516-0.797c-0.126-0.306-0.189-0.639-0.189-1c0-0.36,0.063-0.693,0.185-1.001
		c0.123-0.306,0.292-0.571,0.511-0.795c0.217-0.226,0.473-0.4,0.766-0.526c0.292-0.126,0.609-0.188,0.949-0.188
		c0.374,0,0.705,0.063,0.99,0.188c0.286,0.126,0.524,0.296,0.715,0.51c0.19,0.215,0.335,0.465,0.434,0.751
		S144.517,31.837,144.517,32.162z M143.812,31.938c-0.02-0.449-0.164-0.822-0.434-1.118s-0.652-0.444-1.148-0.444
		c-0.231,0-0.445,0.043-0.644,0.128c-0.197,0.085-0.37,0.201-0.521,0.348s-0.269,0.313-0.357,0.499
		c-0.088,0.188-0.14,0.383-0.152,0.588H143.812z"/>
	<path fill="#FFFFFF" d="M150.355,32.162c0,0.048,0,0.1,0,0.154s-0.004,0.112-0.01,0.173h-3.962
		c0.007,0.238,0.055,0.463,0.144,0.674c0.088,0.212,0.211,0.396,0.367,0.552s0.341,0.281,0.551,0.373
		c0.212,0.092,0.44,0.138,0.686,0.138c0.359,0,0.672-0.084,0.933-0.251c0.263-0.166,0.462-0.358,0.599-0.576l0.521,0.408
		c-0.286,0.36-0.602,0.619-0.944,0.775c-0.344,0.156-0.714,0.235-1.107,0.235c-0.355,0-0.684-0.063-0.986-0.189
		c-0.302-0.125-0.563-0.301-0.78-0.525c-0.219-0.225-0.39-0.489-0.516-0.797c-0.127-0.306-0.189-0.639-0.189-1
		c0-0.36,0.062-0.693,0.185-1.001c0.122-0.306,0.292-0.571,0.51-0.795c0.218-0.226,0.473-0.4,0.767-0.526
		c0.292-0.126,0.608-0.188,0.948-0.188c0.374,0,0.705,0.063,0.99,0.188c0.286,0.126,0.524,0.296,0.715,0.51
		c0.19,0.215,0.335,0.465,0.434,0.751S150.355,31.837,150.355,32.162z M149.651,31.938c-0.021-0.449-0.165-0.822-0.434-1.118
		c-0.27-0.296-0.652-0.444-1.149-0.444c-0.23,0-0.445,0.043-0.643,0.128s-0.371,0.201-0.521,0.348
		c-0.15,0.146-0.27,0.313-0.357,0.499c-0.088,0.188-0.14,0.383-0.153,0.588H149.651z"/>
	<path fill="#FFFFFF" d="M154,30.498h-1.347v2.788c0,0.177,0.017,0.323,0.051,0.438c0.033,0.116,0.082,0.207,0.147,0.271
		c0.064,0.064,0.142,0.108,0.23,0.133c0.088,0.023,0.184,0.035,0.285,0.035c0.096,0,0.196-0.014,0.301-0.04
		c0.105-0.028,0.206-0.065,0.302-0.113l0.03,0.603c-0.123,0.048-0.25,0.084-0.383,0.107s-0.277,0.035-0.434,0.035
		c-0.13,0-0.266-0.018-0.409-0.051c-0.143-0.034-0.275-0.099-0.397-0.193c-0.123-0.096-0.224-0.226-0.301-0.388
		c-0.079-0.164-0.118-0.378-0.118-0.645v-2.981h-0.99v-0.581h0.99v-1.348h0.695v1.348H154V30.498z"/>
</g>
</svg>
