<?xml version="1.0" encoding="utf-8"?>
<!-- Generator: Adobe Illustrator 16.0.0, SVG Export Plug-In . SVG Version: 6.00 Build 0)  -->
<!DOCTYPE svg PUBLIC "-//W3C//DTD SVG 1.1//EN" "http://www.w3.org/Graphics/SVG/1.1/DTD/svg11.dtd">
<svg version="1.1" id="Layer_1" xmlns="http://www.w3.org/2000/svg" xmlns:xlink="http://www.w3.org/1999/xlink" x="0px" y="0px"
	 width="200px" height="60px" viewBox="0 0 200 60" enable-background="new 0 0 200 60" xml:space="preserve">
<g>
	<path fill-rule="evenodd" clip-rule="evenodd" fill="#2BC56D" d="M134.698,33.754c1.691,2.772,3.343,5.48,5.048,8.275
		c-0.275,0.22-0.514,0.494-0.814,0.639c-1.103,0.53-2.231,1.007-3.338,1.531c-0.49,0.231-0.711,0.054-0.944-0.387
		c-1.403-2.644-2.852-5.264-4.243-7.912c-0.275-0.522-0.555-0.609-1.133-0.561c-1.164,0.099-2.343,0.029-3.528,0.029
		c0,1.494-0.01,2.864,0.004,4.233c0.011,1.126,0.029,2.868,0.089,3.992c0.029,0.556-0.228,0.736-0.715,0.737
		c-1.407,0.002-2.815-0.001-4.223,0.005c-0.569,0.002-0.788-0.223-0.771-0.836c0.098-3.684,0.217-7.983,0.211-11.667
		c-0.006-4.608-0.115-9.214-0.208-13.82c-0.015-0.68,0.068-1.018,0.891-1.129c3.434-0.462,6.866-0.792,10.324-0.396
		c3.154,0.362,5.939,1.499,7.293,4.595c1.557,3.562,1.162,9.375-3.379,12.296C135.091,33.489,134.925,33.604,134.698,33.754z
		 M125.71,31.244c1.327-0.121,2.654-0.079,3.896-0.384c3.603-0.885,5.236-5.061,3.326-8.505c-0.363-0.654-1.104-1.257-1.807-1.531
		c-1.746-0.679-3.554-0.37-5.415,0.03C125.71,24.272,125.71,27.64,125.71,31.244z"/>
	<path fill-rule="evenodd" clip-rule="evenodd" fill="#2BC56D" d="M9.927,28.229c3.706,0,7.283,0,10.943,0
		c0-1.377,0.018-2.698-0.003-4.018c-0.038-2.33-0.085-4.968-0.161-7.297c-0.015-0.461,0.129-0.693,0.574-0.696
		c1.51-0.01,3.021-0.012,4.531-0.002c0.472,0.003,0.623,0.238,0.614,0.736c-0.101,5.224-0.217,10.755-0.234,15.979
		c-0.011,3.251,0.141,9.577,0.219,12.828c0.004,0.177,0,0.354,0,0.667c-0.775,0.057-1.527,0.147-2.281,0.158
		c-0.896,0.013-1.792-0.048-2.689-0.069c-0.515-0.013-0.754-0.174-0.735-0.781c0.097-2.968,0.139-9.017,0.199-11.986
		c0.005-0.274,0-0.55,0-0.884c-3.663,0-7.239,0-10.9,0c0,1.425-0.022,2.821,0.005,4.218c0.036,1.844,0.089,3.995,0.181,5.835
		c0.031,0.618-0.215,0.834-0.783,0.832c-1.383-0.004-2.765-0.004-4.147,0c-0.56,0-0.8-0.202-0.783-0.826
		c0.105-3.789,0.232-7.886,0.228-11.676c-0.004-4.533-0.123-12.14-0.215-16.673c-0.022-1.064-0.031-1.123,1.067-1.146
		c1.203-0.025,2.407-0.023,3.609,0.003c1.03,0.022,1.025,0.062,1,1.05C10.082,17.99,10.008,24.572,9.927,28.229z"/>
	<g>
		<path fill-rule="evenodd" clip-rule="evenodd" fill="#2BC56D" d="M187.016,44.078c-1.717,0.251-3.396,0.24-5.014,0.02
			c0-1.309-0.012-3.15,0.001-4.377c0.027-2.748,0.087-5.496,0.098-8.242c0.013-2.959,0.002-5.92-0.031-8.88
			c-0.021-2.002-0.093-4.003-0.162-6.005c-0.01-0.335,0.057-0.524,0.423-0.522c1.452,0.007,2.904,0.01,4.358,0.021
			c0.1,0.001,0.2,0.056,0.325,0.093C186.732,25.268,186.729,34.953,187.016,44.078z"/>
		<path fill-rule="evenodd" clip-rule="evenodd" fill="#2BC56D" d="M197.631,26.613c-1.76,2.381-3.467,4.706-5.194,7.016
			c-0.242,0.322-0.263,0.527-0.006,0.853c1.743,2.205,3.461,4.426,5.188,6.643c0.092,0.117,0.176,0.238,0.282,0.383
			c-1.267,1.137-2.621,2.086-4.186,2.794c-0.554-0.771-1.102-1.515-1.627-2.273c-1.626-2.347-3.243-4.695-4.86-7.048
			c-0.373-0.54-0.365-0.743-0.006-1.271c2.117-3.112,4.232-6.226,6.349-9.338c0.042-0.061,0.091-0.118,0.157-0.206
			C195.129,24.812,196.441,25.576,197.631,26.613z"/>
	</g>
	<g>
		<path fill-rule="evenodd" clip-rule="evenodd" fill="#2BC56D" d="M71.65,44.078c-1.717,0.251-3.397,0.24-5.015,0.02
			c0-1.309-0.011-3.15,0.002-4.377c0.028-2.748,0.086-5.496,0.098-8.242c0.012-2.959,0.002-5.92-0.031-8.88
			c-0.022-2.002-0.093-4.003-0.162-6.005c-0.011-0.335,0.056-0.524,0.422-0.522c1.453,0.007,2.905,0.01,4.358,0.021
			c0.1,0.001,0.199,0.056,0.325,0.093C71.365,25.268,71.363,34.953,71.65,44.078z"/>
		<path fill-rule="evenodd" clip-rule="evenodd" fill="#2BC56D" d="M82.265,26.613c-1.76,2.381-3.467,4.706-5.196,7.016
			c-0.241,0.322-0.262,0.527-0.003,0.853c1.741,2.205,3.46,4.426,5.186,6.643c0.091,0.117,0.175,0.238,0.282,0.383
			c-1.266,1.137-2.621,2.086-4.185,2.794c-0.553-0.771-1.101-1.515-1.627-2.273c-1.625-2.347-3.243-4.695-4.861-7.048
			c-0.373-0.54-0.364-0.743-0.005-1.271c2.117-3.112,4.233-6.226,6.349-9.338c0.042-0.061,0.091-0.118,0.158-0.206
			C79.763,24.812,81.075,25.576,82.265,26.613z"/>
	</g>
	<path fill-rule="evenodd" clip-rule="evenodd" fill="#2BC56D" d="M40.855,31.207c0-0.437,0.065-1.004-0.012-1.551
		c-0.229-1.617-1.559-2.51-3.385-2.365c-2.019,0.16-3.91,0.711-5.779,1.896c-0.48-1.062-0.951-2.043-1.353-3.053
		c-0.063-0.159,0.121-0.55,0.295-0.652c3.267-1.898,6.757-2.802,10.519-2.045c3.115,0.626,4.74,2.75,4.768,6.053
		c0.02,2.228-0.038,4.456-0.047,6.683c-0.01,2.479-0.002,5.266-0.002,7.877c-1.625,0.267-3.428,0.261-5.264-0.021
		c0.043-0.816,0.081-1.849,0.12-2.575c-0.066-0.044-0.133-0.087-0.199-0.13c-0.123,0.181-0.228,0.377-0.372,0.537
		c-1.878,2.086-4.221,2.819-6.94,2.26c-2.222-0.458-3.278-2.055-3.672-4.143c-0.89-4.723,2.219-8.591,7.035-8.763
		C37.971,31.163,39.377,31.207,40.855,31.207z M38.396,34.557c-1.014-0.025-1.917,0.27-2.705,0.906
		c-1.18,0.954-1.495,3.044-0.632,4.169c0.731,0.952,2.424,1.024,3.652-0.053c0.8-0.702,1.491-1.617,1.983-2.567
		c0.658-1.268,0.218-1.984-1.162-2.301C39.162,34.627,38.775,34.606,38.396,34.557z"/>
	<path fill-rule="evenodd" clip-rule="evenodd" fill="#2BC56D" d="M158.126,44.092c-1.633,0-3.423,0-5.267,0
		c0.045-0.848,0.085-1.889,0.138-2.855c-0.292,0.314-0.449,0.481-0.604,0.65c-1.894,2.064-4.23,2.796-6.953,2.228
		c-1.993-0.413-3.302-1.978-3.666-4.242c-0.765-4.755,2.279-8.489,7.09-8.659c1.399-0.05,2.804-0.008,4.24-0.008
		c0-0.445,0.084-1.066-0.016-1.654c-0.268-1.57-1.597-2.407-3.396-2.258c-1.994,0.166-3.865,0.703-5.745,1.895
		c-0.478-1.056-0.95-2.057-1.366-3.081c-0.059-0.146,0.107-0.509,0.267-0.6c3.489-2.012,7.191-2.961,11.181-1.907
		c2.683,0.708,4.102,2.8,4.148,5.843c0.02,1.331-0.046,2.662-0.049,3.994C158.119,36.835,158.126,40.543,158.126,44.092z
		 M153.135,36.082c0.027-0.892-0.026-1.113-0.867-1.23c-1.014-0.142-2.093-0.229-3.082-0.028c-1.223,0.248-2.012,1.162-2.284,2.429
		c-0.441,2.047,0.868,3.462,2.783,3.021C151.327,39.891,153.081,37.763,153.135,36.082z"/>
	<path fill-rule="evenodd" clip-rule="evenodd" fill="#2BC56D" d="M100.952,35.199c-3.92,0.214-7.724,0.424-11.517,0.632
		c-0.538,2.538,1.708,4.775,4.431,4.536c2.137-0.188,3.987-1.02,5.811-2.457c0.558,0.877,1.105,1.692,1.589,2.543
		c0.073,0.13-0.067,0.493-0.218,0.622c-3.576,3.078-7.658,3.987-12.154,2.582c-2.315-0.723-3.756-2.521-4.41-4.781
		c-1.037-3.583-1.013-7.194,0.531-10.659c1.426-3.2,4.005-4.828,7.47-5.005c1.086-0.056,2.22-0.018,3.272,0.23
		c2.097,0.497,3.544,1.868,4.394,3.842C101.239,29.812,101.156,32.461,100.952,35.199z M96.23,31.641
		c-0.261-1.156-0.355-2.271-0.766-3.254c-0.837-2.001-3.107-2.439-4.591-0.957c-1.23,1.228-1.564,2.804-1.662,4.578
		C91.532,31.887,93.769,31.77,96.23,31.641z"/>
	<path fill-rule="evenodd" clip-rule="evenodd" fill="#2BC56D" d="M166.904,44.237c-1.777,0-3.568,0-5.297,0
		c0-6.748,0-13.368,0-20.127c1.705,0,3.497,0,5.36,0c-0.054,1.036-0.103,1.991-0.159,3.093c0.564-0.603,0.998-1.128,1.494-1.584
		c1.792-1.647,3.948-2.233,6.315-1.915c2.192,0.295,3.665,1.979,3.913,4.305c0.069,0.66,0.099,1.327,0.11,1.991
		c0.071,4.479,0.116,8.96,0.215,13.439c0.015,0.657-0.197,0.868-0.805,0.861c-1.28-0.013-2.56-0.013-3.839-0.001
		c-0.62,0.007-0.806-0.242-0.792-0.878c0.089-4.275,0.143-8.552,0.185-12.827c0.005-0.556-0.06-1.13-0.201-1.667
		c-0.243-0.914-1.096-1.38-2.033-1.198c-2.34,0.454-4.653,3.243-4.63,5.632C166.778,36.918,166.846,40.474,166.904,44.237z"/>
	<path fill-rule="evenodd" clip-rule="evenodd" fill="#2BC56D" d="M62.356,37.874c0.662,0.768,1.369,1.588,2.055,2.387
		c-2.677,3.449-6.902,4.833-10.766,3.593c-2.463-0.791-3.908-2.625-4.582-4.988c-0.97-3.404-0.897-6.842,0.422-10.167
		c1.389-3.502,4.08-5.251,7.789-5.493c1.989-0.13,3.92,0.124,5.773,0.921c0.594,0.256,0.718,0.584,0.432,1.111
		c-0.483,0.891-0.982,1.773-1.446,2.609c-0.902-0.404-1.634-0.841-2.426-1.067c-1.736-0.496-3.244,0.103-4.292,1.582
		c-1.247,1.76-1.494,3.79-1.463,5.854c0.017,1.061,0.155,2.154,0.444,3.175c0.767,2.713,3.044,3.638,5.51,2.269
		C60.648,39.191,61.396,38.555,62.356,37.874z"/>
	<path fill-rule="evenodd" clip-rule="evenodd" fill="#2BC56D" d="M104.09,24.013c1.729,0,3.52,0,5.377,0
		c-0.054,1.187-0.104,2.25-0.163,3.601c2.178-3.088,4.663-4.942,8.644-3.548c-0.597,1.415-1.146,2.713-1.711,4.053
		c-2.171-0.916-3.639,0.081-4.987,1.423c-0.29,0.288-0.546,0.613-0.793,0.938c-0.84,1.103-1.334,2.271-1.266,3.74
		c0.152,3.245,0.145,6.497,0.203,9.854c-1.768,0.317-3.571,0.276-5.304,0.032C104.09,37.383,104.09,30.761,104.09,24.013z"/>
	<path fill="#2BC56D" d="M7.362,8.464c-0.539,0-5.637,4.869-5.241,5.266c0.397,0.397,10,0.396,10.396,0
		C12.914,13.333,7.901,8.464,7.362,8.464z"/>
	<path fill="#2BC56D" d="M23.625,51.536c-0.54,0-5.638-4.868-5.241-5.265c0.397-0.398,10-0.397,10.396,0
		C29.178,46.667,24.165,51.536,23.625,51.536z"/>
</g>
</svg>
