<?xml version="1.0" encoding="utf-8"?>
<!-- Generator: Adobe Illustrator 16.0.0, SVG Export Plug-In . SVG Version: 6.00 Build 0)  -->
<!DOCTYPE svg PUBLIC "-//W3C//DTD SVG 1.1//EN" "http://www.w3.org/Graphics/SVG/1.1/DTD/svg11.dtd">
<svg version="1.1" id="Layer_1" xmlns="http://www.w3.org/2000/svg" xmlns:xlink="http://www.w3.org/1999/xlink" x="0px" y="0px"
	 width="216px" height="46px" viewBox="1401.019 323 216 46" enable-background="new 1401.019 323 216 46" xml:space="preserve">
<g id="HackerRank_X">
	<g>
		<g id="Hexagon_2_">
			
				<image overflow="visible" opacity="0.15" enable-background="new    " width="572" height="628" xlink:href="30C0E5EA2695DCE8.png"  transform="matrix(0.0732 0 0 0.0732 1401.5 323.0049)">
			</image>
			<g>
				<g>
					
						<linearGradient id="SVGID_1_" gradientUnits="userSpaceOnUse" x1="1574.4668" y1="63.7358" x2="1574.4668" y2="83.7754" gradientTransform="matrix(1 0 0 -1 -146 407)">
						<stop  offset="0" style="stop-color:#25A559"/>
						<stop  offset="1" style="stop-color:#30CE68"/>
					</linearGradient>
					<path fill="url(#SVGID_1_)" d="M1422.442,323.225c-1.073,0-4.494,1.622-8.168,3.654l28.385,16.385
						c-0.081-4.191-0.389-7.95-0.923-8.871c-0.452-0.779-2.726-2.428-5.573-4.226l-7.591-4.381
						C1425.729,324.295,1423.313,323.225,1422.442,323.225z"/>
					
						<linearGradient id="SVGID_2_" gradientUnits="userSpaceOnUse" x1="1570.54" y1="54.5063" x2="1570.54" y2="80.1211" gradientTransform="matrix(1 0 0 -1 -146 407)">
						<stop  offset="0" style="stop-color:#25A559"/>
						<stop  offset="1" style="stop-color:#30CE68"/>
					</linearGradient>
					<path fill="url(#SVGID_2_)" d="M1406.398,331.679l36.057,20.815c0.198-2.63,0.267-6.052,0.204-9.23l-28.385-16.385
						C1411.491,328.418,1408.564,330.191,1406.398,331.679z"/>
					
						<linearGradient id="SVGID_3_" gradientUnits="userSpaceOnUse" x1="1568.4404" y1="47.5034" x2="1568.4404" y2="75.3208" gradientTransform="matrix(1 0 0 -1 -146 407)">
						<stop  offset="0" style="stop-color:#25A559"/>
						<stop  offset="1" style="stop-color:#30CE68"/>
					</linearGradient>
					<path fill="url(#SVGID_3_)" d="M1406.398,331.679c-1.7,1.167-2.931,2.157-3.249,2.714c-0.325,0.569-0.566,2.201-0.724,4.338
						l35.971,20.766c1.745-1.192,3.015-2.205,3.34-2.769c0.321-0.557,0.561-2.146,0.719-4.234L1406.398,331.679z"/>
					
						<linearGradient id="SVGID_4_" gradientUnits="userSpaceOnUse" x1="1566.3076" y1="42.6226" x2="1566.3076" y2="68.2837" gradientTransform="matrix(1 0 0 -1 -146 407)">
						<stop  offset="0" style="stop-color:#25A559"/>
						<stop  offset="1" style="stop-color:#30CE68"/>
					</linearGradient>
					<path fill="url(#SVGID_4_)" d="M1438.409,359.488l-35.982-20.772c-0.199,2.698-0.265,6.204-0.194,9.426l28.124,16.235
						C1433.183,362.823,1436.186,361.009,1438.409,359.488z"/>
					
						<linearGradient id="SVGID_5_" gradientUnits="userSpaceOnUse" x1="1562.2949" y1="39.104" x2="1562.2949" y2="58.8579" gradientTransform="matrix(1 0 0 -1 -146 407)">
						<stop  offset="0" style="stop-color:#25A559"/>
						<stop  offset="1" style="stop-color:#30CE68"/>
					</linearGradient>
					<path fill="url(#SVGID_5_)" d="M1402.232,348.143c0.09,4.07,0.395,7.677,0.917,8.586c1.263,2.2,16.77,11.168,19.293,11.168
						c1.048,0,4.337-1.55,7.914-3.519L1402.232,348.143z"/>
				</g>
			</g>
		</g>
		<g id="H_2_">
			
				<image overflow="visible" opacity="0.1" enable-background="new    " width="316" height="426" xlink:href="30C0E5EA2695DCE9.png"  transform="matrix(0.0732 0 0 0.0732 1410.874 330.1821)">
			</image>
			<g>
				<path fill="#FFFFFF" d="M1426.235,347.309v7.731h-1.306c-0.265,0-0.479,0.215-0.479,0.479c0,0.174,0.091,0.325,0.229,0.41
					l2.934,2.811c0.088,0.115,0.261,0.202,0.417,0.202c0.159,0,0.3-0.082,0.387-0.202l3.124-2.812
					c0.137-0.085,0.229-0.236,0.229-0.409c0-0.265-0.216-0.479-0.479-0.479h-1.31l-0.012-18.682c0-0.265-0.21-0.479-0.475-0.479
					h-2.778c-0.265,0-0.481,0.214-0.481,0.479v7.212l-7.584-0.001v-7.488h1.306c0.265,0,0.479-0.215,0.479-0.48
					c0-0.174-0.092-0.325-0.229-0.409l-2.934-2.812c-0.088-0.114-0.262-0.202-0.417-0.202c-0.158,0-0.3,0.083-0.387,0.202
					l-3.125,2.812c-0.137,0.084-0.228,0.235-0.228,0.409c0,0.265,0.214,0.48,0.479,0.48h1.31l0.012,18.681
					c0,0.265,0.21,0.479,0.475,0.479h2.777c0.266,0,0.482-0.215,0.482-0.479v-7.454H1426.235z"/>
			</g>
		</g>
		<path fill="#39424E" d="M1551.746,353.522c-1.552-2.538-3.112-5.071-4.667-7.609c-0.134-0.217-0.247-0.446-0.394-0.713
			c0.347-0.104,0.604-0.176,0.856-0.261c2.338-0.786,3.778-2.713,3.854-5.15c0.087-2.886-1.424-4.906-4.233-5.604
			c-0.635-0.158-1.294-0.283-1.944-0.3c-2.097-0.052-4.195-0.05-6.293-0.061c-1.22-0.007-1.241,0.019-1.242,1.206
			c0,6.196,0,12.393,0.001,18.591c0,0.218,0.002,0.438,0.022,0.656c0.026,0.305,0.185,0.51,0.508,0.515
			c0.658,0.01,1.317,0.008,1.976,0.004c0.32-0.001,0.494-0.192,0.537-0.492c0.028-0.19,0.018-0.39,0.018-0.584
			c0.001-2.439,0.001-4.88,0.001-7.319c0-0.265,0-0.53,0-0.941c0.734,0,1.363,0.021,1.99-0.007c0.417-0.019,0.672,0.127,0.878,0.498
			c0.522,0.937,1.084,1.852,1.63,2.776c1.081,1.825,2.17,3.646,3.239,5.479c0.227,0.389,0.472,0.645,0.972,0.607
			c0.534-0.04,1.073,0.006,1.609-0.015c0.347-0.012,0.773,0.148,0.983-0.279C1552.243,354.117,1551.931,353.824,1551.746,353.522z
			 M1544.762,342.641c-1.233,0.097-2.479,0.038-3.721,0.04c-0.067,0-0.135-0.039-0.247-0.073c0-1.961,0-3.922,0-5.885
			c0.033-0.029,0.069-0.089,0.105-0.089c1.603-0.038,3.209-0.149,4.803,0.131c0.239,0.041,0.477,0.101,0.705,0.18
			c1.662,0.573,2.415,2.286,1.723,3.904c-0.241,0.562-0.641,1.011-1.201,1.217C1546.227,342.322,1545.496,342.582,1544.762,342.641z
			 M1607.419,346.273c-0.223,0.315-0.392,0.544-0.551,0.78c-1.61,2.387-3.23,4.767-4.82,7.168c-0.29,0.439-0.614,0.635-1.136,0.604
			c-0.583-0.035-1.172-0.004-1.757-0.011c-0.284-0.004-0.604,0.065-0.772-0.271c-0.162-0.323,0.037-0.56,0.204-0.798
			c1.285-1.841,2.572-3.68,3.859-5.52c0.895-1.28,1.79-2.561,2.682-3.842c0.389-0.557,0.39-0.561-0.015-1.136
			c-1.913-2.712-3.828-5.422-5.736-8.137c-0.203-0.289-0.549-0.566-0.356-0.973c0.202-0.424,0.637-0.268,0.983-0.281
			c0.537-0.02,1.077,0.022,1.61-0.013c0.501-0.032,0.802,0.172,1.075,0.583c1.407,2.111,2.841,4.206,4.267,6.304
			c0.147,0.216,0.308,0.424,0.523,0.721c0.202-0.284,0.355-0.492,0.501-0.705c1.406-2.083,2.824-4.158,4.207-6.257
			c0.303-0.459,0.625-0.69,1.188-0.648c0.607,0.045,1.221-0.005,1.83,0.019c0.589,0.023,0.77,0.362,0.487,0.877
			c-0.082,0.148-0.191,0.283-0.289,0.423c-1.855,2.662-3.713,5.323-5.569,7.985c-0.152,0.219-0.3,0.44-0.474,0.698
			c0.159,0.239,0.301,0.46,0.451,0.676c2.114,3.019,4.23,6.034,6.342,9.054c0.205,0.293,0.526,0.577,0.316,0.981
			c-0.199,0.384-0.6,0.247-0.927,0.257c-0.511,0.017-1.027-0.033-1.536,0.016c-0.592,0.058-0.926-0.196-1.244-0.676
			c-1.592-2.398-3.218-4.774-4.833-7.158C1607.782,346.776,1607.627,346.565,1607.419,346.273z M1500.121,348.804
			c-0.011,0.235-0.031,0.472-0.031,0.705c-0.003,1.489,0.003,2.979-0.004,4.468c-0.003,0.718-0.099,0.813-0.791,0.825
			c-0.488,0.008-0.978,0.015-1.465-0.004c-0.506-0.019-0.627-0.155-0.656-0.67c-0.01-0.146-0.003-0.293-0.003-0.438
			c0-6.688,0-13.378,0-20.066c0-0.171-0.008-0.342,0.004-0.512c0.03-0.46,0.168-0.629,0.611-0.649c0.561-0.025,1.124-0.024,1.684,0
			c0.457,0.019,0.585,0.171,0.614,0.639c0.013,0.194,0.004,0.391,0.004,0.585c0.001,3.735,0,7.47,0.002,11.204
			c0,0.258,0.021,0.517,0.04,0.917c0.262-0.218,0.429-0.339,0.574-0.481c1.47-1.429,2.943-2.855,4.398-4.298
			c0.299-0.298,0.607-0.445,1.032-0.429c0.707,0.026,1.415,0.004,2.123,0.009c0.288,0.001,0.612-0.047,0.734,0.323
			c0.112,0.34-0.103,0.545-0.327,0.748c-1.774,1.605-3.546,3.211-5.317,4.819c-0.216,0.195-0.425,0.397-0.67,0.626
			c0.15,0.172,0.265,0.322,0.4,0.453c2.021,1.981,4.048,3.961,6.071,5.94c0.122,0.119,0.281,0.22,0.356,0.363
			c0.094,0.178,0.208,0.427,0.147,0.581c-0.06,0.153-0.314,0.293-0.501,0.323c-0.334,0.052-0.682,0.023-1.023,0.016
			c-0.655-0.015-1.381,0.127-1.946-0.108c-0.543-0.226-0.927-0.839-1.368-1.293c-1.311-1.348-2.614-2.7-3.922-4.051
			c-0.201-0.206-0.406-0.407-0.609-0.611C1500.229,348.761,1500.176,348.782,1500.121,348.804z M1586.905,348.824
			c0,0.461,0,0.923,0,1.384c0,1.27,0.008,2.538-0.002,3.807c-0.006,0.646-0.137,0.772-0.77,0.786c-0.463,0.01-0.927,0.01-1.391,0
			c-0.64-0.014-0.746-0.126-0.774-0.782c-0.007-0.146-0.003-0.293-0.003-0.439c0-6.637,0-13.273,0-19.911
			c0-1.201,0.016-1.215,1.234-1.215c0.366,0,0.733-0.016,1.098,0.009c0.403,0.028,0.562,0.194,0.601,0.593
			c0.02,0.193,0.007,0.39,0.007,0.585c0.001,3.734,0.001,7.466,0.001,11.2c0,0.265,0,0.528,0,0.985
			c0.317-0.272,0.517-0.424,0.694-0.598c1.398-1.361,2.803-2.717,4.182-4.098c0.371-0.371,0.745-0.571,1.284-0.533
			c0.632,0.045,1.269,0.007,1.903,0.012c0.309,0.002,0.663-0.072,0.818,0.313c0.153,0.384-0.143,0.583-0.372,0.792
			c-1.77,1.609-3.543,3.213-5.314,4.82c-0.197,0.18-0.387,0.365-0.637,0.601c0.188,0.202,0.339,0.381,0.506,0.544
			c2.005,1.963,4.012,3.923,6.018,5.885c0.104,0.103,0.246,0.188,0.304,0.312c0.085,0.186,0.198,0.43,0.139,0.589
			c-0.058,0.151-0.317,0.314-0.493,0.32c-0.901,0.031-1.807,0.046-2.706-0.008c-0.245-0.015-0.517-0.246-0.709-0.442
			c-1.623-1.655-3.229-3.326-4.841-4.99c-0.199-0.204-0.406-0.399-0.608-0.6C1587.018,348.771,1586.962,348.798,1586.905,348.824z
			 M1524.268,346.567c-0.248-3.648-2.781-6.092-6.126-6.29c-2.908-0.172-5.185,0.91-6.745,3.388
			c-0.902,1.435-1.194,3.036-1.037,4.703c0.279,2.97,1.734,5.135,4.539,6.273c1.611,0.654,3.285,0.642,4.955,0.202
			c1.49-0.394,2.682-1.253,3.66-2.422c0.434-0.519,0.412-0.734-0.092-1.153c-0.226-0.186-0.46-0.361-0.689-0.542
			c-0.885-0.689-0.873-0.679-1.607,0.153c-1.242,1.408-2.8,1.945-4.613,1.446c-1.731-0.476-2.74-1.679-3.13-3.57
			c0.376-0.019,0.66-0.044,0.945-0.044c2.901-0.003,5.805-0.002,8.706-0.002c0.195,0,0.392,0.008,0.586-0.008
			c0.512-0.04,0.638-0.147,0.664-0.676C1524.31,347.543,1524.3,347.053,1524.268,346.567z M1513.491,346.145
			c0.067-0.261,0.094-0.473,0.175-0.664c1.003-2.375,3.513-3.165,5.646-2.231c1.178,0.517,1.751,1.54,1.946,2.895
			C1518.625,346.145,1516.104,346.145,1513.491,346.145z M1479.403,353.918c-0.071-0.973-0.142-1.945-0.154-2.92
			c-0.024-1.83,0.016-3.661-0.015-5.492c-0.045-2.717-1.477-4.535-4.064-5.078c-2.243-0.472-4.366-0.087-6.305,1.171
			c-0.244,0.159-0.475,0.346-0.685,0.548c-0.372,0.355-0.385,0.543-0.083,0.946c0.16,0.215,0.343,0.413,0.517,0.618
			c0.737,0.874,0.729,0.864,1.666,0.178c1.347-0.986,2.849-1.255,4.444-0.815c1.164,0.322,1.774,1.373,1.554,2.58
			c-0.812,0.035-1.64,0.062-2.466,0.109c-1.296,0.071-2.575,0.248-3.793,0.721c-1.15,0.448-2.147,1.12-2.593,2.324
			c-0.912,2.474-0.005,5.051,2.687,5.995c1.159,0.407,2.349,0.401,3.542,0.208c1.062-0.172,1.975-0.672,2.881-1.482
			c0.069,0.299,0.108,0.457,0.142,0.615c0.118,0.555,0.211,0.641,0.777,0.655c0.391,0.01,0.781,0.009,1.172,0.001
			C1479.357,354.789,1479.456,354.652,1479.403,353.918z M1471.411,352.351c-0.633-0.221-1.105-0.601-1.269-1.294
			c-0.187-0.798,0.007-1.387,0.692-1.84c0.321-0.213,0.68-0.394,1.046-0.507c1.434-0.443,2.91-0.513,4.44-0.485
			C1476.707,351.18,1474.122,353.296,1471.411,352.351z M1565.748,353.986c-0.083-0.898-0.169-1.798-0.181-2.699
			c-0.032-2.074,0.018-4.151-0.035-6.224c-0.055-2.131-1.31-3.753-3.32-4.448c-1.306-0.451-2.64-0.455-3.976-0.226
			c-1.295,0.221-2.479,0.725-3.503,1.566c-0.622,0.512-0.639,0.716-0.142,1.325c0.2,0.245,0.403,0.489,0.613,0.727
			c0.459,0.521,0.617,0.543,1.146,0.099c1.081-0.911,2.327-1.271,3.731-1.211c1.347,0.057,2.641,0.736,2.621,2.713
			c-0.27,0.028-0.506,0.063-0.742,0.075c-0.658,0.034-1.318,0.044-1.976,0.089c-1.22,0.083-2.426,0.258-3.577,0.694
			c-1.082,0.41-2,1.036-2.536,2.094c-1.154,2.271-0.218,5.077,2.131,6.047c2.234,0.92,4.437,0.776,6.445-0.718
			c0.128-0.095,0.271-0.17,0.445-0.278c0.053,0.223,0.089,0.388,0.13,0.551c0.148,0.579,0.199,0.626,0.791,0.639
			c0.416,0.01,0.83,0.012,1.246-0.001C1565.687,354.783,1565.805,354.608,1565.748,353.986z M1559.743,352.474
			c-0.637,0.078-1.318,0.009-1.949-0.132c-0.771-0.172-1.26-0.696-1.352-1.534c-0.093-0.845,0.296-1.404,1.012-1.772
			c0.281-0.145,0.571-0.279,0.875-0.364c1.397-0.396,2.828-0.466,4.303-0.461C1563.014,349.898,1561.938,352.202,1559.743,352.474z
			 M1571.478,341.799c0.296-0.207,0.49-0.348,0.69-0.481c1.795-1.199,3.725-1.391,5.724-0.667c1.716,0.622,2.59,2,2.992,3.703
			c0.127,0.541,0.176,1.109,0.18,1.666c0.019,2.609,0.009,5.22,0.008,7.83c0,0.171,0.044,0.368-0.026,0.505
			c-0.088,0.171-0.268,0.404-0.422,0.416c-0.654,0.047-1.315,0.031-1.975,0.019c-0.278-0.006-0.447-0.178-0.471-0.462
			c-0.016-0.193-0.012-0.391-0.012-0.585c0-2.097,0.01-4.194-0.007-6.292c-0.005-0.656-0.047-1.317-0.133-1.968
			c-0.147-1.095-0.567-2.052-1.72-2.412c-1.213-0.379-2.37-0.248-3.354,0.636c-0.721,0.646-1.083,1.499-1.247,2.428
			c-0.094,0.525-0.131,1.066-0.136,1.601c-0.015,2.048-0.003,4.097-0.008,6.146c-0.001,0.847-0.075,0.916-0.916,0.923
			c-0.415,0.004-0.83,0.009-1.244-0.002c-0.611-0.016-0.729-0.133-0.754-0.722c-0.008-0.194-0.01-0.386-0.01-0.58
			c0-0.427,0.005-6.979-0.008-10.468c-0.003-0.56-0.074-1.119-0.091-1.679c-0.02-0.598,0.108-0.726,0.717-0.742
			c0.438-0.012,0.878-0.008,1.316-0.001c0.676,0.011,0.735,0.069,0.829,0.736C1571.418,341.46,1571.439,341.575,1571.478,341.799z
			 M1489.312,355.188c-2.153-0.042-4.039-0.688-5.555-2.254c-1.032-1.066-1.647-2.355-1.873-3.813
			c-0.274-1.775-0.107-3.503,0.765-5.115c1.151-2.13,2.977-3.291,5.336-3.663c1.509-0.237,2.963-0.044,4.359,0.578
			c0.84,0.374,1.561,0.905,2.14,1.617c0.369,0.455,0.343,0.684-0.114,1.035c-0.405,0.312-0.827,0.603-1.248,0.895
			c-0.305,0.21-0.597,0.198-0.833-0.114c-1.042-1.375-2.459-1.693-4.049-1.346c-1.643,0.357-2.693,1.425-3.181,3.015
			c-0.405,1.328-0.339,2.648,0.219,3.931c1.306,2.998,5.423,3.294,7.075,1.214c0.418-0.526,0.552-0.508,1.094-0.123
			c0.319,0.225,0.631,0.459,0.939,0.699c0.561,0.435,0.596,0.679,0.134,1.19c-0.887,0.985-1.961,1.69-3.26,1.985
			C1490.625,355.064,1489.963,355.102,1489.312,355.188z M1529.985,341.756c0.237-0.181,0.37-0.28,0.503-0.383
			c1.289-1.009,2.753-1.3,4.344-1.038c0.608,0.101,0.729,0.264,0.67,0.895c-0.038,0.412-0.103,0.822-0.162,1.231
			c-0.104,0.707-0.267,0.796-0.971,0.716c-0.528-0.059-1.074-0.099-1.596-0.027c-0.956,0.134-1.639,0.706-2.085,1.558
			c-0.427,0.815-0.611,1.69-0.61,2.607c0,2.123-0.001,4.244-0.001,6.366c0,0.171,0.011,0.342-0.005,0.511
			c-0.039,0.422-0.176,0.585-0.58,0.601c-0.585,0.022-1.172,0.022-1.756,0c-0.43-0.017-0.543-0.147-0.588-0.589
			c-0.021-0.217-0.01-0.438-0.01-0.657c-0.001-2.61-0.004-7.703-0.004-7.829c-0.007-1.39-0.046-2.779-0.08-4.168
			c-0.02-0.872,0.03-0.936,0.869-0.943c0.391-0.003,0.781-0.007,1.171,0.001c0.639,0.013,0.684,0.055,0.812,0.689
			C1529.931,341.414,1529.947,341.531,1529.985,341.756z M1451.267,345.433c0,0-0.002,8.66-0.002,8.855
			c0,0.343-0.226,0.509-0.579,0.511c-0.634,0.003-1.269,0.003-1.903-0.002c-0.355-0.003-0.562-0.199-0.562-0.548
			c0-0.187,0-19.252,0-19.328c0-1.062,0.037-1.094,1.122-1.098c0.342-0.001,0.684-0.004,1.025,0.002
			c0.788,0.014,0.888,0.113,0.898,0.885c0.005,0.39,0.001,7.408,0.001,7.779h9.881c0-0.371-0.005-7.352,0.001-7.743
			c0.009-0.772,0.11-0.871,0.897-0.886c0.341-0.006,0.684-0.003,1.025-0.001c1.085,0.003,1.121,0.036,1.122,1.098
			c0,0.076,0,19.142,0,19.33c0,0.347-0.206,0.544-0.562,0.547c-0.635,0.005-1.27,0.004-1.903,0.001
			c-0.354-0.001-0.579-0.167-0.579-0.51c0-0.195-0.002-8.893-0.002-8.893H1451.267z"/>
	</g>
</g>
</svg>
