<?xml version="1.0" encoding="utf-8"?>
<!-- Generator: Adobe Illustrator 16.0.0, SVG Export Plug-In . SVG Version: 6.00 Build 0)  -->
<!DOCTYPE svg PUBLIC "-//W3C//DTD SVG 1.1//EN" "http://www.w3.org/Graphics/SVG/1.1/DTD/svg11.dtd">
<svg version="1.1" id="Layer_1" xmlns="http://www.w3.org/2000/svg" xmlns:xlink="http://www.w3.org/1999/xlink" x="0px" y="0px"
	 width="216px" height="46px" viewBox="0 0 216 46" enable-background="new 0 0 216 46" xml:space="preserve">
<g>
	<path fill="#55BA66" d="M59.881,11.5C58.589,9.258,42.73,0,40.149,0C37.565,0,21.7,9.235,20.416,11.5
		c-1.284,2.266-1.291,20.736,0,23S37.567,46,40.149,46c2.581,0,18.443-9.247,19.732-11.5C61.171,32.247,61.172,13.742,59.881,11.5z"
		/>
	<g id="Hexagon_2_">
		<g>
			
				<linearGradient id="SVGID_1_" gradientUnits="userSpaceOnUse" x1="1034.707" y1="1330.667" x2="1034.707" y2="1310.0303" gradientTransform="matrix(1 0 0 1 -988.3965 -1310.0293)">
				<stop  offset="0" style="stop-color:#27A558"/>
				<stop  offset="1" style="stop-color:#54BA67"/>
			</linearGradient>
			<path fill="url(#SVGID_1_)" d="M40.149,0c-1.098,0-4.597,1.67-8.354,3.763l29.032,16.874c-0.083-4.316-0.398-8.187-0.945-9.137
				c-0.462-0.801-2.788-2.499-5.7-4.351L46.42,2.637C43.51,1.102,41.04,0,40.149,0z"/>
			
				<linearGradient id="SVGID_2_" gradientUnits="userSpaceOnUse" x1="1030.6914" y1="1340.1699" x2="1030.6914" y2="1313.793" gradientTransform="matrix(1 0 0 1 -988.3965 -1310.0293)">
				<stop  offset="0" style="stop-color:#27A558"/>
				<stop  offset="1" style="stop-color:#54BA67"/>
			</linearGradient>
			<path fill="url(#SVGID_2_)" d="M23.74,8.707l36.878,21.434c0.204-2.709,0.273-6.232,0.209-9.504L31.795,3.763
				C28.947,5.347,25.955,7.173,23.74,8.707z"/>
			
				<linearGradient id="SVGID_3_" gradientUnits="userSpaceOnUse" x1="1028.5439" y1="1347.3809" x2="1028.5439" y2="1318.7363" gradientTransform="matrix(1 0 0 1 -988.3965 -1310.0293)">
				<stop  offset="0" style="stop-color:#27A558"/>
				<stop  offset="1" style="stop-color:#54BA67"/>
			</linearGradient>
			<path fill="url(#SVGID_3_)" d="M23.74,8.707C22,9.909,20.742,10.927,20.417,11.5c-0.333,0.588-0.578,2.268-0.739,4.468
				l36.788,21.382c1.786-1.229,3.084-2.272,3.416-2.851c0.33-0.576,0.575-2.211,0.735-4.363L23.74,8.707z"/>
			
				<linearGradient id="SVGID_4_" gradientUnits="userSpaceOnUse" x1="1026.3613" y1="1352.4043" x2="1026.3612" y2="1325.9814" gradientTransform="matrix(1 0 0 1 -988.3965 -1310.0293)">
				<stop  offset="0" style="stop-color:#27A558"/>
				<stop  offset="1" style="stop-color:#54BA67"/>
			</linearGradient>
			<path fill="url(#SVGID_4_)" d="M56.48,37.342l-36.802-21.39c-0.206,2.778-0.272,6.39-0.201,9.706l28.767,16.718
				C51.135,40.774,54.204,38.908,56.48,37.342z"/>
			
				<linearGradient id="SVGID_5_" gradientUnits="userSpaceOnUse" x1="1022.2559" y1="1356.0293" x2="1022.2559" y2="1335.6875" gradientTransform="matrix(1 0 0 1 -988.3965 -1310.0293)">
				<stop  offset="0" style="stop-color:#27A558"/>
				<stop  offset="1" style="stop-color:#54BA67"/>
			</linearGradient>
			<path fill="url(#SVGID_5_)" d="M19.478,25.657c0.092,4.195,0.404,7.906,0.938,8.844C21.708,36.764,37.567,46,40.149,46
				c1.073,0,4.436-1.595,8.095-3.623L19.478,25.657z"/>
		</g>
	</g>
	<g id="H_2_">
		<path fill="#FFFFFF" d="M44.007,24.802v7.958h-1.327c-0.27,0-0.487,0.225-0.487,0.495c0,0.179,0.095,0.334,0.234,0.422
			l2.983,2.895c0.089,0.118,0.267,0.208,0.424,0.208c0.162,0,0.305-0.084,0.394-0.208l3.177-2.897
			c0.14-0.085,0.232-0.24,0.232-0.419c0-0.273-0.217-0.495-0.487-0.495h-1.331l-0.011-19.237c0-0.272-0.214-0.493-0.483-0.493H44.5
			c-0.271,0-0.492,0.221-0.492,0.493v7.427h-7.714v-7.71h1.326c0.27,0,0.488-0.222,0.488-0.494c0-0.178-0.094-0.335-0.233-0.422
			L34.89,9.429c-0.088-0.119-0.267-0.208-0.424-0.208c-0.162,0-0.306,0.085-0.394,0.208l-3.178,2.895
			c-0.139,0.088-0.232,0.243-0.232,0.421c0,0.273,0.217,0.494,0.487,0.494h1.333l0.011,19.238c0,0.271,0.213,0.488,0.483,0.488
			h2.825c0.27,0,0.49-0.218,0.49-0.488v-7.679L44.007,24.802L44.007,24.802z"/>
	</g>
</g>
<path fill="#39424E" d="M147.859,24.035c-1.166-1.927-2.337-3.846-3.506-5.77c-0.104-0.167-0.186-0.34-0.299-0.54
	c0.261-0.081,0.455-0.134,0.645-0.197c1.759-0.598,2.839-2.059,2.893-3.905c0.067-2.189-1.068-3.722-3.179-4.25
	c-0.478-0.12-0.972-0.216-1.461-0.227c-1.575-0.041-3.154-0.041-4.73-0.047c-0.917-0.003-0.934,0.016-0.934,0.916
	c0,4.698,0,9.397,0,14.096c0,0.169,0.004,0.335,0.017,0.499c0.022,0.231,0.142,0.387,0.382,0.389c0.498,0.01,0.991,0.01,1.487,0.006
	c0.24-0.003,0.375-0.149,0.403-0.375c0.023-0.145,0.017-0.297,0.017-0.439c0-1.851,0-3.705,0-5.552c0-0.199,0-0.401,0-0.714
	c0.552,0,1.022,0.018,1.494-0.004c0.316-0.014,0.506,0.097,0.662,0.377c0.389,0.709,0.813,1.405,1.225,2.105
	c0.813,1.383,1.626,2.764,2.435,4.152c0.171,0.296,0.354,0.491,0.734,0.462c0.397-0.031,0.802,0.003,1.205-0.013
	c0.262-0.014,0.583,0.112,0.742-0.216C148.232,24.487,148,24.265,147.859,24.035z M142.612,15.784
	c-0.931,0.076-1.864,0.028-2.801,0.031c-0.048,0-0.098-0.03-0.181-0.058c0-1.488,0-2.973,0-4.462
	c0.023-0.024,0.051-0.068,0.077-0.069c1.203-0.027,2.415-0.114,3.614,0.098c0.178,0.033,0.354,0.077,0.528,0.138
	c1.251,0.435,1.813,1.733,1.294,2.96c-0.181,0.428-0.481,0.769-0.903,0.923C143.713,15.543,143.163,15.739,142.612,15.784z
	 M189.705,18.539c-0.172,0.238-0.296,0.411-0.414,0.593c-1.213,1.807-2.431,3.612-3.624,5.432c-0.219,0.332-0.463,0.482-0.853,0.457
	c-0.439-0.023-0.883,0-1.32-0.007c-0.217-0.005-0.456,0.048-0.584-0.208c-0.121-0.242,0.027-0.423,0.154-0.606
	c0.969-1.393,1.936-2.789,2.9-4.184c0.672-0.973,1.346-1.942,2.017-2.913c0.291-0.423,0.291-0.427-0.014-0.861
	c-1.437-2.059-2.878-4.112-4.312-6.171c-0.151-0.218-0.414-0.429-0.266-0.738c0.15-0.323,0.479-0.203,0.74-0.212
	c0.402-0.016,0.805,0.016,1.209-0.012c0.378-0.024,0.603,0.13,0.808,0.441c1.057,1.603,2.135,3.19,3.209,4.781
	c0.109,0.165,0.229,0.322,0.391,0.55c0.153-0.217,0.267-0.375,0.378-0.538c1.057-1.579,2.126-3.153,3.163-4.745
	c0.228-0.348,0.468-0.526,0.891-0.493c0.457,0.034,0.918-0.003,1.373,0.016c0.446,0.018,0.579,0.275,0.369,0.664
	c-0.061,0.115-0.143,0.216-0.215,0.321c-1.397,2.02-2.792,4.038-4.188,6.059c-0.117,0.163-0.226,0.333-0.358,0.528
	c0.122,0.179,0.225,0.348,0.335,0.514c1.593,2.288,3.183,4.575,4.769,6.866c0.151,0.218,0.394,0.436,0.237,0.743
	c-0.147,0.289-0.45,0.183-0.693,0.193c-0.386,0.014-0.777-0.024-1.159,0.014c-0.442,0.042-0.692-0.151-0.934-0.515
	c-1.195-1.819-2.417-3.619-3.634-5.426C189.977,18.918,189.861,18.76,189.705,18.539z M109.057,20.455
	c-0.007,0.181-0.023,0.359-0.023,0.539c0,1.128,0.003,2.26-0.002,3.385c0,0.545-0.074,0.618-0.596,0.625
	c-0.365,0.01-0.733,0.015-1.099-0.003c-0.38-0.013-0.473-0.116-0.493-0.507c-0.006-0.108-0.001-0.223-0.001-0.334
	c0-5.069,0-10.142,0-15.214c0-0.127-0.005-0.26,0.002-0.389c0.022-0.349,0.125-0.478,0.459-0.492c0.419-0.02,0.844-0.02,1.265,0
	c0.343,0.015,0.44,0.13,0.461,0.485c0.009,0.147,0.004,0.295,0.004,0.444c0,2.832,0,5.665,0,8.497c0,0.194,0.016,0.391,0.029,0.695
	c0.198-0.165,0.323-0.259,0.432-0.364c1.107-1.082,2.21-2.165,3.307-3.26c0.225-0.226,0.455-0.337,0.774-0.326
	c0.534,0.022,1.064,0.002,1.599,0.005c0.217,0.002,0.459-0.033,0.551,0.247c0.086,0.257-0.074,0.413-0.246,0.567
	c-1.331,1.218-2.665,2.436-3.997,3.656c-0.159,0.145-0.316,0.302-0.503,0.473c0.112,0.129,0.197,0.245,0.301,0.346
	c1.52,1.501,3.043,3,4.564,4.499c0.094,0.093,0.213,0.171,0.266,0.276c0.069,0.138,0.159,0.326,0.109,0.442
	c-0.045,0.117-0.233,0.22-0.375,0.245c-0.254,0.041-0.513,0.021-0.771,0.014c-0.492-0.012-1.039,0.097-1.464-0.081
	c-0.407-0.173-0.694-0.639-1.027-0.981c-0.984-1.024-1.963-2.047-2.948-3.072c-0.151-0.156-0.306-0.311-0.457-0.461
	C109.14,20.423,109.099,20.44,109.057,20.455z M174.287,20.474c0,0.35,0,0.698,0,1.05c0,0.962,0.007,1.926-0.002,2.887
	c-0.005,0.488-0.101,0.584-0.578,0.595c-0.348,0.01-0.694,0.01-1.044,0c-0.483-0.011-0.562-0.095-0.584-0.592
	c-0.007-0.112-0.002-0.222-0.002-0.335c0-5.031,0-10.065,0-15.098c0-0.911,0.013-0.924,0.93-0.924c0.276,0,0.55-0.01,0.826,0.008
	c0.303,0.02,0.418,0.145,0.454,0.448c0.011,0.147,0.004,0.297,0.004,0.444c0,2.832,0,5.664,0,8.495c0,0.202,0,0.401,0,0.744
	c0.238-0.207,0.385-0.32,0.521-0.455c1.051-1.032,2.106-2.059,3.142-3.106c0.279-0.281,0.56-0.432,0.967-0.402
	c0.474,0.034,0.953,0.003,1.431,0.008c0.232,0.005,0.498-0.053,0.615,0.239c0.113,0.292-0.107,0.443-0.282,0.6
	c-1.329,1.22-2.66,2.438-3.99,3.655c-0.147,0.136-0.294,0.275-0.48,0.455c0.138,0.152,0.254,0.288,0.378,0.411
	c1.508,1.491,3.017,2.979,4.524,4.464c0.077,0.076,0.185,0.144,0.226,0.237c0.066,0.141,0.15,0.325,0.104,0.445
	c-0.043,0.117-0.235,0.238-0.369,0.243c-0.68,0.024-1.361,0.036-2.035-0.005c-0.185-0.011-0.389-0.184-0.534-0.337
	c-1.222-1.258-2.426-2.52-3.642-3.785c-0.146-0.151-0.301-0.303-0.455-0.454C174.368,20.433,174.33,20.453,174.287,20.474z
	 M127.207,18.761c-0.185-2.767-2.088-4.621-4.604-4.769c-2.186-0.13-3.896,0.689-5.067,2.568c-0.681,1.088-0.897,2.301-0.78,3.566
	c0.211,2.254,1.306,3.894,3.411,4.759c1.21,0.494,2.469,0.487,3.725,0.152c1.122-0.299,2.015-0.95,2.752-1.838
	c0.328-0.391,0.31-0.557-0.07-0.874c-0.169-0.14-0.344-0.274-0.517-0.41c-0.665-0.525-0.656-0.515-1.211,0.117
	c-0.932,1.069-2.103,1.476-3.47,1.096c-1.299-0.361-2.057-1.269-2.352-2.708c0.281-0.014,0.496-0.03,0.713-0.03
	c2.178-0.002,4.359-0.002,6.539-0.002c0.148,0,0.297,0.008,0.44-0.005c0.387-0.03,0.48-0.115,0.499-0.513
	C127.24,19.5,127.233,19.128,127.207,18.761z M119.109,18.441c0.051-0.198,0.069-0.36,0.13-0.503c0.753-1.8,2.64-2.399,4.243-1.691
	c0.888,0.393,1.318,1.167,1.465,2.196C122.966,18.441,121.071,18.441,119.109,18.441z M93.486,24.335
	c-0.053-0.737-0.104-1.473-0.115-2.216c-0.018-1.386,0.011-2.776-0.011-4.163c-0.032-2.058-1.108-3.438-3.056-3.85
	c-1.686-0.357-3.281-0.068-4.736,0.887c-0.184,0.121-0.359,0.263-0.516,0.416c-0.279,0.269-0.289,0.412-0.064,0.72
	c0.121,0.162,0.259,0.312,0.389,0.467c0.555,0.661,0.548,0.654,1.253,0.133c1.013-0.745,2.14-0.951,3.339-0.617
	c0.874,0.244,1.333,1.042,1.168,1.957c-0.61,0.025-1.232,0.046-1.854,0.082c-0.976,0.055-1.936,0.185-2.851,0.544
	c-0.865,0.341-1.616,0.848-1.95,1.763c-0.686,1.875-0.002,3.828,2.02,4.546c0.872,0.307,1.765,0.303,2.661,0.154
	c0.798-0.129,1.486-0.506,2.165-1.124c0.053,0.229,0.082,0.348,0.107,0.468c0.086,0.417,0.157,0.487,0.584,0.496
	c0.292,0.01,0.585,0.008,0.881,0.003C93.453,24.994,93.529,24.892,93.486,24.335z M87.481,23.146
	c-0.477-0.169-0.832-0.456-0.954-0.982c-0.141-0.604,0.005-1.053,0.521-1.395c0.241-0.164,0.509-0.299,0.785-0.386
	c1.078-0.333,2.189-0.389,3.339-0.368C91.462,22.257,89.518,23.865,87.481,23.146z M158.383,24.388
	c-0.06-0.685-0.123-1.365-0.133-2.046c-0.023-1.576,0.016-3.148-0.024-4.722c-0.043-1.614-0.986-2.846-2.497-3.37
	c-0.982-0.344-1.984-0.347-2.99-0.174c-0.973,0.168-1.86,0.55-2.63,1.19c-0.469,0.386-0.481,0.54-0.108,1.003
	c0.15,0.183,0.301,0.371,0.462,0.548c0.345,0.397,0.462,0.413,0.859,0.077c0.812-0.691,1.749-0.963,2.8-0.92
	c1.016,0.043,1.989,0.557,1.971,2.061c-0.2,0.022-0.38,0.047-0.557,0.055c-0.493,0.025-0.991,0.034-1.483,0.069
	c-0.919,0.063-1.826,0.198-2.689,0.527c-0.813,0.311-1.502,0.787-1.909,1.588c-0.865,1.722-0.163,3.849,1.604,4.585
	c1.681,0.696,3.336,0.589,4.845-0.543c0.101-0.072,0.206-0.127,0.34-0.209c0.035,0.166,0.063,0.292,0.098,0.413
	c0.109,0.439,0.146,0.477,0.593,0.486c0.311,0.009,0.624,0.012,0.936,0C158.338,24.99,158.43,24.861,158.383,24.388z M153.872,23.24
	c-0.479,0.058-0.992,0.008-1.467-0.099c-0.579-0.134-0.944-0.532-1.015-1.166c-0.067-0.64,0.222-1.066,0.764-1.344
	c0.21-0.109,0.431-0.214,0.654-0.278c1.053-0.298,2.126-0.351,3.235-0.348C156.329,21.288,155.521,23.031,153.872,23.24z
	 M162.69,15.146c0.225-0.156,0.369-0.264,0.52-0.365c1.352-0.908,2.803-1.054,4.304-0.504c1.291,0.473,1.946,1.517,2.248,2.806
	c0.097,0.411,0.134,0.842,0.138,1.264c0.01,1.98,0.003,3.959,0.003,5.936c0,0.128,0.031,0.281-0.02,0.382
	c-0.069,0.131-0.204,0.311-0.32,0.317c-0.493,0.034-0.987,0.021-1.481,0.016c-0.214-0.007-0.337-0.135-0.357-0.353
	c-0.011-0.146-0.009-0.292-0.009-0.443c0-1.59,0.009-3.181-0.005-4.771c-0.004-0.498-0.035-0.998-0.101-1.491
	c-0.112-0.831-0.427-1.557-1.29-1.83c-0.913-0.285-1.784-0.185-2.521,0.483c-0.539,0.491-0.813,1.137-0.936,1.841
	c-0.071,0.4-0.098,0.809-0.104,1.212c-0.01,1.556,0,3.108-0.006,4.662c0,0.642-0.056,0.694-0.687,0.702
	c-0.313,0.003-0.623,0.005-0.936-0.002c-0.459-0.016-0.547-0.1-0.567-0.546c-0.005-0.147-0.005-0.294-0.005-0.442
	c0-0.321,0.005-5.294-0.009-7.936c0-0.427-0.056-0.848-0.07-1.273c-0.015-0.454,0.082-0.549,0.54-0.561
	c0.33-0.012,0.66-0.007,0.989,0c0.504,0.006,0.552,0.051,0.623,0.555C162.646,14.889,162.664,14.974,162.69,15.146z M100.936,25.3
	c-1.619-0.033-3.036-0.522-4.173-1.711c-0.776-0.809-1.24-1.785-1.408-2.894c-0.205-1.344-0.079-2.656,0.574-3.876
	c0.866-1.614,2.238-2.496,4.012-2.778c1.132-0.181,2.226-0.032,3.275,0.437c0.631,0.283,1.171,0.689,1.607,1.226
	c0.279,0.345,0.258,0.519-0.086,0.786c-0.306,0.237-0.622,0.458-0.937,0.682c-0.231,0.158-0.45,0.149-0.626-0.089
	c-0.785-1.042-1.85-1.282-3.043-1.021c-1.236,0.274-2.024,1.082-2.392,2.287c-0.305,1.006-0.256,2.007,0.164,2.982
	c0.981,2.275,4.074,2.497,5.316,0.923c0.316-0.4,0.416-0.387,0.823-0.094c0.24,0.168,0.476,0.348,0.704,0.527
	c0.422,0.33,0.452,0.519,0.1,0.905c-0.666,0.745-1.472,1.278-2.448,1.503C101.921,25.204,101.425,25.23,100.936,25.3z
	 M131.503,15.112c0.178-0.136,0.276-0.213,0.378-0.289c0.97-0.766,2.068-0.987,3.266-0.788c0.457,0.076,0.549,0.199,0.501,0.68
	c-0.024,0.313-0.074,0.622-0.121,0.935c-0.075,0.536-0.198,0.603-0.73,0.542c-0.396-0.045-0.806-0.077-1.199-0.021
	c-0.719,0.101-1.23,0.533-1.567,1.18c-0.318,0.62-0.457,1.283-0.457,1.979c0,1.606,0,3.215,0,4.826c0,0.129,0.006,0.264-0.005,0.386
	c-0.029,0.322-0.132,0.443-0.437,0.455c-0.437,0.021-0.881,0.021-1.318,0c-0.321-0.012-0.407-0.11-0.44-0.445
	c-0.019-0.166-0.011-0.334-0.011-0.499c0-1.98-0.002-5.84-0.002-5.938c-0.006-1.053-0.032-2.107-0.062-3.16
	c-0.015-0.661,0.024-0.708,0.653-0.715c0.297-0.003,0.591-0.006,0.881,0.002c0.48,0.01,0.514,0.042,0.613,0.523
	C131.463,14.853,131.479,14.942,131.503,15.112z M72.34,17.901c0,0-0.001,6.566-0.001,6.711c0,0.263-0.169,0.387-0.435,0.387
	c-0.476,0-0.954,0.003-1.43-0.002c-0.269,0-0.423-0.148-0.423-0.413c0-0.141,0-14.6,0-14.657c0-0.805,0.028-0.831,0.842-0.833
	c0.259-0.003,0.514-0.005,0.77,0.001c0.593,0.009,0.668,0.084,0.674,0.67c0.004,0.297,0.001,5.62,0.001,5.901h7.427
	c0-0.282-0.002-5.576,0-5.873c0.007-0.587,0.083-0.661,0.673-0.67c0.258-0.004,0.515-0.001,0.771,0
	c0.815,0.001,0.841,0.025,0.841,0.831c0,0.059,0,14.516,0,14.657c0,0.264-0.154,0.412-0.422,0.416
	c-0.477,0.004-0.954,0.004-1.429,0.002c-0.265-0.002-0.437-0.128-0.437-0.387c0-0.147,0-6.743,0-6.743L72.34,17.901L72.34,17.901z"
	/>
<g>
	<path fill="#979FAF" d="M73.546,32.772h-1.292V37.6h-0.798v-4.827h-1.15v-0.668h1.15v-1.504c0-0.626,0.152-1.118,0.458-1.478
		c0.304-0.359,0.774-0.541,1.409-0.541c0.101,0,0.211,0.006,0.329,0.018c0.117,0.013,0.227,0.033,0.329,0.063l-0.142,0.706
		c-0.086-0.023-0.171-0.043-0.258-0.06c-0.087-0.016-0.184-0.023-0.293-0.023c-0.212,0-0.385,0.034-0.523,0.106
		c-0.138,0.07-0.243,0.169-0.317,0.299s-0.124,0.28-0.151,0.452c-0.028,0.172-0.042,0.356-0.042,0.552v1.409h1.292V32.772
		L73.546,32.772z"/>
	<path fill="#979FAF" d="M80.145,34.853c0,0.414-0.072,0.798-0.216,1.15c-0.145,0.353-0.346,0.656-0.605,0.916
		c-0.259,0.259-0.568,0.459-0.928,0.604c-0.36,0.146-0.755,0.217-1.186,0.217c-0.422,0-0.814-0.072-1.174-0.217
		s-0.669-0.347-0.928-0.604c-0.258-0.26-0.46-0.563-0.604-0.916c-0.145-0.353-0.217-0.736-0.217-1.15
		c0-0.415,0.072-0.797,0.217-1.152c0.144-0.352,0.346-0.655,0.604-0.914c0.259-0.26,0.568-0.46,0.928-0.604
		c0.36-0.146,0.752-0.217,1.174-0.217c0.432,0,0.826,0.073,1.186,0.217c0.36,0.145,0.669,0.347,0.928,0.604
		c0.259,0.259,0.46,0.563,0.605,0.914C80.072,34.053,80.145,34.438,80.145,34.853z M79.3,34.853c0-0.306-0.05-0.593-0.146-0.862
		c-0.098-0.27-0.237-0.506-0.417-0.705c-0.181-0.2-0.4-0.359-0.658-0.477c-0.259-0.117-0.549-0.175-0.87-0.175
		s-0.608,0.061-0.862,0.175c-0.254,0.118-0.472,0.276-0.651,0.477c-0.181,0.199-0.319,0.436-0.417,0.705
		c-0.097,0.27-0.146,0.557-0.146,0.862s0.049,0.593,0.146,0.862c0.098,0.27,0.237,0.505,0.417,0.704
		c0.179,0.2,0.396,0.358,0.651,0.47c0.255,0.115,0.542,0.17,0.862,0.17c0.321,0,0.611-0.057,0.87-0.17
		c0.258-0.113,0.477-0.27,0.658-0.47c0.179-0.199,0.319-0.435,0.417-0.704C79.25,35.443,79.3,35.156,79.3,34.853z"/>
	<path fill="#979FAF" d="M81.847,32.739c-0.008-0.233-0.019-0.446-0.035-0.635h0.764c0.016,0.148,0.027,0.313,0.035,0.493
		c0.007,0.181,0.012,0.328,0.012,0.447h0.023c0.156-0.32,0.392-0.582,0.705-0.782c0.313-0.198,0.665-0.299,1.057-0.299
		c0.101,0,0.193,0.004,0.276,0.012c0.081,0.009,0.167,0.024,0.251,0.047l-0.105,0.764c-0.047-0.017-0.125-0.031-0.235-0.047
		s-0.218-0.024-0.329-0.024c-0.211,0-0.415,0.04-0.61,0.118c-0.195,0.079-0.366,0.202-0.51,0.369
		c-0.146,0.168-0.264,0.383-0.354,0.645c-0.091,0.263-0.135,0.577-0.135,0.942V37.6h-0.798v-4.287
		C81.859,33.166,81.855,32.973,81.847,32.739z"/>
	<path fill="#979FAF" d="M87.593,32.263c0.325-0.198,0.687-0.299,1.086-0.299c0.148,0,0.303,0.016,0.463,0.048
		c0.16,0.029,0.316,0.091,0.469,0.181c0.153,0.091,0.294,0.21,0.423,0.358c0.129,0.15,0.241,0.341,0.335,0.577
		c0.188-0.378,0.445-0.665,0.769-0.865c0.325-0.198,0.711-0.299,1.157-0.299c0.696,0,1.219,0.207,1.568,0.622
		c0.348,0.414,0.523,0.963,0.523,1.645V37.6h-0.798v-3.041c0-0.58-0.108-1.045-0.323-1.397c-0.216-0.353-0.581-0.528-1.098-0.528
		c-0.29,0-0.535,0.059-0.734,0.176c-0.199,0.116-0.359,0.271-0.481,0.465c-0.122,0.191-0.208,0.406-0.264,0.649
		c-0.054,0.243-0.082,0.494-0.082,0.75v2.925h-0.799v-3.205c0-0.267-0.02-0.508-0.059-0.729c-0.041-0.218-0.108-0.406-0.206-0.557
		c-0.098-0.152-0.233-0.27-0.406-0.353c-0.171-0.082-0.391-0.124-0.658-0.124c-0.189,0-0.377,0.044-0.569,0.129
		c-0.192,0.087-0.365,0.218-0.516,0.394c-0.153,0.177-0.276,0.401-0.371,0.671s-0.141,0.588-0.141,0.955v2.818h-0.798v-4.287
		c0-0.146-0.003-0.34-0.011-0.574c-0.008-0.233-0.021-0.445-0.036-0.634H86.8c0.017,0.148,0.028,0.313,0.036,0.493
		c0.008,0.181,0.011,0.327,0.011,0.446h0.024C87.028,32.724,87.27,32.463,87.593,32.263z"/>
	<path fill="#979FAF" d="M101.454,34.687c0,0.055,0,0.114,0,0.178c0,0.062-0.003,0.128-0.013,0.197h-4.555
		c0.006,0.274,0.062,0.533,0.164,0.776c0.102,0.243,0.243,0.454,0.424,0.634c0.179,0.18,0.391,0.324,0.633,0.43
		c0.243,0.105,0.505,0.159,0.787,0.159c0.415,0,0.772-0.097,1.075-0.29c0.301-0.19,0.53-0.411,0.687-0.662l0.599,0.47
		c-0.328,0.414-0.691,0.712-1.086,0.892s-0.82,0.27-1.274,0.27c-0.407,0-0.784-0.072-1.133-0.217s-0.647-0.347-0.898-0.604
		c-0.25-0.258-0.448-0.563-0.592-0.916c-0.145-0.353-0.217-0.736-0.217-1.15c0-0.415,0.07-0.797,0.212-1.152
		c0.142-0.352,0.335-0.655,0.588-0.914c0.249-0.26,0.543-0.46,0.881-0.604c0.336-0.146,0.7-0.217,1.091-0.217
		c0.432,0,0.81,0.073,1.139,0.217c0.329,0.145,0.603,0.34,0.821,0.587s0.387,0.534,0.5,0.863
		C101.396,33.959,101.454,34.313,101.454,34.687z M100.644,34.428c-0.024-0.517-0.19-0.944-0.499-1.284
		c-0.309-0.342-0.749-0.511-1.32-0.511c-0.266,0-0.513,0.049-0.739,0.146s-0.427,0.231-0.6,0.4c-0.171,0.168-0.309,0.36-0.41,0.574
		c-0.103,0.216-0.161,0.44-0.176,0.677h3.744V34.428z"/>
	<path fill="#979FAF" d="M103.156,32.739c-0.008-0.233-0.021-0.446-0.036-0.635h0.764c0.017,0.148,0.028,0.313,0.036,0.493
		c0.007,0.181,0.012,0.328,0.012,0.447h0.023c0.157-0.32,0.392-0.582,0.706-0.782c0.313-0.198,0.664-0.299,1.056-0.299
		c0.102,0,0.194,0.004,0.276,0.012c0.082,0.009,0.167,0.024,0.252,0.047l-0.105,0.764c-0.048-0.017-0.126-0.031-0.236-0.047
		c-0.108-0.016-0.219-0.024-0.328-0.024c-0.212,0-0.416,0.04-0.611,0.118c-0.195,0.079-0.365,0.202-0.51,0.369
		c-0.146,0.168-0.263,0.383-0.353,0.645c-0.091,0.263-0.134,0.577-0.134,0.942V37.6h-0.8v-4.287
		C103.167,33.166,103.163,32.973,103.156,32.739z"/>
	<path fill="#979FAF" d="M108.217,37.6h-0.8v-8.877h0.8V37.6z"/>
	<path fill="#979FAF" d="M112.241,36.741h0.024l1.702-4.637h0.867L112.1,39.02c-0.164,0.423-0.373,0.761-0.627,1.018
		c-0.255,0.255-0.622,0.381-1.099,0.381c-0.242,0-0.482-0.024-0.716-0.071l0.08-0.729c0.189,0.063,0.387,0.094,0.589,0.094
		c0.274,0,0.489-0.083,0.646-0.253c0.158-0.168,0.295-0.408,0.412-0.723l0.446-1.15l-2.349-5.482h0.892L112.241,36.741z"/>
	<path fill="#979FAF" d="M119.909,37.6h-0.845v-8.313h0.845V37.6z"/>
	<path fill="#979FAF" d="M122.786,32.104c0.016,0.148,0.026,0.313,0.034,0.493c0.009,0.181,0.013,0.328,0.013,0.447h0.024
		c0.155-0.32,0.409-0.582,0.762-0.782c0.354-0.198,0.725-0.299,1.115-0.299c0.698,0,1.221,0.207,1.568,0.622
		c0.348,0.414,0.522,0.963,0.522,1.645V37.6h-0.799v-3.041c0-0.29-0.023-0.551-0.069-0.786c-0.048-0.236-0.129-0.438-0.242-0.605
		c-0.114-0.167-0.266-0.3-0.457-0.395c-0.193-0.093-0.434-0.14-0.722-0.14c-0.211,0-0.418,0.043-0.618,0.129
		c-0.198,0.085-0.375,0.218-0.533,0.393c-0.156,0.178-0.28,0.4-0.374,0.671c-0.094,0.269-0.142,0.588-0.142,0.956V37.6h-0.797
		v-4.288c0-0.146-0.005-0.34-0.014-0.572c-0.009-0.236-0.021-0.447-0.034-0.636L122.786,32.104L122.786,32.104z"/>
	<path fill="#979FAF" d="M131.366,32.772h-1.548v3.207c0,0.203,0.019,0.371,0.059,0.504c0.038,0.133,0.095,0.238,0.169,0.311
		c0.074,0.073,0.164,0.125,0.265,0.153c0.102,0.025,0.211,0.04,0.328,0.04c0.11,0,0.225-0.017,0.346-0.046
		c0.121-0.031,0.238-0.074,0.349-0.13l0.033,0.693c-0.142,0.056-0.287,0.097-0.44,0.124c-0.152,0.025-0.317,0.039-0.499,0.039
		c-0.148,0-0.305-0.021-0.47-0.059c-0.164-0.039-0.315-0.113-0.457-0.221c-0.141-0.111-0.256-0.261-0.346-0.447
		c-0.093-0.188-0.135-0.435-0.135-0.741v-3.429h-1.139v-0.668h1.139v-1.55h0.797v1.55h1.55V32.772L131.366,32.772z"/>
	<path fill="#979FAF" d="M137.614,34.687c0,0.055,0,0.114,0,0.178c0,0.062-0.005,0.128-0.012,0.197h-4.556
		c0.008,0.274,0.063,0.533,0.165,0.776c0.101,0.243,0.241,0.454,0.422,0.634c0.179,0.18,0.392,0.324,0.634,0.43
		c0.243,0.105,0.506,0.159,0.789,0.159c0.412,0,0.772-0.097,1.072-0.29c0.303-0.19,0.531-0.411,0.688-0.662l0.6,0.47
		c-0.329,0.414-0.691,0.712-1.086,0.892c-0.396,0.18-0.82,0.27-1.272,0.27c-0.408,0-0.786-0.072-1.134-0.217
		s-0.647-0.347-0.896-0.604c-0.253-0.26-0.45-0.563-0.594-0.916c-0.146-0.353-0.217-0.736-0.217-1.15
		c0-0.415,0.07-0.797,0.212-1.152c0.141-0.352,0.336-0.655,0.586-0.914c0.251-0.26,0.545-0.46,0.882-0.604
		c0.337-0.146,0.7-0.217,1.091-0.217c0.43,0,0.811,0.073,1.139,0.217c0.329,0.145,0.604,0.34,0.822,0.587s0.385,0.534,0.5,0.863
		C137.563,33.961,137.614,34.313,137.614,34.687z M136.804,34.428c-0.024-0.517-0.189-0.944-0.5-1.284
		c-0.31-0.342-0.748-0.511-1.32-0.511c-0.264,0-0.511,0.049-0.74,0.146c-0.227,0.098-0.425,0.231-0.599,0.4
		c-0.171,0.168-0.311,0.36-0.412,0.574c-0.099,0.216-0.159,0.44-0.174,0.677h3.745V34.428z"/>
	<path fill="#979FAF" d="M139.315,32.739c-0.009-0.233-0.021-0.446-0.034-0.635h0.763c0.016,0.148,0.026,0.313,0.035,0.493
		c0.009,0.181,0.011,0.328,0.011,0.447h0.025c0.157-0.32,0.391-0.582,0.704-0.782c0.313-0.198,0.664-0.299,1.057-0.299
		c0.101,0,0.194,0.004,0.273,0.012c0.084,0.009,0.168,0.024,0.254,0.047l-0.105,0.764c-0.047-0.017-0.124-0.031-0.233-0.047
		c-0.11-0.016-0.22-0.024-0.329-0.024c-0.212,0-0.414,0.04-0.612,0.118c-0.194,0.079-0.363,0.202-0.51,0.369
		c-0.146,0.168-0.263,0.383-0.351,0.645c-0.092,0.263-0.137,0.577-0.137,0.942V37.6h-0.796v-4.287
		C139.329,33.166,139.324,32.973,139.315,32.739z"/>
	<path fill="#979FAF" d="M145.81,37.6h-0.881l-2.242-5.495h0.892l1.786,4.649h0.022l1.798-4.649h0.856L145.81,37.6z"/>
	<path fill="#979FAF" d="M150.26,29.991c0,0.165-0.06,0.3-0.177,0.405c-0.115,0.105-0.247,0.159-0.388,0.159
		c-0.142,0-0.271-0.054-0.387-0.159c-0.117-0.105-0.176-0.24-0.176-0.405s0.059-0.3,0.176-0.405c0.116-0.107,0.245-0.16,0.387-0.16
		c0.141,0,0.271,0.053,0.388,0.16C150.2,29.691,150.26,29.828,150.26,29.991z M150.095,37.6h-0.797v-5.495h0.797V37.6z"/>
	<path fill="#979FAF" d="M157.221,34.687c0,0.055,0,0.114,0,0.178c0,0.062-0.004,0.128-0.011,0.197h-4.557
		c0.008,0.274,0.063,0.533,0.165,0.776s0.243,0.454,0.423,0.634s0.393,0.324,0.633,0.43c0.245,0.105,0.506,0.159,0.789,0.159
		c0.413,0,0.773-0.097,1.073-0.29c0.304-0.19,0.532-0.411,0.689-0.662l0.599,0.47c-0.329,0.414-0.692,0.712-1.086,0.892
		c-0.396,0.18-0.819,0.27-1.273,0.27c-0.406,0-0.786-0.072-1.133-0.217c-0.349-0.145-0.648-0.347-0.897-0.604
		c-0.252-0.258-0.449-0.563-0.593-0.916c-0.146-0.353-0.218-0.736-0.218-1.15c0-0.415,0.071-0.797,0.212-1.152
		c0.142-0.352,0.337-0.655,0.587-0.914c0.252-0.26,0.544-0.46,0.881-0.604c0.337-0.146,0.701-0.217,1.092-0.217
		c0.431,0,0.811,0.073,1.139,0.217c0.329,0.145,0.603,0.34,0.822,0.587c0.219,0.247,0.386,0.534,0.499,0.863
		C157.17,33.961,157.221,34.313,157.221,34.687z M156.41,34.428c-0.022-0.517-0.188-0.944-0.498-1.284
		c-0.311-0.342-0.748-0.511-1.321-0.511c-0.265,0-0.512,0.049-0.739,0.146s-0.427,0.231-0.6,0.4c-0.172,0.168-0.31,0.36-0.411,0.574
		c-0.101,0.216-0.161,0.44-0.175,0.677h3.744V34.428z"/>
	<path fill="#979FAF" d="M159.04,32.104l1.328,4.462h0.022l1.479-4.462h0.775l1.504,4.462h0.023l1.316-4.462h0.845l-1.739,5.495
		h-0.868l-1.468-4.45h-0.023l-1.445,4.45h-0.869l-1.736-5.495H159.04z"/>
	<path fill="#979FAF" d="M170.617,33.407c-0.117-0.226-0.297-0.412-0.535-0.556c-0.238-0.146-0.51-0.218-0.815-0.218
		c-0.142,0-0.282,0.016-0.423,0.047s-0.267,0.081-0.376,0.155c-0.11,0.069-0.197,0.159-0.264,0.267
		c-0.068,0.11-0.101,0.239-0.101,0.389c0,0.259,0.105,0.456,0.316,0.593c0.211,0.138,0.546,0.252,0.999,0.347
		c0.647,0.132,1.128,0.327,1.438,0.581c0.31,0.255,0.464,0.598,0.464,1.028c0,0.313-0.063,0.578-0.183,0.791
		c-0.121,0.215-0.279,0.394-0.475,0.528c-0.196,0.139-0.417,0.235-0.664,0.295c-0.246,0.059-0.496,0.087-0.743,0.087
		c-0.416,0-0.82-0.084-1.211-0.259c-0.392-0.17-0.712-0.442-0.964-0.809l0.636-0.472c0.14,0.243,0.349,0.448,0.621,0.611
		c0.274,0.164,0.576,0.247,0.904,0.247c0.171,0,0.337-0.017,0.494-0.047c0.155-0.03,0.292-0.086,0.41-0.164
		c0.118-0.079,0.212-0.178,0.281-0.301c0.07-0.122,0.106-0.272,0.106-0.452c0-0.289-0.14-0.507-0.416-0.651
		c-0.278-0.144-0.681-0.279-1.204-0.404c-0.165-0.04-0.34-0.09-0.523-0.148s-0.354-0.145-0.51-0.259
		c-0.157-0.113-0.285-0.255-0.386-0.427c-0.104-0.172-0.155-0.388-0.155-0.648c0-0.28,0.056-0.521,0.166-0.721
		c0.109-0.2,0.256-0.364,0.44-0.493c0.183-0.129,0.393-0.226,0.628-0.288c0.234-0.063,0.478-0.094,0.729-0.094
		c0.384,0,0.754,0.086,1.114,0.258c0.36,0.173,0.632,0.415,0.811,0.729L170.617,33.407z"/>
	<path fill="#979FAF" d="M175.383,32.772h-1.55v3.207c0,0.203,0.021,0.371,0.059,0.504c0.039,0.133,0.096,0.238,0.171,0.311
		c0.073,0.073,0.163,0.125,0.263,0.153c0.101,0.025,0.211,0.04,0.328,0.04c0.109,0,0.225-0.017,0.347-0.046
		c0.121-0.031,0.237-0.074,0.347-0.13l0.035,0.693c-0.141,0.056-0.288,0.097-0.44,0.124c-0.152,0.025-0.317,0.039-0.499,0.039
		c-0.148,0-0.306-0.021-0.47-0.059c-0.164-0.039-0.316-0.113-0.456-0.221c-0.142-0.111-0.259-0.261-0.349-0.447
		c-0.09-0.188-0.135-0.435-0.135-0.741v-3.429h-1.139v-0.668h1.139v-1.55h0.799v1.55h1.55L175.383,32.772L175.383,32.772z"/>
	<path fill="#979FAF" d="M176.615,32.739c-0.008-0.233-0.02-0.446-0.034-0.635h0.762c0.017,0.148,0.028,0.313,0.036,0.493
		c0.008,0.181,0.011,0.328,0.011,0.447h0.023c0.157-0.32,0.393-0.582,0.706-0.782c0.311-0.198,0.663-0.299,1.056-0.299
		c0.101,0,0.192,0.004,0.274,0.012c0.082,0.009,0.168,0.024,0.253,0.047l-0.105,0.764c-0.047-0.017-0.126-0.031-0.233-0.047
		c-0.111-0.016-0.221-0.024-0.33-0.024c-0.213,0-0.413,0.04-0.611,0.118c-0.193,0.079-0.365,0.202-0.509,0.369
		c-0.146,0.168-0.264,0.383-0.354,0.645c-0.089,0.263-0.134,0.577-0.134,0.942V37.6h-0.799v-4.287
		C176.627,33.166,176.623,32.973,176.615,32.739z"/>
	<path fill="#979FAF" d="M185.646,34.687c0,0.055,0,0.114,0,0.178c0,0.062-0.005,0.128-0.013,0.197h-4.556
		c0.008,0.274,0.063,0.533,0.166,0.776c0.099,0.243,0.24,0.454,0.42,0.634c0.181,0.18,0.394,0.324,0.636,0.43
		s0.504,0.159,0.787,0.159c0.414,0,0.772-0.097,1.075-0.29c0.301-0.19,0.529-0.411,0.687-0.662l0.601,0.47
		c-0.331,0.414-0.692,0.712-1.088,0.892c-0.393,0.18-0.819,0.27-1.272,0.27c-0.407,0-0.784-0.072-1.133-0.217
		c-0.348-0.145-0.646-0.347-0.898-0.604c-0.249-0.258-0.447-0.563-0.593-0.916s-0.217-0.736-0.217-1.15
		c0-0.415,0.073-0.797,0.212-1.152c0.142-0.352,0.336-0.655,0.589-0.914c0.249-0.26,0.543-0.46,0.88-0.604
		c0.336-0.146,0.701-0.217,1.092-0.217c0.43,0,0.812,0.073,1.139,0.217c0.328,0.145,0.603,0.34,0.822,0.587
		c0.218,0.247,0.384,0.534,0.499,0.863C185.594,33.961,185.646,34.313,185.646,34.687z M184.835,34.428
		c-0.024-0.517-0.189-0.944-0.5-1.284c-0.312-0.342-0.749-0.511-1.319-0.511c-0.267,0-0.513,0.049-0.741,0.146
		c-0.228,0.098-0.426,0.231-0.6,0.4s-0.31,0.36-0.41,0.574c-0.102,0.216-0.161,0.44-0.174,0.677h3.744V34.428z"/>
	<path fill="#979FAF" d="M192.359,34.687c0,0.055,0,0.114,0,0.178c0,0.062-0.005,0.128-0.012,0.197h-4.558
		c0.01,0.274,0.063,0.533,0.167,0.776c0.101,0.243,0.242,0.454,0.422,0.634c0.179,0.18,0.391,0.324,0.634,0.43
		s0.505,0.159,0.788,0.159c0.413,0,0.772-0.097,1.073-0.29c0.303-0.19,0.53-0.411,0.688-0.662l0.599,0.47
		c-0.328,0.414-0.691,0.712-1.085,0.892c-0.395,0.18-0.821,0.27-1.273,0.27c-0.408,0-0.786-0.072-1.134-0.217
		c-0.346-0.145-0.647-0.347-0.896-0.604c-0.252-0.26-0.449-0.563-0.593-0.916c-0.146-0.353-0.218-0.736-0.218-1.15
		c0-0.415,0.071-0.797,0.213-1.152c0.14-0.352,0.335-0.655,0.587-0.914c0.25-0.26,0.543-0.46,0.881-0.604
		c0.336-0.146,0.7-0.217,1.091-0.217c0.429,0,0.811,0.073,1.139,0.217c0.328,0.145,0.602,0.34,0.822,0.587
		c0.218,0.247,0.384,0.534,0.498,0.863C192.308,33.961,192.359,34.313,192.359,34.687z M191.548,34.428
		c-0.023-0.517-0.188-0.944-0.498-1.284c-0.311-0.342-0.75-0.511-1.321-0.511c-0.265,0-0.512,0.049-0.74,0.146
		c-0.228,0.098-0.425,0.231-0.598,0.4c-0.174,0.168-0.312,0.36-0.411,0.574c-0.102,0.216-0.161,0.44-0.176,0.677h3.744V34.428z"/>
	<path fill="#979FAF" d="M196.55,32.772H195v3.207c0,0.203,0.021,0.371,0.06,0.504c0.037,0.133,0.095,0.238,0.17,0.311
		c0.073,0.073,0.163,0.125,0.264,0.153c0.102,0.025,0.213,0.04,0.328,0.04c0.11,0,0.226-0.017,0.346-0.046
		c0.12-0.031,0.237-0.074,0.348-0.13l0.034,0.693c-0.142,0.056-0.287,0.097-0.44,0.124c-0.153,0.025-0.318,0.039-0.499,0.039
		c-0.149,0-0.306-0.021-0.47-0.059c-0.165-0.039-0.316-0.113-0.457-0.221c-0.142-0.111-0.257-0.261-0.346-0.447
		c-0.091-0.188-0.136-0.435-0.136-0.741v-3.429h-1.139v-0.668h1.139v-1.55H195v1.55h1.55V32.772z"/>
</g>
</svg>
