<?xml version="1.0" encoding="utf-8"?>
<!-- Generator: Adobe Illustrator 17.1.0, SVG Export Plug-In . SVG Version: 6.00 Build 0)  -->
<!DOCTYPE svg PUBLIC "-//W3C//DTD SVG 1.1//EN" "http://www.w3.org/Graphics/SVG/1.1/DTD/svg11.dtd">
<svg version="1.1" id="Layer_2" xmlns="http://www.w3.org/2000/svg" xmlns:xlink="http://www.w3.org/1999/xlink" x="0px" y="0px"
	 viewBox="0 0 137.8 37.8" enable-background="new 0 0 137.8 37.8" xml:space="preserve">
<g>
	<g>
		<path fill="#FFFFFF" d="M27.5,4.7c-0.8-0.3-2.5-0.6-4.6-0.9c-1.7-0.2-3.7-0.2-4.9-0.1c-0.1-1-0.8-1.9-1.6-2.2
			c-2.1-0.8-5.2-0.6-6-0.4C9.8,1.3,9.1,1.6,8.7,2.2C8.4,2.6,8.2,3.1,8.2,3.8c0,0.4,0,1.3,0,2.1c0,0.8,0,1.6,0,1.6
			c0,0.7-0.6,1.3-1.3,1.3H3.6C2.9,8.8,2.4,9,2,9.1C1.6,9.3,1.3,9.6,1,9.9c-0.4,0.6-0.5,1.4-0.5,2.1c0,0,0,0.6,0.2,1.8
			c0.1,0.9,1.1,7.5,2.1,9.4c0.4,0.8,0.6,1.1,1.3,1.4c1.6,0.7,5.3,1.5,7,1.7c1.7,0.2,2.8,0.7,3.4-0.7c0,0,0.1-0.3,0.3-0.8
			c0.6-1.7,0.6-3.2,0.6-4.3c0-0.1,0.2-0.1,0.2,0c0,0.8-0.1,3.5,1.9,4.3c0.8,0.3,2.5,0.6,4.2,0.8c1.5,0.2,2.7,0.8,2.7,4.8
			c0,2.4-0.5,2.8-3.1,2.8c-2.1,0-3,0.1-3-1.7c0-1.4,1.4-1.2,2.4-1.2c0.5,0,0.1-0.3,0.1-1.2c0-0.9,0.5-1.4,0-1.4
			c-3.5-0.1-5.5,0-5.5,4.4c0,4,1.5,4.8,6.5,4.8c3.9,0,5.2-0.1,6.9-5.2c0.3-1,1.1-4,1.5-9.1c0.3-3.2-0.3-13-0.7-15.4
			C29.1,5.7,28.3,5,27.5,4.7z M22.6,17.9c-0.5,0-0.9,0-1.4,0.1c0.1-1,0.5-2.2,2-2.2c1.6,0.1,1.8,1.6,1.8,2.6
			C24.4,18.1,23.5,17.9,22.6,17.9z M3.5,7.8h3.3c0.2,0,0.3-0.2,0.3-0.3c0,0,0-2.9,0-3.7v0c0-0.7,0.1-1.2,0.4-1.7l0.1-0.2
			c0,0,0,0,0,0L1.1,8.4c0,0,0,0,0,0c0.1-0.1,0.3-0.2,0.3-0.2C2,8,2.7,7.8,3.5,7.8z M42.1,23.3h-3.6l0-4h3.7v-1.8h-3.7l0-3.7h3.6
			l0.2,1.9h1.9l-0.1-3.7h-9.6v1.8H36L36,23.3h-1.4v1.8h9.6l0.2-3.9h-2L42.1,23.3z M54.2,13.8h1.5l-3.1,8.9h0l-3.1-8.9h1.3v-1.8h-5.5
			v1.8h1.3l4.6,11.3h2.6l4.5-11.3h1.2v-1.8h-5.3L54.2,13.8L54.2,13.8z M68.3,23.3h-3.6l0-4h3.7v-1.8h-3.7l0-3.7h3.6l0.2,1.9h1.9
			l-0.1-3.7h-9.6v1.8h1.5l-0.1,9.5h-1.4v1.8h9.6l0.2-3.9h-2.1L68.3,23.3z M82.5,21.7c-1.2-2.1-1.5-2.4-2.7-2.8v0c2.3-0.6,3-2,3-3.5
			c0-1.7-1-3.5-3.9-3.5H73v1.8h1.5l-0.1,9.5H73v1.8h5.5v-1.8H77l0-3.8h0.5c0.9,0,1.2,0.2,2.4,2.6c1.4,2.8,1.6,3,3.3,3h1.3v-1.9
			c-0.2,0-0.3,0.1-0.5,0.1C83.5,23.3,83.2,23,82.5,21.7z M78,17.7h-1l0-3.9h1.5c1.2,0,1.7,0.7,1.7,1.9C80.3,16.9,79.4,17.7,78,17.7z
			 M94.7,13.8h1.5l-0.1,7.1h0l-6.5-8.9h-3.8v1.8h1.5l-0.1,9.5h-1.4v1.8h5v-1.8h-1.5l0.1-7.5h0l6.8,9.4h1.9l0.1-11.3h1.4v-1.8h-5
			C94.7,11.9,94.7,13.8,94.7,13.8z M106.9,11.7c-3.9,0-6.3,2.9-6.3,7c0,3.7,1.9,6.7,6.3,6.7c3.9,0,6.3-2.9,6.3-7
			C113.3,14.7,111.4,11.7,106.9,11.7z M106.9,23.2c-2.1,0-3.7-1.7-3.7-4.7c0-2.7,1.4-4.8,3.7-4.8c2.1,0,3.7,1.7,3.7,4.7
			C110.7,21.2,109.3,23.2,106.9,23.2z M114.4,11.9l-0.1,3.7h1.9l0.1-1.9h2.6l-0.1,9.5h-1.4v1.8h5.5v-1.8h-1.5l0.1-9.5h2.6l0.1,1.9
			h1.9l-0.1-3.7C125.8,11.9,114.4,11.9,114.4,11.9z M135.2,21.2l-0.2,2.1h-3.6l0-4h3.7v-1.8h-3.7l0-3.7h3.6l0.2,1.9h1.9l-0.1-3.7
			h-9.6v1.8h1.5l-0.1,9.5h-1.4v1.8h9.6l0.2-3.9C137.2,21.2,135.2,21.2,135.2,21.2z"/>
	</g>
</g>
</svg>
