<?xml version="1.0" encoding="utf-8"?>
<!-- Generator: Adobe Illustrator 16.0.0, SVG Export Plug-In . SVG Version: 6.00 Build 0)  -->
<!DOCTYPE svg PUBLIC "-//W3C//DTD SVG 1.1//EN" "http://www.w3.org/Graphics/SVG/1.1/DTD/svg11.dtd">
<svg version="1.1" id="Layer_2" xmlns="http://www.w3.org/2000/svg" xmlns:xlink="http://www.w3.org/1999/xlink" x="0px" y="0px"
	 width="137.75px" height="37.75px" viewBox="0 0 137.75 37.75" enable-background="new 0 0 137.75 37.75" xml:space="preserve">
<g>
	<g>
		<path fill="#30BF69" d="M27.537,4.716c-0.821-0.301-2.486-0.613-4.578-0.863c-1.684-0.201-3.663-0.185-4.857-0.147
			c-0.144-0.997-0.833-1.907-1.604-2.223c-2.054-0.838-5.229-0.635-6.043-0.404C9.807,1.262,9.09,1.638,8.69,2.218
			C8.424,2.606,8.25,3.102,8.249,3.795c0,0.392,0.011,1.316,0.021,2.138C8.278,6.756,8.29,7.494,8.29,7.499
			c0,0.733-0.587,1.33-1.312,1.332H3.646c-0.711,0-1.254,0.121-1.668,0.312c-0.415,0.191-0.71,0.449-0.933,0.754
			c-0.445,0.605-0.522,1.354-0.521,2.117c0,0,0.007,0.623,0.154,1.83c0.123,0.934,1.121,7.457,2.069,9.44
			c0.367,0.771,0.612,1.094,1.335,1.434c1.608,0.698,5.284,1.477,7.007,1.699c1.72,0.223,2.799,0.691,3.442-0.676
			c0.002-0.004,0.129-0.34,0.303-0.836c0.559-1.716,0.637-3.238,0.637-4.34c0-0.112,0.162-0.117,0.162,0
			c0,0.778-0.146,3.532,1.903,4.27c0.81,0.291,2.488,0.551,4.195,0.754c1.543,0.18,2.662,0.795,2.662,4.811
			c0,2.442-0.506,2.777-3.149,2.777c-2.144,0-2.961,0.056-2.961-1.671c0-1.396,1.361-1.249,2.37-1.249
			c0.451,0,0.123-0.34,0.123-1.202c0-0.857,0.529-1.353,0.029-1.364c-3.488-0.098-5.541-0.004-5.541,4.421
			c0,4.018,1.516,4.764,6.467,4.764c3.882,0,5.249-0.129,6.853-5.174c0.317-0.995,1.085-4.034,1.549-9.138
			c0.293-3.226-0.277-12.965-0.729-15.423C29.141,5.703,28.299,4.995,27.537,4.716z M22.639,17.904
			c-0.479-0.017-0.94,0.014-1.371,0.084c0.121-0.991,0.524-2.21,1.954-2.158c1.583,0.056,1.805,1.573,1.81,2.601
			C24.364,18.128,23.539,17.936,22.639,17.904z M3.49,7.848h3.333c0.19,0,0.345-0.157,0.345-0.35c0-0.001-0.041-2.897-0.041-3.702
			v-0.01c0-0.661,0.137-1.237,0.376-1.721l0.113-0.217C7.604,1.851,7.591,1.857,7.578,1.87L1.106,8.38
			c-0.012,0.01-0.02,0.024-0.023,0.039c0.134-0.067,0.316-0.159,0.343-0.171C1.988,7.989,2.672,7.848,3.49,7.848z M42.114,23.266
			h-3.633l0.023-3.961h3.68v-1.825h-3.657l0.023-3.722h3.61l0.162,1.873h1.888l-0.117-3.697h-9.571v1.824h1.513l-0.069,9.508h-1.443
			v1.824h9.642l0.233-3.937h-2.05L42.114,23.266z M54.178,13.757h1.537l-3.121,8.932h-0.047l-3.144-8.932h1.281v-1.824h-5.45v1.824
			h1.281l4.565,11.333h2.607l4.542-11.333h1.211v-1.824h-5.264V13.757z M68.29,23.266h-3.633l0.023-3.961h3.68v-1.825h-3.656
			l0.022-3.722h3.61L68.5,15.63h1.886l-0.116-3.697h-9.571v1.824h1.514l-0.07,9.508h-1.443v1.824h9.642l0.233-3.937h-2.051
			L68.29,23.266z M82.451,21.681c-1.188-2.113-1.492-2.426-2.68-2.762v-0.048c2.283-0.6,3.006-1.969,3.006-3.481
			c0-1.705-0.955-3.457-3.914-3.457h-5.892v1.824h1.514l-0.07,9.508h-1.443v1.824h5.495v-1.824h-1.514l0.025-3.769h0.512
			c0.932,0,1.211,0.168,2.422,2.617c1.352,2.76,1.561,2.976,3.283,2.976H84.5v-1.896c-0.162,0.023-0.35,0.072-0.535,0.072
			C83.521,23.266,83.242,23.05,82.451,21.681z M78.004,17.671h-1.002l0.021-3.914h1.537c1.166,0,1.748,0.721,1.748,1.921
			C80.309,16.903,79.377,17.671,78.004,17.671z M94.701,13.757h1.514l-0.07,7.083h-0.047l-6.475-8.907h-3.771v1.824h1.512
			l-0.068,9.508h-1.443v1.824h5.006v-1.824h-1.514l0.07-7.539h0.047l6.822,9.363h1.91l0.07-11.333h1.443v-1.824h-5.006V13.757z
			 M106.949,11.668c-3.936,0-6.334,2.882-6.334,7.012c0,3.672,1.934,6.673,6.334,6.673c3.936,0,6.336-2.881,6.336-7.034
			C113.285,14.67,111.352,11.668,106.949,11.668z M106.949,23.241c-2.141,0-3.727-1.705-3.727-4.658
			c0-2.713,1.352-4.802,3.727-4.802c2.145,0,3.727,1.705,3.727,4.706C110.676,21.153,109.326,23.241,106.949,23.241z
			 M114.355,11.933l-0.139,3.697h1.932l0.094-1.873h2.561l-0.07,9.508h-1.443v1.824h5.496v-1.824h-1.514l0.07-9.508h2.562
			l0.092,1.873h1.934l-0.139-3.697H114.355z M135.176,21.153l-0.234,2.113h-3.633l0.023-3.961h3.68v-1.825h-3.656l0.023-3.722h3.609
			l0.164,1.873h1.887l-0.117-3.697h-9.572v1.824h1.514l-0.068,9.508h-1.445v1.824h9.643l0.232-3.937H135.176z"/>
	</g>
</g>
</svg>
