<?xml version="1.0" encoding="utf-8"?>
<!-- Generator: Adobe Illustrator 17.1.0, SVG Export Plug-In . SVG Version: 6.00 Build 0)  -->
<!DOCTYPE svg PUBLIC "-//W3C//DTD SVG 1.1//EN" "http://www.w3.org/Graphics/SVG/1.1/DTD/svg11.dtd">
<svg version="1.1" id="Layer_1" xmlns="http://www.w3.org/2000/svg" xmlns:xlink="http://www.w3.org/1999/xlink" x="0px" y="0px"
	 viewBox="0 0 137.8 37.8" enable-background="new 0 0 137.8 37.8" xml:space="preserve">
<g>
	<g>
		<path fill="#FFFFFF" d="M39.4,20.8v2.4c0,3.4,1.8,5.7,6.2,5.7c1,0,2.3-0.1,4.2-0.5v-3.4c-2.2,0.4-2.8,0.4-3.8,0.4
			c-1.9,0-2.4-0.4-2.4-2v-3c0-1.6,0.6-2,2.4-2c1,0,1.7,0.1,3.8,0.4v-3.4c-1.9-0.4-3.1-0.5-4.2-0.5C41.1,15.1,39.4,17.5,39.4,20.8z
			 M32.2,15.3h-3.9l-0.3,3.4h3.6c2.2,0,2.3,0.4,2.3,1.8v0.6h-2.9c-2.8,0-4.4,1-4.4,3.7c0,2.3,1.4,4,3.9,4c0.9,0,2.3-0.1,3.9-1
			l0.1,0.9H38v-8.2C38,16.8,36.9,15.3,32.2,15.3z M33.8,25.4c-0.6,0.3-1.1,0.6-2,0.6c-0.8,0-1.1-0.4-1.1-1.1c0-0.8,0.4-0.9,1.3-0.9
			h1.9V25.4z M112.1,15.3l-3.8,6V9.1l-4.2,0.7v18.9h4.2v-6.3l3.8,6.3h4.5l-4.2-6.9l4.2-6.5L112.1,15.3L112.1,15.3z M56.9,15.1
			c-4.6,0-5.9,2.4-5.9,5.4v2.8c0,3.4,1.8,5.7,6.2,5.7c2,0,3.1-0.1,5.2-0.5v-3.4c-2.2,0.4-3.2,0.4-4.9,0.4c-1.9,0-2.4-0.4-2.4-2v-0.3
			h7.6v-2.8C62.8,17.5,61.5,15.1,56.9,15.1z M58.6,20.5h-3.5V20c0-1,0.3-1.7,1.7-1.7c1.4,0,1.7,0.8,1.7,1.7L58.6,20.5L58.6,20.5z
			 M83.6,15.2c-4.9,0-6.1,2.7-6.1,5.5v2.7c0,2.8,1.2,5.5,6.1,5.5c4.9,0,6.1-2.7,6.1-5.5v-2.7C89.6,17.9,88.4,15.2,83.6,15.2z
			 M85.5,23.8c0,1-0.5,1.7-1.9,1.7c-1.4,0-1.9-0.8-1.9-1.7v-3.5c0-1,0.5-1.7,1.9-1.7c1.4,0,1.9,0.8,1.9,1.7V23.8z M96.9,15.2
			c-4.9,0-6.1,2.7-6.1,5.5v2.7c0,2.8,1.2,5.5,6.1,5.5c4.9,0,6.1-2.7,6.1-5.5v-2.7C102.9,17.9,101.8,15.2,96.9,15.2z M98.8,23.8
			c0,1-0.5,1.7-1.9,1.7c-1.4,0-1.9-0.8-1.9-1.7v-3.5c0-1,0.5-1.7,1.9-1.7c1.4,0,1.9,0.8,1.9,1.7V23.8z M71.4,15.1
			c-1.1,0-2.2,0.2-3.1,0.5V9.1l-4.2,0.7v18.6c2.3,0.3,3.5,0.5,5.5,0.5c5.7,0,6.6-2.4,6.6-5.6V20C76.3,17,75.6,15.1,71.4,15.1z
			 M72.1,23.3c0,1.3-0.3,2.2-2.3,2.2c-0.6,0-0.9,0-1.5-0.1v-6.4c0.6-0.3,1.2-0.6,2.1-0.6c1.4,0,1.7,0.8,1.7,1.7V23.3z M26.9,15.3
			h-3.1l0-1.7c0-0.9,0.1-1.4,1.4-1.4h1.7V8.8h-2.8c-3.3,0-4.5,1.7-4.5,4.5v2.1h-2.1v3.4h2.1v10h4.2v-10h2.8L26.9,15.3z M119,26.4
			L119,26.4c-0.7,0-1.3,0.6-1.3,1.3c0,0.7,0.6,1.3,1.3,1.3c0.7,0,1.3-0.6,1.3-1.3C120.2,27,119.7,26.4,119,26.4z M119,28.8
			c-0.6,0-1-0.5-1-1.1c0-0.6,0.5-1.1,1-1.1h0c0.6,0,1,0.5,1,1.1C120,28.3,119.5,28.8,119,28.8z M119.2,27.7L119.2,27.7
			c0.2-0.1,0.3-0.2,0.3-0.4c0-0.1,0-0.2-0.1-0.3s-0.2-0.1-0.4-0.1c-0.2,0-0.3,0-0.4,0v1.4h0.2v-0.6h0.2c0.2,0,0.3,0.1,0.3,0.2
			c0,0.2,0.1,0.3,0.1,0.4h0.2c0,0-0.1-0.1-0.1-0.4C119.4,27.9,119.3,27.7,119.2,27.7z M118.9,27.6h-0.2v-0.5c0,0,0.1,0,0.2,0
			c0.3,0,0.3,0.1,0.3,0.2C119.2,27.6,119.1,27.6,118.9,27.6z"/>
	</g>
</g>
</svg>
