<?xml version="1.0" encoding="utf-8"?>
<!-- Generator: Adobe Illustrator 16.0.0, SVG Export Plug-In . SVG Version: 6.00 Build 0)  -->
<!DOCTYPE svg PUBLIC "-//W3C//DTD SVG 1.1//EN" "http://www.w3.org/Graphics/SVG/1.1/DTD/svg11.dtd">
<svg version="1.1" id="Layer_1" xmlns="http://www.w3.org/2000/svg" xmlns:xlink="http://www.w3.org/1999/xlink" x="0px" y="0px"
	 width="137.75px" height="37.75px" viewBox="0 0 137.75 37.75" enable-background="new 0 0 137.75 37.75" xml:space="preserve">
<g>
	<g>
		<path fill="#30BF69" d="M39.357,20.84v2.408c0,3.363,1.774,5.691,6.239,5.691c1.04,0,2.271-0.111,4.159-0.531v-3.354
			c-2.156,0.369-2.775,0.449-3.813,0.449c-1.864,0-2.427-0.408-2.427-1.979v-2.968c0-1.568,0.562-1.977,2.427-1.977
			c1.038,0,1.657,0.081,3.813,0.447v-3.353c-1.889-0.421-3.119-0.532-4.159-0.532C41.132,15.143,39.357,17.475,39.357,20.84z
			 M32.153,15.337h-3.887l-0.348,3.438h3.556c2.175,0,2.337,0.411,2.337,1.813v0.594h-2.875c-2.824,0-4.402,0.979-4.402,3.725
			c0,2.33,1.353,4.012,3.896,4.012c0.931,0,2.343-0.141,3.926-1.01l0.149,0.869h3.466v-8.162
			C37.971,16.832,36.925,15.337,32.153,15.337z M33.812,25.443c-0.62,0.281-1.122,0.555-1.971,0.555
			c-0.791,0-1.149-0.391-1.149-1.143c0-0.758,0.386-0.92,1.264-0.92h1.856V25.443z M112.09,15.337l-3.812,5.988V9.144l-4.157,0.688
			v18.922h4.157v-6.307l3.812,6.307h4.507l-4.161-6.882l4.161-6.534H112.09z M56.879,15.143c-4.574,0-5.893,2.41-5.893,5.352v2.753
			c0,3.363,1.775,5.691,6.24,5.691c2.038,0,3.119-0.111,5.195-0.531v-3.354c-2.152,0.369-3.175,0.449-4.851,0.449
			c-1.863,0-2.427-0.408-2.427-1.979v-0.277h7.625v-2.753C62.77,17.525,61.454,15.143,56.879,15.143z M58.611,20.495h-3.467V19.96
			c0-0.952,0.321-1.721,1.734-1.721c1.411,0,1.732,0.769,1.732,1.721V20.495z M83.561,15.152c-4.887,0-6.076,2.72-6.076,5.524v2.707
			c0,2.805,1.189,5.523,6.076,5.523c4.885,0,6.053-2.719,6.053-5.523v-2.707C89.613,17.872,88.445,15.152,83.561,15.152z
			 M85.451,23.783c0,0.953-0.493,1.721-1.904,1.721c-1.414,0-1.904-0.768-1.904-1.721v-3.479c0-0.952,0.49-1.717,1.904-1.717
			c1.411,0,1.904,0.765,1.904,1.717V23.783z M96.877,15.152c-4.888,0-6.077,2.72-6.077,5.524v2.707c0,2.805,1.189,5.523,6.077,5.523
			c4.883,0,6.053-2.719,6.053-5.523v-2.707C102.93,17.872,101.76,15.152,96.877,15.152z M98.771,23.783
			c0,0.953-0.498,1.721-1.908,1.721c-1.412,0-1.902-0.768-1.902-1.721v-3.479c0-0.952,0.49-1.717,1.902-1.717
			c1.41,0,1.908,0.765,1.908,1.717V23.783z M71.438,15.143c-1.059,0-2.222,0.168-3.12,0.499V9.144L64.16,9.832v18.577
			c2.263,0.346,3.467,0.525,5.515,0.525c5.677,0,6.612-2.371,6.612-5.621V19.96C76.287,16.992,75.596,15.143,71.438,15.143z
			 M72.13,23.34c0,1.291-0.278,2.215-2.314,2.215c-0.564,0-0.903,0-1.498-0.057v-6.355c0.62-0.28,1.23-0.556,2.079-0.556
			c1.415,0,1.733,0.765,1.733,1.717V23.34z M26.902,15.337h-3.144l0.005-1.722c0-0.896,0.087-1.378,1.385-1.378h1.733V8.798h-2.775
			c-3.332,0-4.506,1.669-4.506,4.475v2.064h-2.078v3.438h2.078v9.978h4.158v-9.978h2.775L26.902,15.337z M118.97,26.4h-0.007
			c-0.699,0-1.27,0.566-1.27,1.273c0,0.717,0.57,1.277,1.27,1.277c0.707,0,1.265-0.561,1.265-1.277
			C120.228,26.967,119.67,26.4,118.97,26.4z M118.97,28.754c-0.569,0-1.031-0.475-1.031-1.08c0-0.594,0.462-1.074,1.024-1.074h0.007
			c0.569,0,1.024,0.48,1.024,1.078C119.994,28.279,119.539,28.76,118.97,28.754z M119.197,27.719v-0.012
			c0.154-0.045,0.278-0.158,0.278-0.346c0-0.135-0.044-0.23-0.13-0.293s-0.229-0.107-0.445-0.107c-0.171,0-0.284,0.016-0.403,0.033
			v1.42h0.228v-0.611h0.158c0.184,0,0.273,0.068,0.309,0.25c0.027,0.186,0.062,0.316,0.098,0.361h0.238
			c-0.022-0.045-0.057-0.129-0.092-0.352C119.408,27.854,119.322,27.742,119.197,27.719z M118.89,27.629h-0.165v-0.48
			c0.039-0.006,0.091-0.012,0.165-0.012c0.256,0,0.347,0.123,0.347,0.248C119.236,27.561,119.076,27.629,118.89,27.629z"/>
	</g>
</g>
</svg>
