<?xml version="1.0" encoding="utf-8"?>
<!-- Generator: Adobe Illustrator 16.0.0, SVG Export Plug-In . SVG Version: 6.00 Build 0)  -->
<!DOCTYPE svg PUBLIC "-//W3C//DTD SVG 1.1//EN" "http://www.w3.org/Graphics/SVG/1.1/DTD/svg11.dtd">
<svg version="1.1" id="Layer_2" xmlns="http://www.w3.org/2000/svg" xmlns:xlink="http://www.w3.org/1999/xlink" x="0px" y="0px"
	 width="137.75px" height="37.75px" viewBox="0 0 137.75 37.75" enable-background="new 0 0 137.75 37.75" xml:space="preserve">
<g>
	<g>
		<path fill-rule="evenodd" clip-rule="evenodd" fill="#30BF69" d="M28.709,9.871l-4.692,9.787l-0.318-9.787h-6.973l-3.904,17.521
			h5.111l2.347-9.42l0.185,9.42h3.637l4.709-9.42l-2.095,9.42h5.062l3.922-17.521H28.709z M41.647,9.871h-4.727l-0.62,2.856h4.71
			L41.647,9.871z M35.899,14.414L33,27.392l4.742,0.018l2.899-12.996H35.899z M48.301,22.599c-0.134,0.217-0.821,1.92-2.296,1.871
			c-3.201-0.067-1.14-7.233,1.76-7.317c1.559-0.033,1.391,1.904,1.324,2.088h4.894c0.05-0.2,0.335-4.894-5.329-5.178
			c-9.973-0.501-12.252,13.53-3.47,13.713c6.554,0.133,8.045-5.078,8.045-5.178H48.301z M98.395,13.896
			c-9.787-0.468-12.652,13.53-3.117,13.93C104.98,28.21,107.596,14.347,98.395,13.896z M95.562,24.519
			c-3.018-0.617-0.654-8.201,2.514-7.566C101.16,17.571,98.914,25.221,95.562,24.519z M119.059,11.274h-4.324l-0.686,3.139h-2.766
			l0.084-0.434c0.217-0.986,0.469-1.486,1.775-1.486l0.52-2.456c0,0-3.703-0.451-5.127,0.702c-1.039,0.868-1.408,2.004-1.828,3.674
			h-2.328l-0.672,2.99h2.396l-2.178,9.988h4.658l2.195-9.988l2.6,0.017l-1.459,6.548c-0.385,1.72,0.234,2.521,0.805,2.905
			c1.273,0.885,5.061,0.451,5.061,0.451l0.721-2.973c0,0-1.859,0.217-2.045-0.301c-0.117-0.352,0-0.635,0.051-0.952l1.225-5.696
			h2.229l0.652-2.99h-2.229L119.059,11.274z M83.781,13.863c-3.318-0.05-6.354,0.969-6.789,3.875c-0.52,3.54,4.09,4.31,5.279,4.526
			c2.598,0.452,1.844,2.64-0.084,2.64c-2.781-0.017-2.027-1.971-2.027-1.971l-8.849,0.017l4.356-1.437
			c0.168-0.051,0.219-0.134,0.303-0.718c0.537-3.308-1.156-6.665-5.597-6.882c-3.17-0.157-5.612,1.223-7.145,3.164l0.743-2.88
			c-0.805,0-1.492,0.117-2.213,0.351c-0.888,0.301-1.592,0.752-2.179,1.471l0.369-1.604h-4.24l-2.934,12.996h4.476l1.056-4.627
			c0.81-3.958,3.037-4.379,4.061-4.384c-2.112,3.994-0.904,9.229,4.872,9.411c3.805,0.134,6.654-1.987,7.793-4.376
			c-0.167,1.37,0.269,4.31,6.536,4.442c6.838,0.134,7.391-4.242,7.34-5.178c-0.168-3.358-3.166-3.491-5.781-4.059
			c-2.145-0.451-1.693-2.12,0.168-2.12c2.045,0,1.559,1.669,1.559,1.669h4.525C89.295,17.921,90.568,13.946,83.781,13.863z
			 M67.541,24.502c-3-0.634-0.653-8.184,2.48-7.566C73.089,17.553,70.859,25.188,67.541,24.502z M123.232,14.397
			c-2.264,0-2.264,3.357,0,3.357C125.494,17.754,125.494,14.397,123.232,14.397z M123.232,17.437c-1.895,0-1.895-2.739,0-2.739
			C125.143,14.698,125.143,17.437,123.232,17.437z M123.617,15.199h-0.82l-0.285,1.787h0.352l0.102-0.718h0.234l0.268,0.668h0.402
			l-0.334-0.668c0.031,0,0.451,0,0.502-0.518C124.07,15.316,123.617,15.199,123.617,15.199z M123.367,16.018h-0.336l0.084-0.586
			h0.336c0,0,0.283,0,0.283,0.301C123.701,16.068,123.367,16.018,123.367,16.018z"/>
	</g>
</g>
</svg>
