<?xml version="1.0" encoding="utf-8"?>
<!-- Generator: Adobe Illustrator 17.1.0, SVG Export Plug-In . SVG Version: 6.00 Build 0)  -->
<!DOCTYPE svg PUBLIC "-//W3C//DTD SVG 1.1//EN" "http://www.w3.org/Graphics/SVG/1.1/DTD/svg11.dtd">
<svg version="1.1" id="Layer_2" xmlns="http://www.w3.org/2000/svg" xmlns:xlink="http://www.w3.org/1999/xlink" x="0px" y="0px"
	 viewBox="0 0 137.8 37.8" enable-background="new 0 0 137.8 37.8" xml:space="preserve">
<g>
	<g>
		<path fill="#FFFFFF" d="M28.7,9.9L24,19.7l-0.3-9.8h-7l-3.9,17.5h5.1l2.3-9.4l0.2,9.4h3.6l4.7-9.4l-2.1,9.4h5.1l3.9-17.5
			C35.7,9.9,28.7,9.9,28.7,9.9z M41.6,9.9h-4.7l-0.6,2.9H41L41.6,9.9z M35.9,14.4l-2.9,13l4.7,0l2.9-13H35.9z M48.3,22.6
			c-0.1,0.2-0.8,1.9-2.3,1.9c-3.2-0.1-1.1-7.2,1.8-7.3c1.6,0,1.4,1.9,1.3,2.1H54c0-0.2,0.3-4.9-5.3-5.2c-10-0.5-12.3,13.5-3.5,13.7
			c6.6,0.1,8-5.1,8-5.2L48.3,22.6L48.3,22.6z M98.4,13.9c-9.8-0.5-12.7,13.5-3.1,13.9C105,28.2,107.6,14.3,98.4,13.9z M95.6,24.5
			c-3-0.6-0.7-8.2,2.5-7.6C101.2,17.6,98.9,25.2,95.6,24.5z M119.1,11.3h-4.3l-0.7,3.1h-2.8l0.1-0.4c0.2-1,0.5-1.5,1.8-1.5l0.5-2.5
			c0,0-3.7-0.5-5.1,0.7c-1,0.9-1.4,2-1.8,3.7h-2.3l-0.7,3h2.4l-2.2,10h4.7l2.2-10l2.6,0l-1.5,6.5c-0.4,1.7,0.2,2.5,0.8,2.9
			c1.3,0.9,5.1,0.5,5.1,0.5l0.7-3c0,0-1.9,0.2-2-0.3c-0.1-0.4,0-0.6,0.1-1l1.2-5.7h2.2l0.7-3h-2.2L119.1,11.3z M83.8,13.9
			c-3.3-0.1-6.4,1-6.8,3.9c-0.5,3.5,4.1,4.3,5.3,4.5c2.6,0.5,1.8,2.6-0.1,2.6c-2.8,0-2-2-2-2l-8.8,0l4.4-1.4
			c0.2-0.1,0.2-0.1,0.3-0.7c0.5-3.3-1.2-6.7-5.6-6.9c-3.2-0.2-5.6,1.2-7.1,3.2l0.7-2.9c-0.8,0-1.5,0.1-2.2,0.4
			c-0.9,0.3-1.6,0.8-2.2,1.5l0.4-1.6h-4.2l-2.9,13h4.5l1.1-4.6c0.8-4,3-4.4,4.1-4.4c-2.1,4-0.9,9.2,4.9,9.4c3.8,0.1,6.7-2,7.8-4.4
			c-0.2,1.4,0.3,4.3,6.5,4.4c6.8,0.1,7.4-4.2,7.3-5.2c-0.2-3.4-3.2-3.5-5.8-4.1c-2.1-0.5-1.7-2.1,0.2-2.1c2,0,1.6,1.7,1.6,1.7h4.5
			C89.3,17.9,90.6,13.9,83.8,13.9z M67.5,24.5c-3-0.6-0.7-8.2,2.5-7.6C73.1,17.6,70.9,25.2,67.5,24.5z M123.2,14.4
			c-2.3,0-2.3,3.4,0,3.4C125.5,17.8,125.5,14.4,123.2,14.4z M123.2,17.4c-1.9,0-1.9-2.7,0-2.7C125.1,14.7,125.1,17.4,123.2,17.4z
			 M123.6,15.2h-0.8l-0.3,1.8h0.4l0.1-0.7h0.2l0.3,0.7h0.4l-0.3-0.7c0,0,0.5,0,0.5-0.5C124.1,15.3,123.6,15.2,123.6,15.2z M123.4,16
			H123l0.1-0.6h0.3c0,0,0.3,0,0.3,0.3C123.7,16.1,123.4,16,123.4,16z"/>
	</g>
</g>
</svg>
