<?xml version="1.0" encoding="utf-8"?>
<!-- Generator: Adobe Illustrator 17.1.0, SVG Export Plug-In . SVG Version: 6.00 Build 0)  -->
<!DOCTYPE svg PUBLIC "-//W3C//DTD SVG 1.1//EN" "http://www.w3.org/Graphics/SVG/1.1/DTD/svg11.dtd">
<svg version="1.1" id="Layer_2" xmlns="http://www.w3.org/2000/svg" xmlns:xlink="http://www.w3.org/1999/xlink" x="0px" y="0px"
	 viewBox="0 0 137.8 37.8" enable-background="new 0 0 137.8 37.8" xml:space="preserve">
<g>
	<g>
		<path fill="#FFFFFF" d="M78.9,14.9c-0.6,0-1.1,0.2-1.6,0.5c-0.4,0.3-0.8,0.8-1,1.3c-0.2,0.5-0.3,1.1-0.3,1.7
			c0,0.9,0.2,1.8,0.7,2.5s1.2,1.1,2.1,1.1c0.9,0,1.6-0.4,2.1-1.1c0.5-0.7,0.8-1.5,0.8-2.4c0-0.9-0.2-1.7-0.8-2.4
			C80.5,15.2,79.8,14.9,78.9,14.9z M93.1,14.9c-0.4-0.2-0.9-0.3-1.4-0.3c-0.5,0-1,0.1-1.4,0.4c-0.4,0.2-0.7,0.6-1,1
			c-0.2,0.4-0.4,0.9-0.5,1.3h5.8c-0.1-0.5-0.2-1-0.5-1.4C93.8,15.5,93.5,15.1,93.1,14.9z M104,13.2c0-2.2-1.8-4-4-4
			c-1.1,0-2,0.4-2.8,1.1c-1.7-1.1-3.6-1.8-5.8-1.8c-2.2,0-4.2,0.7-5.9,1.9c-0.7-0.6-1.7-1-2.7-1c-0.7,0-1.4,0.2-2,0.5
			c-1.6-2.6-4.4-4.4-7.7-4.4c-2.8,0-5.3,1.3-7,3.3C64.2,7.7,62,7,59.6,7c-0.9,0-1.7,0.1-2.6,0.3c-0.4-2.2-2.4-3.9-4.8-3.9
			c-2.7,0-4.9,2.2-4.9,4.9c0,0.1,0,0.2,0,0.3c-0.5-0.1-1-0.1-1.6-0.1c-1.4,0-2.7,0.3-3.9,0.8c-0.8-0.4-1.7-0.7-2.6-0.7
			c-3,0-5.5,2.4-5.5,5.4c0,1.5,0.6,2.9,1.7,3.9c0,0.3,0,0.5,0,0.8c0,5.7,4.6,10.3,10.3,10.3c2.1,0,4-0.6,5.6-1.7
			c1.9,1.8,4.3,2.9,7,3.2c0.9,2.2,3.1,3.8,5.6,3.8c2.4,0,4.5-1.4,5.5-3.5c1.1,1.4,2.7,2.3,4.6,2.3c2.6,0,4.8-1.7,5.5-4
			c0.4,0.1,0.7,0.1,1.1,0.1c1.9,0,3.6-0.8,4.8-2c1.6,1.1,3.6,1.8,5.8,1.8c5.7,0,10.2-4.6,10.2-10.2c0-0.6-0.1-1.2-0.2-1.8
			C102.9,16.3,104,14.9,104,13.2z M49.8,23.1c-0.5,0.6-1.2,1.1-2.1,1.4c-0.9,0.3-2,0.5-3.1,0.5c-0.8,0-1.7-0.1-2.6-0.3
			c-0.9-0.2-1.7-0.5-2.3-1s-1-0.9-1-1.3c0-0.2,0.1-0.4,0.2-0.6c0.1-0.2,0.4-0.4,0.7-0.6c0.3-0.2,0.6-0.3,0.9-0.3c0.4,0,0.7,0,1,0.1
			c0.3,0.1,0.7,0.2,1.1,0.4c0.4,0.2,0.8,0.3,1.2,0.4c0.3,0.1,0.7,0.1,1.1,0.1c0.6,0,1.1-0.1,1.3-0.2c0.2-0.2,0.4-0.4,0.4-0.7
			c0-0.3-0.4-0.6-1.2-0.9c-0.8-0.3-1.7-0.6-2.7-0.9c-1-0.3-1.8-0.7-2.4-1.3c-0.7-0.5-1-1.2-1-2.1c0-0.8,0.2-1.5,0.7-2.1
			c0.5-0.6,1.2-1.1,2-1.4c0.9-0.3,1.9-0.5,3-0.5c0.8,0,1.6,0.1,2.4,0.3s1.5,0.5,2.1,0.8s0.8,0.8,0.8,1.3c0,0.4-0.2,0.7-0.5,1
			s-0.7,0.5-1.2,0.5c-0.2,0-0.6-0.1-1.3-0.3c-0.6-0.2-1.1-0.4-1.4-0.5s-0.7-0.2-1.1-0.2c-0.4,0-0.7,0.1-1,0.2
			c-0.3,0.2-0.4,0.4-0.4,0.7c0,0.3,0.4,0.6,1.3,0.9c0.8,0.3,1.7,0.6,2.7,0.9c0.9,0.3,1.7,0.7,2.4,1.2c0.7,0.5,1,1.2,1,2.1
			C50.6,21.8,50.3,22.5,49.8,23.1z M89.9,21.5c0.6,0.4,1.4,0.6,2.3,0.6c0.5,0,1-0.1,1.3-0.2c0.3-0.1,0.8-0.4,1.4-0.7
			c0.6-0.3,1.1-0.5,1.3-0.5c0.2,0,0.5,0.1,0.7,0.2c0.2,0.1,0.4,0.3,0.6,0.6c0.1,0.2,0.2,0.5,0.2,0.7c0,0.5-0.3,1-0.9,1.4
			s-1.4,0.8-2.3,1.1c-0.9,0.3-1.8,0.4-2.7,0.4c-1,0-1.9-0.2-2.8-0.5s-1.6-0.8-2.2-1.4s-1.1-1.3-1.4-2.2c-0.1-0.4-0.3-0.7-0.3-1.1
			c-0.1,0.6-0.3,1.2-0.6,1.8c-0.5,1-1.2,1.8-2.1,2.5c-0.9,0.6-2,0.9-3.1,0.9c-0.6,0-1.2-0.1-1.7-0.3s-1.1-0.5-1.6-0.9v4.3
			c0,0.6-0.2,1.1-0.5,1.4c-0.3,0.4-0.8,0.5-1.3,0.5c-0.5,0-1-0.2-1.3-0.5c-0.3-0.4-0.5-0.8-0.5-1.4V15.3L67.7,28
			c0,0-0.6,2.1-3.4,2.2c0,0-2.3,0.3-2.3-1.7c0,0-0.3-1.9,2.4-1.5c0,0,1.3-0.3,0.9-1.4l-4.3-11.3c-0.1,0.1-0.2,0.3-0.4,0.4l-2.3,2.7
			l3.7,5.2c0.3,0.3,0.5,0.7,0.5,1.1c0,0.4-0.2,0.8-0.5,1.1c-0.3,0.3-0.7,0.5-1.2,0.5c-0.3,0-0.6-0.1-0.9-0.2
			c-0.3-0.2-0.6-0.4-0.9-0.8l-3.3-4.7l-1.2,0.9l0,2.8c0,0.4-0.1,0.7-0.2,1c-0.2,0.3-0.4,0.5-0.7,0.7s-0.6,0.2-1,0.2
			c-0.5,0-1-0.2-1.3-0.5c-0.3-0.3-0.5-0.8-0.5-1.4V8.8c0-0.6,0.2-1,0.5-1.4c0.3-0.4,0.8-0.5,1.3-0.5c0.4,0,0.7,0.1,1,0.2
			c0.3,0.2,0.5,0.4,0.7,0.7s0.2,0.6,0.2,1v7.9l3.7-4.2c0.6-0.5,1.1-0.7,1.7-0.7c0.4,0,0.8,0.2,1.1,0.5c0,0,0.1,0.1,0.1,0.1
			c0.1-0.1,0.2-0.3,0.3-0.4c0.4-0.3,0.8-0.5,1.2-0.5c0.4,0,0.8,0.1,1.1,0.3c0.3,0.2,0.6,0.5,0.7,1l3,8.5l2.3-8.5
			c0.2-0.4,0.4-0.7,0.7-1s0.7-0.3,1.1-0.3c0.4,0,0.8,0.2,1.2,0.5c0.2,0.1,0.3,0.3,0.4,0.4c0,0,0-0.1,0.1-0.1
			c0.3-0.3,0.8-0.5,1.3-0.5c1,0,1.6,0.5,1.8,1.4c0.3-0.5,0.8-0.9,1.4-1.2c0.6-0.3,1.3-0.4,2-0.4c1.2,0,2.3,0.3,3.2,1
			c0.9,0.7,1.5,1.5,2,2.6c0.2,0.6,0.4,1.2,0.5,1.8c0.1-0.4,0.2-0.7,0.3-1.1c0.3-0.8,0.8-1.5,1.3-2.2c0.6-0.6,1.3-1.1,2.1-1.5
			c0.8-0.4,1.7-0.6,2.6-0.6c1,0,1.8,0.2,2.6,0.6s1.5,0.9,2.1,1.5s1,1.3,1.3,2c0.3,0.7,0.5,1.5,0.5,2.2c0,1-0.5,1.6-1.6,1.6h-7.7
			C88.9,20.4,89.3,21,89.9,21.5z M99.5,12.4h-0.7v2h-0.5v-2h-0.7V12h1.9L99.5,12.4L99.5,12.4z M102,14.4h-0.5v-2h0l-0.4,2h-0.5
			l-0.4-2h0v2h-0.5V12h0.7l0.4,1.9h0l0.4-1.9h0.7V14.4z"/>
	</g>
</g>
</svg>
