<?xml version="1.0" encoding="utf-8"?>
<!-- Generator: Adobe Illustrator 16.0.0, SVG Export Plug-In . SVG Version: 6.00 Build 0)  -->
<!DOCTYPE svg PUBLIC "-//W3C//DTD SVG 1.1//EN" "http://www.w3.org/Graphics/SVG/1.1/DTD/svg11.dtd">
<svg version="1.1" id="Layer_2" xmlns="http://www.w3.org/2000/svg" xmlns:xlink="http://www.w3.org/1999/xlink" x="0px" y="0px"
	 width="137.75px" height="37.75px" viewBox="0 0 137.75 37.75" enable-background="new 0 0 137.75 37.75" xml:space="preserve">
<g>
	<g>
		<path fill="#30BF69" d="M78.928,14.87c-0.607,0-1.129,0.164-1.562,0.491c-0.436,0.328-0.758,0.75-0.967,1.269
			c-0.211,0.519-0.314,1.073-0.314,1.667c0,0.943,0.246,1.785,0.738,2.525s1.193,1.111,2.105,1.111c0.887,0,1.58-0.36,2.082-1.082
			c0.5-0.721,0.75-1.533,0.75-2.438c0-0.897-0.25-1.711-0.75-2.444C80.508,15.236,79.814,14.87,78.928,14.87z M93.051,14.92
			c-0.416-0.226-0.893-0.339-1.436-0.339c-0.525,0-0.996,0.119-1.41,0.357c-0.414,0.237-0.748,0.559-0.998,0.965
			c-0.25,0.405-0.408,0.853-0.473,1.344h5.775c-0.057-0.499-0.213-0.955-0.463-1.367C93.797,15.466,93.465,15.147,93.051,14.92z
			 M103.957,13.242c0-2.205-1.799-3.991-4.018-3.991c-1.074,0-2.049,0.421-2.77,1.104c-1.65-1.129-3.648-1.791-5.803-1.791
			c-2.207,0-4.25,0.694-5.922,1.873c-0.748-0.595-1.697-0.953-2.73-0.953c-0.711,0-1.381,0.173-1.975,0.472
			c-1.562-2.609-4.428-4.36-7.707-4.36c-2.827,0-5.347,1.303-6.989,3.335c-1.856-1.201-4.071-1.901-6.452-1.901
			c-0.881,0-1.739,0.098-2.565,0.28c-0.444-2.231-2.423-3.914-4.798-3.914c-2.702,0-4.893,2.177-4.893,4.861
			c0,0.11,0.01,0.218,0.017,0.326c-0.518-0.08-1.048-0.121-1.587-0.121c-1.383,0-2.7,0.271-3.905,0.762
			c-0.775-0.42-1.664-0.659-2.609-0.659c-3.015,0-5.458,2.429-5.458,5.425c0,1.54,0.646,2.929,1.683,3.916
			c-0.021,0.27-0.035,0.542-0.035,0.818c0,5.667,4.623,10.26,10.325,10.26c2.086,0,4.025-0.617,5.649-1.674
			c1.867,1.773,4.314,2.945,7.032,3.205c0.868,2.246,3.06,3.842,5.626,3.842c2.427,0,4.518-1.426,5.472-3.48
			c1.059,1.369,2.723,2.252,4.596,2.252c2.594,0,4.789-1.693,5.527-4.029c0.355,0.059,0.719,0.09,1.09,0.09
			c1.895,0,3.602-0.783,4.82-2.039c1.646,1.125,3.641,1.783,5.789,1.783c5.66,0,10.248-4.561,10.248-10.186
			c0-0.617-0.059-1.221-0.164-1.807C102.92,16.345,103.957,14.915,103.957,13.242z M49.831,23.092
			c-0.504,0.611-1.215,1.09-2.135,1.438c-0.92,0.346-1.969,0.52-3.146,0.52c-0.834,0-1.711-0.115-2.63-0.344
			c-0.92-0.23-1.699-0.549-2.336-0.957s-0.956-0.852-0.956-1.334c0-0.19,0.075-0.404,0.224-0.64
			c0.148-0.237,0.366-0.443,0.654-0.618c0.287-0.176,0.604-0.264,0.948-0.264c0.384,0,0.719,0.048,1.007,0.143
			c0.287,0.096,0.651,0.242,1.093,0.44c0.441,0.196,0.831,0.344,1.172,0.438c0.34,0.096,0.716,0.143,1.128,0.143
			c0.623,0,1.057-0.078,1.302-0.233c0.244-0.155,0.366-0.404,0.366-0.747c0-0.326-0.417-0.63-1.25-0.911
			c-0.835-0.28-1.733-0.583-2.696-0.906c-0.964-0.322-1.773-0.748-2.43-1.275c-0.656-0.528-0.985-1.229-0.985-2.103
			c0-0.775,0.244-1.461,0.733-2.057c0.488-0.597,1.169-1.06,2.04-1.391c0.872-0.33,1.864-0.495,2.975-0.495
			c0.776,0,1.569,0.091,2.379,0.273s1.497,0.462,2.062,0.839s0.848,0.823,0.848,1.342c0,0.388-0.165,0.733-0.496,1.038
			s-0.74,0.456-1.229,0.456c-0.221,0-0.64-0.11-1.258-0.33c-0.618-0.221-1.096-0.385-1.431-0.491s-0.709-0.159-1.122-0.159
			c-0.401,0-0.742,0.078-1.021,0.233c-0.277,0.156-0.417,0.39-0.417,0.702c0,0.334,0.422,0.648,1.266,0.941
			c0.843,0.293,1.734,0.593,2.674,0.9c0.939,0.309,1.745,0.725,2.416,1.249c0.671,0.525,1.006,1.229,1.006,2.11
			C50.585,21.796,50.333,22.479,49.831,23.092z M89.947,21.45c0.637,0.419,1.4,0.628,2.297,0.628c0.549,0,0.998-0.074,1.348-0.221
			c0.35-0.148,0.832-0.381,1.447-0.698c0.617-0.317,1.055-0.477,1.318-0.477c0.244,0,0.486,0.075,0.721,0.224
			c0.232,0.148,0.42,0.336,0.561,0.562c0.139,0.227,0.209,0.469,0.209,0.729c0,0.485-0.305,0.958-0.912,1.418
			s-1.379,0.834-2.314,1.115c-0.938,0.281-1.84,0.422-2.711,0.422c-1.002,0-1.92-0.166-2.758-0.498s-1.561-0.807-2.168-1.42
			s-1.072-1.333-1.396-2.159c-0.143-0.361-0.252-0.736-0.332-1.122c-0.121,0.614-0.32,1.214-0.602,1.797
			c-0.494,1.017-1.201,1.837-2.125,2.462c-0.922,0.627-1.963,0.939-3.121,0.939c-0.574,0-1.154-0.104-1.736-0.312
			s-1.111-0.51-1.588-0.902v4.262c0,0.588-0.17,1.061-0.512,1.416c-0.341,0.355-0.777,0.533-1.312,0.533
			c-0.533,0-0.969-0.18-1.305-0.539c-0.337-0.359-0.506-0.828-0.506-1.406V15.308l-4.784,12.665c0,0-0.582,2.059-3.382,2.191
			c0,0-2.34,0.268-2.34-1.658c0,0-0.269-1.926,2.385-1.514c0,0,1.311-0.311,0.862-1.391L60.918,14.3
			c-0.107,0.146-0.239,0.287-0.401,0.421l-2.256,2.676l3.67,5.236c0.309,0.318,0.462,0.691,0.462,1.117
			c0,0.447-0.169,0.83-0.506,1.146c-0.339,0.314-0.749,0.473-1.232,0.473c-0.316,0-0.608-0.082-0.875-0.244
			c-0.268-0.164-0.567-0.428-0.9-0.793l-3.311-4.693l-1.222,0.92l-0.02,2.775c0,0.365-0.08,0.693-0.238,0.988
			c-0.158,0.293-0.379,0.516-0.662,0.672s-0.601,0.234-0.95,0.234c-0.55,0-0.994-0.174-1.331-0.52
			c-0.338-0.346-0.507-0.805-0.507-1.375V8.805c0-0.563,0.172-1.021,0.513-1.37c0.342-0.351,0.783-0.524,1.325-0.524
			c0.358,0,0.677,0.079,0.956,0.239c0.279,0.159,0.498,0.386,0.656,0.679s0.238,0.618,0.238,0.977v7.921l3.676-4.16
			c0.56-0.479,1.118-0.719,1.676-0.719c0.442,0,0.813,0.155,1.113,0.467c0.03,0.032,0.059,0.064,0.086,0.097
			c0.088-0.14,0.203-0.27,0.348-0.389c0.371-0.307,0.765-0.459,1.182-0.459c0.441,0,0.822,0.111,1.144,0.335
			c0.32,0.224,0.556,0.543,0.705,0.957l2.962,8.541l2.275-8.541c0.166-0.414,0.405-0.733,0.718-0.957s0.689-0.335,1.131-0.335
			c0.417,0,0.81,0.151,1.182,0.453c0.15,0.122,0.269,0.258,0.357,0.403c0.022-0.026,0.044-0.054,0.068-0.079
			c0.332-0.347,0.77-0.521,1.312-0.521c0.969,0,1.577,0.48,1.823,1.442c0.336-0.518,0.816-0.911,1.441-1.181
			c0.623-0.271,1.291-0.406,2.006-0.406c1.248,0,2.312,0.327,3.195,0.979c0.883,0.653,1.547,1.508,1.994,2.563
			c0.244,0.575,0.42,1.169,0.531,1.778c0.078-0.373,0.188-0.741,0.328-1.104c0.32-0.817,0.77-1.542,1.35-2.171
			c0.578-0.63,1.275-1.127,2.088-1.495c0.812-0.367,1.678-0.552,2.598-0.552c0.953,0,1.836,0.188,2.648,0.564
			s1.504,0.873,2.074,1.491s1.016,1.302,1.33,2.049c0.316,0.748,0.475,1.494,0.475,2.238c0,1.041-0.529,1.561-1.588,1.561H88.82
			C88.936,20.408,89.311,21.032,89.947,21.45z M99.451,12.422h-0.723v1.957h-0.5v-1.957h-0.725v-0.421h1.947V12.422z
			 M102.045,14.379h-0.467v-1.987h-0.006l-0.447,1.987h-0.49l-0.436-1.987h-0.008v1.987h-0.467v-2.378h0.73l0.434,1.875h0.006
			l0.428-1.875h0.723V14.379z"/>
	</g>
</g>
</svg>
