<?xml version="1.0" encoding="utf-8"?>
<!-- Generator: Adobe Illustrator 17.1.0, SVG Export Plug-In . SVG Version: 6.00 Build 0)  -->
<!DOCTYPE svg PUBLIC "-//W3C//DTD SVG 1.1//EN" "http://www.w3.org/Graphics/SVG/1.1/DTD/svg11.dtd">
<svg version="1.1" id="Layer_1" xmlns="http://www.w3.org/2000/svg" xmlns:xlink="http://www.w3.org/1999/xlink" x="0px" y="0px"
	 viewBox="0 0 139 38" enable-background="new 0 0 139 38" xml:space="preserve">
<g>
	<path fill="#FFFFFF" d="M41.7,11.3c-1.5,0-2.9,0.6-3.9,1.7c-0.1-1-0.8-1.6-1.9-1.6c-0.1,0-4.1,0-4.1,0c-1.2,0-1.6,0.8-1.8,1.5
		l-2.7,7.9l0,0l-2.7-7.9c-0.2-0.6-0.7-1.5-1.9-1.5c-1.1,0-2.2,0.7-2.2,2c0,0.4,0.1,0.7,0.3,1.2L25,25c0.4,1,0.8,1.7,2.2,1.7
		s1.8-0.6,2.2-1.7l4.3-10.6v10.1c0,1.3,0.9,2.2,2.1,2.2s2.1-0.9,2.1-2.2v-7c0-1.6,0.7-2.8,2.5-2.8c1.5,0,2.5,1.2,2.5,2.8v7
		c0,1.3,0.9,2.2,2.1,2.2c1.2,0,2.1-0.9,2.1-2.2v-7c0-1.6,0.9-2.8,2.5-2.8c1.5,0,2.5,1.2,2.5,2.8v7c0,1.3,0.9,2.2,2.1,2.2
		s2.1-0.9,2.1-2.2v-7.7c0-3.5-2.3-5.4-5.7-5.4c-1.4,0-3.3,0.8-4.4,2C45,12,43.5,11.3,41.7,11.3z"/>
	<path fill="#FFFFFF" d="M58.7,11.4c-0.9,0-1.2,0.6-1.2,1.1c0,0.3,0.1,0.6,0.2,1l4.2,11.9c0.3,1,0.8,1.3,1.5,1.3
		c0.7,0,1.1-0.3,1.4-1.3l3.3-10.1l0,0l3.3,10.1c0.3,1,0.7,1.3,1.4,1.3c0.7,0,1.1-0.3,1.5-1.3l4.3-11.9c0.1-0.4,0.2-0.7,0.2-1
		c0-0.5-0.3-1.1-1.2-1.1c-0.5,0-1.1,0.2-1.4,1.3L73,22.9l0,0l-3.3-9.8c-0.3-1.1-0.6-1.7-1.5-1.7c-0.9,0-1.1,0.6-1.5,1.7l-3.2,9.8
		h-0.1l-3.2-10.2C59.7,11.6,59.2,11.4,58.7,11.4z"/>
	<path fill="#FFFFFF" d="M98,11.5c-0.8,0-1.3,0.5-1.3,1.3v12.6c0,0.8,0.5,1.3,1.3,1.3s1.2-0.5,1.2-1.3v-7.1c0-2.9,1.8-4,3.4-4.2
		c1.1-0.2,1.6-0.6,1.6-1.3s-0.5-1.2-1.4-1.2c-1.5,0-2.9,1.4-3.5,2.6h-0.1V13C99.3,12,98.8,11.5,98,11.5z"/>
	<path fill="#FFFFFF" d="M92.1,11.4c-0.5,0-1.2,0.3-1.2,1.2v0.8l0,0c-1.2-1.2-2.4-2-4.2-2c-4.3,0-6.8,3.7-6.8,7.6s2.4,7.6,6.8,7.6
		c1.7,0,3.1-0.7,4.2-2.2l0,0v1c0,0.9,0.7,1.2,1.2,1.2s1.2-0.3,1.2-1.2V12.6C93.3,11.8,92.6,11.4,92.1,11.4z M86.7,24.6
		c-3.1,0-4.2-3-4.2-5.5s1.1-5.5,4.2-5.5c3.1,0,4.3,3,4.3,5.5S89.8,24.6,86.7,24.6z"/>
	<path fill="#FFFFFF" d="M118.5,18.7c0-3.6-2.4-7.3-6.6-7.3c-4.3,0-6.9,3.6-6.9,7.6s2.2,7.6,7.1,7.6c3,0,6.2-1.8,6.2-3
		c0-0.7-0.5-1.1-0.9-1.1c-1,0-1.8,2-5.2,2c-2.9,0-4.5-2-4.5-4.5h9.6C118.1,20,118.5,19.6,118.5,18.7z M107.5,18.2
		c0.1-2.1,1.1-4.4,3.8-4.6c0.2,0,0.4,0,0.6,0c2.8,0,4.1,2.5,4.1,4.6H107.5z"/>
</g>
</svg>
