<?xml version="1.0" encoding="utf-8"?>
<!-- Generator: Adobe Illustrator 17.1.0, SVG Export Plug-In . SVG Version: 6.00 Build 0)  -->
<!DOCTYPE svg PUBLIC "-//W3C//DTD SVG 1.1//EN" "http://www.w3.org/Graphics/SVG/1.1/DTD/svg11.dtd">
<svg version="1.1" id="Layer_2" xmlns="http://www.w3.org/2000/svg" xmlns:xlink="http://www.w3.org/1999/xlink" x="0px" y="0px"
	 viewBox="0 0 137.8 37.8" enable-background="new 0 0 137.8 37.8" xml:space="preserve">
<g display="none">
	<g display="inline">
		<path fill="#30BF69" d="M77.2,24.4c-0.3,0.1-0.7,0.3-1,0.4c-4.5,1.8-9.2,2.7-13.6,2.7c-7,0-13.7-2-19.2-5.3
			c-0.5-0.3-0.9,0.2-0.4,0.6c5.1,4.8,11.7,7.7,19.2,7.7c4.6,0,10-1.4,14.1-3.9c0.5-0.3,1.1-0.7,1.6-1.1
			C78.5,24.9,77.9,24.1,77.2,24.4z M76.2,21.7c-0.6,0.2-1.2,0.5-1.7,0.9c-0.4,0.3-0.3,0.7,0.1,0.6c0.4-0.1,1-0.1,1.6-0.2
			c1.4-0.1,3-0.2,3.4,0.4c0.5,0.7-0.6,3.7-1.1,5c-0.2,0.4,0.2,0.6,0.5,0.3c1.8-1.6,2.5-4.4,2.5-5.9v-0.2c0-0.3-0.1-0.6-0.2-0.7
			C81,21.4,78.5,21,76.2,21.7z M68.8,12.7c-0.5,0-1.1,0.1-1.7,0.2c-0.9,0.1-1.8,0.3-2.6,0.7c-1.4,0.6-2.4,1.9-2.4,3.9
			c0,2.4,1.5,3.6,3.4,3.6c0.6,0,1.1-0.1,1.6-0.2c0.7-0.2,1.4-0.7,2.1-1.5c0.4,0.6,0.5,0.9,1.3,1.6c0.2,0.1,0.4,0.1,0.5,0
			c0.5-0.4,1.3-1.1,1.7-1.6c0.2-0.2,0.2-0.4,0-0.6C72.4,18,72,17.6,72,16.4v-3.7c0-1.6,0.1-3-1-4.1c-0.9-0.9-2.3-1.2-3.4-1.2h-0.5
			c-2,0.1-4.1,1-4.6,3.6c-0.1,0.3,0.1,0.5,0.3,0.5l2.2,0.3c0.2,0,0.4-0.2,0.4-0.5c0.2-0.9,0.9-1.4,1.7-1.4h0.1c0.5,0,1,0.2,1.3,0.6
			c0.3,0.5,0.3,1.1,0.3,1.7L68.8,12.7L68.8,12.7z M68.8,15.1c0,0.9,0,1.7-0.4,2.5c-0.3,0.6-0.7,0.9-1.3,1.1c-0.1,0-0.2,0-0.3,0
			c-0.9,0-1.4-0.7-1.4-1.7c0-1.3,0.7-1.9,1.7-2.2c0.5-0.1,1.1-0.2,1.7-0.2L68.8,15.1L68.8,15.1z M104.9,9.1
			c-0.6-1.1-1.6-1.4-2.6-1.4c-1.6,0-2.5,0.8-3.1,2.5h0V8.3c0-0.2-0.2-0.4-0.4-0.4h-2.1c-0.2,0-0.4,0.2-0.4,0.4v12.1
			c0,0.2,0.2,0.4,0.4,0.5h2.2c0.2,0,0.4-0.2,0.4-0.5v-6.5c0-0.8,0-1.6,0.4-2.3c0.3-0.6,0.8-1,1.3-1c1.6,0,1.4,1.9,1.4,3.3v6.5
			c0,0.2,0.2,0.4,0.4,0.4h2.3c0.2,0,0.4-0.2,0.4-0.4v-7.6C105.5,11.7,105.5,10.1,104.9,9.1z M45.4,20.8h2.3c0.2,0,0.4-0.2,0.4-0.5
			V14c0-1.4-0.1-3.4,1.6-3.4c1.6,0,1.4,2,1.4,3.4v6.4c0,0.2,0.2,0.4,0.4,0.5h2.3c0.2,0,0.4-0.2,0.4-0.5V14c0-0.7,0-1.7,0.2-2.3
			c0.2-0.6,0.8-1,1.3-1c0.7,0,1.2,0.2,1.3,1.1c0.1,0.4,0.1,1.8,0.1,2.3v6.4c0,0.2,0.2,0.4,0.4,0.5h2.2c0.3,0,0.5-0.2,0.5-0.5v-7.6
			c0-1.3,0.1-2.8-0.6-3.8C59,8,58,7.6,57,7.6c-1.3,0-2.5,0.7-3.1,2.3c-0.6-1.6-1.5-2.3-2.9-2.3s-2.4,0.7-3,2.3h0V8.3
			c0-0.2-0.2-0.4-0.4-0.4h-2.1c-0.2,0-0.4,0.2-0.4,0.4v12.1C45,20.6,45.1,20.8,45.4,20.8z M82.8,17.6c-1.3-0.7-2.8-1-4.2-0.9
			l3.8-5.7C82.8,10.3,83,10,83,9.8V8.3c0-0.2-0.2-0.5-0.4-0.5h-7.4c-0.2,0-0.4,0.2-0.4,0.5V10c0,0.3,0.2,0.5,0.4,0.5H79l-4.5,6.7
			c-0.3,0.5-0.3,0.9-0.3,1.2v1.7c0,0.2,0.3,0.6,0.5,0.4c2.5-1.4,5.5-1.3,7.8,0c0.3,0.1,0.5-0.2,0.5-0.4v-1.8
			C83.2,18,83.1,17.8,82.8,17.6z M43.2,18.6c-0.4-0.6-0.9-1.1-0.9-2.2v-3.7c0-1.6,0.1-3-1-4.1c-0.9-0.9-2.3-1.2-3.4-1.2h-0.5
			c-2,0.1-4.1,1-4.6,3.6c-0.1,0.3,0.2,0.5,0.3,0.5l2.2,0.3c0.2,0,0.4-0.2,0.4-0.5c0.2-0.9,0.9-1.4,1.7-1.4h0.2c0.5,0,1,0.2,1.3,0.6
			c0.3,0.5,0.3,1.1,0.3,1.7v0.3c-0.5,0-1.1,0.1-1.7,0.2c-0.9,0.1-1.8,0.3-2.5,0.7c-1.5,0.6-2.4,1.9-2.4,3.9c0,2.4,1.5,3.6,3.4,3.6
			c0.6,0,1.1-0.1,1.6-0.2c0.7-0.2,1.4-0.7,2.1-1.5c0.4,0.6,0.5,0.9,1.3,1.6c0.2,0.1,0.4,0.1,0.5,0c0.5-0.4,1.3-1.1,1.7-1.6
			C43.4,19.1,43.3,18.8,43.2,18.6z M39.2,15.1c0,0.9,0,1.7-0.4,2.5c-0.3,0.6-0.7,0.9-1.3,1.1c-0.1,0-0.2,0-0.3,0
			c-0.9,0-1.4-0.7-1.4-1.7c0-1.3,0.7-1.9,1.7-2.2c0.5-0.1,1.1-0.2,1.7-0.2L39.2,15.1L39.2,15.1z M89.4,7.6
			C89.4,7.6,89.4,7.6,89.4,7.6c-3.3,0-5.1,2.9-5.1,6.7c0,3.7,1.8,6.7,5.1,6.7c0,0,0,0,0,0c3.1,0,5.1-2.9,5.1-6.6
			C94.5,10.7,92.7,7.7,89.4,7.6z M89.4,18.6C89.4,18.6,89.4,18.6,89.4,18.6c-1.8,0-1.8-3.2-1.8-4.7c0-1.5,0.1-3.9,1.8-3.9
			c0.7,0,1.2,0.4,1.4,1.2c0.3,1,0.4,2.2,0.4,3.2C91.2,16,91.1,18.6,89.4,18.6z"/>
	</g>
</g>
<g display="none">
	<defs>
		<rect id="SVGID_1_" y="-5.5" width="137.8" height="48.3"/>
	</defs>
	<clipPath id="SVGID_2_" display="inline">
		<use xlink:href="#SVGID_1_"  display="none" overflow="visible"/>
	</clipPath>
	<g id="MCFJDJ.tif" display="inline" clip-path="url(#SVGID_2_)">
		<g>
			<g>
				<path display="none" fill="#FFFFFF" d="M7.1,38.9c0-14.8,0-29.6,0-44.3c42.2,0,84.4,0,126.6,0c0,14.8,0,29.6,0,44.3
					C91.5,38.9,49.3,38.9,7.1,38.9z M29.4,19.2c-0.2-0.3-0.2-0.5-0.3-0.7c-1.1-2.6-2.2-5.2-3.3-7.8c-0.5-1.1-1.6-1.6-2.6-1.1
					c-1,0.5-1.4,1.5-0.9,2.7c1.5,3.2,2.9,6.4,4.4,9.6c0.2,0.5,0.6,1,1,1.5c1,1.1,2.7,1,3.6-0.1c0.3-0.4,0.6-0.9,0.8-1.3
					c0.5-1,0.9-1.9,1.4-2.9c0.8-1.8,1.7-3.7,2.5-5.5c0.3-0.6,0.7-0.8,1.1-0.4c0.2,0.2,0.3,0.5,0.3,0.8c0,1,0,2.1,0,3.1
					c0,1.7,0,3.5,0,5.2c0,1.2,1,2,2.2,1.9c1.1-0.1,1.8-1,1.8-2.1c0-2.3,0-4.6,0-6.9c0-1.5,1.3-2.5,2.7-2.1c1.1,0.2,1.7,1,1.7,2.2
					c0,2.3,0,4.5,0,6.8c0,1,0.5,1.8,1.3,2c1.4,0.4,2.6-0.5,2.7-1.9c0-2.3,0-4.5,0-6.8c0-0.9,0.3-1.8,1.2-2.2c1.6-0.8,3.2,0.3,3.2,2
					c0,2.3,0,4.5,0,6.8c0,1.3,0.8,2.2,2,2.2c1.2,0,2-0.8,2-2.2c0-2.7,0-5.3,0-8c0-1.1-0.4-2.1-1.2-3c-1.6-1.7-4.3-2.1-6.5-0.8
					c-0.6,0.3-1.1,0.7-1.7,1.1c-1-1.4-2.5-1.8-4.1-1.8c-1.7,0-3,0.8-4.3,1.9c-0.1-0.1-0.1-0.3-0.2-0.3c-1.3-1.3-2.8-1.8-4.6-1.5
					c-1.6,0.3-2.6,1.4-3.3,2.9c-0.5,1.2-1,2.4-1.5,3.6C30.3,17.1,29.8,18.1,29.4,19.2z M64.9,20.6c0,0-0.1,0-0.1,0
					c-0.1-0.2-0.2-0.3-0.2-0.5c-0.5-1.5-1-3-1.6-4.6c-0.6-1.7-1.2-3.4-1.8-5c-0.3-0.9-1.2-1.1-1.8-0.4c-0.3,0.4-0.2,0.9,0,1.3
					c1.4,3.9,2.8,7.8,4.2,11.6c0.3,0.7,0.6,0.9,1.2,0.9c0.6,0,0.9-0.2,1.1-1c1.1-3.1,2.2-6.1,3.2-9.2c0.1-0.2,0.2-0.4,0.3-0.6
					c0.2,0.2,0.3,0.3,0.3,0.5c1.1,3.1,2.2,6.2,3.2,9.4c0.3,0.8,0.6,1,1.3,0.9c0.6-0.1,0.8-0.5,1-1c1-2.7,1.9-5.4,2.9-8.1
					c0.5-1.3,0.9-2.6,1.4-3.9c0.1-0.4,0.1-0.8-0.2-1c-0.3-0.2-0.7-0.3-1-0.2c-0.3,0.1-0.5,0.4-0.6,0.7c-1.1,3.2-2.2,6.3-3.3,9.5
					c-0.1,0.2-0.2,0.4-0.3,0.7c-0.1-0.3-0.2-0.5-0.3-0.6c-0.4-1.2-0.8-2.5-1.3-3.7c-0.7-1.9-1.3-3.9-2-5.8c-0.2-0.5-0.4-0.9-1-0.9
					c-0.6,0-1,0.2-1.2,0.9c-0.7,2.1-1.5,4.3-2.2,6.4C65.7,18.2,65.3,19.4,64.9,20.6z M89.9,21.8c0.1,0,0.1,0,0.2,0.1
					c0,0.4,0,0.7,0,1.1c0,0.6,0.4,1,0.9,1c0.5,0,0.9-0.4,0.9-1c0-2.9,0.1-5.8-0.1-8.7c-0.1-2-1.2-3.6-3.2-4.2
					c-2.3-0.7-4.5-0.6-6.7,0.3c-0.6,0.2-0.8,0.7-0.6,1.2c0.2,0.5,0.7,0.7,1.3,0.4c1.3-0.6,2.7-0.7,4.2-0.5c1.6,0.2,2.8,1.2,3.1,2.8
					c0.1,0.5,0.1,1,0.1,1.5c-1.3-0.2-2.4-0.3-3.5-0.5c-1.5-0.2-2.9,0-4.2,0.6c-1.5,0.6-2.4,1.7-2.5,3.3c-0.2,1.7,0.4,3.1,1.9,4
					c2.4,1.5,5.9,1,7.8-1C89.7,22.1,89.8,22,89.9,21.8z M104.4,17.6c0.2,0,0.4,0,0.6,0c3,0,6.1,0,9.1,0c0.7,0,1.1-0.3,1-1
					c0-0.6-0.1-1.2-0.2-1.7c-0.6-2.5-2-4.3-4.6-4.9c-2.6-0.6-4.9,0.2-6.5,2.4c-1.2,1.6-1.6,3.4-1.5,5.3c0.1,2.1,0.9,3.8,2.6,5.1
					c1.5,1.2,3.2,1.6,5.1,1.4c1.7-0.2,3.1-0.9,4.3-2.1c0.3-0.3,0.3-0.8,0.1-1.1c-0.3-0.3-0.7-0.4-1.1-0.1c-0.1,0.1-0.2,0.1-0.2,0.2
					c-1.3,1.2-2.8,1.6-4.6,1.4C106.2,22.1,104.3,19.8,104.4,17.6z M96.6,13.1c0-0.3,0-0.5,0-0.6c0-0.6,0-1.1,0-1.7
					c0-0.6-0.4-1-0.9-1c-0.7,0-1.1,0.4-1.1,1.1c0,3.3,0,6.6,0,9.9c0,0.7,0,1.5,0,2.2c0,0.7,0.4,1,1,1c0.6,0,0.9-0.4,1-1.2
					c0-1.7,0-3.4,0-5.2c0.1-3,1.8-5.4,5-5.9c0.6-0.1,0.9-0.5,0.9-1.1c0-0.5-0.4-0.9-1-0.9c-0.2,0-0.4,0-0.6,0.1
					c-1.7,0.3-3,1.3-3.9,2.8C96.9,12.7,96.8,12.8,96.6,13.1z M117.2,9.7c-1,0-1.7,0.7-1.7,1.6c0,0.9,0.7,1.7,1.6,1.7
					c0.9,0,1.7-0.8,1.7-1.7C118.9,10.5,118.1,9.7,117.2,9.7z"/>
				<path fill="#8B8B8B" d="M29.4,19.2c0.5-1.1,0.9-2.1,1.3-3.1c0.5-1.2,1-2.4,1.5-3.6c0.6-1.5,1.6-2.6,3.3-2.9
					c1.8-0.4,3.3,0.2,4.6,1.5c0.1,0.1,0.1,0.2,0.2,0.3c1.3-1.1,2.7-1.9,4.3-1.9c1.6,0,3.1,0.5,4.1,1.8c0.6-0.4,1.1-0.8,1.7-1.1
					c2.3-1.2,4.9-0.9,6.5,0.8c0.8,0.8,1.2,1.8,1.2,3c0,2.7,0,5.3,0,8c0,1.3-0.8,2.2-2,2.2c-1.2,0-2-0.9-2-2.2c0-2.3,0-4.5,0-6.8
					c0-1.8-1.6-2.8-3.2-2c-0.9,0.4-1.2,1.2-1.2,2.2c0,2.3,0,4.5,0,6.8c0,1.4-1.3,2.3-2.7,1.9c-0.8-0.2-1.3-1-1.3-2
					c0-2.3,0-4.5,0-6.8c0-1.2-0.6-2-1.7-2.2c-1.5-0.3-2.7,0.7-2.7,2.1c0,2.3,0,4.6,0,6.9c0,1.2-0.7,2-1.8,2.1
					c-1.2,0.1-2.2-0.7-2.2-1.9c0-1.7,0-3.5,0-5.2c0-1,0-2.1,0-3.1c0-0.3-0.1-0.6-0.3-0.8c-0.3-0.4-0.8-0.2-1.1,0.4
					c-0.8,1.8-1.7,3.7-2.5,5.5c-0.4,1-0.9,2-1.4,2.9c-0.2,0.5-0.5,0.9-0.8,1.3c-0.9,1.1-2.7,1.2-3.6,0.1c-0.4-0.4-0.7-0.9-1-1.5
					c-1.5-3.2-3-6.4-4.4-9.6c-0.5-1.1-0.1-2.2,0.9-2.7c1.1-0.5,2.1-0.1,2.6,1.1c1.1,2.6,2.2,5.2,3.3,7.8
					C29.1,18.7,29.2,18.9,29.4,19.2z"/>
				<path fill="#8B8B8B" d="M64.9,20.6c0.4-1.2,0.8-2.4,1.3-3.6c0.7-2.1,1.5-4.3,2.2-6.4c0.2-0.7,0.6-1,1.2-0.9c0.6,0,0.8,0.4,1,0.9
					c0.7,1.9,1.3,3.9,2,5.8c0.4,1.2,0.8,2.5,1.3,3.7c0.1,0.2,0.1,0.3,0.3,0.6c0.1-0.3,0.2-0.5,0.3-0.7c1.1-3.2,2.2-6.3,3.3-9.5
					c0.1-0.3,0.4-0.7,0.6-0.7c0.3-0.1,0.7,0,1,0.2c0.4,0.2,0.4,0.6,0.2,1c-0.5,1.3-0.9,2.6-1.4,3.9c-1,2.7-1.9,5.4-2.9,8.1
					c-0.2,0.5-0.4,0.9-1,1c-0.7,0.1-1-0.2-1.3-0.9c-1.1-3.1-2.2-6.2-3.2-9.4c-0.1-0.2-0.1-0.3-0.3-0.5c-0.1,0.2-0.2,0.4-0.3,0.6
					c-1.1,3.1-2.2,6.1-3.2,9.2c-0.3,0.7-0.5,1-1.1,1c-0.6,0-1-0.2-1.2-0.9c-1.4-3.9-2.8-7.8-4.2-11.6c-0.2-0.4-0.3-0.9,0-1.3
					c0.5-0.6,1.4-0.4,1.8,0.4c0.6,1.7,1.2,3.4,1.8,5c0.5,1.5,1,3,1.6,4.6c0.1,0.2,0.1,0.3,0.2,0.5C64.8,20.6,64.9,20.6,64.9,20.6z"
					/>
				<path fill="#8B8B8B" d="M89.9,21.8c-0.1,0.1-0.3,0.3-0.4,0.4c-1.9,2-5.4,2.5-7.8,1c-1.5-0.9-2.1-2.3-1.9-4
					c0.2-1.6,1.1-2.7,2.5-3.3c1.3-0.6,2.8-0.7,4.2-0.6c1.1,0.1,2.3,0.3,3.5,0.5c0-0.5,0-1-0.1-1.5c-0.3-1.6-1.5-2.6-3.1-2.8
					c-1.4-0.2-2.8,0-4.2,0.5c-0.6,0.2-1.1,0-1.3-0.4c-0.2-0.5,0-0.9,0.6-1.2c2.2-0.9,4.4-1.1,6.7-0.3c2,0.6,3.1,2.2,3.2,4.2
					c0.1,2.9,0.1,5.8,0.1,8.7c0,0.6-0.4,1-0.9,1c-0.5,0-0.9-0.4-0.9-1c0-0.4,0-0.7,0-1.1C90,21.9,90,21.8,89.9,21.8z M86.2,16.6
					c-1,0-1.9,0.2-2.8,0.6c-1,0.5-1.6,1.3-1.6,2.5c0,1.2,0.6,2,1.6,2.4c1.7,0.8,3.4,0.6,4.9-0.4c1.5-0.9,1.9-2.2,1.8-3.9
					c-0.2-0.3-0.1-0.6-0.5-0.7C88.4,17,87.2,16.6,86.2,16.6z"/>
				<path fill="#8B8B8B" d="M104.4,17.6c-0.1,2.2,1.8,4.5,4,4.8c1.8,0.2,3.3-0.3,4.6-1.4c0.1-0.1,0.2-0.1,0.2-0.2
					c0.4-0.3,0.8-0.2,1.1,0.1c0.3,0.3,0.3,0.8-0.1,1.1c-1.2,1.2-2.6,1.9-4.3,2.1c-1.9,0.2-3.6-0.2-5.1-1.4c-1.6-1.3-2.4-3.1-2.6-5.1
					c-0.1-1.9,0.3-3.7,1.5-5.3c1.7-2.2,3.9-2.9,6.5-2.4c2.6,0.6,4,2.4,4.6,4.9c0.1,0.6,0.2,1.2,0.2,1.7c0,0.7-0.3,1-1,1
					c-3,0-6.1,0-9.1,0C104.9,17.6,104.7,17.6,104.4,17.6z M104.4,16.2c0.2,0,0.4,0,0.6,0c2.4,0,4.7,0,7.1,0c1.3,0,1.3,0,1-1.3
					c-0.4-1.5-1.1-2.7-2.6-3.3C107,10.3,104.4,13.4,104.4,16.2z"/>
				<path fill="#8B8B8B" d="M96.6,13.1c0.2-0.2,0.2-0.4,0.3-0.5c0.9-1.5,2.2-2.4,3.9-2.8c0.2,0,0.4-0.1,0.6-0.1c0.6,0,1,0.4,1,0.9
					c0,0.6-0.3,1-0.9,1.1c-3.2,0.4-4.9,2.9-5,5.9c-0.1,1.7,0,3.4,0,5.2c0,0.7-0.4,1.2-1,1.2c-0.6,0-1-0.4-1-1c0-0.7,0-1.5,0-2.2
					c0-3.3,0-6.6,0-9.9c0-0.7,0.4-1.1,1.1-1.1c0.5,0,0.9,0.4,0.9,1c0,0.6,0,1.1,0,1.7C96.6,12.6,96.6,12.8,96.6,13.1z"/>
			</g>
			<g>
				<path display="none" fill="#30BF69" d="M7.1,38.9c0-14.8,0-29.6,0-44.3c42.2,0,84.4,0,126.6,0c0,14.8,0,29.6,0,44.3
					C91.5,38.9,49.3,38.9,7.1,38.9z M29.4,19.2c-0.2-0.3-0.2-0.5-0.3-0.7c-1.1-2.6-2.2-5.2-3.3-7.8c-0.5-1.1-1.6-1.6-2.6-1.1
					c-1,0.5-1.4,1.5-0.9,2.7c1.5,3.2,2.9,6.4,4.4,9.6c0.2,0.5,0.6,1,1,1.5c1,1.1,2.7,1,3.6-0.1c0.3-0.4,0.6-0.9,0.8-1.3
					c0.5-1,0.9-1.9,1.4-2.9c0.8-1.8,1.7-3.7,2.5-5.5c0.3-0.6,0.7-0.8,1.1-0.4c0.2,0.2,0.3,0.5,0.3,0.8c0,1,0,2.1,0,3.1
					c0,1.7,0,3.5,0,5.2c0,1.2,1,2,2.2,1.9c1.1-0.1,1.8-1,1.8-2.1c0-2.3,0-4.6,0-6.9c0-1.5,1.3-2.5,2.7-2.1c1.1,0.2,1.7,1,1.7,2.2
					c0,2.3,0,4.5,0,6.8c0,1,0.5,1.8,1.3,2c1.4,0.4,2.6-0.5,2.7-1.9c0-2.3,0-4.5,0-6.8c0-0.9,0.3-1.8,1.2-2.2c1.6-0.8,3.2,0.3,3.2,2
					c0,2.3,0,4.5,0,6.8c0,1.3,0.8,2.2,2,2.2c1.2,0,2-0.8,2-2.2c0-2.7,0-5.3,0-8c0-1.1-0.4-2.1-1.2-3c-1.6-1.7-4.3-2.1-6.5-0.8
					c-0.6,0.3-1.1,0.7-1.7,1.1c-1-1.4-2.5-1.8-4.1-1.8c-1.7,0-3,0.8-4.3,1.9c-0.1-0.1-0.1-0.3-0.2-0.3c-1.3-1.3-2.8-1.8-4.6-1.5
					c-1.6,0.3-2.6,1.4-3.3,2.9c-0.5,1.2-1,2.4-1.5,3.6C30.3,17.1,29.8,18.1,29.4,19.2z M64.9,20.6c0,0-0.1,0-0.1,0
					c-0.1-0.2-0.2-0.3-0.2-0.5c-0.5-1.5-1-3-1.6-4.6c-0.6-1.7-1.2-3.4-1.8-5c-0.3-0.9-1.2-1.1-1.8-0.4c-0.3,0.4-0.2,0.9,0,1.3
					c1.4,3.9,2.8,7.8,4.2,11.6c0.3,0.7,0.6,0.9,1.2,0.9c0.6,0,0.9-0.2,1.1-1c1.1-3.1,2.2-6.1,3.2-9.2c0.1-0.2,0.2-0.4,0.3-0.6
					c0.2,0.2,0.3,0.3,0.3,0.5c1.1,3.1,2.2,6.2,3.2,9.4c0.3,0.8,0.6,1,1.3,0.9c0.6-0.1,0.8-0.5,1-1c1-2.7,1.9-5.4,2.9-8.1
					c0.5-1.3,0.9-2.6,1.4-3.9c0.1-0.4,0.1-0.8-0.2-1c-0.3-0.2-0.7-0.3-1-0.2c-0.3,0.1-0.5,0.4-0.6,0.7c-1.1,3.2-2.2,6.3-3.3,9.5
					c-0.1,0.2-0.2,0.4-0.3,0.7c-0.1-0.3-0.2-0.5-0.3-0.6c-0.4-1.2-0.8-2.5-1.3-3.7c-0.7-1.9-1.3-3.9-2-5.8c-0.2-0.5-0.4-0.9-1-0.9
					c-0.6,0-1,0.2-1.2,0.9c-0.7,2.1-1.5,4.3-2.2,6.4C65.7,18.2,65.3,19.4,64.9,20.6z M89.9,21.8c0.1,0,0.1,0,0.2,0.1
					c0,0.4,0,0.7,0,1.1c0,0.6,0.4,1,0.9,1c0.5,0,0.9-0.4,0.9-1c0-2.9,0.1-5.8-0.1-8.7c-0.1-2-1.2-3.6-3.2-4.2
					c-2.3-0.7-4.5-0.6-6.7,0.3c-0.6,0.2-0.8,0.7-0.6,1.2c0.2,0.5,0.7,0.7,1.3,0.4c1.3-0.6,2.7-0.7,4.2-0.5c1.6,0.2,2.8,1.2,3.1,2.8
					c0.1,0.5,0.1,1,0.1,1.5c-1.3-0.2-2.4-0.3-3.5-0.5c-1.5-0.2-2.9,0-4.2,0.6c-1.5,0.6-2.4,1.7-2.5,3.3c-0.2,1.7,0.4,3.1,1.9,4
					c2.4,1.5,5.9,1,7.8-1C89.7,22.1,89.8,22,89.9,21.8z M104.4,17.6c0.2,0,0.4,0,0.6,0c3,0,6.1,0,9.1,0c0.7,0,1.1-0.3,1-1
					c0-0.6-0.1-1.2-0.2-1.7c-0.6-2.5-2-4.3-4.6-4.9c-2.6-0.6-4.9,0.2-6.5,2.4c-1.2,1.6-1.6,3.4-1.5,5.3c0.1,2.1,0.9,3.8,2.6,5.1
					c1.5,1.2,3.2,1.6,5.1,1.4c1.7-0.2,3.1-0.9,4.3-2.1c0.3-0.3,0.3-0.8,0.1-1.1c-0.3-0.3-0.7-0.4-1.1-0.1c-0.1,0.1-0.2,0.1-0.2,0.2
					c-1.3,1.2-2.8,1.6-4.6,1.4C106.2,22.1,104.3,19.8,104.4,17.6z M96.6,13.1c0-0.3,0-0.5,0-0.6c0-0.6,0-1.1,0-1.7
					c0-0.6-0.4-1-0.9-1c-0.7,0-1.1,0.4-1.1,1.1c0,3.3,0,6.6,0,9.9c0,0.7,0,1.5,0,2.2c0,0.7,0.4,1,1,1c0.6,0,0.9-0.4,1-1.2
					c0-1.7,0-3.4,0-5.2c0.1-3,1.8-5.4,5-5.9c0.6-0.1,0.9-0.5,0.9-1.1c0-0.5-0.4-0.9-1-0.9c-0.2,0-0.4,0-0.6,0.1
					c-1.7,0.3-3,1.3-3.9,2.8C96.9,12.7,96.8,12.8,96.6,13.1z M117.2,9.7c-1,0-1.7,0.7-1.7,1.6c0,0.9,0.7,1.7,1.6,1.7
					c0.9,0,1.7-0.8,1.7-1.7C118.9,10.5,118.1,9.7,117.2,9.7z"/>
				<path fill="#30BF69" d="M29.4,19.2c0.5-1.1,0.9-2.1,1.3-3.1c0.5-1.2,1-2.4,1.5-3.6c0.6-1.5,1.6-2.6,3.3-2.9
					c1.8-0.4,3.3,0.2,4.6,1.5c0.1,0.1,0.1,0.2,0.2,0.3c1.3-1.1,2.7-1.9,4.3-1.9c1.6,0,3.1,0.5,4.1,1.8c0.6-0.4,1.1-0.8,1.7-1.1
					c2.3-1.2,4.9-0.9,6.5,0.8c0.8,0.8,1.2,1.8,1.2,3c0,2.7,0,5.3,0,8c0,1.3-0.8,2.2-2,2.2c-1.2,0-2-0.9-2-2.2c0-2.3,0-4.5,0-6.8
					c0-1.8-1.6-2.8-3.2-2c-0.9,0.4-1.2,1.2-1.2,2.2c0,2.3,0,4.5,0,6.8c0,1.4-1.3,2.3-2.7,1.9c-0.8-0.2-1.3-1-1.3-2
					c0-2.3,0-4.5,0-6.8c0-1.2-0.6-2-1.7-2.2c-1.5-0.3-2.7,0.7-2.7,2.1c0,2.3,0,4.6,0,6.9c0,1.2-0.7,2-1.8,2.1
					c-1.2,0.1-2.2-0.7-2.2-1.9c0-1.7,0-3.5,0-5.2c0-1,0-2.1,0-3.1c0-0.3-0.1-0.6-0.3-0.8c-0.3-0.4-0.8-0.2-1.1,0.4
					c-0.8,1.8-1.7,3.7-2.5,5.5c-0.4,1-0.9,2-1.4,2.9c-0.2,0.5-0.5,0.9-0.8,1.3c-0.9,1.1-2.7,1.2-3.6,0.1c-0.4-0.4-0.7-0.9-1-1.5
					c-1.5-3.2-3-6.4-4.4-9.6c-0.5-1.1-0.1-2.2,0.9-2.7c1.1-0.5,2.1-0.1,2.6,1.1c1.1,2.6,2.2,5.2,3.3,7.8
					C29.1,18.7,29.2,18.9,29.4,19.2z"/>
				<path fill="#30BF69" d="M64.9,20.6c0.4-1.2,0.8-2.4,1.3-3.6c0.7-2.1,1.5-4.3,2.2-6.4c0.2-0.7,0.6-1,1.2-0.9c0.6,0,0.8,0.4,1,0.9
					c0.7,1.9,1.3,3.9,2,5.8c0.4,1.2,0.8,2.5,1.3,3.7c0.1,0.2,0.1,0.3,0.3,0.6c0.1-0.3,0.2-0.5,0.3-0.7c1.1-3.2,2.2-6.3,3.3-9.5
					c0.1-0.3,0.4-0.7,0.6-0.7c0.3-0.1,0.7,0,1,0.2c0.4,0.2,0.4,0.6,0.2,1c-0.5,1.3-0.9,2.6-1.4,3.9c-1,2.7-1.9,5.4-2.9,8.1
					c-0.2,0.5-0.4,0.9-1,1c-0.7,0.1-1-0.2-1.3-0.9c-1.1-3.1-2.2-6.2-3.2-9.4c-0.1-0.2-0.1-0.3-0.3-0.5c-0.1,0.2-0.2,0.4-0.3,0.6
					c-1.1,3.1-2.2,6.1-3.2,9.2c-0.3,0.7-0.5,1-1.1,1c-0.6,0-1-0.2-1.2-0.9c-1.4-3.9-2.8-7.8-4.2-11.6c-0.2-0.4-0.3-0.9,0-1.3
					c0.5-0.6,1.4-0.4,1.8,0.4c0.6,1.7,1.2,3.4,1.8,5c0.5,1.5,1,3,1.6,4.6c0.1,0.2,0.1,0.3,0.2,0.5C64.8,20.6,64.9,20.6,64.9,20.6z"
					/>
				<path fill="#30BF69" d="M89.9,21.8c-0.1,0.1-0.3,0.3-0.4,0.4c-1.9,2-5.4,2.5-7.8,1c-1.5-0.9-2.1-2.3-1.9-4
					c0.2-1.6,1.1-2.7,2.5-3.3c1.3-0.6,2.8-0.7,4.2-0.6c1.1,0.1,2.3,0.3,3.5,0.5c0-0.5,0-1-0.1-1.5c-0.3-1.6-1.5-2.6-3.1-2.8
					c-1.4-0.2-2.8,0-4.2,0.5c-0.6,0.2-1.1,0-1.3-0.4c-0.2-0.5,0-0.9,0.6-1.2c2.2-0.9,4.4-1.1,6.7-0.3c2,0.6,3.1,2.2,3.2,4.2
					c0.1,2.9,0.1,5.8,0.1,8.7c0,0.6-0.4,1-0.9,1c-0.5,0-0.9-0.4-0.9-1c0-0.4,0-0.7,0-1.1C90,21.9,90,21.8,89.9,21.8z M86.2,16.6
					c-1,0-1.9,0.2-2.8,0.6c-1,0.5-1.6,1.3-1.6,2.5c0,1.2,0.6,2,1.6,2.4c1.7,0.8,3.4,0.6,4.9-0.4c1.5-0.9,1.9-2.2,1.8-3.9
					c-0.2-0.3-0.1-0.6-0.5-0.7C88.4,17,87.2,16.6,86.2,16.6z"/>
				<path fill="#30BF69" d="M104.4,17.6c-0.1,2.2,1.8,4.5,4,4.8c1.8,0.2,3.3-0.3,4.6-1.4c0.1-0.1,0.2-0.1,0.2-0.2
					c0.4-0.3,0.8-0.2,1.1,0.1c0.3,0.3,0.3,0.8-0.1,1.1c-1.2,1.2-2.6,1.9-4.3,2.1c-1.9,0.2-3.6-0.2-5.1-1.4c-1.6-1.3-2.4-3.1-2.6-5.1
					c-0.1-1.9,0.3-3.7,1.5-5.3c1.7-2.2,3.9-2.9,6.5-2.4c2.6,0.6,4,2.4,4.6,4.9c0.1,0.6,0.2,1.2,0.2,1.7c0,0.7-0.3,1-1,1
					c-3,0-6.1,0-9.1,0C104.9,17.6,104.7,17.6,104.4,17.6z M104.4,16.2c0.2,0,0.4,0,0.6,0c2.4,0,4.7,0,7.1,0c1.3,0,1.3,0,1-1.3
					c-0.4-1.5-1.1-2.7-2.6-3.3C107,10.3,104.4,13.4,104.4,16.2z"/>
				<path fill="#30BF69" d="M96.6,13.1c0.2-0.2,0.2-0.4,0.3-0.5c0.9-1.5,2.2-2.4,3.9-2.8c0.2,0,0.4-0.1,0.6-0.1c0.6,0,1,0.4,1,0.9
					c0,0.6-0.3,1-0.9,1.1c-3.2,0.4-4.9,2.9-5,5.9c-0.1,1.7,0,3.4,0,5.2c0,0.7-0.4,1.2-1,1.2c-0.6,0-1-0.4-1-1c0-0.7,0-1.5,0-2.2
					c0-3.3,0-6.6,0-9.9c0-0.7,0.4-1.1,1.1-1.1c0.5,0,0.9,0.4,0.9,1c0,0.6,0,1.1,0,1.7C96.6,12.6,96.6,12.8,96.6,13.1z"/>
			</g>
		</g>
	</g>
</g>
<g>
	<path fill="#30BF69" d="M41.2,11.2c-1.5,0-2.9,0.6-3.9,1.7c-0.1-1-0.8-1.6-1.9-1.6c-0.1,0-4.1,0-4.1,0c-1.2,0-1.6,0.8-1.8,1.5
		l-2.7,7.9h0l-2.7-7.9c-0.2-0.6-0.7-1.5-1.9-1.5c-1.1,0-2.2,0.7-2.2,2c0,0.4,0.1,0.7,0.3,1.2l4.2,10.4c0.4,1,0.8,1.7,2.2,1.7
		c1.4,0,1.8-0.6,2.2-1.7l4.3-10.6v10.1c0,1.3,0.9,2.2,2.1,2.2c1.2,0,2.1-0.9,2.1-2.2v-7c0-1.6,0.7-2.8,2.5-2.8
		c1.5,0,2.5,1.2,2.5,2.8v7c0,1.3,0.9,2.2,2.1,2.2s2.1-0.9,2.1-2.2v-7c0-1.6,0.9-2.8,2.5-2.8c1.5,0,2.5,1.2,2.5,2.8v7
		c0,1.3,0.9,2.2,2.1,2.2c1.2,0,2.1-0.9,2.1-2.2v-7.7c0-3.5-2.3-5.4-5.7-5.4c-1.4,0-3.3,0.8-4.4,2C44.4,11.9,42.9,11.2,41.2,11.2z"/>
	<path fill="#30BF69" d="M58.1,11.3c-0.9,0-1.2,0.6-1.2,1.1c0,0.3,0.1,0.6,0.2,1l4.2,11.9c0.3,1,0.8,1.3,1.5,1.3
		c0.7,0,1.1-0.3,1.4-1.3l3.3-10.1h0l3.3,10.1c0.3,1,0.7,1.3,1.4,1.3c0.7,0,1.1-0.3,1.5-1.3L78,13.4c0.1-0.4,0.2-0.7,0.2-1
		c0-0.5-0.3-1.1-1.2-1.1c-0.5,0-1.1,0.2-1.4,1.3l-3.3,10.2h0L69,13c-0.3-1.1-0.6-1.7-1.5-1.7c-0.9,0-1.1,0.6-1.5,1.7l-3.2,9.8h-0.1
		l-3.2-10.2C59.1,11.5,58.6,11.3,58.1,11.3z"/>
	<path fill="#30BF69" d="M97.2,11.4c-0.8,0-1.3,0.5-1.3,1.3v12.6c0,0.8,0.5,1.3,1.3,1.3c0.8,0,1.2-0.5,1.2-1.3v-7.1
		c0-2.9,1.8-4,3.4-4.2c1.1-0.2,1.6-0.6,1.6-1.3c0-0.7-0.5-1.2-1.4-1.2c-1.5,0-2.9,1.4-3.5,2.6h-0.1v-1.2
		C98.5,11.9,98,11.4,97.2,11.4z"/>
	<path fill="#30BF69" d="M91.4,11.3c-0.5,0-1.2,0.3-1.2,1.2v0.8h0c-1.2-1.2-2.4-2-4.2-2c-4.3,0-6.8,3.7-6.8,7.6s2.4,7.6,6.8,7.6
		c1.7,0,3.1-0.7,4.2-2.2h0v1c0,0.9,0.7,1.2,1.2,1.2c0.5,0,1.2-0.3,1.2-1.2V12.5C92.6,11.7,91.9,11.3,91.4,11.3z M86,24.5
		c-3.1,0-4.2-3-4.2-5.5s1.1-5.5,4.2-5.5s4.3,3,4.3,5.5S89.1,24.5,86,24.5z"/>
	<path fill="#30BF69" d="M117.7,18.6c0-3.6-2.4-7.3-6.6-7.3c-4.3,0-6.9,3.6-6.9,7.6c0,4,2.2,7.6,7.1,7.6c3,0,6.2-1.8,6.2-3
		c0-0.7-0.5-1.1-0.9-1.1c-1,0-1.8,2-5.2,2c-2.9,0-4.5-2-4.5-4.5h9.6C117.3,19.9,117.7,19.5,117.7,18.6z M106.7,18.1
		c0.1-2.1,1.1-4.4,3.8-4.6c0.2,0,0.4,0,0.6,0c2.8,0,4.1,2.5,4.1,4.6H106.7z"/>
</g>
</svg>
