<?xml version="1.0" encoding="utf-8"?>
<!-- Generator: Adobe Illustrator 17.1.0, SVG Export Plug-In . SVG Version: 6.00 Build 0)  -->
<!DOCTYPE svg PUBLIC "-//W3C//DTD SVG 1.1//EN" "http://www.w3.org/Graphics/SVG/1.1/DTD/svg11.dtd">
<svg version="1.1" id="Layer_2" xmlns="http://www.w3.org/2000/svg" xmlns:xlink="http://www.w3.org/1999/xlink" x="0px" y="0px"
	 viewBox="0 0 137.8 37.8" enable-background="new 0 0 137.8 37.8" xml:space="preserve">
<g>
	<path fill-rule="evenodd" clip-rule="evenodd" fill="#30BF69" d="M51.6,12c-0.3-0.5-1-1-1.6-1.3c-0.7-0.3-1.5-0.5-2.4-0.5
		c-1.3,0-2.6,0.7-3.5,1.4c-0.1,0.1-0.3,0.2-0.4,0.3c-0.2-0.1-0.4-0.6-1.4-1.2c-0.6-0.3-1.3-0.6-2.1-0.6c-1.8,0-2.8,0.8-3.5,1.7
		c-0.6,0.8-1.3,2.6-1.7,3.6l-1.6,3.7C33.3,19.2,32,16,32,16c-0.1-0.2-1.9-4.6-2.1-4.9c-0.3-0.4-0.8-0.8-1.5-0.8
		c-1.3,0-2.3,1.3-1.7,2.6c0.5,1.1,1,2.1,1.5,3.2c0.7,1.6,1.5,3.2,2.2,4.8c0.4,1,1,2.3,1.9,2.8c0.5,0.3,1.3,0.4,2,0.2
		c1.1-0.4,1.6-1.5,2.1-2.6c0.5-1,1-2.2,1.5-3.2c0.3-0.5,0.5-1.1,0.7-1.6l1.1-2.4c0.1-0.3,0.3-0.6,0.7-0.4c0.3,0.1,0.4,0.4,0.4,0.8
		v5.9c0,1.3-0.3,3,1.1,3.6c0.6,0.3,1.4,0.2,1.9-0.2c0.4-0.3,0.8-0.8,0.8-1.5c0.1-0.5,0-5.1,0-5.9c0-0.4,0-0.8,0-1.1
		c0.3-1.5,1.9-1.9,2.9-1.4c0.5,0.2,0.9,0.7,1,1.4c0.1,0.4,0,4.1,0,4.7c0,0.7,0,1.6,0,2.3c0.1,0.7,0.4,1.3,0.8,1.6
		c0.5,0.3,1.2,0.4,1.9,0.2c1.4-0.6,1.2-2.3,1.2-3.5v-4.7c0-0.8,0.3-1.3,0.7-1.7c0.9-0.7,2.6-0.6,3.2,0.7c0.2,0.6,0.2,1.5,0.2,2.2
		c0,0.8,0,1.6,0,2.4c0,0.8,0,1.6,0,2.4c0,0.9,0.1,1.3,0.5,1.8c0.3,0.4,1,0.7,1.7,0.5c0.7-0.1,1.1-0.5,1.4-1c0.3-0.7,0.2-1.3,0.2-2.1
		v-4.7c0-0.7,0-1.6-0.1-2.3c-0.2-1.4-1-2.3-1.9-2.9C56.9,10,54.7,10,52.9,11C52.1,11.4,51.7,11.9,51.6,12L51.6,12z"/>
	<path fill-rule="evenodd" clip-rule="evenodd" fill="#30BF69" d="M70.8,13.7c0.3,0.7,0.5,1.5,0.8,2.3c0.8,2.2,1.6,4.6,2.4,6.8
		c0.2,0.4,0.2,0.8,0.5,1c0.3,0.2,0.8,0.3,1.2,0.1c0.3-0.2,0.5-0.5,0.6-0.9c0.1-0.4,0.3-0.7,0.4-1.1c0.5-1.5,1.1-3,1.6-4.5
		c0.5-1.5,1.1-3,1.6-4.5c0.1-0.4,0.3-0.8,0.4-1.1c0.3-1-0.9-1.5-1.6-0.9c-0.3,0.3-0.3,0.6-0.5,1c-0.5,1.5-1,3-1.6,4.5
		c0,0-1.5,4.4-1.6,4.5l-2.8-8.1c-0.2-0.5-0.3-0.9-0.5-1.4c-0.2-0.5-0.5-0.8-1.1-0.8c-0.6,0-0.9,0.3-1,0.8l-2.4,6.8
		c-0.1,0.4-0.9,2.4-0.9,2.7l-0.8-2.3c-0.8-2.3-1.5-4.5-2.3-6.8c-0.2-0.4-0.2-0.8-0.5-1c-0.3-0.3-0.8-0.3-1.2-0.1
		c-0.8,0.5-0.3,1.4,0,2.2c0.5,1.5,1.1,3,1.6,4.5l2,5.6c0.1,0.4,0.3,0.7,0.6,0.9c0.4,0.2,0.9,0.1,1.2-0.1c0.3-0.2,0.4-0.6,0.5-1
		c0.3-0.8,0.5-1.5,0.8-2.3c0.3-0.7,0.5-1.5,0.8-2.3l1.4-3.9C70.6,14.1,70.7,13.7,70.8,13.7L70.8,13.7z"/>
	<path fill-rule="evenodd" clip-rule="evenodd" fill="#30BF69" d="M90,17.7c0,1,0.1,2-0.4,2.8c-0.4,0.7-1,1.2-1.7,1.5
		c-1.7,0.8-3.9,0.6-4.9-0.6c-0.5-0.6-0.7-1.6-0.4-2.5c0.3-0.7,0.9-1.2,1.8-1.5c1.2-0.4,3.1-0.3,4.4,0C89.2,17.4,89.6,17.6,90,17.7
		L90,17.7z M90,16.2c-0.2,0-0.5-0.1-0.8-0.2c-2.5-0.6-6.5-0.7-8.1,1.5c-0.5,0.8-0.8,1.8-0.7,3c0.5,3.2,4.7,4.1,7.4,2.9
		c0.5-0.2,0.8-0.4,1.2-0.7c0.5-0.4,0.7-0.8,0.9-1c0.1,0.9-0.2,1.8,0.6,2.1c0.4,0.1,0.8,0,1-0.2c0.3-0.3,0.3-0.5,0.3-1.1
		c0-1.8,0-3.6,0-5.3c0-1.8,0.1-3.2-0.7-4.6c-0.6-1-1.7-1.8-3.3-2.1c-1.5-0.3-3.4-0.1-4.7,0.3c-0.2,0.1-0.7,0.3-0.9,0.4
		c-0.6,0.4-0.3,1.5,0.5,1.5c0.3,0,0.7-0.2,1-0.3c1.3-0.5,3.3-0.5,4.6,0.1C89.7,13.3,90,14.7,90,16.2L90,16.2z"/>
	<path fill-rule="evenodd" clip-rule="evenodd" fill="#30BF69" d="M103.4,16.5c0.2-2.3,1.8-4.4,4.1-4.4c2.6,0,4,2.1,4.1,4.4
		L103.4,16.5L103.4,16.5z M103.4,17.9c0.7,0,1.6,0,2.3,0h4.6c0.8,0,1.6,0,2.3,0c0.4,0,0.6-0.2,0.8-0.4c0.2-0.3,0.2-0.6,0.1-1
		c-0.1-1.3-0.4-2.5-1.1-3.5c-0.2-0.3-0.5-0.7-0.8-1c-0.9-0.9-2.2-1.5-3.6-1.6c-1.5-0.1-2.7,0.3-3.7,0.9c-0.6,0.3-0.8,0.6-1.2,1.1
		c-0.3,0.3-0.7,0.9-0.9,1.4c-0.5,1.1-0.8,2.4-0.8,3.8c0.1,2.8,1.7,4.8,3.6,5.7c2.3,1.1,5.2,0.8,7.1-0.8c0.2-0.2,0.4-0.4,0.6-0.6
		c0.4-0.5,0.2-1.3-0.5-1.4c-0.5-0.1-0.8,0.4-1.5,0.8c-0.8,0.5-1.6,0.8-2.6,0.9c-2,0.1-3.6-0.9-4.4-2.5
		C103.7,19.3,103.4,18.5,103.4,17.9L103.4,17.9z"/>
	<path fill-rule="evenodd" clip-rule="evenodd" fill="#30BF69" d="M94.2,11.5v11.4c0,1.2,1.9,1.4,2-0.1c0-1.4,0-2.8,0-4.2
		c0-1.4,0.2-2.4,0.7-3.5c0.7-1.4,2.1-2.4,3.6-2.6c0.3-0.1,0.6-0.1,0.8-0.3c0.6-0.5,0.5-1.8-0.7-1.8c-1.6,0-3.3,1.2-4.1,2.5l-0.3,0.6
		c0-0.4,0-1.1,0-1.5c0-0.6,0.1-0.9-0.2-1.3c-0.2-0.2-0.7-0.5-1.1-0.3C94.5,10.7,94.2,11,94.2,11.5L94.2,11.5z"/>
</g>
</svg>
