<?xml version="1.0" encoding="utf-8"?>
<!-- Generator: Adobe Illustrator 16.0.0, SVG Export Plug-In . SVG Version: 6.00 Build 0)  -->
<!DOCTYPE svg PUBLIC "-//W3C//DTD SVG 1.1//EN" "http://www.w3.org/Graphics/SVG/1.1/DTD/svg11.dtd">
<svg version="1.1" id="Layer_1" xmlns="http://www.w3.org/2000/svg" xmlns:xlink="http://www.w3.org/1999/xlink" x="0px" y="0px"
	 width="22px" height="55.375px" viewBox="0 0 22 55.375" enable-background="new 0 0 22 55.375" xml:space="preserve">
<g>
	<g>
		<path fill-rule="evenodd" clip-rule="evenodd" fill="#EEEEEE" d="M11,0.375c-5.523,0-10,4.477-10,10s4.477,10,10,10
			c5.523,0,10-4.477,10-10S16.523,0.375,11,0.375z M11,15.375c-2.761,0-5-2.238-5-5s2.239-5,5-5c2.762,0,5,2.238,5,5
			S13.762,15.375,11,15.375z M11,50.375c-2.761,0-5,2.238-5,5h10C16,52.613,13.762,50.375,11,50.375z M11,30.375
			c-2.761,0-5,2.238-5,5s2.239,5,5,5c2.762,0,5-2.238,5-5S13.762,30.375,11,30.375z"/>
	</g>
</g>
</svg>
