<?xml version="1.0" encoding="utf-8"?>
<!-- Generator: Adobe Illustrator 16.0.0, SVG Export Plug-In . SVG Version: 6.00 Build 0)  -->
<!DOCTYPE svg PUBLIC "-//W3C//DTD SVG 1.1//EN" "http://www.w3.org/Graphics/SVG/1.1/DTD/svg11.dtd">
<svg version="1.1" id="Layer_1" xmlns="http://www.w3.org/2000/svg" xmlns:xlink="http://www.w3.org/1999/xlink" x="0px" y="0px"
	 width="80px" height="400px" viewBox="0 0 80 400" enable-background="new 0 0 80 400" xml:space="preserve">
<g>
	<g>
		<path fill-rule="evenodd" clip-rule="evenodd" fill="#EEEEEE" d="M70,380c-5.523,0-10,4.477-10,10s4.477,10,10,10s10-4.477,10-10
			S75.523,380,70,380z M70,395c-2.762,0-5-2.238-5-5s2.238-5,5-5s5,2.238,5,5S72.762,395,70,395z M70,20c5.523,0,10-4.477,10-10
			c0-5.522-4.477-10-10-10S60,4.478,60,10C60,15.523,64.477,20,70,20z M70,5c2.762,0,5,2.239,5,5c0,2.762-2.238,5-5,5s-5-2.238-5-5
			C65,7.239,67.238,5,70,5z M45,5c-2.762,0-5,2.239-5,5c0,2.762,2.238,5,5,5s5-2.238,5-5C50,7.239,47.762,5,45,5z M25,5
			c-2.761,0-5,2.239-5,5c0,2.762,2.239,5,5,5s5-2.238,5-5C30,7.239,27.761,5,25,5z M45,385c-2.762,0-5,2.238-5,5s2.238,5,5,5
			s5-2.238,5-5S47.762,385,45,385z M25,385c-2.761,0-5,2.238-5,5s2.239,5,5,5s5-2.238,5-5S27.761,385,25,385z M5,65
			c-2.761,0-5,2.238-5,5c0,2.761,2.239,5,5,5s5-2.239,5-5C10,67.238,7.761,65,5,65z M5,85c-2.761,0-5,2.239-5,5c0,2.762,2.239,5,5,5
			s5-2.238,5-5C10,87.239,7.761,85,5,85z M5,105c-2.761,0-5,2.239-5,5c0,2.762,2.239,5,5,5s5-2.238,5-5C10,107.239,7.761,105,5,105z
			 M5,125c-2.761,0-5,2.239-5,5c0,2.762,2.239,5,5,5s5-2.238,5-5C10,127.239,7.761,125,5,125z M5,145c-2.761,0-5,2.239-5,5
			c0,2.762,2.239,5,5,5s5-2.238,5-5C10,147.239,7.761,145,5,145z M5,165c-2.761,0-5,2.239-5,5c0,2.762,2.239,5,5,5s5-2.238,5-5
			C10,167.239,7.761,165,5,165z M5,185c-2.761,0-5,2.238-5,5s2.239,5,5,5s5-2.238,5-5S7.761,185,5,185z M5,205c-2.761,0-5,2.238-5,5
			s2.239,5,5,5s5-2.238,5-5S7.761,205,5,205z M5,225c-2.761,0-5,2.238-5,5s2.239,5,5,5s5-2.238,5-5S7.761,225,5,225z M5,245
			c-2.761,0-5,2.238-5,5s2.239,5,5,5s5-2.238,5-5S7.761,245,5,245z M5,265c-2.761,0-5,2.238-5,5s2.239,5,5,5s5-2.238,5-5
			S7.761,265,5,265z M5,285c-2.761,0-5,2.238-5,5s2.239,5,5,5s5-2.238,5-5S7.761,285,5,285z M5,305c-2.761,0-5,2.238-5,5
			s2.239,5,5,5s5-2.238,5-5S7.761,305,5,305z M5,325c-2.761,0-5,2.238-5,5s2.239,5,5,5s5-2.238,5-5S7.761,325,5,325z M5,345
			c-2.761,0-5,2.238-5,5s2.239,5,5,5s5-2.238,5-5S7.761,345,5,345z M5,365c-2.761,0-5,2.238-5,5s2.239,5,5,5s5-2.238,5-5
			S7.761,365,5,365z M5,385c-2.761,0-5,2.238-5,5s2.239,5,5,5s5-2.238,5-5S7.761,385,5,385z M5,5c-2.761,0-5,2.239-5,5
			c0,2.762,2.239,5,5,5s5-2.238,5-5C10,7.239,7.761,5,5,5z M5,25c-2.761,0-5,2.238-5,5s2.239,5,5,5s5-2.238,5-5S7.761,25,5,25z
			 M5,45c-2.761,0-5,2.238-5,5c0,2.761,2.239,5,5,5s5-2.239,5-5C10,47.238,7.761,45,5,45z"/>
	</g>
</g>
</svg>
