<?xml version="1.0" encoding="utf-8"?>
<!-- Generator: Adobe Illustrator 16.0.0, SVG Export Plug-In . SVG Version: 6.00 Build 0)  -->
<!DOCTYPE svg PUBLIC "-//W3C//DTD SVG 1.1//EN" "http://www.w3.org/Graphics/SVG/1.1/DTD/svg11.dtd">
<svg version="1.1" id="Layer_1" xmlns="http://www.w3.org/2000/svg" xmlns:xlink="http://www.w3.org/1999/xlink" x="0px" y="0px"
	 width="80px" height="400px" viewBox="0 0 80 400" enable-background="new 0 0 80 400" xml:space="preserve">
<g>
	<g>
		<path fill-rule="evenodd" clip-rule="evenodd" fill="#EEEEEE" d="M0,390c0,5.523,4.477,10,10,10s10-4.477,10-10s-4.477-10-10-10
			S0,384.477,0,390z M5,390c0-2.762,2.238-5,5-5s5,2.238,5,5s-2.238,5-5,5S5,392.762,5,390z M20,10c0-5.522-4.477-10-10-10
			S0,4.478,0,10c0,5.523,4.477,10,10,10S20,15.523,20,10z M15,10c0,2.762-2.238,5-5,5s-5-2.238-5-5c0-2.761,2.238-5,5-5
			S15,7.239,15,10z M30,10c0,2.762,2.238,5,5,5s5-2.238,5-5c0-2.761-2.238-5-5-5S30,7.239,30,10z M50,10c0,2.762,2.238,5,5,5
			s5-2.238,5-5c0-2.761-2.238-5-5-5S50,7.239,50,10z M30,390c0,2.762,2.238,5,5,5s5-2.238,5-5s-2.238-5-5-5S30,387.238,30,390z
			 M50,390c0,2.762,2.238,5,5,5s5-2.238,5-5s-2.238-5-5-5S50,387.238,50,390z M70,70c0,2.761,2.238,5,5,5s5-2.239,5-5
			c0-2.762-2.238-5-5-5S70,67.238,70,70z M70,90c0,2.762,2.238,5,5,5s5-2.238,5-5c0-2.761-2.238-5-5-5S70,87.239,70,90z M70,110
			c0,2.762,2.238,5,5,5s5-2.238,5-5c0-2.761-2.238-5-5-5S70,107.239,70,110z M70,130c0,2.762,2.238,5,5,5s5-2.238,5-5
			c0-2.761-2.238-5-5-5S70,127.239,70,130z M70,150c0,2.762,2.238,5,5,5s5-2.238,5-5c0-2.761-2.238-5-5-5S70,147.239,70,150z
			 M70,170c0,2.762,2.238,5,5,5s5-2.238,5-5c0-2.761-2.238-5-5-5S70,167.239,70,170z M70,190c0,2.762,2.238,5,5,5s5-2.238,5-5
			s-2.238-5-5-5S70,187.238,70,190z M70,210c0,2.762,2.238,5,5,5s5-2.238,5-5s-2.238-5-5-5S70,207.238,70,210z M70,230
			c0,2.762,2.238,5,5,5s5-2.238,5-5s-2.238-5-5-5S70,227.238,70,230z M70,250c0,2.762,2.238,5,5,5s5-2.238,5-5s-2.238-5-5-5
			S70,247.238,70,250z M70,270c0,2.762,2.238,5,5,5s5-2.238,5-5s-2.238-5-5-5S70,267.238,70,270z M70,290c0,2.762,2.238,5,5,5
			s5-2.238,5-5s-2.238-5-5-5S70,287.238,70,290z M70,310c0,2.762,2.238,5,5,5s5-2.238,5-5s-2.238-5-5-5S70,307.238,70,310z M70,330
			c0,2.762,2.238,5,5,5s5-2.238,5-5s-2.238-5-5-5S70,327.238,70,330z M70,350c0,2.762,2.238,5,5,5s5-2.238,5-5s-2.238-5-5-5
			S70,347.238,70,350z M70,370c0,2.762,2.238,5,5,5s5-2.238,5-5s-2.238-5-5-5S70,367.238,70,370z M70,390c0,2.762,2.238,5,5,5
			s5-2.238,5-5s-2.238-5-5-5S70,387.238,70,390z M70,10c0,2.762,2.238,5,5,5s5-2.238,5-5c0-2.761-2.238-5-5-5S70,7.239,70,10z
			 M70,30c0,2.762,2.238,5,5,5s5-2.238,5-5s-2.238-5-5-5S70,27.238,70,30z M70,50c0,2.761,2.238,5,5,5s5-2.239,5-5
			c0-2.762-2.238-5-5-5S70,47.238,70,50z"/>
	</g>
</g>
</svg>
