<?xml version="1.0" encoding="utf-8"?>
<!-- Generator: Adobe Illustrator 16.0.0, SVG Export Plug-In . SVG Version: 6.00 Build 0)  -->
<!DOCTYPE svg PUBLIC "-//W3C//DTD SVG 1.1//EN" "http://www.w3.org/Graphics/SVG/1.1/DTD/svg11.dtd">
<svg version="1.1" id="Layer_1" xmlns="http://www.w3.org/2000/svg" xmlns:xlink="http://www.w3.org/1999/xlink" x="0px" y="0px"
	 width="22px" height="55.375px" viewBox="0 0 22 55.375" enable-background="new 0 0 22 55.375" xml:space="preserve">
<g>
	<g>
		<path fill-rule="evenodd" clip-rule="evenodd" fill="#EEEEEE" d="M11,35C5.477,35,1,39.477,1,45s4.477,10,10,10
			c5.522,0,10-4.477,10-10S16.522,35,11,35z M11,50c-2.761,0-5-2.238-5-5s2.239-5,5-5c2.762,0,5,2.238,5,5S13.762,50,11,50z M11,5
			c2.762,0,5-2.239,5-5H6C6,2.761,8.239,5,11,5z M11,25c2.762,0,5-2.238,5-5c0-2.761-2.238-5-5-5c-2.761,0-5,2.239-5,5
			C6,22.762,8.239,25,11,25z"/>
	</g>
</g>
</svg>
