<?xml version="1.0" encoding="utf-8"?>
<!-- Generator: Adobe Illustrator 17.1.0, SVG Export Plug-In . SVG Version: 6.00 Build 0)  -->
<!DOCTYPE svg PUBLIC "-//W3C//DTD SVG 1.1//EN" "http://www.w3.org/Graphics/SVG/1.1/DTD/svg11.dtd">
<svg version="1.1" id="Layer_2" xmlns="http://www.w3.org/2000/svg" xmlns:xlink="http://www.w3.org/1999/xlink" x="0px" y="0px"
	 viewBox="0 0 137.8 37.8" enable-background="new 0 0 137.8 37.8" xml:space="preserve">
<g>
	<g>
		<path fill="#FFFFFF" d="M117.6,7.6L117.6,7.6L117.6,7.6c0,0-0.2,0-0.3,0c-0.7,0-1.5,0.4-1.5,1.5c-0.4,5.5-0.9,10.9-1.6,16.2l0,0
			c0,0,0,0,0,0h0c0.4-0.1,0.8,0,1.1,0.2l0,0v0c0,0,0,0,0,0l0,0c0.8-5.3,2.9-13.2,3.4-15.5c0.1-0.3,0.2-0.7,0.2-1
			C118.9,8.2,118.4,7.8,117.6,7.6z M64.5,9.8c0.1,2.8,0.2,5.6,0.2,8.5c-3.4,0.1-6.8,0.1-10.2,0c0-2.8,0.1-5.6,0.2-8.5
			c-1,0.2-2,0.2-3.1,0c0.3,6.1,0.2,12.1,0,18.1c1-0.2,2-0.2,3,0l0,0l0,0c-0.2-2.8-0.2-5.6-0.2-8.4c3.4,0,6.8,0,10.2,0
			c0,2.8-0.1,5.6-0.2,8.4l0,0l0,0c1-0.2,2.1-0.2,3,0c-0.2-6-0.3-12.1,0-18.1C66.6,10,65.5,10,64.5,9.8z M37.2,7.4
			C37.2,7.4,37.2,7.4,37.2,7.4L37.2,7.4c-1.1,0.2-2.1,0.3-3.1,0C33.3,9,30.1,14.2,28,17.5c-2.1-3.4-4.5-7.3-6.1-10.1l-1.1,0.7l0,0
			l1.1-0.7c-1.3,0.3-1.8,0.3-3.1,0c2.5,3.7,6.5,10.9,7.9,13.2l-0.2,9.7c0,0,0.9-0.1,1.5-0.1c0.7,0,1.5,0.1,1.5,0.1l-0.2-9.7
			C31.9,16.1,36.1,8.9,37.2,7.4z M50.6,27.9L50.6,27.9L50.6,27.9C50.6,27.9,50.6,27.9,50.6,27.9z M42.8,9.8L42.8,9.8L42.8,9.8
			c-0.8,0.3-1.4,0.2-2.1,0l0,0c-2.5,6.1-5.3,13-7.8,18.2l0,0l0,0c1.2-0.3,2.3-0.2,3,0h0h0c0,0,0,0,0,0c0.6-1.6,1.4-3.5,2.1-5.3l0,0
			c2.5-0.1,5-0.1,7.5,0l0,0c0.7,1.8,1.4,3.5,2.1,5.3v0l0,0c1.1-0.3,2.2-0.2,3,0l0,0c0,0,0,0,0,0l0,0C48.8,24.5,45.1,15.7,42.8,9.8z
			 M44.9,21.4c-2.2,0.1-4.3,0.1-6.5,0l0,0c1.3-3.3,2.6-6.5,3.2-8.4C42.7,15.7,43.8,18.5,44.9,21.4L44.9,21.4z M78.3,9.6
			c-6.5,0-9.9,4.1-9.9,9.3c0,5.8,3.7,9.3,9.9,9.3c6.7,0,9.9-4,9.9-9.2C88.2,13.1,84.4,9.6,78.3,9.6z M78.4,27.2
			c-4.3,0-6.9-3.1-6.9-8.2c0-5.8,3.1-8.2,6.7-8.3c0.1,0,0.1,0,0.2,0c4,0,6.9,2.7,6.9,8.3C85.2,24.5,82.3,27.2,78.4,27.2z M100.7,8.5
			c-6.4,0-11.4,3.6-11.4,10.4c0,5.6,3.3,10.5,11.4,10.5c6.9,0,11.4-3.8,11.4-10.4C112.2,12.7,108,8.5,100.7,8.5z M100.7,28.2
			c-4.4,0-8.3-2.5-8.3-9.4c0-7.1,4.4-9.2,8.3-9.2c4.8,0,8.4,2.9,8.4,9.3C109.1,25.9,104.8,28.2,100.7,28.2z M114.1,27.5
			c-1,0-1.4,0.7-1.4,1.5c0,0.9,0.7,1.4,1.7,1.4c0.7,0,1.4-0.4,1.4-1.5C115.7,28,115,27.5,114.1,27.5z M32.8,27.9L32.8,27.9
			C32.8,27.9,32.8,27.9,32.8,27.9L32.8,27.9z"/>
	</g>
</g>
</svg>
