<?xml version="1.0" encoding="utf-8"?>
<!-- Generator: Adobe Illustrator 16.0.0, SVG Export Plug-In . SVG Version: 6.00 Build 0)  -->
<!DOCTYPE svg PUBLIC "-//W3C//DTD SVG 1.1//EN" "http://www.w3.org/Graphics/SVG/1.1/DTD/svg11.dtd">
<svg version="1.1" id="Layer_2" xmlns="http://www.w3.org/2000/svg" xmlns:xlink="http://www.w3.org/1999/xlink" x="0px" y="0px"
	 width="137.75px" height="37.75px" viewBox="0 0 137.75 37.75" enable-background="new 0 0 137.75 37.75" xml:space="preserve">
<g>
	<g>
		<path fill="#30BF69" d="M117.596,7.641l-0.001,0.002L117.596,7.641c-0.001,0.001-0.19-0.026-0.318-0.026
			c-0.733,0-1.459,0.427-1.459,1.515c-0.436,5.462-0.888,10.94-1.633,16.153l-0.002,0.002c0.001,0,0.001,0,0.002,0h0.001
			c0.449-0.077,0.797,0.038,1.137,0.172l0.002,0.002v-0.001c0.001,0,0.002,0.001,0.003,0.001l-0.002-0.004
			c0.845-5.294,2.852-13.222,3.365-15.466c0.073-0.315,0.184-0.689,0.184-0.954C118.875,8.233,118.362,7.768,117.596,7.641z
			 M64.533,9.796c0.148,2.821,0.222,5.644,0.232,8.47c-3.413,0.078-6.821,0.085-10.227,0c0.011-2.826,0.084-5.649,0.232-8.47
			c-1,0.239-2.017,0.246-3.052,0c0.266,6.06,0.243,12.108,0,18.148c0.991-0.236,2.006-0.246,3.048,0l-0.006-0.003l0.01,0.003
			c-0.15-2.816-0.222-5.63-0.231-8.441c3.409-0.047,6.817-0.049,10.226-0.003c-0.01,2.812-0.082,5.627-0.232,8.444l0.011-0.004
			l-0.007,0.004c1.042-0.246,2.057-0.236,3.048,0c-0.243-6.04-0.266-12.089,0-18.148C66.55,10.042,65.533,10.035,64.533,9.796z
			 M37.214,7.376c0,0-0.001,0-0.002,0.001L37.214,7.376c-1.101,0.247-2.092,0.256-3.077,0c-0.868,1.602-4.068,6.784-6.104,10.103
			c-2.066-3.391-4.512-7.305-6.105-10.103l-1.069,0.691h0l1.07-0.691c-1.263,0.268-1.792,0.284-3.052,0
			c2.502,3.736,6.511,10.852,7.875,13.188l-0.183,9.74c0,0,0.88-0.146,1.468-0.146c0.652,0,1.462,0.146,1.462,0.146l-0.183-9.74
			C31.859,16.139,36.06,8.92,37.214,7.376z M50.619,27.939L50.619,27.939l0.002,0.001C50.621,27.94,50.62,27.94,50.619,27.939z
			 M42.759,9.79l-0.003,0.001L42.759,9.79c-0.76,0.263-1.379,0.247-2.126,0l-0.002-0.001c-2.458,6.112-5.29,13.011-7.837,18.156
			l0.018-0.006l-0.011,0.005c1.165-0.287,2.276-0.2,3.012-0.003h0.001c0,0,0.001,0,0.001,0c0,0,0,0-0.001-0.001
			c0.649-1.626,1.389-3.469,2.128-5.321l0.003,0.002c2.503-0.07,5.006-0.08,7.509,0h0c0.712,1.773,1.425,3.549,2.121,5.325v0.001
			c0,0,0,0,0,0c1.112-0.288,2.219-0.209,3.039-0.007l0.004,0.001c0,0,0,0,0-0.001h0C48.783,24.542,45.1,15.659,42.759,9.79z
			 M44.942,21.354c-2.165,0.074-4.329,0.075-6.494,0l-0.002,0.001c1.325-3.332,2.583-6.545,3.248-8.438
			c1.012,2.796,2.125,5.614,3.256,8.439L44.942,21.354z M78.339,9.551c-6.476,0-9.873,4.068-9.873,9.342
			c0,5.774,3.708,9.294,9.863,9.294c6.653,0,9.903-3.967,9.903-9.232C88.232,13.084,84.352,9.551,78.339,9.551z M78.357,27.159
			c-4.316,0-6.853-3.066-6.853-8.235c0-5.847,3.125-8.2,6.675-8.272c0.057-0.002,0.113,0,0.17,0c3.96,0,6.868,2.673,6.868,8.257
			C85.218,24.487,82.313,27.159,78.357,27.159z M100.693,8.458c-6.449,0-11.378,3.629-11.378,10.375
			c0,5.559,3.278,10.451,11.432,10.451c6.901,0,11.407-3.76,11.407-10.353C112.154,12.715,107.951,8.458,100.693,8.458z
			 M100.709,28.187c-4.367,0-8.345-2.539-8.345-9.394c0-7.104,4.409-9.206,8.337-9.206c4.842,0,8.409,2.915,8.409,9.345
			C109.11,25.921,104.796,28.187,100.709,28.187z M114.092,27.476c-0.96,0-1.439,0.727-1.439,1.508c0,0.92,0.742,1.391,1.659,1.391
			c0.663,0,1.388-0.398,1.388-1.482C115.699,28.021,115.012,27.476,114.092,27.476z M32.793,27.946l0.007-0.003
			c-0.002,0-0.004,0-0.007,0.001L32.793,27.946z"/>
	</g>
</g>
</svg>
