<?xml version="1.0" encoding="utf-8"?>
<!-- Generator: Adobe Illustrator 16.0.0, SVG Export Plug-In . SVG Version: 6.00 Build 0)  -->
<!DOCTYPE svg PUBLIC "-//W3C//DTD SVG 1.1//EN" "http://www.w3.org/Graphics/SVG/1.1/DTD/svg11.dtd">
<svg version="1.1" id="Codegolf" xmlns="http://www.w3.org/2000/svg" xmlns:xlink="http://www.w3.org/1999/xlink" x="0px" y="0px"
	 width="200px" height="200px" viewBox="0 0 200 200" enable-background="new 0 0 200 200" xml:space="preserve">
<line fill="#FFFFFF" stroke="#23C18A" stroke-width="3" stroke-linecap="round" stroke-miterlimit="10" x1="101.406" y1="153.333" x2="101.406" y2="28.061"/>
<polygon fill="none" stroke="#23C18A" stroke-width="3" stroke-linecap="round" stroke-miterlimit="10" points="101.406,32.846 
	147.785,44.844 101.406,60.139 "/>
<path fill="none" stroke="#23C18A" stroke-width="3" stroke-linecap="round" stroke-miterlimit="10" d="M107.795,149.057
	c4.853,0.975,8.181,2.979,8.181,5.293c0,3.272-6.652,5.925-14.86,5.925c-8.207,0-14.86-2.652-14.86-5.925
	c0-2.438,3.694-4.532,8.972-5.442"/>
<path fill="none" stroke="#23C18A" stroke-width="3" stroke-linecap="round" stroke-miterlimit="10" d="M8.312,160.274
	c8.596-8.596,42.396-20.688,92.804-20.688s83.188,11.655,92.221,20.688c9.032,9.033-24.621,16.608-92.221,16.608
	C33.516,176.883-0.284,168.87,8.312,160.274z"/>
<circle fill="none" stroke="#23C18A" stroke-width="3" stroke-miterlimit="10" cx="132.188" cy="158.312" r="3.188"/>
</svg>
