<?xml version="1.0" encoding="utf-8"?>
<!-- Generator: Adobe Illustrator 17.1.0, SVG Export Plug-In . SVG Version: 6.00 Build 0)  -->
<!DOCTYPE svg PUBLIC "-//W3C//DTD SVG 1.1//EN" "http://www.w3.org/Graphics/SVG/1.1/DTD/svg11.dtd">
<svg version="1.1" xmlns="http://www.w3.org/2000/svg" xmlns:xlink="http://www.w3.org/1999/xlink" x="0px" y="0px"
	 viewBox="0 0 102 78" enable-background="new 0 0 102 78" xml:space="preserve">
<g id="Layer_1" display="none">
	<g display="inline">
		
			<path fill="none" stroke="#979FAF" stroke-width="1.579" stroke-linecap="round" stroke-linejoin="round" stroke-miterlimit="10" stroke-opacity="0.25" d="
			M44.6,50.2l2.4-1.1l-0.1-1.5L44.3,47c-0.2-1.3-0.6-2.5-1.1-3.7l1.9-2L44.4,40l-2.8,0.4c-0.6-0.9-1.3-1.8-2.1-2.5l1.2-3l-1.2-1
			l-2.8,1.7c-1-0.7-2.1-1.3-3.3-1.8l0-3.1l-1.5-0.5l-1.8,2.5c-1.1-0.2-2.2-0.3-3.4-0.3l-1.3-2.9l-0.2,0l-1.4,0.1l-0.2,0L23,33
			c-1,0.2-2,0.5-3,0.9l-2.4-2.3l-1.4,0.7l0.5,3.3c-0.9,0.6-1.7,1.3-2.5,2l-3.1-1.2l-1,1.2l1.7,2.8c-0.6,0.9-1.1,1.8-1.6,2.8
			l-3.3,0.1l-0.5,1.5l2.7,1.9c-0.2,1.1-0.4,2.2-0.4,3.3l-3,1.3L6,52.7l3.1,0.7c0.2,1.1,0.5,2.2,0.9,3.3L7.9,59l0.7,1.4l3-0.5
			C12.3,61,13.1,62,14,63l-1,2.4l1.2,1l2.2-1.4c0.9,0.7,2,1.2,3,1.7l0,2.8L21,70l1.6-2.2c1.2,0.3,2.4,0.4,3.6,0.5l1.1,2.5l0.2,0
			l1.4-0.1l0.2,0l0.6-2.6c1.3-0.2,2.6-0.6,3.8-1.1l1.9,1.8l1.4-0.7l-0.4-2.5c1.1-0.7,2.2-1.5,3.1-2.5l2.4,0.9l1-1.2l-1.3-2.2
			c0.8-1.1,1.4-2.3,1.9-3.5l2.6,0l0.5-1.5l-2.1-1.5C44.5,52.9,44.6,51.6,44.6,50.2z M26.5,59c-4.8,0-8.7-3.9-8.7-8.7
			c0-4.8,3.9-8.7,8.7-8.7c4.8,0,8.7,3.9,8.7,8.7C35.2,55.1,31.3,59,26.5,59z"/>
		<g>
			
				<path fill="#0AD264" stroke="#39424E" stroke-width="1.579" stroke-linecap="round" stroke-linejoin="round" stroke-miterlimit="10" d="
				M43.2,49.4l2.4-1.1l-0.1-1.5l-2.6-0.6c-0.2-1.3-0.6-2.5-1.1-3.7l1.9-2L43,39.2l-2.8,0.4c-0.6-0.9-1.3-1.8-2.1-2.5l1.2-3l-1.2-1
				l-2.8,1.7c-1-0.7-2.1-1.3-3.3-1.8l0-3.1l-1.5-0.5l-1.8,2.5c-1.1-0.2-2.2-0.3-3.4-0.3l-1.3-2.9l-0.2,0l-1.4,0.1l-0.2,0l-0.8,3.2
				c-1,0.2-2,0.5-3,0.9l-2.4-2.3l-1.4,0.7l0.5,3.3c-0.9,0.6-1.7,1.3-2.5,2l-3.1-1.2l-1,1.2l1.7,2.8C10,40.4,9.5,41.4,9,42.4
				l-3.3,0.1l-0.5,1.5l2.7,1.9c-0.2,1.1-0.4,2.2-0.4,3.3l-3,1.3l0.1,1.5l3.1,0.7c0.2,1.1,0.5,2.2,0.9,3.3l-2.2,2.2l0.7,1.3l3-0.5
				c0.7,1.1,1.5,2.2,2.4,3.1l-1,2.4l1.2,1l2.2-1.4c0.9,0.7,2,1.2,3,1.7l0,2.8l1.5,0.5l1.6-2.2c1.2,0.3,2.4,0.4,3.6,0.5l1.1,2.5
				l0.2,0l1.4-0.1l0.2,0l0.6-2.6c1.3-0.2,2.6-0.6,3.8-1.1l1.9,1.8l1.4-0.7l-0.4-2.5C36,64,37,63.2,38,62.2l2.4,0.9l1-1.2L40,59.8
				c0.8-1.1,1.4-2.3,1.9-3.5l2.6,0l0.5-1.5l-2.1-1.5C43.1,52,43.2,50.7,43.2,49.4z M25.2,58.1c-4.8,0-8.7-3.9-8.7-8.7
				c0-4.8,3.9-8.7,8.7-8.7c4.8,0,8.7,3.9,8.7,8.7C33.9,54.2,30,58.1,25.2,58.1z"/>
			<path opacity="0.6" fill="#47B86C" d="M38.1,62.4l2.5,1l1-1.2L40.1,60c0.7-1.1,1.3-2.2,1.8-3.4l2.8,0l0.5-1.5l-2.3-1.7
				c0.2-1.1,0.3-2.2,0.3-3.3l3-1.3L46,47.3l-3.2-0.8c-0.2-1.2-0.6-2.4-1.1-3.6l2.1-2.2l-0.7-1.4l-3.1,0.5c-0.6-0.9-1.4-1.8-2.2-2.6
				l0.2-0.6l-6.8,6.8c0,0,0,0,0,0c3.4,3.4,3.4,8.9,0,12.3c-3.4,3.4-8.9,3.4-12.3,0c0,0,0,0,0,0l-6.9,6.9l-0.8,2l0.1,0.1l1,0.9
				l0.1,0.1l2.3-1.4c1.1,0.8,2.2,1.4,3.4,1.9l0,2.6l1.5,0.5l1.5-2.1c1.3,0.3,2.6,0.5,4,0.5l1,2.3l1.5-0.1l0.6-2.5
				c1.3-0.2,2.6-0.6,3.8-1.1l1.8,1.8l1.3-0.7L35,64.9C36.1,64.2,37.1,63.4,38.1,62.4z"/>
			
				<path fill="none" stroke="#39424E" stroke-width="1.579" stroke-linecap="round" stroke-linejoin="round" stroke-miterlimit="10" d="
				M43.2,49.4l2.4-1.1l-0.1-1.5l-2.6-0.6c-0.2-1.3-0.6-2.5-1.1-3.7l1.9-2L43,39.2l-2.8,0.4c-0.6-0.9-1.3-1.8-2.1-2.5l1.2-3l-1.2-1
				l-2.8,1.7c-1-0.7-2.1-1.3-3.3-1.8l0-3.1l-1.5-0.5l-1.8,2.5c-1.1-0.2-2.2-0.3-3.4-0.3l-1.3-2.9l-0.2,0l-1.4,0.1l-0.2,0l-0.8,3.2
				c-1,0.2-2,0.5-3,0.9l-2.4-2.3l-1.4,0.7l0.5,3.3c-0.9,0.6-1.7,1.3-2.5,2l-3.1-1.2l-1,1.2l1.7,2.8C10,40.4,9.5,41.4,9,42.4
				l-3.3,0.1l-0.5,1.5l2.7,1.9c-0.2,1.1-0.4,2.2-0.4,3.3l-3,1.3l0.1,1.5l3.1,0.7c0.2,1.1,0.5,2.2,0.9,3.3l-2.2,2.2l0.7,1.3l3-0.5
				c0.7,1.1,1.5,2.2,2.4,3.1l-1,2.4l1.2,1l2.2-1.4c0.9,0.7,2,1.2,3,1.7l0,2.8l1.5,0.5l1.6-2.2c1.2,0.3,2.4,0.4,3.6,0.5l1.1,2.5
				l0.2,0l1.4-0.1l0.2,0l0.6-2.6c1.3-0.2,2.6-0.6,3.8-1.1l1.9,1.8l1.4-0.7l-0.4-2.5C36,64,37,63.2,38,62.2l2.4,0.9l1-1.2L40,59.8
				c0.8-1.1,1.4-2.3,1.9-3.5l2.6,0l0.5-1.5l-2.1-1.5C43.1,52,43.2,50.7,43.2,49.4z M25.2,58.1c-4.8,0-8.7-3.9-8.7-8.7
				c0-4.8,3.9-8.7,8.7-8.7c4.8,0,8.7,3.9,8.7,8.7C33.9,54.2,30,58.1,25.2,58.1z"/>
			<g>
				<path opacity="0.4" fill="none" stroke="#FFF8CB" stroke-linecap="round" stroke-linejoin="round" stroke-miterlimit="10" d="
					M11.6,55.7c0.4,0.8,0.8,1.6,1.3,2.4"/>
				<path opacity="0.4" fill="none" stroke="#FFF8CB" stroke-linecap="round" stroke-linejoin="round" stroke-miterlimit="10" d="
					M18.7,36.1c-0.7,0.3-1.3,0.7-2,1.1c-4.8,3.3-7.1,8.9-6.4,14.3"/>
				<path opacity="0.4" fill="none" stroke="#FFF8CB" stroke-linecap="round" stroke-linejoin="round" stroke-miterlimit="10" d="
					M33.5,36.9C30,34.7,25.5,34,21.6,35"/>
			</g>
		</g>
		<g>
			
				<path fill="none" stroke="#979FAF" stroke-width="1.579" stroke-linecap="round" stroke-linejoin="round" stroke-miterlimit="10" stroke-opacity="0.25" d="
				M94.1,37.7l3.3-1l0-2l-3.3-1.2c-0.1-1.7-0.4-3.3-0.9-4.8l2.7-2.3l-0.7-1.8l-3.6,0.2c-0.7-1.3-1.4-2.4-2.3-3.6l2-3.7L90,16.1
				l-3.8,1.8c-1.2-1-2.6-2-4-2.7l0.4-3.9l-1.8-0.8l-2.7,3c-1.4-0.4-2.8-0.7-4.3-0.9l-1.2-3.9l-0.2,0l-1.8,0l-0.2,0l-1.4,4
				c-1.4,0.1-2.7,0.4-4,0.7l-2.7-3.3l-1.8,0.7l0.2,4.3c-1.2,0.6-2.4,1.4-3.5,2.2l-3.8-2L52,16.5l1.8,3.9c-0.9,1.1-1.7,2.2-2.4,3.4
				l-4.2-0.4l-0.8,1.8l3.1,2.9c-0.4,1.3-0.8,2.7-1,4.1l-4,1.2l-0.1,2l3.9,1.4c0.1,1.5,0.3,2.9,0.7,4.3l-3.1,2.6l0.7,1.8l3.9-0.2
				c0.7,1.5,1.6,3,2.7,4.3l-1.6,3L53,54l3-1.4c1.1,1,2.3,1.9,3.6,2.6l-0.3,3.6l1.8,0.8l2.4-2.6c1.5,0.5,3,0.9,4.6,1.1l1,3.3l0.2,0
				l1.8,0l0.2,0l1.2-3.2c1.7-0.1,3.4-0.4,5-0.8l2.1,2.6l1.8-0.7l-0.2-3.3c1.6-0.7,3-1.7,4.4-2.7l2.9,1.5l1.4-1.4l-1.4-3
				c1.1-1.3,2.1-2.7,3-4.2l3.3,0.3l0.8-1.8l-2.5-2.2C93.6,41,94,39.4,94.1,37.7z M69.8,46.3c-6.2-0.7-10.6-6.2-9.9-12.4
				c0.7-6.2,6.2-10.6,12.4-9.9c6.2,0.7,10.6,6.2,9.9,12.4C81.5,42.5,75.9,46.9,69.8,46.3z"/>
			<g>
				
					<path fill="#0AD264" stroke="#39424E" stroke-width="1.579" stroke-linecap="round" stroke-linejoin="round" stroke-miterlimit="10" d="
					M93.5,36.4l3.3-1l0-2l-3.3-1.2c-0.1-1.7-0.4-3.3-0.9-4.8l2.7-2.3l-0.7-1.8l-3.6,0.2c-0.7-1.3-1.4-2.4-2.3-3.6l2-3.7l-1.3-1.4
					l-3.8,1.8c-1.2-1-2.6-2-4-2.7L82,9.9l-1.8-0.8l-2.7,3c-1.4-0.4-2.8-0.7-4.3-0.9L72,7.3l-0.2,0l-1.8,0l-0.2,0l-1.4,4
					c-1.4,0.1-2.7,0.4-4,0.7l-2.7-3.3l-1.8,0.7l0.2,4.3c-1.2,0.6-2.4,1.4-3.5,2.2l-3.8-2l-1.4,1.3l1.8,3.9c-0.9,1.1-1.7,2.2-2.4,3.4
					l-4.2-0.4l-0.8,1.8l3.1,2.9c-0.4,1.3-0.8,2.7-1,4.1l-4,1.2l-0.1,2l3.9,1.4c0.1,1.5,0.3,2.9,0.7,4.3l-3.1,2.6l0.7,1.8l3.9-0.2
					c0.7,1.5,1.6,3,2.7,4.3l-1.6,3l1.4,1.4l3-1.4c1.1,1,2.3,1.9,3.6,2.6l-0.4,3.6l1.8,0.8l2.4-2.6c1.5,0.5,3,0.9,4.6,1.1l1,3.3
					l0.2,0l1.8,0l0.2,0l1.2-3.2c1.7-0.1,3.4-0.4,5-0.8l2.1,2.6l1.8-0.7l-0.2-3.3c1.6-0.7,3-1.7,4.4-2.7l2.9,1.5l1.4-1.4l-1.4-3
					c1.1-1.3,2.1-2.7,3-4.2l3.3,0.3l0.8-1.8l-2.5-2.3C93,39.8,93.4,38.1,93.5,36.4z M69.2,45c-6.2-0.7-10.6-6.2-9.9-12.4
					c0.7-6.2,6.2-10.6,12.4-9.9c6.2,0.7,10.6,6.2,9.9,12.4C80.9,41.3,75.3,45.7,69.2,45z"/>
				<path opacity="0.7" fill="#47B86C" d="M78.2,25.6c0.3,0.3,0.5,0.6,0.8,0.9c3.9,4.8,3.1,11.9-1.8,15.8
					c-4.5,3.6-10.9,3.2-14.9-0.8L51.5,52.4l0.2,0.2l0.1,0.1l3.8-1.8c1.1,0.9,2.2,1.6,3.3,2.3l-0.4,4.2l1.8,0.8l2.9-3.2
					c1.3,0.4,2.7,0.7,4.1,0.9l1.3,4.1l2,0.1l1.5-4c1.4-0.1,2.8-0.3,4.1-0.7l2.7,3.3l1.8-0.7l-0.2-4.2c1.3-0.6,2.5-1.4,3.6-2.2l3.7,2
					l1.4-1.4l-1.7-3.7c1-1.1,1.8-2.3,2.6-3.5l4,0.4l0.8-1.8l-2.9-2.7c0.6-1.6,1-3.3,1.2-5l3.2-1l0.1-2l-3.2-1.1
					c-0.1-1.5-0.3-3-0.7-4.4l2.8-2.3l-0.7-1.8L91,23.4c-0.7-1.4-1.5-2.8-2.4-4l1.6-3.1l-0.1-0.1L89,14.9L78.2,25.6z"/>
				
					<path fill="none" stroke="#39424E" stroke-width="1.579" stroke-linecap="round" stroke-linejoin="round" stroke-miterlimit="10" d="
					M93.5,36.4l3.3-1l0-2l-3.3-1.2c-0.1-1.7-0.4-3.3-0.9-4.8l2.7-2.3l-0.7-1.8l-3.6,0.2c-0.7-1.3-1.4-2.4-2.3-3.6l2-3.7l-1.3-1.4
					l-3.8,1.8c-1.2-1-2.6-2-4-2.7L82,9.9l-1.8-0.8l-2.7,3c-1.4-0.4-2.8-0.7-4.3-0.9L72,7.3l-0.2,0l-1.8,0l-0.2,0l-1.4,4
					c-1.4,0.1-2.7,0.4-4,0.7l-2.7-3.3l-1.8,0.7l0.2,4.3c-1.2,0.6-2.4,1.4-3.5,2.2l-3.8-2l-1.4,1.3l1.8,3.9c-0.9,1.1-1.7,2.2-2.4,3.4
					l-4.2-0.4l-0.8,1.8l3.1,2.9c-0.4,1.3-0.8,2.7-1,4.1l-4,1.2l-0.1,2l3.9,1.4c0.1,1.5,0.3,2.9,0.7,4.3l-3.1,2.6l0.7,1.8l3.9-0.2
					c0.7,1.5,1.6,3,2.7,4.3l-1.6,3l1.4,1.4l3-1.4c1.1,1,2.3,1.9,3.6,2.6l-0.4,3.6l1.8,0.8l2.4-2.6c1.5,0.5,3,0.9,4.6,1.1l1,3.3
					l0.2,0l1.8,0l0.2,0l1.2-3.2c1.7-0.1,3.4-0.4,5-0.8l2.1,2.6l1.8-0.7l-0.2-3.3c1.6-0.7,3-1.7,4.4-2.7l2.9,1.5l1.4-1.4l-1.4-3
					c1.1-1.3,2.1-2.7,3-4.2l3.3,0.3l0.8-1.8l-2.5-2.3C93,39.8,93.4,38.1,93.5,36.4z M69.2,45c-6.2-0.7-10.6-6.2-9.9-12.4
					c0.7-6.2,6.2-10.6,12.4-9.9c6.2,0.7,10.6,6.2,9.9,12.4C80.9,41.3,75.3,45.7,69.2,45z"/>
				<g>
					<path opacity="0.4" fill="none" stroke="#FFF8CB" stroke-linecap="round" stroke-linejoin="round" stroke-miterlimit="10" d="
						M57.5,18.5c1.1-1,2.3-1.8,3.6-2.5"/>
					<path opacity="0.4" fill="none" stroke="#FFF8CB" stroke-linecap="round" stroke-linejoin="round" stroke-miterlimit="10" d="
						M55.2,20.9c0.2-0.3,0.5-0.5,0.7-0.8"/>
					<path opacity="0.4" fill="none" stroke="#FFF8CB" stroke-linecap="round" stroke-linejoin="round" stroke-miterlimit="10" d="
						M52.7,42.7c-1.3-2.7-2.1-5.8-2.1-9c0-4,1.2-7.8,3.2-10.9"/>
					<path opacity="0.4" fill="none" stroke="#FFF8CB" stroke-linecap="round" stroke-linejoin="round" stroke-miterlimit="10" d="
						M65.2,14.5c1.5-0.4,3.1-0.6,4.8-0.6c3.5,0,6.9,1,9.7,2.6"/>
				</g>
			</g>
		</g>
	</g>
</g>
<g id="Layer_6" display="none">
	<g display="inline">
		<g>
			<g>
				<g opacity="0.15">
					<path fill="#3E96DA" d="M57.1,17.8L36.4,29.2L15.6,17.8L36.4,6.4L57.1,17.8z M68.2,44.2H4.6v13h63.6V44.2z M93.6,34.2
						c-1.6,0-2.8,1.3-2.8,2.8s1.3,2.8,2.8,2.8s2.8-1.3,2.8-2.8S95.1,34.2,93.6,34.2z M93.6,70.6H36.4 M57.1,17.8h36.4 M93.6,39.8
						v30.8 M93.6,17.8v16.4 M36.4,34.4v9.8 M36.4,62.5v8.1"/>
				</g>
				
					<path fill="none" stroke="#39424E" stroke-width="1.5411" stroke-linecap="round" stroke-linejoin="round" stroke-miterlimit="10" d="
					M57.1,17.8L36.4,29.2L15.6,17.8L36.4,6.4L57.1,17.8z M68.2,44.2H4.6v13h63.6V44.2z M93.6,34.2c-1.6,0-2.8,1.3-2.8,2.8
					s1.3,2.8,2.8,2.8s2.8-1.3,2.8-2.8S95.1,34.2,93.6,34.2z M93.6,70.6H36.4 M57.1,17.8h36.4 M93.6,39.8v30.8 M93.6,17.8v16.4
					 M36.4,34.4v9.8 M36.4,62.5v8.1"/>
			</g>
			
				<path fill="none" stroke="#979FAF" stroke-width="1.579" stroke-linecap="round" stroke-linejoin="round" stroke-miterlimit="10" stroke-opacity="0.25" d="
				M58.1,18.8L37.4,30.2L16.6,18.8L37.4,7.4L58.1,18.8z M69.2,45.2H5.6v13h63.6V45.2z M94.6,35.2c-1.6,0-2.8,1.3-2.8,2.8
				s1.3,2.8,2.8,2.8s2.8-1.3,2.8-2.8S96.1,35.2,94.6,35.2z M94.6,71.6H37.4 M58.1,18.8h36.4 M94.6,40.8v30.8 M94.6,18.8v16.4
				 M37.4,35.4v9.8 M37.4,63.5v8.1"/>
		</g>
		<g>
			<g opacity="0.1">
				
					<polyline stroke="#000000" stroke-width="1.5411" stroke-linecap="round" stroke-linejoin="round" stroke-miterlimit="10" points="
					37.4,35.4 37.4,31.7 33.7,35.4 41.2,35.4 37.4,31.7 				"/>
				
					<polyline stroke="#000000" stroke-width="1.5411" stroke-linecap="round" stroke-linejoin="round" stroke-miterlimit="10" points="
					37.4,59.8 37.4,63.5 37.4,59.8 33.7,63.5 41.2,63.5 37.4,59.8 				"/>
				
					<polyline stroke="#000000" stroke-width="1.5411" stroke-linecap="round" stroke-linejoin="round" stroke-miterlimit="10" points="
					84.4,18.8 80.7,22.6 80.7,15.1 84.4,18.8 80.7,18.8 				"/>
				
					<polygon stroke="#000000" stroke-width="1.5411" stroke-linecap="round" stroke-linejoin="round" stroke-miterlimit="10" points="
					94.6,57.6 94.6,61.3 98.3,57.6 90.8,57.6 94.6,61.3 				"/>
			</g>
			<g>
				<g>
					
						<polyline fill="#39424E" stroke="#39424E" stroke-width="1.5411" stroke-linecap="round" stroke-linejoin="round" stroke-miterlimit="10" points="
						36.4,34.4 36.4,30.7 32.7,34.4 40.2,34.4 36.4,30.7 					"/>
					
						<polyline fill="#39424E" stroke="#39424E" stroke-width="1.5411" stroke-linecap="round" stroke-linejoin="round" stroke-miterlimit="10" points="
						36.4,58.8 36.4,62.5 36.4,58.8 32.7,62.5 40.2,62.5 36.4,58.8 					"/>
					
						<polyline fill="#39424E" stroke="#39424E" stroke-width="1.5411" stroke-linecap="round" stroke-linejoin="round" stroke-miterlimit="10" points="
						83.4,17.8 79.7,21.6 79.7,14.1 83.4,17.8 79.7,17.8 					"/>
					
						<polygon fill="#39424E" stroke="#39424E" stroke-width="1.5411" stroke-linecap="round" stroke-linejoin="round" stroke-miterlimit="10" points="
						93.6,56.6 93.6,60.3 97.3,56.6 89.8,56.6 93.6,60.3 					"/>
				</g>
			</g>
		</g>
	</g>
</g>
<g id="Layer_8" display="none">
	<g display="inline">
		<g>
			<g opacity="0.1">
				<path opacity="0.15" d="M40.2,3.7c4.2,0.9,6.4,3.8,7.7,7.5c1.4,4.1,2.6,8.3,3.6,12.5c2.5,10.3,4.7,20.7,7.1,31.1
					c0.7,2.9,1.7,5.7,2.7,8.5c0.6,1.7,1.7,3.1,3.1,4.3c2.5,2.2,7.6,2.3,9.4-2.2c0.5-1.4,0.8-2.8,1.2-4.3c0.5,0,1,0,1.7,0
					c-0.1,1.2,0,2.4-0.2,3.5c-0.3,2-0.7,4.1-1.3,6c-0.9,2.6-2.7,4.6-5.5,5.4c-3.5,1.1-8-0.7-9.8-4.1c-1.1-2.1-2.1-4.5-2.7-6.8
					c-1.5-5.7-2.7-11.5-4-17.3c-0.5-2-0.9-4.1-1.4-6.4c-0.3,0.6-0.4,0.9-0.6,1.2C46.6,53.3,41.9,64,37.2,74.7
					c-0.3,0.7-0.6,0.9-1.3,0.9c-2.8,0-5.6,0-8.6,0c0.2-0.4,0.3-0.7,0.4-1c6.9-14.9,13.8-29.8,20.8-44.7c0.3-0.7,0.4-1.3,0.2-2
					c-0.9-4.1-1.8-8.1-3.7-11.8c-0.4-0.7-0.8-1.4-1.3-2.1c-3.4-4.7-9.1-2.9-11.1,0.9c-0.7,1.3-1,2.8-1.2,4.2c-0.2,1.2,0,1.1-1.3,1.1
					c-0.2,0-0.4,0-0.6-0.1c0-2.9,0.3-5.7,1.3-8.3c0.5-1.4,1.2-2.8,2.1-4.1c1.3-2.1,3.3-3.4,5.7-3.9C39.1,3.7,39.7,3.7,40.2,3.7z"/>
				
					<path fill="none" stroke="#000000" stroke-width="1.579" stroke-linecap="round" stroke-linejoin="round" stroke-miterlimit="10" d="
					M40.2,3.7c4.2,0.9,6.4,3.8,7.7,7.5c1.4,4.1,2.6,8.3,3.6,12.5c2.5,10.3,4.7,20.7,7.1,31.1c0.7,2.9,1.7,5.7,2.7,8.5
					c0.6,1.7,1.7,3.1,3.1,4.3c2.5,2.2,7.6,2.3,9.4-2.2c0.5-1.4,0.8-2.8,1.2-4.3c0.5,0,1,0,1.7,0c-0.1,1.2,0,2.4-0.2,3.5
					c-0.3,2-0.7,4.1-1.3,6c-0.9,2.6-2.7,4.6-5.5,5.4c-3.5,1.1-8-0.7-9.8-4.1c-1.1-2.1-2.1-4.5-2.7-6.8c-1.5-5.7-2.7-11.5-4-17.3
					c-0.5-2-0.9-4.1-1.4-6.4c-0.3,0.6-0.4,0.9-0.6,1.2C46.6,53.3,41.9,64,37.2,74.7c-0.3,0.7-0.6,0.9-1.3,0.9c-2.8,0-5.6,0-8.6,0
					c0.2-0.4,0.3-0.7,0.4-1c6.9-14.9,13.8-29.8,20.8-44.7c0.3-0.7,0.4-1.3,0.2-2c-0.9-4.1-1.8-8.1-3.7-11.8
					c-0.4-0.7-0.8-1.4-1.3-2.1c-3.4-4.7-9.1-2.9-11.1,0.9c-0.7,1.3-1,2.8-1.2,4.2c-0.2,1.2,0,1.1-1.3,1.1c-0.2,0-0.4,0-0.6-0.1
					c0-2.9,0.3-5.7,1.3-8.3c0.5-1.4,1.2-2.8,2.1-4.1c1.3-2.1,3.3-3.4,5.7-3.9C39.1,3.7,39.7,3.7,40.2,3.7z"/>
			</g>
			<g>
				<path opacity="0.15" fill="#3E96DA" d="M39.2,2.7c4.2,0.9,6.4,3.8,7.7,7.5c1.4,4.1,2.6,8.3,3.6,12.5c2.5,10.3,4.7,20.7,7.1,31.1
					c0.7,2.9,1.7,5.7,2.7,8.5c0.6,1.7,1.7,3.1,3.1,4.3c2.5,2.2,7.6,2.3,9.4-2.2c0.5-1.4,0.8-2.8,1.2-4.3c0.5,0,1,0,1.7,0
					c-0.1,1.2,0,2.4-0.2,3.5c-0.3,2-0.7,4.1-1.3,6c-0.9,2.6-2.7,4.6-5.5,5.4c-3.5,1.1-8-0.7-9.8-4.1c-1.1-2.1-2.1-4.5-2.7-6.8
					c-1.5-5.7-2.7-11.5-4-17.3c-0.5-2-0.9-4.1-1.4-6.4c-0.3,0.6-0.4,0.9-0.6,1.2C45.6,52.3,40.9,63,36.2,73.7
					c-0.3,0.7-0.6,0.9-1.3,0.9c-2.8,0-5.6,0-8.6,0c0.2-0.4,0.3-0.7,0.4-1c6.9-14.9,13.8-29.8,20.8-44.7c0.3-0.7,0.4-1.3,0.2-2
					c-0.9-4.1-1.8-8.1-3.7-11.8c-0.4-0.7-0.8-1.4-1.3-2.1c-3.4-4.7-9.1-2.9-11.1,0.9c-0.7,1.3-1,2.8-1.2,4.2c-0.2,1.2,0,1.1-1.3,1.1
					c-0.2,0-0.4,0-0.6-0.1c0-2.9,0.3-5.7,1.3-8.3c0.5-1.4,1.2-2.8,2.1-4.1c1.3-2.1,3.3-3.4,5.7-3.9C38.1,2.7,38.7,2.7,39.2,2.7z"/>
				
					<path fill="none" stroke="#39424E" stroke-width="1.579" stroke-linecap="round" stroke-linejoin="round" stroke-miterlimit="10" d="
					M39.2,2.7c4.2,0.9,6.4,3.8,7.7,7.5c1.4,4.1,2.6,8.3,3.6,12.5c2.5,10.3,4.7,20.7,7.1,31.1c0.7,2.9,1.7,5.7,2.7,8.5
					c0.6,1.7,1.7,3.1,3.1,4.3c2.5,2.2,7.6,2.3,9.4-2.2c0.5-1.4,0.8-2.8,1.2-4.3c0.5,0,1,0,1.7,0c-0.1,1.2,0,2.4-0.2,3.5
					c-0.3,2-0.7,4.1-1.3,6c-0.9,2.6-2.7,4.6-5.5,5.4c-3.5,1.1-8-0.7-9.8-4.1c-1.1-2.1-2.1-4.5-2.7-6.8c-1.5-5.7-2.7-11.5-4-17.3
					c-0.5-2-0.9-4.1-1.4-6.4c-0.3,0.6-0.4,0.9-0.6,1.2C45.6,52.3,40.9,63,36.2,73.7c-0.3,0.7-0.6,0.9-1.3,0.9c-2.8,0-5.6,0-8.6,0
					c0.2-0.4,0.3-0.7,0.4-1c6.9-14.9,13.8-29.8,20.8-44.7c0.3-0.7,0.4-1.3,0.2-2c-0.9-4.1-1.8-8.1-3.7-11.8
					c-0.4-0.7-0.8-1.4-1.3-2.1c-3.4-4.7-9.1-2.9-11.1,0.9c-0.7,1.3-1,2.8-1.2,4.2c-0.2,1.2,0,1.1-1.3,1.1c-0.2,0-0.4,0-0.6-0.1
					c0-2.9,0.3-5.7,1.3-8.3c0.5-1.4,1.2-2.8,2.1-4.1c1.3-2.1,3.3-3.4,5.7-3.9C38.1,2.7,38.7,2.7,39.2,2.7z"/>
			</g>
		</g>
	</g>
</g>
<g id="Layer_9">
	<g>
		<g>
			
				<path fill="none" stroke="#979FAF" stroke-width="1.579" stroke-linecap="round" stroke-linejoin="round" stroke-miterlimit="10" stroke-opacity="0.25" d="
				M74.4,34.8c-1,0-0.7,0-1.7,0c0.2-5.3,0.1-5.9,0-8c1,0,0.6,0,1.6,0C75.8,26.8,75.8,34.8,74.4,34.8z M28.7,26.8c-1,0-0.4,0-1.4,0
				c-1.5,0-1.5,8,0,8c1,0,0.5,0,1.5,0C28.6,32.2,28.6,28.6,28.7,26.8z M30.1,43.8c2,2,39.2,2,41.2,0c2-2,2-25.1,0-27.1
				c-2-2-39.2-2-41.2,0C28.1,18.7,28.1,41.8,30.1,43.8z M72.9,75.2c0-12.4-4.6-24.4-5.9-25.4c-1.2-1-8.3-1.5-15.5-1.5l0,0
				c0,0,0,0,0,0c0,0,0,0,0,0l0,0c-7.1,0-14.2,0.5-15.5,1.5c-1.3,1-5.9,13-5.9,25.4c0,1.9,0.6,1.9,0.6,1.9h41.6
				C72.3,77.2,72.9,77.2,72.9,75.2z M25.5,56.2C24.3,58.8,20.8,77,20.8,77l5.5,0c0,0,1.4-10.1,3.2-17.3c1-4.3,2.1-7.7,2.3-8.1
				C32.1,50.6,26.5,54.3,25.5,56.2z M71.3,51.7c0.1,0.4,1.2,3.8,2.3,8.1c1.7,7.2,3.2,17.3,3.2,17.3l5.5,0c0,0-3.4-18.2-4.7-20.7
				C76.5,54.3,70.9,50.6,71.3,51.7z"/>
			
				<path fill="#3E96DA" fill-opacity="0.15" stroke="#39424E" stroke-width="1.579" stroke-linecap="round" stroke-linejoin="round" stroke-miterlimit="10" d="
				M73.4,33.8c-1,0-0.7,0-1.7,0c0.2-5.3,0.1-5.9,0-8c1,0,0.6,0,1.6,0C74.8,25.8,74.8,33.8,73.4,33.8z M27.7,25.8c-1,0-0.4,0-1.4,0
				c-1.5,0-1.5,8,0,8c1,0,0.5,0,1.5,0C27.6,31.2,27.6,27.6,27.7,25.8z M29.1,42.8c2,2,39.2,2,41.2,0c2-2,2-25.1,0-27.1
				c-2-2-39.2-2-41.2,0C27.1,17.7,27.1,40.8,29.1,42.8z M71.9,74.2c0-12.4-4.6-24.4-5.9-25.4c-1.2-1-8.3-1.5-15.5-1.5l0,0
				c0,0,0,0,0,0c0,0,0,0,0,0l0,0c-7.1,0-14.2,0.5-15.5,1.5c-1.3,1-5.9,13-5.9,25.4c0,1.9,0.6,1.9,0.6,1.9h41.6
				C71.3,76.2,71.9,76.2,71.9,74.2z M24.5,55.2C23.3,57.8,19.8,76,19.8,76l5.5,0c0,0,1.4-10.1,3.2-17.3c1-4.3,2.1-7.7,2.3-8.1
				C31.1,49.6,25.5,53.3,24.5,55.2z M70.3,50.7c0.1,0.4,1.2,3.8,2.3,8.1c1.7,7.2,3.2,17.3,3.2,17.3l5.5,0c0,0-3.4-18.2-4.7-20.7
				C75.5,53.3,69.9,49.6,70.3,50.7z"/>
			<path fill="#39424E" d="M64.5,26c0,2.5-1.6,4.5-3.5,4.5c-1.9,0-3.5-2-3.5-4.5c0-2.5,1.6-4.5,3.5-4.5C62.9,21.5,64.5,23.5,64.5,26
				z M62,24.5c0-0.6-0.4-1-1-1c-0.6,0-1,0.5-1,1c0,0.6,0.4,1,1,1C61.6,25.5,62,25.1,62,24.5z M43.5,26c0,2.5-1.6,4.5-3.5,4.5
				c-1.9,0-3.5-2-3.5-4.5c0-2.5,1.6-4.5,3.5-4.5C41.9,21.5,43.5,23.5,43.5,26z M41,24.5c0-0.6-0.5-1-1-1c-0.6,0-1,0.5-1,1
				c0,0.6,0.5,1,1,1C40.6,25.5,41,25.1,41,24.5z"/>
		</g>
		
			<path fill="#3E96DA" fill-opacity="0.15" stroke="#39424E" stroke-width="1.579" stroke-linecap="round" stroke-linejoin="round" stroke-miterlimit="10" d="
			M49.8,9.1c-0.6,0-1,0.4-1,1v4.1l2,0v-4.1C50.8,9.6,50.4,9.1,49.8,9.1z"/>
		<path fill="#39424E" d="M48.6,6.9l1.1-3.2l-1.1-0.4l3-2.5L50.5,4l1.1,0.4L48.6,6.9z"/>
	</g>
</g>
<g id="Layer_7" display="none">
	<g display="inline">
		
			<path fill="none" stroke="#979FAF" stroke-width="1.579" stroke-linecap="round" stroke-linejoin="round" stroke-miterlimit="10" stroke-opacity="0.25" d="
			M98.6,35.6v-2l-3.4-1.1c-0.2-1.7-0.5-3.4-1.1-5l2.8-2.4l-0.8-1.9l-3.7,0.3c-0.7-1.3-1.5-2.5-2.4-3.6l1.9-3.9l-1.4-1.4l-3.9,1.9
			c-1.3-1-2.7-1.9-4.2-2.7l0.3-4l-1.9-0.8l-2.7,3.1c-1.4-0.4-2.9-0.7-4.4-0.8l-1.3-4h-0.2h-1.8h-0.2l-1.4,4.1
			c-1.4,0.2-2.7,0.5-4,0.9l-2.8-3.3L60,9.8l0.3,4.4c-1.3,0.7-2.4,1.5-3.5,2.4l-3.9-2l-1.4,1.4l2,3.9c-0.9,1.1-1.7,2.3-2.4,3.5
			l-4.4-0.3l-0.8,1.9l3.3,2.8c-0.4,1.4-0.7,2.8-0.9,4.3l-4.1,1.4v2l4,1.3c0.1,1.5,0.4,3,0.8,4.4L45.9,44l0.8,1.9l4-0.3
			c0.8,1.6,1.8,3,2.9,4.4L52,53.1l1.4,1.4l3.1-1.5c1.2,1,2.4,1.9,3.8,2.6L60,59.3l1.9,0.8l2.4-2.8c1.5,0.5,3.1,0.9,4.7,1l1.1,3.4
			h0.2h1.8h0.2l1.1-3.3c1.8-0.1,3.5-0.5,5.1-1l2.2,2.6l1.9-0.8l-0.2-3.4c1.6-0.8,3.1-1.8,4.4-2.9l3,1.5l1.4-1.4l-1.5-3
			c1.1-1.3,2.1-2.8,2.9-4.4l3.4,0.2l0.8-1.9l-2.6-2.2c0.5-1.6,0.8-3.4,1-5.1L98.6,35.6z M71.4,44.7c-5.6,0-10.1-4.5-10.1-10.1
			c0-5.6,4.5-10.1,10.1-10.1c5.6,0,10.1,4.5,10.1,10.1C81.5,40.2,77,44.7,71.4,44.7z"/>
		
			<path fill="none" stroke="#979FAF" stroke-width="1.579" stroke-linecap="round" stroke-linejoin="round" stroke-miterlimit="10" stroke-opacity="0.25" d="
			M43.5,50.9l2.4-1.1l-0.1-1.5l-2.6-0.6c-0.2-1.3-0.6-2.5-1.1-3.7l1.9-2l-0.7-1.4l-2.8,0.4c-0.6-0.9-1.3-1.8-2.1-2.5l1.2-3l-1.2-1
			l-2.8,1.7c-1-0.7-2.1-1.3-3.3-1.8l0-3.1L30.8,31L29,33.6c-1.1-0.2-2.2-0.3-3.4-0.3l-1.3-2.9l-0.2,0l-1.4,0.1l-0.2,0l-0.8,3.2
			c-1,0.2-2,0.5-3,0.9l-2.4-2.3L15.2,33l0.5,3.3c-0.9,0.6-1.7,1.3-2.5,2l-3.1-1.2l-1,1.2l1.7,2.8c-0.6,0.9-1.1,1.8-1.6,2.8L6,43.9
			l-0.5,1.5l2.7,1.9c-0.2,1.1-0.4,2.2-0.4,3.3l-3,1.3l0.1,1.5L8,54.2c0.2,1.1,0.5,2.2,0.9,3.3l-2.2,2.2L7.5,61l3-0.5
			c0.7,1.1,1.5,2.2,2.4,3.1l-1,2.4l1.2,1l2.2-1.4c0.9,0.7,2,1.2,3,1.7l0,2.8l1.5,0.5l1.6-2.2c1.2,0.3,2.4,0.4,3.6,0.5l1.1,2.5l0.2,0
			l1.4-0.1l0.2,0l0.6-2.6c1.3-0.2,2.6-0.6,3.8-1.1l1.9,1.8l1.4-0.7l-0.4-2.5c1.1-0.7,2.2-1.5,3.1-2.5l2.4,0.9l1-1.2l-1.3-2.2
			c0.8-1.1,1.4-2.3,1.9-3.5l2.6,0l0.5-1.5l-2.1-1.5C43.4,53.6,43.5,52.3,43.5,50.9z M25.4,59.7c-4.8,0-8.7-3.9-8.7-8.7
			c0-4.8,3.9-8.7,8.7-8.7c4.8,0,8.7,3.9,8.7,8.7C34.1,55.8,30.2,59.7,25.4,59.7z"/>
		<g>
			
				<path fill="none" stroke="#979FAF" stroke-width="1.579" stroke-linecap="round" stroke-linejoin="round" stroke-miterlimit="10" d="
				M65.8,14.7c-8.9,2-15.5,9.9-15.5,19.3c0,7.6,4.3,14.3,10.7,17.6c2.7,1.4,5.8,2.2,9.1,2.2"/>
			
				<path fill="#3E96DA" fill-opacity="0.15" stroke="#39424E" stroke-width="1.579" stroke-linecap="round" stroke-linejoin="round" stroke-miterlimit="10" d="
				M97.2,34.7v-2l-3.4-1.1c-0.2-1.7-0.5-3.4-1.1-5l2.8-2.4l-0.8-1.9L91,22.7c-0.7-1.3-1.5-2.5-2.4-3.6l1.9-3.9l-1.4-1.4l-3.9,1.9
				c-1.3-1-2.7-1.9-4.2-2.7l0.3-4l-1.9-0.8l-2.7,3.1c-1.4-0.4-2.9-0.7-4.4-0.8l-1.3-4h-0.2H69h-0.2l-1.4,4.1c-1.4,0.2-2.7,0.5-4,0.9
				l-2.8-3.3L58.7,9l0.3,4.4c-1.3,0.7-2.4,1.5-3.5,2.4l-3.9-2l-1.4,1.4l2,3.9c-0.9,1.1-1.7,2.3-2.4,3.5l-4.4-0.3l-0.8,1.9l3.3,2.8
				c-0.4,1.4-0.7,2.8-0.9,4.3l-4.1,1.4v2l4,1.3c0.1,1.5,0.4,3,0.8,4.4l-3.1,2.7l0.8,1.9l4-0.3c0.8,1.6,1.8,3,2.9,4.4l-1.6,3.1
				l1.4,1.4l3.1-1.5c1.2,1,2.4,1.9,3.8,2.6l-0.3,3.7l1.9,0.8l2.4-2.8c1.5,0.5,3.1,0.9,4.7,1l1.1,3.4H69h1.8H71l1.1-3.3
				c1.8-0.1,3.5-0.5,5.1-1l2.2,2.6l1.9-0.8l-0.2-3.4c1.6-0.8,3.1-1.8,4.4-2.9l3,1.5l1.4-1.4l-1.5-3c1.1-1.3,2.1-2.8,2.9-4.4l3.4,0.2
				l0.8-1.9L92.9,41c0.5-1.6,0.8-3.4,1-5.1L97.2,34.7z M70,43.9c-5.6,0-10.1-4.5-10.1-10.1S64.4,23.6,70,23.6
				c5.6,0,10.1,4.5,10.1,10.1S75.6,43.9,70,43.9z"/>
		</g>
		<g>
			
				<path fill="#3E96DA" fill-opacity="0.15" stroke="#39424E" stroke-width="1.579" stroke-linecap="round" stroke-linejoin="round" stroke-miterlimit="10" d="
				M42.1,50.1l2.4-1.1l-0.1-1.5l-2.6-0.6c-0.2-1.3-0.6-2.5-1.1-3.7l1.9-2l-0.7-1.3l-2.8,0.4c-0.6-0.9-1.3-1.8-2.1-2.5l1.2-3l-1.2-1
				l-2.8,1.7c-1-0.7-2.1-1.3-3.3-1.8l0-3.1l-1.5-0.5l-1.8,2.5c-1.1-0.2-2.2-0.3-3.4-0.3L23,29.5l-0.2,0l-1.4,0.1l-0.2,0l-0.8,3.2
				c-1,0.2-2,0.5-3,0.9l-2.4-2.3l-1.4,0.7l0.5,3.3c-0.9,0.6-1.7,1.3-2.5,2l-3.1-1.2l-1,1.2l1.7,2.8c-0.6,0.9-1.1,1.8-1.6,2.8
				l-3.3,0.1l-0.5,1.5l2.7,1.9c-0.2,1.1-0.4,2.2-0.4,3.3l-3,1.3l0.1,1.5l3.1,0.7c0.2,1.1,0.5,2.2,0.9,3.3l-2.2,2.2l0.7,1.3l3-0.5
				c0.7,1.1,1.5,2.2,2.4,3.1l-1,2.4l1.2,1l2.2-1.4c0.9,0.7,2,1.2,3,1.7l0,2.8l1.5,0.5l1.6-2.2c1.2,0.3,2.4,0.4,3.6,0.5l1.1,2.5
				l0.2,0l1.4-0.1l0.2,0l0.6-2.6c1.3-0.2,2.6-0.6,3.8-1.1l1.9,1.8l1.4-0.7l-0.4-2.5c1.1-0.7,2.2-1.5,3.1-2.5l2.4,0.9l1-1.2l-1.3-2.2
				c0.8-1.1,1.4-2.3,1.9-3.5l2.6,0l0.5-1.5L41.7,54C42,52.7,42.1,51.4,42.1,50.1z M24.1,58.8c-4.8,0-8.7-3.9-8.7-8.7
				c0-4.8,3.9-8.7,8.7-8.7c4.8,0,8.7,3.9,8.7,8.7C32.8,54.9,28.9,58.8,24.1,58.8z"/>
			
				<path fill="none" stroke="#979FAF" stroke-width="1.579" stroke-linecap="round" stroke-linejoin="round" stroke-miterlimit="10" d="
				M11.1,55.7c2.2,5.1,7.3,8.6,13.2,8.6c8,0,14.4-6.5,14.4-14.4c0-2-0.4-3.9-1.1-5.6"/>
		</g>
	</g>
</g>
<g id="Layer_2" display="none">
	<g display="inline">
		<g>
			
				<path fill="none" stroke="#979FAF" stroke-width="1.579" stroke-linecap="round" stroke-linejoin="round" stroke-miterlimit="10" stroke-opacity="0.25" d="
				M58.1,18.8L37.4,30.2L16.6,18.8L37.4,7.4L58.1,18.8z M69.2,45.2H5.6v13h63.6V45.2z M94.6,35.2c-1.6,0-2.8,1.3-2.8,2.8
				s1.3,2.8,2.8,2.8s2.8-1.3,2.8-2.8S96.1,35.2,94.6,35.2z M94.6,71.6H37.4 M58.1,18.8h36.4 M94.6,40.8v30.8 M94.6,18.8v16.4
				 M37.4,35.4v9.8 M37.4,63.5v8.1"/>
			<g>
				<g>
					<path fill="#0AD264" d="M57.1,17.8L36.4,29.2L15.6,17.8L36.4,6.4L57.1,17.8z M68.2,44.2H4.6v13h63.6V44.2z M93.6,34.2
						c-1.6,0-2.8,1.3-2.8,2.8s1.3,2.8,2.8,2.8s2.8-1.3,2.8-2.8S95.1,34.2,93.6,34.2z M93.6,70.6H36.4 M57.1,17.8h36.4 M93.6,39.8
						v30.8 M93.6,17.8v16.4 M36.4,34.4v9.8 M36.4,62.5v8.1"/>
				</g>
				
					<path fill="none" stroke="#39424E" stroke-width="1.5411" stroke-linecap="round" stroke-linejoin="round" stroke-miterlimit="10" d="
					M57.1,17.8L36.4,29.2L15.6,17.8L36.4,6.4L57.1,17.8z M68.2,44.2H4.6v13h63.6V44.2z M93.6,34.2c-1.6,0-2.8,1.3-2.8,2.8
					s1.3,2.8,2.8,2.8s2.8-1.3,2.8-2.8S95.1,34.2,93.6,34.2z M93.6,70.6H36.4 M57.1,17.8h36.4 M93.6,39.8v30.8 M93.6,17.8v16.4
					 M36.4,34.4v9.8 M36.4,62.5v8.1"/>
			</g>
			<g>
				<g>
					<path fill="#47B86C" d="M34.9,26.6c-1.9,1-5.7-2.1-5.7-2.1l0,0l7.2,4l20.8-10.7l-2.8-1.5C54.3,16.3,36.8,25.6,34.9,26.6z"/>
				</g>
				<g>
					<path fill="#47B86C" d="M94.3,34.3c0.1,0.2,0.1,0.5,0.1,0.7c0,1.6-1.3,2.8-2.8,2.8c-0.3,0-0.5,0-0.7-0.1
						c0.3,1.2,1.4,2.1,2.7,2.1c1.6,0,2.8-1.3,2.8-2.8C96.4,35.7,95.5,34.6,94.3,34.3z"/>
				</g>
				<g>
					<polygon fill="#47B86C" points="68.2,44.2 66.2,44.2 66.2,55.2 4.6,55.2 4.6,57.2 68.2,57.2 					"/>
				</g>
			</g>
			<g>
				
					<path fill="none" stroke="#39424E" stroke-width="1.5411" stroke-linecap="round" stroke-linejoin="round" stroke-miterlimit="10" d="
					M57.1,17.8L36.4,29.2L15.6,17.8L36.4,6.4L57.1,17.8z M68.2,44.2H4.6v13h63.6V44.2z M93.6,34.2c-1.6,0-2.8,1.3-2.8,2.8
					s1.3,2.8,2.8,2.8s2.8-1.3,2.8-2.8S95.1,34.2,93.6,34.2z M93.6,70.6H36.4 M57.1,17.8h36.4 M93.6,39.8v30.8 M93.6,17.8v16.4
					 M36.4,34.4v9.8 M36.4,62.5v8.1"/>
			</g>
			<g opacity="0.4">
				<path fill="none" stroke="#FFF8CB" stroke-linecap="round" stroke-linejoin="round" stroke-miterlimit="10" d="M32.9,11.1l1.8-1
					l1.7-0.9 M24.9,20.2l-4.3-2.4L31.2,12 M32.9,46.2H6.6v8.2 M32.9,46.2 M35,46.2 M48.5,46.2H35 M54.7,46.2h-3.9 M38.4,46.2"/>
			</g>
		</g>
		<g>
			<g opacity="0.1">
				
					<polyline stroke="#000000" stroke-width="1.5411" stroke-linecap="round" stroke-linejoin="round" stroke-miterlimit="10" points="
					37.4,35.4 37.4,31.7 33.7,35.4 41.2,35.4 37.4,31.7 				"/>
				
					<polyline stroke="#000000" stroke-width="1.5411" stroke-linecap="round" stroke-linejoin="round" stroke-miterlimit="10" points="
					37.4,59.8 37.4,63.5 37.4,59.8 33.7,63.5 41.2,63.5 37.4,59.8 				"/>
				
					<polyline stroke="#000000" stroke-width="1.5411" stroke-linecap="round" stroke-linejoin="round" stroke-miterlimit="10" points="
					84.4,18.8 80.7,22.6 80.7,15.1 84.4,18.8 80.7,18.8 				"/>
				
					<polygon stroke="#000000" stroke-width="1.5411" stroke-linecap="round" stroke-linejoin="round" stroke-miterlimit="10" points="
					94.6,57.6 94.6,61.3 98.3,57.6 90.8,57.6 94.6,61.3 				"/>
			</g>
			<g>
				<g>
					
						<polyline fill="#39424E" stroke="#39424E" stroke-width="1.5411" stroke-linecap="round" stroke-linejoin="round" stroke-miterlimit="10" points="
						36.4,34.4 36.4,30.7 32.7,34.4 40.2,34.4 36.4,30.7 					"/>
					
						<polyline fill="#39424E" stroke="#39424E" stroke-width="1.5411" stroke-linecap="round" stroke-linejoin="round" stroke-miterlimit="10" points="
						36.4,58.8 36.4,62.5 36.4,58.8 32.7,62.5 40.2,62.5 36.4,58.8 					"/>
					
						<polyline fill="#39424E" stroke="#39424E" stroke-width="1.5411" stroke-linecap="round" stroke-linejoin="round" stroke-miterlimit="10" points="
						83.4,17.8 79.7,21.6 79.7,14.1 83.4,17.8 79.7,17.8 					"/>
					
						<polygon fill="#39424E" stroke="#39424E" stroke-width="1.5411" stroke-linecap="round" stroke-linejoin="round" stroke-miterlimit="10" points="
						93.6,56.6 93.6,60.3 97.3,56.6 89.8,56.6 93.6,60.3 					"/>
				</g>
			</g>
		</g>
	</g>
</g>
<g id="Layer_3" display="none">
	<g display="inline">
		<g>
			<g opacity="0.1">
				<path d="M40.2,3.5c4.2,0.9,6.4,3.8,7.7,7.5c1.4,4.1,2.6,8.3,3.6,12.5c2.5,10.3,4.7,20.7,7.1,31.1c0.7,2.9,1.7,5.7,2.7,8.5
					c0.6,1.7,1.7,3.1,3.1,4.3c2.5,2.2,7.6,2.3,9.4-2.2c0.5-1.4,0.8-2.8,1.2-4.3c0.5,0,1,0,1.7,0c-0.1,1.2,0,2.4-0.2,3.5
					c-0.3,2-0.7,4.1-1.3,6c-0.9,2.6-2.7,4.6-5.5,5.4c-3.5,1.1-8-0.7-9.8-4.1c-1.1-2.1-2.1-4.5-2.7-6.8c-1.5-5.7-2.7-11.5-4-17.3
					c-0.5-2-0.9-4.1-1.4-6.4c-0.3,0.6-0.4,0.9-0.6,1.2c-4.7,10.7-9.4,21.4-14.1,32.1c-0.3,0.7-0.6,0.9-1.3,0.9c-2.8,0-5.6,0-8.6,0
					c0.2-0.4,0.3-0.7,0.4-1c6.9-14.9,13.8-29.8,20.8-44.7c0.3-0.7,0.4-1.3,0.2-2c-0.9-4.1-1.8-8.1-3.7-11.8
					c-0.4-0.7-0.8-1.4-1.3-2.1c-3.4-4.7-9.1-2.9-11.1,0.9c-0.7,1.3-1,2.8-1.2,4.2c-0.2,1.2,0,1.1-1.3,1.1c-0.2,0-0.4,0-0.6-0.1
					c0-2.9,0.3-5.7,1.3-8.3c0.5-1.4,1.2-2.8,2.1-4.1c1.3-2.1,3.3-3.4,5.7-3.9C39.1,3.5,39.7,3.5,40.2,3.5z"/>
				
					<path fill="none" stroke="#000000" stroke-width="1.579" stroke-linecap="round" stroke-linejoin="round" stroke-miterlimit="10" d="
					M40.2,3.5c4.2,0.9,6.4,3.8,7.7,7.5c1.4,4.1,2.6,8.3,3.6,12.5c2.5,10.3,4.7,20.7,7.1,31.1c0.7,2.9,1.7,5.7,2.7,8.5
					c0.6,1.7,1.7,3.1,3.1,4.3c2.5,2.2,7.6,2.3,9.4-2.2c0.5-1.4,0.8-2.8,1.2-4.3c0.5,0,1,0,1.7,0c-0.1,1.2,0,2.4-0.2,3.5
					c-0.3,2-0.7,4.1-1.3,6c-0.9,2.6-2.7,4.6-5.5,5.4c-3.5,1.1-8-0.7-9.8-4.1c-1.1-2.1-2.1-4.5-2.7-6.8c-1.5-5.7-2.7-11.5-4-17.3
					c-0.5-2-0.9-4.1-1.4-6.4c-0.3,0.6-0.4,0.9-0.6,1.2c-4.7,10.7-9.4,21.4-14.1,32.1c-0.3,0.7-0.6,0.9-1.3,0.9c-2.8,0-5.6,0-8.6,0
					c0.2-0.4,0.3-0.7,0.4-1c6.9-14.9,13.8-29.8,20.8-44.7c0.3-0.7,0.4-1.3,0.2-2c-0.9-4.1-1.8-8.1-3.7-11.8
					c-0.4-0.7-0.8-1.4-1.3-2.1c-3.4-4.7-9.1-2.9-11.1,0.9c-0.7,1.3-1,2.8-1.2,4.2c-0.2,1.2,0,1.1-1.3,1.1c-0.2,0-0.4,0-0.6-0.1
					c0-2.9,0.3-5.7,1.3-8.3c0.5-1.4,1.2-2.8,2.1-4.1c1.3-2.1,3.3-3.4,5.7-3.9C39.1,3.5,39.7,3.5,40.2,3.5z"/>
			</g>
			<g>
				<path fill="#0AD264" d="M39.2,2.5c4.2,0.9,6.4,3.8,7.7,7.5c1.4,4.1,2.6,8.3,3.6,12.5c2.5,10.3,4.7,20.7,7.1,31.1
					c0.7,2.9,1.7,5.7,2.7,8.5c0.6,1.7,1.7,3.1,3.1,4.3c2.5,2.2,7.6,2.3,9.4-2.2c0.5-1.4,0.8-2.8,1.2-4.3c0.5,0,1,0,1.7,0
					c-0.1,1.2,0,2.4-0.2,3.5c-0.3,2-0.7,4.1-1.3,6c-0.9,2.6-2.7,4.6-5.5,5.4c-3.5,1.1-8-0.7-9.8-4.1c-1.1-2.1-2.1-4.5-2.7-6.8
					c-1.5-5.7-2.7-11.5-4-17.3c-0.5-2-0.9-4.1-1.4-6.4c-0.3,0.6-0.4,0.9-0.6,1.2c-4.7,10.7-9.4,21.4-14.1,32.1
					c-0.3,0.7-0.6,0.9-1.3,0.9c-2.8,0-5.6,0-8.6,0c0.2-0.4,0.3-0.7,0.4-1c6.9-14.9,13.8-29.8,20.8-44.7c0.3-0.7,0.4-1.3,0.2-2
					c-0.9-4.1-1.8-8.1-3.7-11.8c-0.4-0.7-0.8-1.4-1.3-2.1c-3.4-4.7-9.1-2.9-11.1,0.9c-0.7,1.3-1,2.8-1.2,4.2c-0.2,1.2,0,1.1-1.3,1.1
					c-0.2,0-0.4,0-0.6-0.1c0-2.9,0.3-5.7,1.3-8.3c0.5-1.4,1.2-2.8,2.1-4.1c1.3-2.1,3.3-3.4,5.7-3.9C38.1,2.5,38.7,2.5,39.2,2.5z"/>
				
					<path fill="none" stroke="#39424E" stroke-width="1.579" stroke-linecap="round" stroke-linejoin="round" stroke-miterlimit="10" d="
					M39.2,2.5c4.2,0.9,6.4,3.8,7.7,7.5c1.4,4.1,2.6,8.3,3.6,12.5c2.5,10.3,4.7,20.7,7.1,31.1c0.7,2.9,1.7,5.7,2.7,8.5
					c0.6,1.7,1.7,3.1,3.1,4.3c2.5,2.2,7.6,2.3,9.4-2.2c0.5-1.4,0.8-2.8,1.2-4.3c0.5,0,1,0,1.7,0c-0.1,1.2,0,2.4-0.2,3.5
					c-0.3,2-0.7,4.1-1.3,6c-0.9,2.6-2.7,4.6-5.5,5.4c-3.5,1.1-8-0.7-9.8-4.1c-1.1-2.1-2.1-4.5-2.7-6.8c-1.5-5.7-2.7-11.5-4-17.3
					c-0.5-2-0.9-4.1-1.4-6.4c-0.3,0.6-0.4,0.9-0.6,1.2c-4.7,10.7-9.4,21.4-14.1,32.1c-0.3,0.7-0.6,0.9-1.3,0.9c-2.8,0-5.6,0-8.6,0
					c0.2-0.4,0.3-0.7,0.4-1c6.9-14.9,13.8-29.8,20.8-44.7c0.3-0.7,0.4-1.3,0.2-2c-0.9-4.1-1.8-8.1-3.7-11.8
					c-0.4-0.7-0.8-1.4-1.3-2.1c-3.4-4.7-9.1-2.9-11.1,0.9c-0.7,1.3-1,2.8-1.2,4.2c-0.2,1.2,0,1.1-1.3,1.1c-0.2,0-0.4,0-0.6-0.1
					c0-2.9,0.3-5.7,1.3-8.3c0.5-1.4,1.2-2.8,2.1-4.1c1.3-2.1,3.3-3.4,5.7-3.9C38.1,2.5,38.7,2.5,39.2,2.5z"/>
			</g>
		</g>
		<g opacity="0.4">
			<path fill="none" stroke="#FFF8CB" stroke-linecap="round" stroke-linejoin="round" stroke-miterlimit="10" d="M35.7,5.2
				c0.6-0.3,1.2-0.5,1.8-0.6c0.5,0,1.1,0,1.6,0c4.2,0.9,5.6,4.7,6.8,8.4"/>
		</g>
		<g opacity="0.4">
			<g>
				<path fill="none" stroke="#FFF8CB" stroke-linecap="round" stroke-linejoin="round" stroke-miterlimit="10" d="M35.3,60.6
					c4.1-8.9,8.2-17.8,12.4-26.6"/>
			</g>
			<g>
				<path fill="none" stroke="#FFF8CB" stroke-linecap="round" stroke-linejoin="round" stroke-miterlimit="10" d="M32.5,66.5
					c0.2-0.4,0.4-0.8,0.6-1.3c0.2-0.4,0.4-0.9,0.6-1.3"/>
			</g>
			<g>
				<path fill="none" stroke="#FFF8CB" stroke-linecap="round" stroke-linejoin="round" stroke-miterlimit="10" d="M33.4,71.5
					c-1.5,0-1.5,0-3.1,0c0.2-0.4,0.3-0.7,0.4-1c0.4-0.9,0.8-1.8,1.2-2.6"/>
			</g>
		</g>
		<g>
			<g>
				<path fill="#47B86C" d="M45,7.1c1.4,4.1,2.6,8.3,3.6,12.5c2.5,10.3,4.7,20.7,7.1,31.1c0.7,2.9,1.7,5.7,2.7,8.5
					c0.5,1.3,1.2,2.5,2.2,3.5c-0.1-0.2-0.2-0.3-0.2-0.5c-1-2.8-2-5.6-2.7-8.5c-2.4-10.3-4.7-20.7-7.1-31.1c-1-4.2-2.2-8.4-3.6-12.5
					c-0.6-1.8-1.5-3.4-2.7-4.7C44.5,5.9,44.8,6.5,45,7.1z"/>
			</g>
			<g>
				<path fill="#47B86C" d="M34.9,71.9c-0.3,0.7-1,2.6-1.8,2.6c-1.7,0-3.8,0-2.4,0c1.4,0,2.7,0,4.1,0c0.7,0,1.1-0.2,1.3-0.9
					c4.6-10.5,9.2-20.9,13.8-31.4c-0.4-1.6,1.4-1.1,1-2.9c-0.3,0.6-1.8,0.1-2,0.5L34.9,71.9z"/>
			</g>
			<g>
				<path fill="#47B86C" d="M75,60.6c-0.4,1.5-0.7,2.9-1.2,4.3c0,0.1-0.1,0.1-0.1,0.2c-0.2,0.7-0.3,1.4-0.6,2
					c-0.9,2.6-2.7,4.6-5.5,5.4c-2.7,0.8-6.1-0.1-8.3-2.2c0.2,0.4,0.3,0.7,0.5,1.1c1.8,3.4,5.3,4.7,8.8,3.6c2.8-0.8,4.4-2.5,5.3-5.1
					c0.7-1.9,1.1-4.1,1.5-6.1c0.2-1.1,0.2-2.1,0.3-3.3C75.1,60.6,75.5,60.6,75,60.6z"/>
			</g>
		</g>
		<g>
			
				<path fill="none" stroke="#39424E" stroke-width="1.579" stroke-linecap="round" stroke-linejoin="round" stroke-miterlimit="10" d="
				M39.2,2.6c4.2,0.9,6.4,3.8,7.7,7.5c1.4,4.1,2.6,8.3,3.6,12.5c2.5,10.3,4.7,20.7,7.1,31.1c0.7,2.9,1.7,5.7,2.7,8.5
				c0.6,1.7,1.7,3.1,3.1,4.3c2.5,2.2,7.6,2.3,9.4-2.2c0.5-1.4,0.8-2.8,1.2-4.3c0.5,0,1,0,1.7,0c-0.1,1.2,0,2.4-0.2,3.5
				c-0.3,2-0.7,4.1-1.3,6c-0.9,2.6-2.7,4.6-5.5,5.4c-3.5,1.1-8-0.7-9.8-4.1c-1.1-2.1-2.1-4.5-2.7-6.8c-1.5-5.7-2.7-11.5-4-17.3
				c-0.5-2-0.9-4.1-1.4-6.4c-0.3,0.6-0.4,0.9-0.6,1.2c-4.7,10.7-9.4,21.4-14.1,32.1c-0.3,0.7-0.6,0.9-1.3,0.9c-2.8,0-5.6,0-8.6,0
				c0.2-0.4,0.3-0.7,0.4-1c6.9-14.9,13.8-29.8,20.8-44.7c0.3-0.7,0.4-1.3,0.2-2c-0.9-4.1-1.8-8.1-3.7-11.8c-0.4-0.7-0.8-1.4-1.3-2.1
				c-3.4-4.7-9.1-2.9-11.1,0.9c-0.7,1.3-1,2.8-1.2,4.2c-0.2,1.2,0,1.1-1.3,1.1c-0.2,0-0.4,0-0.6-0.1c0-2.9,0.3-5.7,1.3-8.3
				c0.5-1.4,1.2-2.8,2.1-4.1c1.3-2.1,3.3-3.4,5.7-3.9C38.1,2.6,38.7,2.6,39.2,2.6z"/>
		</g>
	</g>
</g>
<g id="Layer_4" display="none">
	<g display="inline">
		<g>
			
				<path fill="none" stroke="#979FAF" stroke-width="1.579" stroke-linecap="round" stroke-linejoin="round" stroke-miterlimit="10" stroke-opacity="0.25" d="
				M74.4,34.8c-1,0-0.7,0-1.7,0c0.2-5.3,0.1-5.9,0-8c1,0,0.6,0,1.6,0C75.8,26.8,75.8,34.8,74.4,34.8z M28.7,26.8c-1,0-0.4,0-1.4,0
				c-1.5,0-1.5,8,0,8c1,0,0.5,0,1.5,0C28.6,32.2,28.6,28.6,28.7,26.8z M30.1,43.8c2,2,39.2,2,41.2,0c2-2,2-25.1,0-27.1
				c-2-2-39.2-2-41.2,0C28.1,18.7,28.1,41.8,30.1,43.8z M72.9,75.2c0-12.4-4.6-24.4-5.9-25.4c-1.2-1-8.3-1.5-15.5-1.5l0,0
				c0,0,0,0,0,0c0,0,0,0,0,0l0,0c-7.1,0-14.2,0.5-15.5,1.5c-1.3,1-5.9,13-5.9,25.4c0,1.9,0.6,1.9,0.6,1.9h41.6
				C72.3,77.2,72.9,77.2,72.9,75.2z M25.5,56.2C24.3,58.8,20.8,77,20.8,77l5.5,0c0,0,1.4-10.1,3.2-17.3c1-4.3,2.1-7.7,2.3-8.1
				C32.1,50.6,26.5,54.3,25.5,56.2z M71.3,51.7c0.1,0.4,1.2,3.8,2.3,8.1c1.7,7.2,3.2,17.3,3.2,17.3l5.5,0c0,0-3.4-18.2-4.7-20.7
				C76.5,54.3,70.9,50.6,71.3,51.7z"/>
			
				<path fill="#0AD264" stroke="#39424E" stroke-width="1.579" stroke-linecap="round" stroke-linejoin="round" stroke-miterlimit="10" d="
				M73.4,33.8c-1,0-0.7,0-1.7,0c0.2-5.3,0.1-5.9,0-8c1,0,0.6,0,1.6,0C74.8,25.8,74.8,33.8,73.4,33.8z M27.7,25.8c-1,0-0.4,0-1.4,0
				c-1.5,0-1.5,8,0,8c1,0,0.5,0,1.5,0C27.6,31.2,27.6,27.6,27.7,25.8z M29.1,42.8c2,2,39.2,2,41.2,0c2-2,2-25.1,0-27.1
				c-2-2-39.2-2-41.2,0C27.1,17.7,27.1,40.8,29.1,42.8z M71.9,74.2c0-12.4-4.6-24.4-5.9-25.4c-1.2-1-8.3-1.5-15.5-1.5l0,0
				c0,0,0,0,0,0c0,0,0,0,0,0l0,0c-7.1,0-14.2,0.5-15.5,1.5c-1.3,1-5.9,13-5.9,25.4c0,1.9,0.6,1.9,0.6,1.9h41.6
				C71.3,76.2,71.9,76.2,71.9,74.2z M24.5,55.2C23.3,57.8,19.8,76,19.8,76l5.5,0c0,0,1.4-10.1,3.2-17.3c1-4.3,2.1-7.7,2.3-8.1
				C31.1,49.6,25.5,53.3,24.5,55.2z M70.3,50.7c0.1,0.4,1.2,3.8,2.3,8.1c1.7,7.2,3.2,17.3,3.2,17.3l5.5,0c0,0-3.4-18.2-4.7-20.7
				C75.5,53.3,69.9,49.6,70.3,50.7z"/>
			<g opacity="0.4">
				<g>
					<path fill="none" stroke="#FFF8CB" stroke-linecap="round" stroke-miterlimit="10" d="M47.9,16.7c2.3,0,4.6,0,6.9,0"/>
					<path fill="none" stroke="#FFF8CB" stroke-linecap="round" stroke-miterlimit="10" d="M30,32.3c0-1.8,0-3.8,0-4.5
						c0.1-1.5,0.3-9.1,1.1-9.9c0.8-0.8,6.5-0.9,13.5-1.1"/>
					<path fill="none" stroke="#FFF8CB" stroke-linecap="round" stroke-miterlimit="10" d="M30,35.9c0,0,0-0.8,0-1.9"/>
				</g>
				<g>
					<path fill="none" stroke="#FFF8CB" stroke-linecap="round" stroke-miterlimit="10" d="M49.5,49.7c0.9,0,1.9,0,2.8,0"/>
					<path fill="none" stroke="#FFF8CB" stroke-linecap="round" stroke-miterlimit="10" d="M34,58.2c0.2-0.8,0.5-1.6,0.7-2.3
						c0.9-2.9,1.7-4.7,2.2-5.1c1-0.8,5.4-1,10.7-1.1"/>
					<path fill="none" stroke="#FFF8CB" stroke-linecap="round" stroke-miterlimit="10" d="M32.9,63.4c0.3-1.4,0.5-2.7,0.8-3.9"/>
				</g>
			</g>
			<g display="none" opacity="0.4">
				<path display="inline" fill="#FFF8CB" d="M26.3,33.8c1,0,0.5,0,1.5,0c0,0,0-0.1,0-0.1c0.2,4.5,0.7,8.4,1.4,9.1
					c0.3,0.3,1.5,0.6,3.2,0.8c-0.3-1.7-0.6-5.6-0.6-6.8c0-1.2,0,0.1,0,0.1s-0.1-6.6,0-8c0.1-1.5,0.6-9.2,1.5-10
					c1.7-1.7,28.5-2,38-0.8c-0.2-1.2-0.5-2-0.8-2.3c-2-2-39.2-2-41.2,0c-0.8,0.8-1.3,5.1-1.5,10c-1,0-0.4,0-1.4,0
					C24.7,25.8,24.7,33.8,26.3,33.8z"/>
				<path display="inline" fill="#FFF8CB" d="M76.5,61.9c-1-4.3-2.1-7.7-2.3-8.1c-0.1-0.4,0.5-0.1,1.4,0.4c-1.8-1.9-5.7-4.4-5.4-3.5
					c0.1,0.2,0.5,1.6,1.1,3.5c1.7,4,4.3,12.7,4.6,21.8l3.3,0C78.7,72.4,77.7,66.5,76.5,61.9z"/>
				<path display="inline" fill="#FFF8CB" d="M28.5,58.4C28.5,58.3,28.6,58.3,28.5,58.4c1.1-4.1,2.1-7.3,2.2-7.7
					c0.3-1-5.3,2.7-6.2,4.6C23.3,57.8,19.8,76,19.8,76l4.6,0C25.5,70.7,27.6,60.2,28.5,58.4z"/>
				<path display="inline" fill="#FFF8CB" d="M39.1,52c1.2-1,8.3-1.5,15.5-1.5c0,0,0,0,0,0c0,0,0,0,0,0c4.9,0,9.8,0.2,12.8,0.7
					c-0.6-1.3-1-2.1-1.3-2.4c-0.9-0.7-4.9-1.2-9.8-1.4c-3.1,0-6.2,0-9.1-0.1c-5.9,0.1-11,0.6-12,1.4c-0.5,0.4-1.6,2.6-2.7,6
					c-0.3,2.7-3.2,17.4-2.6,21.4c0,0,0,0,0,0h3.4C33.5,64.2,37.8,53,39.1,52z"/>
			</g>
			<g>
				<path fill="#47B86C" d="M68.8,23.6c0,1.9,0,3.8,0,5.6C68.9,26,68.9,25,68.8,23.6z"/>
				<path fill="#47B86C" d="M68.8,30.8C68.8,30.8,68.8,30.8,68.8,30.8c0-0.5,0-1,0.1-1.6C68.8,29.7,68.8,30.2,68.8,30.8z"/>
				<path fill="#47B86C" d="M68.8,22.8c0,0.3,0,0.6,0,0.9C68.8,23.3,68.8,23,68.8,22.8L68.8,22.8z"/>
				<path fill="#47B86C" d="M66.1,48.8c-0.3-0.2-0.9-0.4-1.6-0.6c1.8,4.3,4.5,13.5,4.5,23c0,1.9-0.6,1.9-0.6,1.9H29.2
					c0,0.4,0,0.7,0,1.1c0,1.9,0.6,1.9,0.6,1.9h41.6c0,0,0.6,0,0.6-1.9C71.9,61.8,67.3,49.9,66.1,48.8z"/>
				<path fill="#47B86C" d="M76.5,55.2c-0.4-0.8-1.7-2-3-2.9C74.8,55,78.2,73,78.2,73l-2.9,0c0.3,1.8,0.5,3,0.5,3l5.5,0
					C81.2,76,77.7,57.8,76.5,55.2z"/>
				<path fill="#47B86C" d="M29.7,50.9c-1,0.5-1.1,0.5-2.3,1.5c-0.2,0.7-0.9,4.2-1.1,4.9c-1.7,7.2-2.6,15.9-2.6,15.9L20.4,73
					c-0.4,1.8-0.6,3-0.6,3l5.5,0c0,0,0.3-2.4,0.9-5.7C26.3,62.7,28.1,55.5,29.7,50.9z"/>
				<path fill="#47B86C" d="M68.8,30.8c0,0.5-0.7,8.3-1.4,9c-1.8,1.8-30.6,2-39,0.6c0.2,1.2,0.5,2,0.8,2.4c2,2,39.2,2,41.2,0
					c0.8-0.8,1.2-4.5,1.4-9c0,0,0,0,0,0c0-0.6,0-1.1,0.1-1.6c0-1.8,0.1-3.8,0-5.6c0-0.3,0-0.5,0-0.9h0c-0.2-4.9-0.6-9.2-1.5-10
					c-0.2-0.2-1-0.5-2.2-0.6c0.3,1.9,0.5,7.1,0.7,7.7S68.8,30.3,68.8,30.8z"/>
			</g>
			
				<path fill="none" stroke="#39424E" stroke-width="1.579" stroke-linecap="round" stroke-linejoin="round" stroke-miterlimit="10" d="
				M73.4,33.8c-1,0-0.7,0-1.7,0c0.2-5.3,0.1-5.9,0-8c1,0,0.6,0,1.6,0C74.8,25.8,74.8,33.8,73.4,33.8z M27.7,25.8c-1,0-0.4,0-1.4,0
				c-1.5,0-1.5,8,0,8c1,0,0.5,0,1.5,0C27.6,31.2,27.6,27.6,27.7,25.8z M29.1,42.8c2,2,39.2,2,41.2,0c2-2,2-25.1,0-27.1
				c-2-2-39.2-2-41.2,0C27.1,17.7,27.1,40.8,29.1,42.8z M71.9,74.2c0-12.4-4.6-24.4-5.9-25.4c-1.2-1-8.3-1.5-15.5-1.5l0,0
				c0,0,0,0,0,0c0,0,0,0,0,0l0,0c-7.1,0-14.2,0.5-15.5,1.5c-1.3,1-5.9,13-5.9,25.4c0,1.9,0.6,1.9,0.6,1.9h41.6
				C71.3,76.2,71.9,76.2,71.9,74.2z M24.5,55.2C23.3,57.8,19.8,76,19.8,76l5.5,0c0,0,1.4-10.1,3.2-17.3c1-4.3,2.1-7.7,2.3-8.1
				C31.1,49.6,25.5,53.3,24.5,55.2z M70.3,50.7c0.1,0.4,1.2,3.8,2.3,8.1c1.7,7.2,3.2,17.3,3.2,17.3l5.5,0c0,0-3.4-18.2-4.7-20.7
				C75.5,53.3,69.9,49.6,70.3,50.7z"/>
			<path fill="#39424E" d="M64.5,26c0,2.5-1.6,4.5-3.5,4.5c-1.9,0-3.5-2-3.5-4.5c0-2.5,1.6-4.5,3.5-4.5C62.9,21.5,64.5,23.5,64.5,26
				z M62,24.5c0-0.6-0.4-1-1-1c-0.6,0-1,0.5-1,1c0,0.6,0.4,1,1,1C61.6,25.5,62,25.1,62,24.5z M43.5,26c0,2.5-1.6,4.5-3.5,4.5
				c-1.9,0-3.5-2-3.5-4.5c0-2.5,1.6-4.5,3.5-4.5C41.9,21.5,43.5,23.5,43.5,26z M41,24.5c0-0.6-0.5-1-1-1c-0.6,0-1,0.5-1,1
				c0,0.6,0.5,1,1,1C40.6,25.5,41,25.1,41,24.5z"/>
		</g>
		
			<path fill="#0AD264" stroke="#39424E" stroke-width="1.579" stroke-linecap="round" stroke-linejoin="round" stroke-miterlimit="10" d="
			M49.8,9.1c-0.6,0-1,0.4-1,1v4.1l2,0v-4.1C50.8,9.6,50.4,9.1,49.8,9.1z"/>
		<path fill="#39424E" d="M48.6,6.9l1.1-3.2l-1.1-0.4l3-2.5L50.5,4l1.1,0.4L48.6,6.9z"/>
	</g>
</g>
<g id="Layer_5" display="none">
	<g display="inline">
		
			<path fill="none" stroke="#979FAF" stroke-width="1.5411" stroke-linecap="round" stroke-linejoin="round" stroke-miterlimit="10" stroke-opacity="0.25" d="
			M51.6,75.6c-32.8,0-49.2-3.9-45-8.1c4.2-4.2,20.6-10,45-10c24.4,0,40.3,5.7,44.7,10C100.7,71.9,84.4,75.6,51.6,75.6z M51.6,57.5
			l0.1-54.1"/>
		<g>
			
				<path fill="#0AD264" stroke="#39424E" stroke-width="1.5411" stroke-linecap="round" stroke-linejoin="round" stroke-miterlimit="10" d="
				M50.6,74.6c-32.8,0-49.2-3.9-45-8.1c4.2-4.2,20.6-10,45-10c24.4,0,40.3,5.7,44.7,10C99.7,70.9,83.4,74.6,50.6,74.6z"/>
			<path fill="#24B060" d="M95.3,66.5c-0.8-0.8-2-1.6-3.5-2.5c0.2,0.2,0.4,0.3,0.5,0.5c4.4,4.4-11.9,8.1-44.7,8.1
				c-21.8,0-36.4-1.7-42.4-4.1C7,71.8,23,74.6,50.6,74.6C83.4,74.6,99.7,70.9,95.3,66.5z"/>
			
				<path fill="none" stroke="#39424E" stroke-width="1.5411" stroke-linecap="round" stroke-linejoin="round" stroke-miterlimit="10" d="
				M50.6,74.6c-32.8,0-49.2-3.9-45-8.1c4.2-4.2,20.6-10,45-10c24.4,0,40.3,5.7,44.7,10C99.7,70.9,83.4,74.6,50.6,74.6z"/>
			<path opacity="0.4" fill="none" stroke="#FFF8CB" stroke-linecap="round" stroke-linejoin="round" stroke-miterlimit="10" d="
				M14.8,63.7c4.2-1.8,8.4-2.8,13.1-3.8 M11.8,69.5c-2.2-0.6-3.6-1.2-3.5-1.9c1.6-1.3,3.3-2.4,5.1-3.3"/>
		</g>
		
			<path fill="#3E96DA" fill-opacity="0.15" stroke="#39424E" stroke-width="1.5411" stroke-linecap="round" stroke-linejoin="round" stroke-miterlimit="10" d="
			M50.8,63.2V2.4"/>
		
			<polygon fill="#0AD264" stroke="#39424E" stroke-width="1.5411" stroke-linecap="round" stroke-linejoin="round" stroke-miterlimit="10" points="
			51.8,4.7 51.8,18 58.5,15.7 58.5,10 58.5,6.5 		"/>
		
			<polygon fill="none" stroke="#39424E" stroke-width="1.5411" stroke-linecap="round" stroke-linejoin="round" stroke-miterlimit="10" points="
			51.8,4.7 51.8,18 58.5,15.7 58.5,10 58.5,6.5 		"/>
		
			<path fill="#0AD264" stroke="#39424E" stroke-width="1.5411" stroke-linecap="round" stroke-linejoin="round" stroke-miterlimit="10" d="
			M58.5,8.1c0,0,0,5,0,10.3c0,0.8,21.1-4.6,22.5-5.5C82.1,12.3,58.5,8.1,58.5,8.1z"/>
		
			<polygon fill="none" stroke="#24B060" stroke-width="1.5411" stroke-linecap="round" stroke-linejoin="round" stroke-miterlimit="10" points="
			59.4,17.7 59.4,11.9 59.4,8.4 		"/>
		
			<path fill="none" stroke="#39424E" stroke-width="1.5411" stroke-linecap="round" stroke-linejoin="round" stroke-miterlimit="10" d="
			M58.5,8.1c0,0,0,5,0,10.3c0,0.8,21.1-4.6,22.5-5.5C82.1,12.3,58.5,8.1,58.5,8.1z"/>
		<path fill="#47B86C" d="M55.1,61.4c0.5,0.4,0.7,0.8,0.7,1.2c0,0.4-0.2,0.9-0.7,1.2c-1.2,1-3.6,1.6-6.5,1.6c-1.7,0-3.3-0.2-4.5-0.6
			c1.2,1,3.6,1.6,6.5,1.6c2.9,0,5.4-0.7,6.5-1.6c0.4-0.4,0.7-0.8,0.7-1.2C57.8,62.7,56.8,61.9,55.1,61.4z"/>
		<path fill="none" stroke="#39424E" stroke-width="1.4545" stroke-linecap="round" stroke-miterlimit="10" d="M47.8,61
			c-2.6,0.4-4.4,1.5-4.4,2.6c0,1.6,3.2,2.9,7.2,2.9c2.9,0,5.4-0.7,6.5-1.6c0.4-0.4,0.7-0.8,0.7-1.2c0-1.1-1.6-2.1-4-2.6"/>
		<ellipse fill="#24B060" cx="66.3" cy="67.1" rx="2.2" ry="1.5"/>
		<circle fill="#FFF8CB" stroke="#FFF8CB" stroke-linecap="round" stroke-miterlimit="10" cx="65.7" cy="65.6" r="1.5"/>
	</g>
</g>
</svg>
