<?xml version="1.0" encoding="utf-8"?>
<!-- Generator: Adobe Illustrator 17.1.0, SVG Export Plug-In . SVG Version: 6.00 Build 0)  -->
<!DOCTYPE svg PUBLIC "-//W3C//DTD SVG 1.1//EN" "http://www.w3.org/Graphics/SVG/1.1/DTD/svg11.dtd">
<svg version="1.1" xmlns="http://www.w3.org/2000/svg" xmlns:xlink="http://www.w3.org/1999/xlink" x="0px" y="0px"
	 viewBox="0 0 102 78" enable-background="new 0 0 102 78" xml:space="preserve">
<g id="Layer_1" display="none">
	
		<path display="inline" fill="none" stroke="#979FAF" stroke-width="1.579" stroke-linecap="round" stroke-linejoin="round" stroke-miterlimit="10" stroke-opacity="0.25" d="
		M44.8,50.9l2.4-1.1l-0.1-1.5l-2.6-0.6c-0.2-1.3-0.6-2.5-1.1-3.7l1.9-2l-0.7-1.4l-2.8,0.4c-0.6-0.9-1.3-1.8-2.1-2.5l1.2-3l-1.2-1
		L37,36.3c-1-0.7-2.1-1.3-3.3-1.8l0-3.1L32.2,31l-1.8,2.5c-1.1-0.2-2.2-0.3-3.4-0.3l-1.3-2.9l-0.2,0l-1.4,0.1l-0.2,0l-0.8,3.2
		c-1,0.2-2,0.5-3,0.9l-2.4-2.3L16.5,33l0.5,3.3c-0.9,0.6-1.7,1.3-2.5,2l-3.1-1.2l-1,1.2l1.7,2.8c-0.6,0.9-1.1,1.8-1.6,2.8l-3.3,0.1
		l-0.5,1.5l2.7,1.9c-0.2,1.1-0.4,2.2-0.4,3.3l-3,1.3l0.1,1.5l3.1,0.7c0.2,1.1,0.5,2.2,0.9,3.3l-2.2,2.2L8.8,61l3-0.5
		c0.7,1.1,1.5,2.2,2.4,3.1l-1,2.4l1.2,1l2.2-1.4c0.9,0.7,2,1.2,3,1.7l0,2.8l1.5,0.5l1.6-2.2c1.2,0.3,2.4,0.4,3.6,0.5l1.1,2.5l0.2,0
		l1.4-0.1l0.2,0l0.6-2.6c1.3-0.2,2.6-0.6,3.8-1.1l1.9,1.8l1.4-0.7l-0.4-2.5c1.1-0.7,2.2-1.5,3.1-2.5l2.4,0.9l1-1.2l-1.3-2.2
		c0.8-1.1,1.4-2.3,1.9-3.5l2.6,0l0.5-1.5l-2.1-1.5C44.7,53.6,44.8,52.3,44.8,50.9z M26.8,59.7c-4.8,0-8.7-3.9-8.7-8.7
		c0-4.8,3.9-8.7,8.7-8.7c4.8,0,8.7,3.9,8.7,8.7C35.5,55.8,31.6,59.7,26.8,59.7z"/>
	<g display="inline">
		
			<path fill="#0AD264" stroke="#39424E" stroke-width="1.579" stroke-linecap="round" stroke-linejoin="round" stroke-miterlimit="10" d="
			M43.5,50.1l2.4-1.1l-0.1-1.5l-2.6-0.6c-0.2-1.3-0.6-2.5-1.1-3.7l1.9-2l-0.7-1.3l-2.8,0.4c-0.6-0.9-1.3-1.8-2.1-2.5l1.2-3l-1.2-1
			l-2.8,1.7c-1-0.7-2.1-1.3-3.3-1.8l0-3.1l-1.5-0.5L29,32.7c-1.1-0.2-2.2-0.3-3.4-0.3l-1.3-2.9l-0.2,0l-1.4,0.1l-0.2,0l-0.8,3.2
			c-1,0.2-2,0.5-3,0.9l-2.4-2.3l-1.4,0.7l0.5,3.3c-0.9,0.6-1.7,1.3-2.5,2l-3.1-1.2l-1,1.2l1.7,2.8c-0.6,0.9-1.1,1.8-1.6,2.8L6,43.1
			l-0.5,1.5l2.7,1.9c-0.2,1.1-0.4,2.2-0.4,3.3l-3,1.3l0.1,1.5L8,53.3c0.2,1.1,0.5,2.2,0.9,3.3l-2.2,2.2l0.7,1.3l3-0.5
			c0.7,1.1,1.5,2.2,2.4,3.1l-1,2.4l1.2,1l2.2-1.4c0.9,0.7,2,1.2,3,1.7l0,2.8l1.5,0.5l1.6-2.2c1.2,0.3,2.4,0.4,3.6,0.5l1.1,2.5l0.2,0
			l1.4-0.1l0.2,0l0.6-2.6c1.3-0.2,2.6-0.6,3.8-1.1l1.9,1.8l1.4-0.7l-0.4-2.5c1.1-0.7,2.2-1.5,3.1-2.5l2.4,0.9l1-1.2l-1.3-2.2
			c0.8-1.1,1.4-2.3,1.9-3.5l2.6,0l0.5-1.5L43.1,54C43.3,52.7,43.5,51.4,43.5,50.1z M25.4,58.8c-4.8,0-8.7-3.9-8.7-8.7
			c0-4.8,3.9-8.7,8.7-8.7c4.8,0,8.7,3.9,8.7,8.7C34.1,54.9,30.2,58.8,25.4,58.8z"/>
		<path opacity="0.6" fill="#47B86C" d="M38.3,63.1l2.5,1l1-1.2l-1.4-2.3c0.7-1.1,1.3-2.2,1.8-3.4l2.8,0l0.5-1.5l-2.3-1.7
			c0.2-1.1,0.3-2.2,0.3-3.3l3-1.3L46.3,48l-3.2-0.8c-0.2-1.2-0.6-2.4-1.1-3.6l2.1-2.2l-0.7-1.4l-3.1,0.5c-0.6-0.9-1.4-1.8-2.2-2.6
			l0.2-0.6l-6.8,6.8c0,0,0,0,0,0c3.4,3.4,3.4,8.9,0,12.3c-3.4,3.4-8.9,3.4-12.3,0c0,0,0,0,0,0l-6.9,6.9l-0.8,2l0.1,0.1l1,0.9
			l0.1,0.1l2.3-1.4c1.1,0.8,2.2,1.4,3.4,1.9l0,2.6l1.5,0.5l1.5-2.1c1.3,0.3,2.6,0.5,4,0.5l1,2.3l1.5-0.1l0.6-2.5
			c1.3-0.2,2.6-0.6,3.8-1.1l1.8,1.8l1.3-0.7l-0.4-2.6C36.4,64.9,37.4,64.1,38.3,63.1z"/>
		
			<path fill="none" stroke="#39424E" stroke-width="1.579" stroke-linecap="round" stroke-linejoin="round" stroke-miterlimit="10" d="
			M43.5,50.1l2.4-1.1l-0.1-1.5l-2.6-0.6c-0.2-1.3-0.6-2.5-1.1-3.7l1.9-2l-0.7-1.3l-2.8,0.4c-0.6-0.9-1.3-1.8-2.1-2.5l1.2-3l-1.2-1
			l-2.8,1.7c-1-0.7-2.1-1.3-3.3-1.8l0-3.1l-1.5-0.5L29,32.7c-1.1-0.2-2.2-0.3-3.4-0.3l-1.3-2.9l-0.2,0l-1.4,0.1l-0.2,0l-0.8,3.2
			c-1,0.2-2,0.5-3,0.9l-2.4-2.3l-1.4,0.7l0.5,3.3c-0.9,0.6-1.7,1.3-2.5,2l-3.1-1.2l-1,1.2l1.7,2.8c-0.6,0.9-1.1,1.8-1.6,2.8L6,43.1
			l-0.5,1.5l2.7,1.9c-0.2,1.1-0.4,2.2-0.4,3.3l-3,1.3l0.1,1.5L8,53.3c0.2,1.1,0.5,2.2,0.9,3.3l-2.2,2.2l0.7,1.3l3-0.5
			c0.7,1.1,1.5,2.2,2.4,3.1l-1,2.4l1.2,1l2.2-1.4c0.9,0.7,2,1.2,3,1.7l0,2.8l1.5,0.5l1.6-2.2c1.2,0.3,2.4,0.4,3.6,0.5l1.1,2.5l0.2,0
			l1.4-0.1l0.2,0l0.6-2.6c1.3-0.2,2.6-0.6,3.8-1.1l1.9,1.8l1.4-0.7l-0.4-2.5c1.1-0.7,2.2-1.5,3.1-2.5l2.4,0.9l1-1.2l-1.3-2.2
			c0.8-1.1,1.4-2.3,1.9-3.5l2.6,0l0.5-1.5L43.1,54C43.3,52.7,43.5,51.4,43.5,50.1z M25.4,58.8c-4.8,0-8.7-3.9-8.7-8.7
			c0-4.8,3.9-8.7,8.7-8.7c4.8,0,8.7,3.9,8.7,8.7C34.1,54.9,30.2,58.8,25.4,58.8z"/>
		<g>
			<path opacity="0.4" fill="none" stroke="#FFF8CB" stroke-linecap="round" stroke-linejoin="round" stroke-miterlimit="10" d="
				M11.8,56.4c0.4,0.8,0.8,1.6,1.3,2.4"/>
			<path opacity="0.4" fill="none" stroke="#FFF8CB" stroke-linecap="round" stroke-linejoin="round" stroke-miterlimit="10" d="
				M18.9,36.8c-0.7,0.3-1.3,0.7-2,1.1c-4.8,3.3-7.1,8.9-6.4,14.3"/>
			<path opacity="0.4" fill="none" stroke="#FFF8CB" stroke-linecap="round" stroke-linejoin="round" stroke-miterlimit="10" d="
				M33.7,37.6c-3.5-2.1-7.9-2.9-11.9-1.9"/>
		</g>
	</g>
	<g display="inline">
		
			<path fill="none" stroke="#979FAF" stroke-width="1.579" stroke-linecap="round" stroke-linejoin="round" stroke-miterlimit="10" stroke-opacity="0.25" d="
			M94.4,38.3l3.3-1l0-2l-3.3-1.2c-0.1-1.7-0.4-3.3-0.9-4.8l2.7-2.3l-0.7-1.8l-3.6,0.2c-0.7-1.3-1.4-2.4-2.3-3.6l2-3.7l-1.3-1.4
			l-3.8,1.8c-1.2-1-2.6-2-4-2.7l0.4-3.9l-1.8-0.8l-2.7,3c-1.4-0.4-2.8-0.7-4.3-0.9l-1.2-3.9l-0.2,0l-1.8,0l-0.2,0l-1.4,4
			c-1.4,0.1-2.7,0.4-4,0.7l-2.7-3.3l-1.8,0.7l0.2,4.3c-1.2,0.6-2.4,1.4-3.5,2.2l-3.8-2l-1.4,1.4l1.8,3.9c-0.9,1.1-1.7,2.2-2.4,3.4
			L47.4,24l-0.8,1.8l3.1,2.9c-0.4,1.3-0.8,2.7-1,4.1l-4,1.2l-0.1,2l3.9,1.4c0.1,1.5,0.3,2.9,0.7,4.3l-3.1,2.6l0.7,1.8l3.9-0.2
			c0.7,1.5,1.6,3,2.7,4.3l-1.6,3l1.4,1.4l3-1.4c1.1,1,2.3,1.9,3.6,2.6l-0.3,3.6l1.8,0.8l2.4-2.6c1.5,0.5,3,0.9,4.6,1.1l1,3.3l0.2,0
			l1.8,0l0.2,0l1.2-3.2c1.7-0.1,3.4-0.4,5-0.8l2.1,2.6l1.8-0.7l-0.2-3.3c1.6-0.7,3-1.7,4.4-2.7l2.9,1.5l1.4-1.4l-1.4-3
			c1.1-1.3,2.1-2.7,3-4.2l3.3,0.3l0.8-1.8l-2.5-2.2C93.9,41.7,94.2,40.1,94.4,38.3z M70,46.9c-6.2-0.7-10.6-6.2-9.9-12.4
			c0.7-6.2,6.2-10.6,12.4-9.9c6.2,0.7,10.6,6.2,9.9,12.4C81.7,43.2,76.2,47.6,70,46.9z"/>
		<g>
			
				<path fill="#0AD264" stroke="#39424E" stroke-width="1.579" stroke-linecap="round" stroke-linejoin="round" stroke-miterlimit="10" d="
				M93.8,37.1l3.3-1l0-2L93.8,33c-0.1-1.7-0.4-3.3-0.9-4.8l2.7-2.3L94.9,24l-3.6,0.2c-0.7-1.3-1.4-2.4-2.3-3.6l2-3.7l-1.3-1.4
				l-3.8,1.8c-1.2-1-2.6-2-4-2.7l0.4-3.9l-1.8-0.8l-2.7,3c-1.4-0.4-2.8-0.7-4.3-0.9L72.2,8L72,8l-1.8,0l-0.2,0l-1.4,4
				c-1.4,0.1-2.7,0.4-4,0.7L62,9.4l-1.8,0.7l0.2,4.3c-1.2,0.6-2.4,1.4-3.5,2.2l-3.8-2l-1.4,1.3l1.8,3.9c-0.9,1.1-1.7,2.2-2.4,3.4
				l-4.2-0.4L46,24.6l3.1,2.9c-0.4,1.3-0.8,2.7-1,4.1l-4,1.2l-0.1,2l3.9,1.4c0.1,1.5,0.3,2.9,0.7,4.3L45.5,43l0.7,1.8l3.9-0.2
				c0.7,1.5,1.6,3,2.7,4.3l-1.6,3l1.4,1.4l3-1.4c1.1,1,2.3,1.9,3.6,2.6l-0.4,3.6l1.8,0.8l2.4-2.6c1.5,0.5,3,0.9,4.6,1.1l1,3.3l0.2,0
				l1.8,0l0.2,0l1.2-3.2c1.7-0.1,3.4-0.4,5-0.8l2.1,2.6l1.8-0.7l-0.2-3.3c1.6-0.7,3-1.7,4.4-2.7l2.9,1.5l1.4-1.4l-1.4-3
				c1.1-1.3,2.1-2.7,3-4.2l3.3,0.3l0.8-1.8L92.7,42C93.2,40.5,93.6,38.8,93.8,37.1z M69.4,45.7c-6.2-0.7-10.6-6.2-9.9-12.4
				c0.7-6.2,6.2-10.6,12.4-9.9c6.2,0.7,10.6,6.2,9.9,12.4C81.1,41.9,75.6,46.4,69.4,45.7z"/>
			<path opacity="0.7" fill="#47B86C" d="M78.5,26.3c0.3,0.3,0.5,0.6,0.8,0.9c3.9,4.8,3.1,11.9-1.8,15.8c-4.5,3.6-10.9,3.2-14.9-0.8
				L51.7,53l0.2,0.2l0.1,0.1l3.8-1.8c1.1,0.9,2.2,1.6,3.3,2.3l-0.4,4.2l1.8,0.8l2.9-3.2c1.3,0.4,2.7,0.7,4.1,0.9l1.3,4.1l2,0.1
				l1.5-4c1.4-0.1,2.8-0.3,4.1-0.7l2.7,3.3l1.8-0.7l-0.2-4.2c1.3-0.6,2.5-1.4,3.6-2.2l3.7,2l1.4-1.4l-1.7-3.7c1-1.1,1.8-2.3,2.6-3.5
				l4,0.4l0.8-1.8l-2.9-2.7c0.6-1.6,1-3.3,1.2-5l3.2-1l0.1-2l-3.2-1.1c-0.1-1.5-0.3-3-0.7-4.4l2.8-2.3l-0.7-1.8l-3.5,0.2
				c-0.7-1.4-1.5-2.8-2.4-4l1.6-3.1l-0.1-0.1l-1.1-1.2L78.5,26.3z"/>
			
				<path fill="none" stroke="#39424E" stroke-width="1.579" stroke-linecap="round" stroke-linejoin="round" stroke-miterlimit="10" d="
				M93.8,37.1l3.3-1l0-2L93.8,33c-0.1-1.7-0.4-3.3-0.9-4.8l2.7-2.3L94.9,24l-3.6,0.2c-0.7-1.3-1.4-2.4-2.3-3.6l2-3.7l-1.3-1.4
				l-3.8,1.8c-1.2-1-2.6-2-4-2.7l0.4-3.9l-1.8-0.8l-2.7,3c-1.4-0.4-2.8-0.7-4.3-0.9L72.2,8L72,8l-1.8,0l-0.2,0l-1.4,4
				c-1.4,0.1-2.7,0.4-4,0.7L62,9.4l-1.8,0.7l0.2,4.3c-1.2,0.6-2.4,1.4-3.5,2.2l-3.8-2l-1.4,1.3l1.8,3.9c-0.9,1.1-1.7,2.2-2.4,3.4
				l-4.2-0.4L46,24.6l3.1,2.9c-0.4,1.3-0.8,2.7-1,4.1l-4,1.2l-0.1,2l3.9,1.4c0.1,1.5,0.3,2.9,0.7,4.3L45.5,43l0.7,1.8l3.9-0.2
				c0.7,1.5,1.6,3,2.7,4.3l-1.6,3l1.4,1.4l3-1.4c1.1,1,2.3,1.9,3.6,2.6l-0.4,3.6l1.8,0.8l2.4-2.6c1.5,0.5,3,0.9,4.6,1.1l1,3.3l0.2,0
				l1.8,0l0.2,0l1.2-3.2c1.7-0.1,3.4-0.4,5-0.8l2.1,2.6l1.8-0.7l-0.2-3.3c1.6-0.7,3-1.7,4.4-2.7l2.9,1.5l1.4-1.4l-1.4-3
				c1.1-1.3,2.1-2.7,3-4.2l3.3,0.3l0.8-1.8L92.7,42C93.2,40.5,93.6,38.8,93.8,37.1z M69.4,45.7c-6.2-0.7-10.6-6.2-9.9-12.4
				c0.7-6.2,6.2-10.6,12.4-9.9c6.2,0.7,10.6,6.2,9.9,12.4C81.1,41.9,75.6,46.4,69.4,45.7z"/>
			<g>
				<path opacity="0.4" fill="none" stroke="#FFF8CB" stroke-linecap="round" stroke-linejoin="round" stroke-miterlimit="10" d="
					M57.7,19.2c1.1-1,2.3-1.8,3.6-2.5"/>
				<path opacity="0.4" fill="none" stroke="#FFF8CB" stroke-linecap="round" stroke-linejoin="round" stroke-miterlimit="10" d="
					M55.4,21.5c0.2-0.3,0.5-0.5,0.7-0.8"/>
				<path opacity="0.4" fill="none" stroke="#FFF8CB" stroke-linecap="round" stroke-linejoin="round" stroke-miterlimit="10" d="
					M52.9,43.4c-1.3-2.7-2.1-5.8-2.1-9c0-4,1.2-7.8,3.2-10.9"/>
				<path opacity="0.4" fill="none" stroke="#FFF8CB" stroke-linecap="round" stroke-linejoin="round" stroke-miterlimit="10" d="
					M65.5,15.1c1.5-0.4,3.1-0.6,4.8-0.6c3.5,0,6.9,1,9.7,2.6"/>
			</g>
		</g>
	</g>
</g>
<g id="Layer_2" display="none">
	<g display="inline">
		
			<path fill="none" stroke="#979FAF" stroke-width="1.579" stroke-linecap="round" stroke-linejoin="round" stroke-miterlimit="10" stroke-opacity="0.25" d="
			M57.4,20.5L36.6,31.9L15.8,20.5L36.6,9.1L57.4,20.5z M68.4,46.9H4.8v13h63.6V46.9z M93.8,36.9c-1.6,0-2.8,1.3-2.8,2.8
			s1.3,2.8,2.8,2.8s2.8-1.3,2.8-2.8S95.4,36.9,93.8,36.9z M93.8,73.3H36.6 M57.4,20.5h36.4 M93.8,42.5v30.8 M93.8,20.5v16.4
			 M36.6,37.1v9.8 M36.6,65.2v8.1"/>
		<g>
			<g>
				<path fill="#0AD264" d="M56.4,19.5L35.6,30.9L14.8,19.5L35.6,8.1L56.4,19.5z M67.4,45.9H3.8v13h63.6V45.9z M92.8,35.9
					c-1.6,0-2.8,1.3-2.8,2.8s1.3,2.8,2.8,2.8s2.8-1.3,2.8-2.8S94.4,35.9,92.8,35.9z M92.8,72.3H35.6 M56.4,19.5h36.4 M92.8,41.5
					v30.8 M92.8,19.5v16.4 M35.6,36.1v9.8 M35.6,64.2v8.1"/>
			</g>
			
				<path fill="none" stroke="#39424E" stroke-width="1.5411" stroke-linecap="round" stroke-linejoin="round" stroke-miterlimit="10" d="
				M56.4,19.5L35.6,30.9L14.8,19.5L35.6,8.1L56.4,19.5z M67.4,45.9H3.8v13h63.6V45.9z M92.8,35.9c-1.6,0-2.8,1.3-2.8,2.8
				s1.3,2.8,2.8,2.8s2.8-1.3,2.8-2.8S94.4,35.9,92.8,35.9z M92.8,72.3H35.6 M56.4,19.5h36.4 M92.8,41.5v30.8 M92.8,19.5v16.4
				 M35.6,36.1v9.8 M35.6,64.2v8.1"/>
		</g>
		<g>
			<g>
				<path fill="#47B86C" d="M34.1,28.3c-1.9,1-5.7-2.1-5.7-2.1l0,0l7.2,4l20.8-10.7L53.5,18C53.5,18,36,27.3,34.1,28.3z"/>
			</g>
			<g>
				<path fill="#47B86C" d="M93.5,36c0.1,0.2,0.1,0.5,0.1,0.7c0,1.6-1.3,2.8-2.8,2.8c-0.3,0-0.5,0-0.7-0.1c0.3,1.2,1.4,2.1,2.7,2.1
					c1.6,0,2.8-1.3,2.8-2.8C95.6,37.4,94.7,36.3,93.5,36z"/>
			</g>
			<g>
				<polygon fill="#47B86C" points="67.4,45.9 65.4,45.9 65.4,56.9 3.8,56.9 3.8,58.9 67.4,58.9 				"/>
			</g>
		</g>
		<g>
			
				<path fill="none" stroke="#39424E" stroke-width="1.5411" stroke-linecap="round" stroke-linejoin="round" stroke-miterlimit="10" d="
				M56.4,19.5L35.6,30.9L14.8,19.5L35.6,8.1L56.4,19.5z M67.4,45.9H3.8v13h63.6V45.9z M92.8,35.9c-1.6,0-2.8,1.3-2.8,2.8
				s1.3,2.8,2.8,2.8s2.8-1.3,2.8-2.8S94.4,35.9,92.8,35.9z M92.8,72.3H35.6 M56.4,19.5h36.4 M92.8,41.5v30.8 M92.8,19.5v16.4
				 M35.6,36.1v9.8 M35.6,64.2v8.1"/>
		</g>
		<g opacity="0.4">
			<path fill="none" stroke="#FFF8CB" stroke-linecap="round" stroke-linejoin="round" stroke-miterlimit="10" d="M32.1,12.8l1.8-1
				l1.7-0.9 M24.1,21.9l-4.3-2.4l10.5-5.8 M32.1,47.9H5.8v8.2 M32.1,47.9 M34.2,47.9 M47.7,47.9H34.2 M53.9,47.9H50 M37.6,47.9"/>
		</g>
	</g>
	<g display="inline">
		<g opacity="0.1">
			
				<polyline stroke="#000000" stroke-width="1.5411" stroke-linecap="round" stroke-linejoin="round" stroke-miterlimit="10" points="
				36.6,37.1 36.6,33.4 32.9,37.1 40.4,37.1 36.6,33.4 			"/>
			
				<polyline stroke="#000000" stroke-width="1.5411" stroke-linecap="round" stroke-linejoin="round" stroke-miterlimit="10" points="
				36.6,61.5 36.6,65.2 36.6,61.5 32.9,65.2 40.4,65.2 36.6,61.5 			"/>
			
				<polyline stroke="#000000" stroke-width="1.5411" stroke-linecap="round" stroke-linejoin="round" stroke-miterlimit="10" points="
				83.6,20.5 79.9,24.3 79.9,16.8 83.6,20.5 79.9,20.5 			"/>
			
				<polygon stroke="#000000" stroke-width="1.5411" stroke-linecap="round" stroke-linejoin="round" stroke-miterlimit="10" points="
				93.8,59.3 93.8,63 97.5,59.3 90,59.3 93.8,63 			"/>
		</g>
		<g>
			<g>
				
					<polyline fill="#39424E" stroke="#39424E" stroke-width="1.5411" stroke-linecap="round" stroke-linejoin="round" stroke-miterlimit="10" points="
					35.6,36.1 35.6,32.4 31.9,36.1 39.4,36.1 35.6,32.4 				"/>
				
					<polyline fill="#39424E" stroke="#39424E" stroke-width="1.5411" stroke-linecap="round" stroke-linejoin="round" stroke-miterlimit="10" points="
					35.6,60.5 35.6,64.2 35.6,60.5 31.9,64.2 39.4,64.2 35.6,60.5 				"/>
				
					<polyline fill="#39424E" stroke="#39424E" stroke-width="1.5411" stroke-linecap="round" stroke-linejoin="round" stroke-miterlimit="10" points="
					82.6,19.5 78.9,23.3 78.9,15.8 82.6,19.5 78.9,19.5 				"/>
				
					<polygon fill="#39424E" stroke="#39424E" stroke-width="1.5411" stroke-linecap="round" stroke-linejoin="round" stroke-miterlimit="10" points="
					92.8,58.3 92.8,62 96.5,58.3 89,58.3 92.8,62 				"/>
			</g>
		</g>
	</g>
</g>
<g id="Layer_3" display="none">
	<g display="inline">
		<g opacity="0.1">
			<path d="M40.1,4.9c4.2,0.9,6.4,3.8,7.7,7.5c1.4,4.1,2.6,8.3,3.6,12.5c2.5,10.3,4.7,20.7,7.1,31.1c0.7,2.9,1.7,5.7,2.7,8.5
				c0.6,1.7,1.7,3.1,3.1,4.3c2.5,2.2,7.6,2.3,9.4-2.2c0.5-1.4,0.8-2.8,1.2-4.3c0.5,0,1,0,1.7,0c-0.1,1.2,0,2.4-0.2,3.5
				c-0.3,2-0.7,4.1-1.3,6c-0.9,2.6-2.7,4.6-5.5,5.4c-3.5,1.1-8-0.7-9.8-4.1c-1.1-2.1-2.1-4.5-2.7-6.8c-1.5-5.7-2.7-11.5-4-17.3
				c-0.5-2-0.9-4.1-1.4-6.4c-0.3,0.6-0.4,0.9-0.6,1.2C46.5,54.5,41.7,65.2,37,75.9c-0.3,0.7-0.6,0.9-1.3,0.9c-2.8,0-5.6,0-8.6,0
				c0.2-0.4,0.3-0.7,0.4-1C34.5,60.9,41.4,46,48.3,31.1c0.3-0.7,0.4-1.3,0.2-2c-0.9-4.1-1.8-8.1-3.7-11.8c-0.4-0.7-0.8-1.4-1.3-2.1
				c-3.4-4.7-9.1-2.9-11.1,0.9c-0.7,1.3-1,2.8-1.2,4.2c-0.2,1.2,0,1.1-1.3,1.1c-0.2,0-0.4,0-0.6-0.1c0-2.9,0.3-5.7,1.3-8.3
				c0.5-1.4,1.2-2.8,2.1-4.1C34,6.7,36,5.4,38.5,4.9C39,4.9,39.6,4.9,40.1,4.9z"/>
			
				<path fill="none" stroke="#000000" stroke-width="1.579" stroke-linecap="round" stroke-linejoin="round" stroke-miterlimit="10" d="
				M40.1,4.9c4.2,0.9,6.4,3.8,7.7,7.5c1.4,4.1,2.6,8.3,3.6,12.5c2.5,10.3,4.7,20.7,7.1,31.1c0.7,2.9,1.7,5.7,2.7,8.5
				c0.6,1.7,1.7,3.1,3.1,4.3c2.5,2.2,7.6,2.3,9.4-2.2c0.5-1.4,0.8-2.8,1.2-4.3c0.5,0,1,0,1.7,0c-0.1,1.2,0,2.4-0.2,3.5
				c-0.3,2-0.7,4.1-1.3,6c-0.9,2.6-2.7,4.6-5.5,5.4c-3.5,1.1-8-0.7-9.8-4.1c-1.1-2.1-2.1-4.5-2.7-6.8c-1.5-5.7-2.7-11.5-4-17.3
				c-0.5-2-0.9-4.1-1.4-6.4c-0.3,0.6-0.4,0.9-0.6,1.2C46.5,54.5,41.7,65.2,37,75.9c-0.3,0.7-0.6,0.9-1.3,0.9c-2.8,0-5.6,0-8.6,0
				c0.2-0.4,0.3-0.7,0.4-1C34.5,60.9,41.4,46,48.3,31.1c0.3-0.7,0.4-1.3,0.2-2c-0.9-4.1-1.8-8.1-3.7-11.8c-0.4-0.7-0.8-1.4-1.3-2.1
				c-3.4-4.7-9.1-2.9-11.1,0.9c-0.7,1.3-1,2.8-1.2,4.2c-0.2,1.2,0,1.1-1.3,1.1c-0.2,0-0.4,0-0.6-0.1c0-2.9,0.3-5.7,1.3-8.3
				c0.5-1.4,1.2-2.8,2.1-4.1C34,6.7,36,5.4,38.5,4.9C39,4.9,39.6,4.9,40.1,4.9z"/>
		</g>
		<g>
			<path fill="#0AD264" d="M39.1,3.9c4.2,0.9,6.4,3.8,7.7,7.5c1.4,4.1,2.6,8.3,3.6,12.5c2.5,10.3,4.7,20.7,7.1,31.1
				c0.7,2.9,1.7,5.7,2.7,8.5c0.6,1.7,1.7,3.1,3.1,4.3c2.5,2.2,7.6,2.3,9.4-2.2c0.5-1.4,0.8-2.8,1.2-4.3c0.5,0,1,0,1.7,0
				c-0.1,1.2,0,2.4-0.2,3.5c-0.3,2-0.7,4.1-1.3,6c-0.9,2.6-2.7,4.6-5.5,5.4c-3.5,1.1-8-0.7-9.8-4.1c-1.1-2.1-2.1-4.5-2.7-6.8
				c-1.5-5.7-2.7-11.5-4-17.3c-0.5-2-0.9-4.1-1.4-6.4c-0.3,0.6-0.4,0.9-0.6,1.2C45.5,53.5,40.7,64.2,36,74.9
				c-0.3,0.7-0.6,0.9-1.3,0.9c-2.8,0-5.6,0-8.6,0c0.2-0.4,0.3-0.7,0.4-1C33.5,59.9,40.4,45,47.3,30.1c0.3-0.7,0.4-1.3,0.2-2
				c-0.9-4.1-1.8-8.1-3.7-11.8c-0.4-0.7-0.8-1.4-1.3-2.1c-3.4-4.7-9.1-2.9-11.1,0.9c-0.7,1.3-1,2.8-1.2,4.2c-0.2,1.2,0,1.1-1.3,1.1
				c-0.2,0-0.4,0-0.6-0.1c0-2.9,0.3-5.7,1.3-8.3c0.5-1.4,1.2-2.8,2.1-4.1C33,5.7,35,4.4,37.5,3.9C38,3.9,38.6,3.9,39.1,3.9z"/>
			
				<path fill="none" stroke="#39424E" stroke-width="1.579" stroke-linecap="round" stroke-linejoin="round" stroke-miterlimit="10" d="
				M39.1,3.9c4.2,0.9,6.4,3.8,7.7,7.5c1.4,4.1,2.6,8.3,3.6,12.5c2.5,10.3,4.7,20.7,7.1,31.1c0.7,2.9,1.7,5.7,2.7,8.5
				c0.6,1.7,1.7,3.1,3.1,4.3c2.5,2.2,7.6,2.3,9.4-2.2c0.5-1.4,0.8-2.8,1.2-4.3c0.5,0,1,0,1.7,0c-0.1,1.2,0,2.4-0.2,3.5
				c-0.3,2-0.7,4.1-1.3,6c-0.9,2.6-2.7,4.6-5.5,5.4c-3.5,1.1-8-0.7-9.8-4.1c-1.1-2.1-2.1-4.5-2.7-6.8c-1.5-5.7-2.7-11.5-4-17.3
				c-0.5-2-0.9-4.1-1.4-6.4c-0.3,0.6-0.4,0.9-0.6,1.2C45.5,53.5,40.7,64.2,36,74.9c-0.3,0.7-0.6,0.9-1.3,0.9c-2.8,0-5.6,0-8.6,0
				c0.2-0.4,0.3-0.7,0.4-1C33.5,59.9,40.4,45,47.3,30.1c0.3-0.7,0.4-1.3,0.2-2c-0.9-4.1-1.8-8.1-3.7-11.8c-0.4-0.7-0.8-1.4-1.3-2.1
				c-3.4-4.7-9.1-2.9-11.1,0.9c-0.7,1.3-1,2.8-1.2,4.2c-0.2,1.2,0,1.1-1.3,1.1c-0.2,0-0.4,0-0.6-0.1c0-2.9,0.3-5.7,1.3-8.3
				c0.5-1.4,1.2-2.8,2.1-4.1C33,5.7,35,4.4,37.5,3.9C38,3.9,38.6,3.9,39.1,3.9z"/>
		</g>
	</g>
	<g display="inline" opacity="0.4">
		<path fill="none" stroke="#FFF8CB" stroke-linecap="round" stroke-linejoin="round" stroke-miterlimit="10" d="M35.6,6.5
			c0.6-0.3,1.2-0.5,1.8-0.6c0.5,0,1.1,0,1.6,0c4.2,0.9,5.6,4.7,6.8,8.4"/>
	</g>
	<g display="inline" opacity="0.4">
		<g>
			<path fill="none" stroke="#FFF8CB" stroke-linecap="round" stroke-linejoin="round" stroke-miterlimit="10" d="M35.1,62
				c4.1-8.9,8.2-17.8,12.4-26.6"/>
		</g>
		<g>
			<path fill="none" stroke="#FFF8CB" stroke-linecap="round" stroke-linejoin="round" stroke-miterlimit="10" d="M32.4,67.9
				c0.2-0.4,0.4-0.8,0.6-1.3c0.2-0.4,0.4-0.9,0.6-1.3"/>
		</g>
		<g>
			<path fill="none" stroke="#FFF8CB" stroke-linecap="round" stroke-linejoin="round" stroke-miterlimit="10" d="M33.2,72.8
				c-1.5,0-1.5,0-3.1,0c0.2-0.4,0.3-0.7,0.4-1c0.4-0.9,0.8-1.8,1.2-2.6"/>
		</g>
	</g>
	<g display="inline">
		<g>
			<path fill="#47B86C" d="M44.8,8.5c1.4,4.1,2.6,8.3,3.6,12.5c2.5,10.3,4.7,20.7,7.1,31.1c0.7,2.9,1.7,5.7,2.7,8.5
				c0.5,1.3,1.2,2.5,2.2,3.5c-0.1-0.2-0.2-0.3-0.2-0.5c-1-2.8-2-5.6-2.7-8.5c-2.4-10.3-4.7-20.7-7.1-31.1c-1-4.2-2.2-8.4-3.6-12.5
				c-0.6-1.8-1.5-3.4-2.7-4.7C44.4,7.3,44.6,7.9,44.8,8.5z"/>
		</g>
		<g>
			<path fill="#47B86C" d="M34.7,73.3c-0.3,0.7-1,2.6-1.8,2.6c-1.7,0-3.8,0-2.4,0c1.4,0,2.7,0,4.1,0c0.7,0,1.1-0.2,1.3-0.9
				c4.6-10.5,9.2-20.9,13.8-31.4c-0.4-1.6,1.4-1.1,1-2.9c-0.3,0.6-1.8,0.1-2,0.5L34.7,73.3z"/>
		</g>
		<g>
			<path fill="#47B86C" d="M74.9,62c-0.4,1.5-0.7,2.9-1.2,4.3c0,0.1-0.1,0.1-0.1,0.2c-0.2,0.7-0.3,1.4-0.6,2
				c-0.9,2.6-2.7,4.6-5.5,5.4c-2.7,0.8-6.1-0.1-8.3-2.2c0.2,0.4,0.3,0.7,0.5,1.1c1.8,3.4,5.3,4.7,8.8,3.6c2.8-0.8,4.4-2.5,5.3-5.1
				c0.7-1.9,1.1-4.1,1.5-6.1c0.2-1.1,0.2-2.1,0.3-3.3C74.9,62,75.3,62,74.9,62z"/>
		</g>
	</g>
	<g display="inline">
		
			<path fill="none" stroke="#39424E" stroke-width="1.579" stroke-linecap="round" stroke-linejoin="round" stroke-miterlimit="10" d="
			M39.1,4c4.2,0.9,6.4,3.8,7.7,7.5c1.4,4.1,2.6,8.3,3.6,12.5c2.5,10.3,4.7,20.7,7.1,31.1c0.7,2.9,1.7,5.7,2.7,8.5
			c0.6,1.7,1.7,3.1,3.1,4.3c2.5,2.2,7.6,2.3,9.4-2.2c0.5-1.4,0.8-2.8,1.2-4.3c0.5,0,1,0,1.7,0c-0.1,1.2,0,2.4-0.2,3.5
			c-0.3,2-0.7,4.1-1.3,6c-0.9,2.6-2.7,4.6-5.5,5.4c-3.5,1.1-8-0.7-9.8-4.1c-1.1-2.1-2.1-4.5-2.7-6.8c-1.5-5.7-2.7-11.5-4-17.3
			c-0.5-2-0.9-4.1-1.4-6.4c-0.3,0.6-0.4,0.9-0.6,1.2C45.5,53.6,40.7,64.3,36,75c-0.3,0.7-0.6,0.9-1.3,0.9c-2.8,0-5.6,0-8.6,0
			c0.2-0.4,0.3-0.7,0.4-1C33.5,60,40.4,45.1,47.3,30.1c0.3-0.7,0.4-1.3,0.2-2c-0.9-4.1-1.8-8.1-3.7-11.8c-0.4-0.7-0.8-1.4-1.3-2.1
			c-3.4-4.7-9.1-2.9-11.1,0.9c-0.7,1.3-1,2.8-1.2,4.2c-0.2,1.2,0,1.1-1.3,1.1c-0.2,0-0.4,0-0.6-0.1c0-2.9,0.3-5.7,1.3-8.3
			c0.5-1.4,1.2-2.8,2.1-4.1C33,5.8,35,4.5,37.5,4C38,4,38.6,4,39.1,4z"/>
	</g>
</g>
<g id="Layer_4" display="none">
	<g display="inline">
		<g>
			
				<path fill="none" stroke="#979FAF" stroke-width="1.579" stroke-linecap="round" stroke-linejoin="round" stroke-miterlimit="10" stroke-opacity="0.25" d="
				M74.1,37c-1,0-0.7,0-1.7,0c0.2-5.3,0.1-5.9,0-8c1,0,0.6,0,1.6,0C75.5,28.9,75.5,37,74.1,37z M28.3,28.9c-1,0-0.4,0-1.4,0
				c-1.5,0-1.5,8,0,8c1,0,0.5,0,1.5,0C28.3,34.4,28.3,30.8,28.3,28.9z M29.8,46c2,2,39.2,2,41.2,0c2-2,2-25.1,0-27.1
				c-2-2-39.2-2-41.2,0C27.8,20.9,27.8,44,29.8,46z M72.6,77.4C72.6,65,68,53.1,66.7,52c-1.2-1-8.3-1.5-15.5-1.5l0,0c0,0,0,0,0,0
				c0,0,0,0,0,0l0,0C44,50.5,36.9,51,35.7,52c-1.3,1-5.9,13-5.9,25.4c0,1.9,0.6,1.9,0.6,1.9H72C72,79.4,72.6,79.4,72.6,77.4z
				 M25.2,58.4c-1.3,2.5-4.7,20.7-4.7,20.7l5.5,0c0,0,1.4-10.1,3.2-17.3c1-4.3,2.1-7.7,2.3-8.1C31.7,52.8,26.1,56.5,25.2,58.4z
				 M70.9,53.9c0.1,0.4,1.2,3.8,2.3,8.1c1.7,7.2,3.2,17.3,3.2,17.3l5.5,0c0,0-3.4-18.2-4.7-20.7C76.2,56.5,70.6,52.8,70.9,53.9z"/>
			
				<path fill="#0AD264" stroke="#39424E" stroke-width="1.579" stroke-linecap="round" stroke-linejoin="round" stroke-miterlimit="10" d="
				M73.1,36c-1,0-0.7,0-1.7,0c0.2-5.3,0.1-5.9,0-8c1,0,0.6,0,1.6,0C74.5,27.9,74.5,36,73.1,36z M27.3,27.9c-1,0-0.4,0-1.4,0
				c-1.5,0-1.5,8,0,8c1,0,0.5,0,1.5,0C27.3,33.4,27.3,29.8,27.3,27.9z M28.8,45c2,2,39.2,2,41.2,0c2-2,2-25.1,0-27.1
				c-2-2-39.2-2-41.2,0C26.8,19.9,26.8,43,28.8,45z M71.6,76.4C71.6,64,67,52.1,65.7,51c-1.2-1-8.3-1.5-15.5-1.5l0,0c0,0,0,0,0,0
				c0,0,0,0,0,0l0,0C43,49.5,35.9,50,34.7,51c-1.3,1-5.9,13-5.9,25.4c0,1.9,0.6,1.9,0.6,1.9H71C71,78.4,71.6,78.4,71.6,76.4z
				 M24.2,57.4c-1.3,2.5-4.7,20.7-4.7,20.7l5.5,0c0,0,1.4-10.1,3.2-17.3c1-4.3,2.1-7.7,2.3-8.1C30.7,51.8,25.1,55.5,24.2,57.4z
				 M69.9,52.9c0.1,0.4,1.2,3.8,2.3,8.1c1.7,7.2,3.2,17.3,3.2,17.3l5.5,0c0,0-3.4-18.2-4.7-20.7C75.2,55.5,69.6,51.8,69.9,52.9z"/>
			<g opacity="0.4">
				<g>
					<path fill="none" stroke="#FFF8CB" stroke-linecap="round" stroke-miterlimit="10" d="M47.6,18.9c2.3,0,4.6,0,6.9,0"/>
					<path fill="none" stroke="#FFF8CB" stroke-linecap="round" stroke-miterlimit="10" d="M29.7,34.5c0-1.8,0-3.8,0-4.5
						c0.1-1.5,0.3-9.1,1.1-9.9c0.8-0.8,6.5-0.9,13.5-1.1"/>
					<path fill="none" stroke="#FFF8CB" stroke-linecap="round" stroke-miterlimit="10" d="M29.7,38.1c0,0,0-0.8,0-1.9"/>
				</g>
				<g>
					<path fill="none" stroke="#FFF8CB" stroke-linecap="round" stroke-miterlimit="10" d="M49.2,51.8c0.9,0,1.9,0,2.8,0"/>
					<path fill="none" stroke="#FFF8CB" stroke-linecap="round" stroke-miterlimit="10" d="M33.7,60.4c0.2-0.8,0.5-1.6,0.7-2.3
						c0.9-2.9,1.7-4.7,2.2-5.1c1-0.8,5.4-1,10.7-1.1"/>
					<path fill="none" stroke="#FFF8CB" stroke-linecap="round" stroke-miterlimit="10" d="M32.5,65.6c0.3-1.4,0.5-2.7,0.8-3.9"/>
				</g>
			</g>
			<g display="none" opacity="0.4">
				<path display="inline" fill="#FFF8CB" d="M25.9,36c1,0,0.5,0,1.5,0c0,0,0-0.1,0-0.1c0.2,4.5,0.7,8.4,1.4,9.1
					c0.3,0.3,1.5,0.6,3.2,0.8c-0.3-1.7-0.6-5.6-0.6-6.8c0-1.2,0,0.1,0,0.1s-0.1-6.6,0-8c0.1-1.5,0.6-9.2,1.5-10
					c1.7-1.7,28.5-2,38-0.8c-0.2-1.2-0.5-2-0.8-2.3c-2-2-39.2-2-41.2,0c-0.8,0.8-1.3,5.1-1.5,10c-1,0-0.4,0-1.4,0
					C24.4,27.9,24.4,36,25.9,36z"/>
				<path display="inline" fill="#FFF8CB" d="M76.2,64c-1-4.3-2.1-7.7-2.3-8.1c-0.1-0.4,0.5-0.1,1.4,0.4c-1.8-1.9-5.7-4.4-5.4-3.5
					c0.1,0.2,0.5,1.6,1.1,3.5c1.7,4,4.3,12.7,4.6,21.8l3.3,0C78.3,74.6,77.3,68.7,76.2,64z"/>
				<path display="inline" fill="#FFF8CB" d="M28.2,60.5C28.2,60.5,28.2,60.5,28.2,60.5c1.1-4.1,2.1-7.3,2.2-7.7
					c0.3-1-5.3,2.7-6.2,4.6c-1.3,2.5-4.7,20.7-4.7,20.7l4.6,0C25.1,72.9,27.3,62.4,28.2,60.5z"/>
				<path display="inline" fill="#FFF8CB" d="M38.7,54.1c1.2-1,8.3-1.5,15.5-1.5c0,0,0,0,0,0c0,0,0,0,0,0c4.9,0,9.8,0.2,12.8,0.7
					c-0.6-1.3-1-2.1-1.3-2.4c-0.9-0.7-4.9-1.2-9.8-1.4c-3.1,0-6.2,0-9.1-0.1c-5.9,0.1-11,0.6-12,1.4c-0.5,0.4-1.6,2.6-2.7,6
					c-0.3,2.7-3.2,17.4-2.6,21.4c0,0,0,0,0,0h3.4C33.1,66.4,37.5,55.1,38.7,54.1z"/>
			</g>
			<g>
				<path fill="#47B86C" d="M68.5,25.8c0,1.9,0,3.8,0,5.6C68.6,28.2,68.5,27.2,68.5,25.8z"/>
				<path fill="#47B86C" d="M68.4,33C68.4,33,68.4,33,68.4,33c0-0.5,0-1,0.1-1.6C68.4,31.9,68.4,32.4,68.4,33z"/>
				<path fill="#47B86C" d="M68.4,24.9c0,0.3,0,0.6,0,0.9C68.5,25.5,68.5,25.2,68.4,24.9L68.4,24.9z"/>
				<path fill="#47B86C" d="M65.7,51c-0.3-0.2-0.9-0.4-1.6-0.6c1.8,4.3,4.5,13.5,4.5,23c0,1.9-0.6,1.9-0.6,1.9H28.9
					c0,0.4,0,0.7,0,1.1c0,1.9,0.6,1.9,0.6,1.9H71c0,0,0.6,0,0.6-1.9C71.6,64,67,52.1,65.7,51z"/>
				<path fill="#47B86C" d="M76.1,57.4c-0.4-0.8-1.7-2-3-2.9c1.3,2.7,4.7,20.7,4.7,20.7l-2.9,0c0.3,1.8,0.5,3,0.5,3l5.5,0
					C80.8,78.2,77.4,59.9,76.1,57.4z"/>
				<path fill="#47B86C" d="M29.4,53c-1,0.5-1.1,0.5-2.3,1.5c-0.2,0.7-0.9,4.2-1.1,4.9c-1.7,7.2-2.6,15.9-2.6,15.9l-3.3-0.2
					c-0.4,1.8-0.6,3-0.6,3l5.5,0c0,0,0.3-2.4,0.9-5.7C26,64.9,27.7,57.7,29.4,53z"/>
				<path fill="#47B86C" d="M68.4,33c0,0.5-0.7,8.3-1.4,9c-1.8,1.8-30.6,2-39,0.6c0.2,1.2,0.5,2,0.8,2.4c2,2,39.2,2,41.2,0
					c0.8-0.8,1.2-4.5,1.4-9c0,0,0,0,0,0c0-0.6,0-1.1,0.1-1.6c0-1.8,0.1-3.8,0-5.6c0-0.3,0-0.5,0-0.9h0c-0.2-4.9-0.6-9.2-1.5-10
					c-0.2-0.2-1-0.5-2.2-0.6c0.3,1.9,0.5,7.1,0.7,7.7S68.4,32.5,68.4,33z"/>
			</g>
			
				<path fill="none" stroke="#39424E" stroke-width="1.579" stroke-linecap="round" stroke-linejoin="round" stroke-miterlimit="10" d="
				M73.1,36c-1,0-0.7,0-1.7,0c0.2-5.3,0.1-5.9,0-8c1,0,0.6,0,1.6,0C74.5,27.9,74.5,36,73.1,36z M27.3,27.9c-1,0-0.4,0-1.4,0
				c-1.5,0-1.5,8,0,8c1,0,0.5,0,1.5,0C27.3,33.4,27.3,29.8,27.3,27.9z M28.8,45c2,2,39.2,2,41.2,0c2-2,2-25.1,0-27.1
				c-2-2-39.2-2-41.2,0C26.8,19.9,26.8,43,28.8,45z M71.6,76.4C71.6,64,67,52.1,65.7,51c-1.2-1-8.3-1.5-15.5-1.5l0,0c0,0,0,0,0,0
				c0,0,0,0,0,0l0,0C43,49.5,35.9,50,34.7,51c-1.3,1-5.9,13-5.9,25.4c0,1.9,0.6,1.9,0.6,1.9H71C71,78.4,71.6,78.4,71.6,76.4z
				 M24.2,57.4c-1.3,2.5-4.7,20.7-4.7,20.7l5.5,0c0,0,1.4-10.1,3.2-17.3c1-4.3,2.1-7.7,2.3-8.1C30.7,51.8,25.1,55.5,24.2,57.4z
				 M69.9,52.9c0.1,0.4,1.2,3.8,2.3,8.1c1.7,7.2,3.2,17.3,3.2,17.3l5.5,0c0,0-3.4-18.2-4.7-20.7C75.2,55.5,69.6,51.8,69.9,52.9z"/>
			<path fill="#39424E" d="M64.2,28.2c0,2.5-1.6,4.5-3.5,4.5c-1.9,0-3.5-2-3.5-4.5c0-2.5,1.6-4.5,3.5-4.5
				C62.6,23.7,64.2,25.7,64.2,28.2z M61.7,26.7c0-0.6-0.4-1-1-1c-0.6,0-1,0.5-1,1c0,0.6,0.4,1,1,1C61.2,27.7,61.7,27.3,61.7,26.7z
				 M43.2,28.2c0,2.5-1.6,4.5-3.5,4.5c-1.9,0-3.5-2-3.5-4.5c0-2.5,1.6-4.5,3.5-4.5C41.6,23.7,43.2,25.7,43.2,28.2z M40.7,26.7
				c0-0.6-0.5-1-1-1c-0.6,0-1,0.5-1,1c0,0.6,0.5,1,1,1C40.2,27.7,40.7,27.3,40.7,26.7z"/>
		</g>
		
			<path fill="#0AD264" stroke="#39424E" stroke-width="1.579" stroke-linecap="round" stroke-linejoin="round" stroke-miterlimit="10" d="
			M49.5,11.3c-0.6,0-1,0.4-1,1v4.1l2,0v-4.1C50.5,11.8,50,11.3,49.5,11.3z"/>
		<path fill="#39424E" d="M48.3,9.1l1.1-3.2l-1.1-0.4l3-2.5l-1.1,3.2l1.1,0.4L48.3,9.1z"/>
	</g>
</g>
<g id="Layer_5">
	<g>
		
			<path fill="none" stroke="#979FAF" stroke-width="1.5411" stroke-linecap="round" stroke-linejoin="round" stroke-miterlimit="10" stroke-opacity="0.25" d="
			M51.6,75.6c-32.8,0-49.2-3.9-45-8.1c4.2-4.2,20.6-10,45-10c24.4,0,40.3,5.7,44.7,10C100.7,71.9,84.4,75.6,51.6,75.6z M51.6,57.5
			l0.1-54.1"/>
		<g>
			
				<path fill="#0AD264" stroke="#39424E" stroke-width="1.5411" stroke-linecap="round" stroke-linejoin="round" stroke-miterlimit="10" d="
				M50.6,74.6c-32.8,0-49.2-3.9-45-8.1c4.2-4.2,20.6-10,45-10c24.4,0,40.3,5.7,44.7,10C99.7,70.9,83.4,74.6,50.6,74.6z"/>
			<path fill="#24B060" d="M95.3,66.5c-0.8-0.8-2-1.6-3.5-2.5c0.2,0.2,0.4,0.3,0.5,0.5c4.4,4.4-11.9,8.1-44.7,8.1
				c-21.8,0-36.4-1.7-42.4-4.1C7,71.8,23,74.6,50.6,74.6C83.4,74.6,99.7,70.9,95.3,66.5z"/>
			
				<path fill="none" stroke="#39424E" stroke-width="1.5411" stroke-linecap="round" stroke-linejoin="round" stroke-miterlimit="10" d="
				M50.6,74.6c-32.8,0-49.2-3.9-45-8.1c4.2-4.2,20.6-10,45-10c24.4,0,40.3,5.7,44.7,10C99.7,70.9,83.4,74.6,50.6,74.6z"/>
			<path opacity="0.4" fill="none" stroke="#FFF8CB" stroke-linecap="round" stroke-linejoin="round" stroke-miterlimit="10" d="
				M14.8,63.7c4.2-1.8,8.4-2.8,13.1-3.8 M11.8,69.5c-2.2-0.6-3.6-1.2-3.5-1.9c1.6-1.3,3.3-2.4,5.1-3.3"/>
		</g>
		
			<path fill="#3E96DA" fill-opacity="0.15" stroke="#39424E" stroke-width="1.5411" stroke-linecap="round" stroke-linejoin="round" stroke-miterlimit="10" d="
			M50.8,63.2V2.4"/>
		
			<polygon fill="#0AD264" stroke="#39424E" stroke-width="1.5411" stroke-linecap="round" stroke-linejoin="round" stroke-miterlimit="10" points="
			51.8,4.7 51.8,18 58.5,15.7 58.5,10 58.5,6.5 		"/>
		
			<polygon fill="none" stroke="#39424E" stroke-width="1.5411" stroke-linecap="round" stroke-linejoin="round" stroke-miterlimit="10" points="
			51.8,4.7 51.8,18 58.5,15.7 58.5,10 58.5,6.5 		"/>
		
			<path fill="#0AD264" stroke="#39424E" stroke-width="1.5411" stroke-linecap="round" stroke-linejoin="round" stroke-miterlimit="10" d="
			M58.5,8.1c0,0,0,5,0,10.3c0,0.8,21.1-4.6,22.5-5.5C82.1,12.3,58.5,8.1,58.5,8.1z"/>
		
			<polygon fill="none" stroke="#24B060" stroke-width="1.5411" stroke-linecap="round" stroke-linejoin="round" stroke-miterlimit="10" points="
			59.4,17.7 59.4,11.9 59.4,8.4 		"/>
		
			<path fill="none" stroke="#39424E" stroke-width="1.5411" stroke-linecap="round" stroke-linejoin="round" stroke-miterlimit="10" d="
			M58.5,8.1c0,0,0,5,0,10.3c0,0.8,21.1-4.6,22.5-5.5C82.1,12.3,58.5,8.1,58.5,8.1z"/>
		<path fill="#47B86C" d="M55.1,61.4c0.5,0.4,0.7,0.8,0.7,1.2c0,0.4-0.2,0.9-0.7,1.2c-1.2,1-3.6,1.6-6.5,1.6c-1.7,0-3.3-0.2-4.5-0.6
			c1.2,1,3.6,1.6,6.5,1.6c2.9,0,5.4-0.7,6.5-1.6c0.4-0.4,0.7-0.8,0.7-1.2C57.8,62.7,56.8,61.9,55.1,61.4z"/>
		<path fill="none" stroke="#39424E" stroke-width="1.4545" stroke-linecap="round" stroke-miterlimit="10" d="M47.8,61
			c-2.6,0.4-4.4,1.5-4.4,2.6c0,1.6,3.2,2.9,7.2,2.9c2.9,0,5.4-0.7,6.5-1.6c0.4-0.4,0.7-0.8,0.7-1.2c0-1.1-1.6-2.1-4-2.6"/>
		<ellipse fill="#24B060" cx="66.3" cy="67.1" rx="2.2" ry="1.5"/>
		<circle fill="#FFF8CB" stroke="#FFF8CB" stroke-linecap="round" stroke-miterlimit="10" cx="65.7" cy="65.6" r="1.5"/>
	</g>
</g>
</svg>
